  0
SECTION
  2
HEADER
  9
$ACADVER
  1
AC1032
  9
$ACADMAINTVER
 90
       55
  9
$DWGCODEPAGE
  3
ISO8859-1
  9
$LASTSAVEDBY
  1
User
  9
$REQUIREDVERSIONS
160
                 0
  9
$INSBASE
 10
0.0
 20
0.0
 30
0.0
  9
$EXTMIN
 10
1.000000000000000E+20
 20
1.000000000000000E+20
 30
1.000000000000000E+20
  9
$EXTMAX
 10
-1.000000000000000E+20
 20
-1.000000000000000E+20
 30
-1.000000000000000E+20
  9
$LIMMIN
 10
0.0
 20
0.0
  9
$LIMMAX
 10
420.0
 20
297.0
  9
$ORTHOMODE
 70
     0
  9
$REGENMODE
 70
     1
  9
$FILLMODE
 70
     1
  9
$QTEXTMODE
 70
     0
  9
$MIRRTEXT
 70
     1
  9
$LTSCALE
 40
1.0
  9
$ATTMODE
 70
     1
  9
$TEXTSIZE
 40
2.5
  9
$TRACEWID
 40
1.0
  9
$TEXTSTYLE
  7
Standard
  9
$CLAYER
  8
0
  9
$CELTYPE
  6
ByLayer
  9
$CECOLOR
 62
   256
  9
$CELTSCALE
 40
1.0
  9
$DISPSILH
 70
     0
  9
$DIMSCALE
 40
1.0
  9
$DIMASZ
 40
2.5
  9
$DIMEXO
 40
0.625
  9
$DIMDLI
 40
3.75
  9
$DIMRND
 40
0.0
  9
$DIMDLE
 40
0.0
  9
$DIMEXE
 40
1.25
  9
$DIMTP
 40
0.0
  9
$DIMTM
 40
0.0
  9
$DIMTXT
 40
2.5
  9
$DIMCEN
 40
2.5
  9
$DIMTSZ
 40
0.0
  9
$DIMTOL
 70
     0
  9
$DIMLIM
 70
     0
  9
$DIMTIH
 70
     0
  9
$DIMTOH
 70
     0
  9
$DIMSE1
 70
     0
  9
$DIMSE2
 70
     0
  9
$DIMTAD
 70
     1
  9
$DIMZIN
 70
     8
  9
$DIMBLK
  1

  9
$DIMASO
 70
     1
  9
$DIMSHO
 70
     1
  9
$DIMPOST
  1

  9
$DIMAPOST
  1

  9
$DIMALT
 70
     0
  9
$DIMALTD
 70
     3
  9
$DIMALTF
 40
0.03937007874016
  9
$DIMLFAC
 40
1.0
  9
$DIMTOFL
 70
     1
  9
$DIMTVP
 40
0.0
  9
$DIMTIX
 70
     0
  9
$DIMSOXD
 70
     0
  9
$DIMSAH
 70
     0
  9
$DIMBLK1
  1

  9
$DIMBLK2
  1

  9
$DIMSTYLE
  2
ISO-25
  9
$DIMCLRD
 70
     0
  9
$DIMCLRE
 70
     0
  9
$DIMCLRT
 70
     0
  9
$DIMTFAC
 40
1.0
  9
$DIMGAP
 40
0.625
  9
$DIMJUST
 70
     0
  9
$DIMSD1
 70
     0
  9
$DIMSD2
 70
     0
  9
$DIMTOLJ
 70
     0
  9
$DIMTZIN
 70
     8
  9
$DIMALTZ
 70
     0
  9
$DIMALTTZ
 70
     0
  9
$DIMUPT
 70
     0
  9
$DIMDEC
 70
     2
  9
$DIMTDEC
 70
     2
  9
$DIMALTU
 70
     2
  9
$DIMALTTD
 70
     3
  9
$DIMTXSTY
  7
Standard
  9
$DIMAUNIT
 70
     0
  9
$DIMADEC
 70
     0
  9
$DIMALTRND
 40
0.0
  9
$DIMAZIN
 70
     0
  9
$DIMDSEP
 70
    44
  9
$DIMATFIT
 70
     3
  9
$DIMFRAC
 70
     0
  9
$DIMLDRBLK
  1

  9
$DIMLUNIT
 70
     2
  9
$DIMLWD
 70
    -2
  9
$DIMLWE
 70
    -2
  9
$DIMTMOVE
 70
     0
  9
$DIMFXL
 40
1.0
  9
$DIMFXLON
 70
     0
  9
$DIMJOGANG
 40
0.7853981633974483
  9
$DIMTFILL
 70
     0
  9
$DIMTFILLCLR
 70
     0
  9
$DIMARCSYM
 70
     0
  9
$DIMLTYPE
  6

  9
$DIMLTEX1
  6

  9
$DIMLTEX2
  6

  9
$DIMTXTDIRECTION
 70
     0
  9
$LUNITS
 70
     2
  9
$LUPREC
 70
     4
  9
$SKETCHINC
 40
1.0
  9
$FILLETRAD
 40
0.0
  9
$AUNITS
 70
     0
  9
$AUPREC
 70
     0
  9
$MENU
  1
.
  9
$ELEVATION
 40
0.0
  9
$PELEVATION
 40
0.0
  9
$THICKNESS
 40
0.0
  9
$LIMCHECK
 70
     0
  9
$CHAMFERA
 40
0.0
  9
$CHAMFERB
 40
0.0
  9
$CHAMFERC
 40
0.0
  9
$CHAMFERD
 40
0.0
  9
$SKPOLY
 70
     0
  9
$TDCREATE
 40
2461208.016216157
  9
$TDUCREATE
 40
2461208.141216157
  9
$TDUPDATE
 40
2461208.016216192
  9
$TDUUPDATE
 40
2461208.141216192
  9
$TDINDWG
 40
0.0000000116
  9
$TDUSRTIMER
 40
0.0000000116
  9
$USRTIMER
 70
     1
  9
$ANGBASE
 50
0.0
  9
$ANGDIR
 70
     0
  9
$PDMODE
 70
     0
  9
$PDSIZE
 40
0.0
  9
$PLINEWID
 40
0.0
  9
$SPLFRAME
 70
     0
  9
$SPLINETYPE
 70
     6
  9
$SPLINESEGS
 70
     8
  9
$HANDSEED
  5
80
  9
$SURFTAB1
 70
     6
  9
$SURFTAB2
 70
     6
  9
$SURFTYPE
 70
     6
  9
$SURFU
 70
     6
  9
$SURFV
 70
     6
  9
$UCSBASE
  2

  9
$UCSNAME
  2

  9
$UCSORG
 10
0.0
 20
0.0
 30
0.0
  9
$UCSXDIR
 10
1.0
 20
0.0
 30
0.0
  9
$UCSYDIR
 10
0.0
 20
1.0
 30
0.0
  9
$UCSORTHOREF
  2

  9
$UCSORTHOVIEW
 70
     0
  9
$UCSORGTOP
 10
0.0
 20
0.0
 30
0.0
  9
$UCSORGBOTTOM
 10
0.0
 20
0.0
 30
0.0
  9
$UCSORGLEFT
 10
0.0
 20
0.0
 30
0.0
  9
$UCSORGRIGHT
 10
0.0
 20
0.0
 30
0.0
  9
$UCSORGFRONT
 10
0.0
 20
0.0
 30
0.0
  9
$UCSORGBACK
 10
0.0
 20
0.0
 30
0.0
  9
$PUCSBASE
  2

  9
$PUCSNAME
  2

  9
$PUCSORG
 10
0.0
 20
0.0
 30
0.0
  9
$PUCSXDIR
 10
1.0
 20
0.0
 30
0.0
  9
$PUCSYDIR
 10
0.0
 20
1.0
 30
0.0
  9
$PUCSORTHOREF
  2

  9
$PUCSORTHOVIEW
 70
     0
  9
$PUCSORGTOP
 10
0.0
 20
0.0
 30
0.0
  9
$PUCSORGBOTTOM
 10
0.0
 20
0.0
 30
0.0
  9
$PUCSORGLEFT
 10
0.0
 20
0.0
 30
0.0
  9
$PUCSORGRIGHT
 10
0.0
 20
0.0
 30
0.0
  9
$PUCSORGFRONT
 10
0.0
 20
0.0
 30
0.0
  9
$PUCSORGBACK
 10
0.0
 20
0.0
 30
0.0
  9
$USERI1
 70
     0
  9
$USERI2
 70
     0
  9
$USERI3
 70
     0
  9
$USERI4
 70
     0
  9
$USERI5
 70
     0
  9
$USERR1
 40
0.0
  9
$USERR2
 40
0.0
  9
$USERR3
 40
0.0
  9
$USERR4
 40
0.0
  9
$USERR5
 40
0.0
  9
$WORLDVIEW
 70
     1
  9
$SHADEDGE
 70
     3
  9
$SHADEDIF
 70
    70
  9
$TILEMODE
 70
     1
  9
$MAXACTVP
 70
    64
  9
$PINSBASE
 10
0.0
 20
0.0
 30
0.0
  9
$PLIMCHECK
 70
     0
  9
$PEXTMIN
 10
169.418
 20
254.0
 30
0.0
  9
$PEXTMAX
 10
0.0
 20
0.0
 30
0.0
  9
$PLIMMIN
 10
-20.0
 20
-7.5
  9
$PLIMMAX
 10
277.0
 20
202.5
  9
$UNITMODE
 70
     0
  9
$VISRETAIN
 70
     1
  9
$PLINEGEN
 70
     0
  9
$PSLTSCALE
 70
     1
  9
$TREEDEPTH
 70
  3020
  9
$CMLSTYLE
  2
Standard
  9
$CMLJUST
 70
     0
  9
$CMLSCALE
 40
20.0
  9
$PROXYGRAPHICS
 70
     1
  9
$MEASUREMENT
 70
     1
  9
$CELWEIGHT
370
    -1
  9
$ENDCAPS
280
     0
  9
$JOINSTYLE
280
     0
  9
$LWDISPLAY
290
     0
  9
$INSUNITS
 70
     4
  9
$HYPERLINKBASE
  1

  9
$STYLESHEET
  1

  9
$XEDIT
290
     1
  9
$CEPSNTYPE
380
     0
  9
$PSTYLEMODE
290
     1
  9
$FINGERPRINTGUID
  2
{00b4f758-1c7d-4ea8-b24d-ae3c25d1c031}
  9
$VERSIONGUID
  2
{FAEB1C32-E019-11D5-929B-00C0DF256EC4}
  9
$EXTNAMES
290
     1
  9
$PSVPSCALE
 40
0.0
  9
$OLESTARTUP
290
     0
  9
$SORTENTS
280
   127
  9
$INDEXCTL
280
     0
  9
$HIDETEXT
280
     1
  9
$XCLIPFRAME
280
     2
  9
$HALOGAP
280
     0
  9
$OBSCOLOR
 70
   257
  9
$OBSLTYPE
280
     0
  9
$INTERSECTIONDISPLAY
280
     0
  9
$INTERSECTIONCOLOR
 70
   257
  9
$DIMASSOC
280
     2
  9
$PROJECTNAME
  1

  9
$CAMERADISPLAY
290
     0
  9
$LENSLENGTH
 40
50.0
  9
$CAMERAHEIGHT
 40
0.0
  9
$STEPSPERSEC
 40
2.0
  9
$STEPSIZE
 40
6.0
  9
$3DDWFPREC
 40
2.0
  9
$PSOLWIDTH
 40
5.0
  9
$PSOLHEIGHT
 40
80.0
  9
$LOFTANG1
 40
1.570796326794897
  9
$LOFTANG2
 40
1.570796326794897
  9
$LOFTMAG1
 40
0.0
  9
$LOFTMAG2
 40
0.0
  9
$LOFTPARAM
 70
     7
  9
$LOFTNORMALS
280
     1
  9
$LATITUDE
 40
37.795
  9
$LONGITUDE
 40
-122.394
  9
$NORTHDIRECTION
 40
0.0
  9
$TIMEZONE
 70
 -8000
  9
$LIGHTGLYPHDISPLAY
280
     1
  9
$TILEMODELIGHTSYNCH
280
     1
  9
$CMATERIAL
347
44
  9
$SOLIDHIST
280
     0
  9
$SHOWHIST
280
     1
  9
$DWFFRAME
280
     2
  9
$DGNFRAME
280
     2
  9
$REALWORLDSCALE
290
     1
  9
$INTERFERECOLOR
 62
   256
  9
$CSHADOW
280
     0
  9
$SHADOWPLANELOCATION
 40
0.0
  0
ENDSEC
  0
SECTION
  2
CLASSES
  0
CLASS
  1
ACDBDICTIONARYWDFLT
  2
AcDbDictionaryWithDefault
  3
ObjectDBX Classes
 90
        0
 91
        3
280
     0
281
     0
  0
CLASS
  1
VISUALSTYLE
  2
AcDbVisualStyle
  3
ObjectDBX Classes
 90
     4095
 91
        3
280
     0
281
     0
  0
CLASS
  1
MATERIAL
  2
AcDbMaterial
  3
ObjectDBX Classes
 90
     1153
 91
        3
280
     0
281
     0
  0
CLASS
  1
SCALE
  2
AcDbScale
  3
ObjectDBX Classes
 90
     1153
 91
        3
280
     0
281
     0
  0
CLASS
  1
TABLESTYLE
  2
AcDbTableStyle
  3
ObjectDBX Classes
 90
     4095
 91
        3
280
     0
281
     0
  0
CLASS
  1
MLEADERSTYLE
  2
AcDbMLeaderStyle
  3
ACDB_MLEADERSTYLE_CLASS
 90
     4095
 91
        3
280
     0
281
     0
  0
CLASS
  1
SUN
  2
AcDbSun
  3
SCENEOE
 90
     1153
 91
        3
280
     0
281
     0
  0
CLASS
  1
DICTIONARYVAR
  2
AcDbDictionaryVar
  3
ObjectDBX Classes
 90
        0
 91
        3
280
     0
281
     0
  0
CLASS
  1
CELLSTYLEMAP
  2
AcDbCellStyleMap
  3
ObjectDBX Classes
 90
     1152
 91
        3
280
     0
281
     0
  0
ENDSEC
  0
SECTION
  2
TABLES
  0
TABLE
  2
VPORT
  5
8
330
0
100
AcDbSymbolTable
 70
     1
  0
VPORT
  5
29
330
8
100
AcDbSymbolTableRecord
100
AcDbViewportTableRecord
  2
*Active
 70
     0
 10
0.0
 20
0.0
 11
1.0
 21
1.0
 12
1164.166666666667
 22
84.66666666666652
 13
0.0
 23
0.0
 14
10.0
 24
10.0
 15
10.0
 25
10.0
 16
0.0
 26
0.0
 36
1.0
 17
0.0
 27
0.0
 37
0.0
 40
169.3333333333333
 41
1.972972972850329
 42
50.0
 43
0.0
 44
0.0
 50
0.0
 51
0.0
 71
     0
 72
   100
 73
     1
 74
     3
 75
     0
 76
     0
 77
     0
 78
     0
281
     0
 65
     1
110
0.0
120
0.0
130
0.0
111
1.0
121
0.0
131
0.0
112
0.0
122
1.0
132
0.0
 79
     0
146
0.0
348
2F
 60
     3
 61
     5
292
     1
282
     1
141
0.0
142
0.0
 63
   250
361
5D
  0
ENDTAB
  0
TABLE
  2
LTYPE
  5
5
330
0
100
AcDbSymbolTable
 70
     1
  0
LTYPE
  5
14
330
5
100
AcDbSymbolTableRecord
100
AcDbLinetypeTableRecord
  2
ByBlock
 70
     0
  3

 72
    65
 73
     0
 40
0.0
  0
LTYPE
  5
15
330
5
100
AcDbSymbolTableRecord
100
AcDbLinetypeTableRecord
  2
ByLayer
 70
     0
  3

 72
    65
 73
     0
 40
0.0
  0
LTYPE
  5
16
330
5
100
AcDbSymbolTableRecord
100
AcDbLinetypeTableRecord
  2
Continuous
 70
     0
  3
Solid line
 72
    65
 73
     0
 40
0.0
  0
ENDTAB
  0
TABLE
  2
LAYER
  5
2
330
0
100
AcDbSymbolTable
 70
     1
  0
LAYER
  5
10
330
2
100
AcDbSymbolTableRecord
100
AcDbLayerTableRecord
  2
0
 70
     0
 62
     7
  6
Continuous
370
    -3
390
F
347
46
348
0
  0
ENDTAB
  0
TABLE
  2
STYLE
  5
3
330
0
100
AcDbSymbolTable
 70
     1
  0
STYLE
  5
11
330
3
100
AcDbSymbolTableRecord
100
AcDbTextStyleTableRecord
  2
Standard
 70
     0
 40
0.0
 41
1.0
 50
0.0
 71
     0
 42
2.5
  3
txt
  4

  0
ENDTAB
  0
TABLE
  2
VIEW
  5
6
330
0
100
AcDbSymbolTable
 70
     0
  0
ENDTAB
  0
TABLE
  2
UCS
  5
7
330
0
100
AcDbSymbolTable
 70
     0
  0
ENDTAB
  0
TABLE
  2
APPID
  5
9
330
0
100
AcDbSymbolTable
 70
     1
  0
APPID
  5
12
330
9
100
AcDbSymbolTableRecord
100
AcDbRegAppTableRecord
  2
ACAD
 70
     0
  0
ENDTAB
  0
TABLE
  2
DIMSTYLE
  5
A
330
0
100
AcDbSymbolTable
 70
     1
100
AcDbDimStyleTable
  0
DIMSTYLE
105
27
330
A
100
AcDbSymbolTableRecord
100
AcDbDimStyleTableRecord
  2
ISO-25
 70
     0
 41
2.5
 42
0.625
 43
3.75
 44
1.25
 73
     0
 74
     0
 77
     1
 78
     8
140
2.5
141
2.5
143
0.03937007874016
147
0.625
171
     3
172
     1
178
     0
271
     2
272
     2
274
     3
278
    44
283
     0
284
     8
340
11
  0
ENDTAB
  0
TABLE
  2
BLOCK_RECORD
  5
1
330
0
100
AcDbSymbolTable
 70
     0
  0
BLOCK_RECORD
  5
1F
330
1
100
AcDbSymbolTableRecord
100
AcDbBlockTableRecord
  2
*Model_Space
340
22
 70
     0
280
     1
281
     0
  0
BLOCK_RECORD
  5
6D
330
1
100
AcDbSymbolTableRecord
100
AcDbBlockTableRecord
  2
*Paper_Space
340
6E
 70
     0
280
     1
281
     0
  0
ENDTAB
  0
ENDSEC
  0
SECTION
  2
BLOCKS
  0
BLOCK
  5
20
330
1F
100
AcDbEntity
  8
0
100
AcDbBlockBegin
  2
*Model_Space
 70
     0
 10
0.0
 20
0.0
 30
0.0
  3
*Model_Space
  1

  0
ENDBLK
  5
21
330
1F
100
AcDbEntity
  8
0
100
AcDbBlockEnd
  0
BLOCK
  5
6F
330
6D
100
AcDbEntity
 67
     1
  8
0
100
AcDbBlockBegin
  2
*Paper_Space
 70
     0
 10
0.0
 20
0.0
 30
0.0
  3
*Paper_Space
  1

  0
ENDBLK
  5
70
330
6D
100
AcDbEntity
 67
     1
  8
0
100
AcDbBlockEnd
  0
ENDSEC
  0
SECTION
  2
ENTITIES
  0
HATCH
  5
5E
330
1F
100
AcDbEntity
  8
0
 62
    18
420
        0
440
 33554687
100
AcDbHatch
 10
0.0
 20
0.0
 30
0.0
210
0.0
220
0.0
230
1.0
  2
SOLID
 70
     1
 71
     1
 91
        2
 92
        0
 93
        1
 72
     4
 94
        3
 73
     0
 74
     1
 95
       56
 96
       52
 40
0.0
 40
0.0
 40
0.0
 40
0.0
 40
1.0
 40
1.0
 40
1.0
 40
2.0
 40
2.0
 40
2.0
 40
3.0
 40
3.0
 40
3.0
 40
4.0
 40
4.0
 40
4.0
 40
5.0
 40
5.0
 40
5.0
 40
6.0
 40
6.0
 40
6.0
 40
7.0
 40
7.0
 40
7.0
 40
8.0
 40
8.0
 40
8.0
 40
9.0
 40
9.0
 40
9.0
 40
10.0
 40
10.0
 40
10.0
 40
11.0
 40
11.0
 40
11.0
 40
12.0
 40
12.0
 40
12.0
 40
13.0
 40
13.0
 40
13.0
 40
14.0
 40
14.0
 40
14.0
 40
15.0
 40
15.0
 40
15.0
 40
16.0
 40
16.0
 40
16.0
 40
17.0
 40
17.0
 40
17.0
 40
17.0
 10
1131.366950005533
 20
81.01534133657515
 10
1130.882020822332
 20
81.01534133657515
 10
1130.44813681631
 20
81.13816879416208
 10
1130.065297987467
 20
81.38382370933641
 10
1129.682459158624
 20
81.62947862451074
 10
1129.384163904483
 20
81.95648679081432
 10
1129.170412225046
 20
82.36484820824671
 10
1128.956660545608
 20
82.77320962567956
 10
1128.84978470589
 20
83.21347427884939
 10
1128.84978470589
 20
83.68564216775576
 10
1128.84978470589
 20
84.15781005666213
 10
1128.956660545608
 20
84.59807470983196
 10
1129.170412225046
 20
85.00643612726435
 10
1129.384163904483
 20
85.4147975446972
 10
1129.682459158624
 20
85.74180571100078
 10
1130.065297987467
 20
85.9874606261751
 10
1130.44813681631
 20
86.23311554134943
 10
1130.882020822332
 20
86.35594299893637
 10
1131.366950005533
 20
86.35594299893637
 10
1131.717885598639
 20
86.35594299893637
 10
1132.036917956009
 20
86.27458974780757
 10
1132.324047077641
 20
86.11188324554905
 10
1132.611176199273
 20
85.94917674329099
 10
1132.802595613695
 20
85.73063957849263
 10
1132.898305320906
 20
85.45627175115533
 10
1132.898305320906
 20
85.45627175115533
 10
1132.955731145232
 20
85.45627175115533
 10
1132.955731145232
 20
85.45627175115533
 10
1132.955731145232
 20
85.45627175115533
 10
1132.955731145232
 20
88.05000481656771
 10
1132.955731145232
 20
88.05000481656771
 10
1132.955731145232
 20
88.05000481656771
 10
1134.314808987625
 20
88.05000481656771
 10
1134.314808987625
 20
88.05000481656771
 10
1134.314808987625
 20
88.05000481656771
 10
1134.314808987625
 20
81.14933492667024
 10
1134.314808987625
 20
81.14933492667024
 10
1134.314808987625
 20
81.14933492667024
 10
1133.003585998838
 20
81.14933492667024
 10
1133.003585998838
 20
81.14933492667024
 10
1133.003585998838
 20
81.14933492667024
 10
1133.003585998838
 20
81.89587064291436
 10
1133.003585998838
 20
81.89587064291436
 10
1133.003585998838
 20
81.89587064291436
 10
1132.93658920379
 20
81.89587064291436
 10
1132.93658920379
 20
81.89587064291436
 10
1132.840879496579
 20
81.63426410987131
 10
1132.646269758584
 20
81.42210759222098
 10
1132.352759989804
 20
81.25940108996247
 10
1132.059250221025
 20
81.0966945877044
 10
1131.730646892934
 20
81.01534133657515
 10
1131.366950005533
 20
81.01534133657515
 97
        0
 97
        0
 92
        0
 93
        1
 72
     4
 94
        3
 73
     0
 74
     1
 95
       32
 96
       28
 40
0.0
 40
0.0
 40
0.0
 40
0.0
 40
1.0
 40
1.0
 40
1.0
 40
2.0
 40
2.0
 40
2.0
 40
3.0
 40
3.0
 40
3.0
 40
4.0
 40
4.0
 40
4.0
 40
5.0
 40
5.0
 40
5.0
 40
6.0
 40
6.0
 40
6.0
 40
7.0
 40
7.0
 40
7.0
 40
8.0
 40
8.0
 40
8.0
 40
9.0
 40
9.0
 40
9.0
 40
9.0
 10
1131.587082332118
 20
82.25956753031505
 10
1131.848688865161
 20
82.25956753031505
 10
1132.083177647827
 20
82.32177884000203
 10
1132.290548680117
 20
82.44620145937597
 10
1132.497919712407
 20
82.57062407875037
 10
1132.660626214666
 20
82.74130638994257
 10
1132.778668186892
 20
82.95824839295392
 10
1132.896710159119
 20
83.17519039596527
 10
1132.955731145232
 20
83.41765498756558
 10
1132.955731145232
 20
83.68564216775576
 10
1132.955731145232
 20
84.10038423233573
 10
1132.826523040498
 20
84.44334401650758
 10
1132.568106831029
 20
84.71452152027177
 10
1132.30969062156
 20
84.98569902403551
 10
1131.982682455256
 20
85.12128777591761
 10
1131.587082332118
 20
85.12128777591761
 10
1131.19148220898
 20
85.12128777591761
 10
1130.86287888089
 20
84.98569902403551
 10
1130.601272347847
 20
84.71452152027177
 10
1130.339665814804
 20
84.44334401650758
 10
1130.208862548283
 20
84.10357455590929
 10
1130.208862548283
 20
83.6952131384769
 10
1130.208862548283
 20
83.28047107389693
 10
1130.339665814804
 20
82.93751128972463
 10
1130.601272347847
 20
82.66633378596089
 10
1130.86287888089
 20
82.39515628219715
 10
1131.19148220898
 20
82.25956753031505
 10
1131.587082332118
 20
82.25956753031505
 97
        0
 97
        0
 75
     0
 76
     1
 98
        0
  0
HATCH
  5
5F
330
1F
100
AcDbEntity
  8
0
 62
    18
420
        0
440
 33554687
100
AcDbHatch
 10
0.0
 20
0.0
 30
0.0
210
0.0
220
0.0
230
1.0
  2
SOLID
 70
     1
 71
     1
 91
        2
 92
        0
 93
        1
 72
     4
 94
        3
 73
     0
 74
     1
 95
       41
 96
       37
 40
0.0
 40
0.0
 40
0.0
 40
0.0
 40
1.0
 40
1.0
 40
1.0
 40
2.0
 40
2.0
 40
2.0
 40
3.0
 40
3.0
 40
3.0
 40
4.0
 40
4.0
 40
4.0
 40
5.0
 40
5.0
 40
5.0
 40
6.0
 40
6.0
 40
6.0
 40
7.0
 40
7.0
 40
7.0
 40
8.0
 40
8.0
 40
8.0
 40
9.0
 40
9.0
 40
9.0
 40
10.0
 40
10.0
 40
10.0
 40
11.0
 40
11.0
 40
11.0
 40
12.0
 40
12.0
 40
12.0
 40
12.0
 10
1137.674219710723
 20
81.01534133657515
 10
1137.170148586079
 20
81.01534133657515
 10
1136.713932315041
 20
81.13178814701496
 10
1136.305570897609
 20
81.36468176789458
 10
1135.897209480176
 20
81.59757538877375
 10
1135.57658196102
 20
81.91820290793021
 10
1135.34368834014
 20
82.3265643253626
 10
1135.110794719261
 20
82.73492574279544
 10
1134.994347908821
 20
83.18795169025952
 10
1134.994347908821
 20
83.68564216775576
 10
1134.994347908821
 20
84.18333264525154
 10
1135.110794719261
 20
84.63635859271608
 10
1135.34368834014
 20
85.04472001014892
 10
1135.57658196102
 20
85.45308142758176
 10
1135.897209480176
 20
85.77370894673777
 10
1136.305570897609
 20
86.00660256761739
 10
1136.713932315041
 20
86.23949618849656
 10
1137.170148586079
 20
86.35594299893637
 10
1137.674219710723
 20
86.35594299893637
 10
1138.178290835366
 20
86.35594299893637
 10
1138.636102268191
 20
86.23949618849656
 10
1139.047654009197
 20
86.00660256761739
 10
1139.459205750204
 20
85.77370894673777
 10
1139.781428431147
 20
85.45308142758176
 10
1140.014322052026
 20
85.04472001014892
 10
1140.247215672906
 20
84.63635859271608
 10
1140.363662483346
 20
84.18333264525154
 10
1140.363662483346
 20
83.68564216775576
 10
1140.363662483346
 20
83.18795169025952
 10
1140.247215672906
 20
82.73492574279544
 10
1140.014322052026
 20
82.3265643253626
 10
1139.781428431147
 20
81.91820290793021
 10
1139.459205750204
 20
81.59757538877375
 10
1139.047654009197
 20
81.36468176789458
 10
1138.636102268191
 20
81.13178814701496
 10
1138.178290835366
 20
81.01534133657515
 10
1137.674219710723
 20
81.01534133657515
 97
        0
 97
        0
 92
        0
 93
        1
 72
     4
 94
        3
 73
     0
 74
     1
 95
       38
 96
       34
 40
0.0
 40
0.0
 40
0.0
 40
0.0
 40
1.0
 40
1.0
 40
1.0
 40
2.0
 40
2.0
 40
2.0
 40
3.0
 40
3.0
 40
3.0
 40
4.0
 40
4.0
 40
4.0
 40
5.0
 40
5.0
 40
5.0
 40
6.0
 40
6.0
 40
6.0
 40
7.0
 40
7.0
 40
7.0
 40
8.0
 40
8.0
 40
8.0
 40
9.0
 40
9.0
 40
9.0
 40
10.0
 40
10.0
 40
10.0
 40
11.0
 40
11.0
 40
11.0
 40
11.0
 10
1137.674219710723
 20
82.25956753031505
 10
1137.929445596618
 20
82.25956753031505
 10
1138.157553732137
 20
82.31699335464191
 10
1138.35854411728
 20
82.43184500329471
 10
1138.559534502423
 20
82.54669665194751
 10
1138.71745551932
 20
82.71259347777959
 10
1138.832307167973
 20
82.92953548079049
 10
1138.947158816626
 20
83.14647748380185
 10
1139.004584640953
 20
83.3985130461233
 10
1139.004584640953
 20
83.68564216775576
 10
1139.004584640953
 20
83.97277128938822
 10
1138.947158816626
 20
84.22480685171013
 10
1138.832307167973
 20
84.44174885472103
 10
1138.71745551932
 20
84.65869085773193
 10
1138.559534502423
 20
84.82618284535101
 10
1138.35854411728
 20
84.94422481757738
 10
1138.157553732137
 20
85.0622667898042
 10
1137.929445596618
 20
85.12128777591761
 10
1137.674219710723
 20
85.12128777591761
 10
1137.29138088188
 20
85.12128777591761
 10
1136.975538848084
 20
84.99048450939608
 10
1136.726693609336
 20
84.72887797635349
 10
1136.477848370588
 20
84.46727144331044
 10
1136.353425751214
 20
84.11952617377801
 10
1136.353425751214
 20
83.68564216775576
 10
1136.353425751214
 20
83.3985130461233
 10
1136.41085157554
 20
83.14647748380185
 10
1136.525703224193
 20
82.92953548079049
 10
1136.640554872846
 20
82.71259347777959
 10
1136.796880727957
 20
82.54669665194751
 10
1136.994680789526
 20
82.43184500329471
 10
1137.192480851095
 20
82.31699335464191
 10
1137.418993824827
 20
82.25956753031505
 10
1137.674219710723
 20
82.25956753031505
 97
        0
 97
        0
 75
     0
 76
     1
 98
        0
  0
HATCH
  5
60
330
1F
100
AcDbEntity
  8
0
 62
    18
420
        0
440
 33554687
100
AcDbHatch
 10
0.0
 20
0.0
 30
0.0
210
0.0
220
0.0
230
1.0
  2
SOLID
 70
     1
 71
     1
 91
        1
 92
        0
 93
        1
 72
     4
 94
        3
 73
     0
 74
     1
 95
       59
 96
       55
 40
0.0
 40
0.0
 40
0.0
 40
0.0
 40
1.0
 40
1.0
 40
1.0
 40
2.0
 40
2.0
 40
2.0
 40
3.0
 40
3.0
 40
3.0
 40
4.0
 40
4.0
 40
4.0
 40
5.0
 40
5.0
 40
5.0
 40
6.0
 40
6.0
 40
6.0
 40
7.0
 40
7.0
 40
7.0
 40
8.0
 40
8.0
 40
8.0
 40
9.0
 40
9.0
 40
9.0
 40
10.0
 40
10.0
 40
10.0
 40
11.0
 40
11.0
 40
11.0
 40
12.0
 40
12.0
 40
12.0
 40
13.0
 40
13.0
 40
13.0
 40
14.0
 40
14.0
 40
14.0
 40
15.0
 40
15.0
 40
15.0
 40
16.0
 40
16.0
 40
16.0
 40
17.0
 40
17.0
 40
17.0
 40
18.0
 40
18.0
 40
18.0
 40
18.0
 10
1141.052772375264
 20
86.22194940884128
 10
1141.052772375264
 20
86.22194940884128
 10
1142.363995364052
 20
86.22194940884128
 10
1142.363995364052
 20
86.22194940884128
 10
1142.363995364052
 20
86.22194940884128
 10
1142.363995364052
 20
85.57112339980813
 10
1142.363995364052
 20
85.57112339980813
 10
1142.363995364052
 20
85.57112339980813
 10
1142.421421188378
 20
85.57112339980813
 10
1142.421421188378
 20
85.57112339980813
 10
1142.561795425621
 20
85.78806540281903
 10
1142.761190648977
 20
85.97150900830638
 10
1143.019606858446
 20
86.1214542162702
 10
1143.278023067915
 20
86.271399424234
 10
1143.582698969203
 20
86.34637202821568
 10
1143.933634562309
 20
86.34637202821568
 10
1144.259047566825
 20
86.34637202821568
 10
1144.562128306326
 20
86.26023329172585
 10
1144.842876780811
 20
86.0879558187462
 10
1145.123625255296
 20
85.91567834576699
 10
1145.348543067242
 20
85.68118956310082
 10
1145.517630216647
 20
85.38448947074721
 10
1145.686717366053
 20
85.08778937839361
 10
1145.771260940756
 20
84.75759088851646
 10
1145.771260940756
 20
84.39389400111531
 10
1145.771260940756
 20
84.39389400111531
 10
1145.771260940756
 20
81.14933492667024
 10
1145.771260940756
 20
81.14933492667024
 10
1145.771260940756
 20
81.14933492667024
 10
1144.412183098363
 20
81.14933492667024
 10
1144.412183098363
 20
81.14933492667024
 10
1144.412183098363
 20
81.14933492667024
 10
1144.412183098363
 20
84.06848099659874
 10
1144.412183098363
 20
84.06848099659874
 10
1144.412183098363
 20
84.40665529541047
 10
1144.319663714726
 20
84.67304731381364
 10
1144.134624947451
 20
84.86765705180869
 10
1143.949586180177
 20
85.0622667898042
 10
1143.700740941429
 20
85.15957165880172
 10
1143.388089231207
 20
85.15957165880172
 10
1143.08819881528
 20
85.15957165880172
 10
1142.848924547253
 20
85.06067162801719
 10
1142.670266427126
 20
84.86287156644858
 10
1142.491608307
 20
84.6650715048795
 10
1142.402279246936
 20
84.4002746482629
 10
1142.402279246936
 20
84.06848099659874
 10
1142.402279246936
 20
84.06848099659874
 10
1142.402279246936
 20
81.14933492667024
 10
1142.402279246936
 20
81.14933492667024
 10
1142.402279246936
 20
81.14933492667024
 10
1141.052772375264
 20
81.14933492667024
 10
1141.052772375264
 20
81.14933492667024
 10
1141.052772375264
 20
81.14933492667024
 10
1141.052772375264
 20
86.22194940884128
 10
1141.052772375264
 20
86.22194940884128
 97
        0
 97
        0
 75
     0
 76
     1
 98
        0
  0
HATCH
  5
61
330
1F
100
AcDbEntity
  8
0
 62
    18
420
        0
440
 33554687
100
AcDbHatch
 10
0.0
 20
0.0
 30
0.0
210
0.0
220
0.0
230
1.0
  2
SOLID
 70
     1
 71
     1
 91
        1
 92
        0
 93
        1
 72
     4
 94
        3
 73
     0
 74
     1
 95
       26
 96
       22
 40
0.0
 40
0.0
 40
0.0
 40
0.0
 40
1.0
 40
1.0
 40
1.0
 40
2.0
 40
2.0
 40
2.0
 40
3.0
 40
3.0
 40
3.0
 40
4.0
 40
4.0
 40
4.0
 40
5.0
 40
5.0
 40
5.0
 40
6.0
 40
6.0
 40
6.0
 40
7.0
 40
7.0
 40
7.0
 40
7.0
 10
1146.393374037626
 20
87.60974016339787
 10
1146.367851449037
 20
87.80754022496649
 10
1146.418896626216
 20
87.97503221258557
 10
1146.546509569163
 20
88.11221612625422
 10
1146.674122512111
 20
88.24940003992288
 10
1146.830448367222
 20
88.31799199675788
 10
1147.015487134496
 20
88.31799199675788
 10
1147.20052590177
 20
88.31799199675788
 10
1147.355256595094
 20
88.24940003992288
 10
1147.479679214469
 20
88.11221612625422
 10
1147.604101833843
 20
87.97503221258557
 10
1147.653551849235
 20
87.80754022496649
 10
1147.628029260645
 20
87.60974016339787
 10
1147.628029260645
 20
87.60974016339787
 10
1147.369613051176
 20
85.39884592682893
 10
1147.369613051176
 20
85.39884592682893
 10
1147.369613051176
 20
85.39884592682893
 10
1146.642219276374
 20
85.39884592682893
 10
1146.642219276374
 20
85.39884592682893
 10
1146.642219276374
 20
85.39884592682893
 10
1146.393374037626
 20
87.60974016339787
 10
1146.393374037626
 20
87.60974016339787
 97
        0
 97
        0
 75
     0
 76
     1
 98
        0
  0
HATCH
  5
62
330
1F
100
AcDbEntity
  8
0
 62
    18
420
        0
440
 33554687
100
AcDbHatch
 10
0.0
 20
0.0
 30
0.0
210
0.0
220
0.0
230
1.0
  2
SOLID
 70
     1
 71
     1
 91
        1
 92
        0
 93
        1
 72
     4
 94
        3
 73
     0
 74
     1
 95
       62
 96
       58
 40
0.0
 40
0.0
 40
0.0
 40
0.0
 40
1.0
 40
1.0
 40
1.0
 40
2.0
 40
2.0
 40
2.0
 40
3.0
 40
3.0
 40
3.0
 40
4.0
 40
4.0
 40
4.0
 40
5.0
 40
5.0
 40
5.0
 40
6.0
 40
6.0
 40
6.0
 40
7.0
 40
7.0
 40
7.0
 40
8.0
 40
8.0
 40
8.0
 40
9.0
 40
9.0
 40
9.0
 40
10.0
 40
10.0
 40
10.0
 40
11.0
 40
11.0
 40
11.0
 40
12.0
 40
12.0
 40
12.0
 40
13.0
 40
13.0
 40
13.0
 40
14.0
 40
14.0
 40
14.0
 40
15.0
 40
15.0
 40
15.0
 40
16.0
 40
16.0
 40
16.0
 40
17.0
 40
17.0
 40
17.0
 40
18.0
 40
18.0
 40
18.0
 40
19.0
 40
19.0
 40
19.0
 40
19.0
 10
1148.967965161596
 20
85.0160070979855
 10
1148.967965161596
 20
85.0160070979855
 10
1148.03001003093
 20
85.0160070979855
 10
1148.03001003093
 20
85.0160070979855
 10
1148.03001003093
 20
85.0160070979855
 10
1148.03001003093
 20
86.22194940884128
 10
1148.03001003093
 20
86.22194940884128
 10
1148.03001003093
 20
86.22194940884128
 10
1148.967965161596
 20
86.22194940884128
 10
1148.967965161596
 20
86.22194940884128
 10
1148.967965161596
 20
86.22194940884128
 10
1148.967965161596
 20
87.35132395392839
 10
1148.967965161596
 20
87.35132395392839
 10
1148.967965161596
 20
87.35132395392839
 10
1150.317472033268
 20
87.61931113411856
 10
1150.317472033268
 20
87.61931113411856
 10
1150.317472033268
 20
87.61931113411856
 10
1150.317472033268
 20
86.22194940884128
 10
1150.317472033268
 20
86.22194940884128
 10
1150.317472033268
 20
86.22194940884128
 10
1151.772259582872
 20
86.22194940884128
 10
1151.772259582872
 20
86.22194940884128
 10
1151.772259582872
 20
86.22194940884128
 10
1151.772259582872
 20
85.0160070979855
 10
1151.772259582872
 20
85.0160070979855
 10
1151.772259582872
 20
85.0160070979855
 10
1150.317472033268
 20
85.0160070979855
 10
1150.317472033268
 20
85.0160070979855
 10
1150.317472033268
 20
85.0160070979855
 10
1150.317472033268
 20
82.93910645151163
 10
1150.317472033268
 20
82.93910645151163
 10
1150.317472033268
 20
82.69664185991132
 10
1150.390849475463
 20
82.51479341621052
 10
1150.537604359853
 20
82.39356112041014
 10
1150.684359244243
 20
82.27232882460976
 10
1150.859827040796
 20
82.2117126767098
 10
1151.064007749512
 20
82.2117126767098
 10
1151.357517518292
 20
82.2117126767098
 10
1151.593601462745
 20
82.24042558887322
 10
1151.772259582872
 20
82.29785141319962
 10
1151.772259582872
 20
82.29785141319962
 10
1151.772259582872
 20
81.14933492667024
 10
1151.772259582872
 20
81.14933492667024
 10
1151.60636275704
 20
81.11743169093324
 10
1151.461203034437
 20
81.0950994259174
 10
1151.336780415063
 20
81.08233813162224
 10
1151.212357795689
 20
81.06957683732799
 10
1151.051246455218
 20
81.0631961901804
 10
1150.853446393649
 20
81.0631961901804
 10
1150.298330091826
 20
81.0631961901804
 10
1149.845304144362
 20
81.21952204529134
 10
1149.494368551256
 20
81.53217375551321
 10
1149.143432958149
 20
81.84482546573508
 10
1148.967965161596
 20
82.26275785388907
 10
1148.967965161596
 20
82.78597091997426
 10
1148.967965161596
 20
82.78597091997426
 10
1148.967965161596
 20
85.0160070979855
 10
1148.967965161596
 20
85.0160070979855
 97
        0
 97
        0
 75
     0
 76
     1
 98
        0
  0
HATCH
  5
63
330
1F
100
AcDbEntity
  8
0
 62
    18
420
        0
440
 33554687
100
AcDbHatch
 10
0.0
 20
0.0
 30
0.0
210
0.0
220
0.0
230
1.0
  2
SOLID
 70
     1
 71
     1
 91
        1
 92
        0
 93
        5
 72
     1
 10
1155.131670305971
 20
81.14933492667024
 11
1153.782163434299
 21
81.14933492667024
 72
     1
 10
1153.782163434299
 20
81.14933492667024
 11
1153.782163434299
 21
82.2691385010362
 72
     1
 10
1153.782163434299
 20
82.2691385010362
 11
1153.79173440502
 21
88.05000481656771
 72
     1
 10
1153.79173440502
 20
88.05000481656771
 11
1155.141241276692
 21
88.05000481656771
 72
     1
 10
1155.141241276692
 20
88.05000481656771
 11
1155.131670305971
 21
81.14933492667024
 97
        0
 75
     0
 76
     1
 98
        0
  0
HATCH
  5
64
330
1F
100
AcDbEntity
  8
0
 62
    18
420
        0
440
 33554687
100
AcDbHatch
 10
0.0
 20
0.0
 30
0.0
210
0.0
220
0.0
230
1.0
  2
SOLID
 70
     1
 71
     1
 91
        2
 92
        0
 93
        4
 72
     1
 10
1156.146193202404
 20
86.22194940884128
 11
1157.495700074076
 21
86.22194940884128
 72
     1
 10
1157.495700074076
 20
86.22194940884128
 11
1157.495700074076
 21
81.14933492667024
 72
     1
 10
1157.495700074076
 20
81.14933492667024
 11
1156.146193202404
 21
81.14933492667024
 72
     1
 10
1156.146193202404
 20
81.14933492667024
 11
1156.146193202404
 21
86.22194940884128
 97
        0
 92
        0
 93
        1
 72
     4
 94
        3
 73
     0
 74
     1
 95
       29
 96
       25
 40
0.0
 40
0.0
 40
0.0
 40
0.0
 40
1.0
 40
1.0
 40
1.0
 40
2.0
 40
2.0
 40
2.0
 40
3.0
 40
3.0
 40
3.0
 40
4.0
 40
4.0
 40
4.0
 40
5.0
 40
5.0
 40
5.0
 40
6.0
 40
6.0
 40
6.0
 40
7.0
 40
7.0
 40
7.0
 40
8.0
 40
8.0
 40
8.0
 40
8.0
 10
1156.844874065043
 20
86.70049794489523
 10
1156.612478932222
 20
86.70049794489523
 10
1156.418766472732
 20
86.77866087245093
 10
1156.263736686572
 20
86.93498672756186
 10
1156.108806598025
 20
87.0913125826728
 10
1156.031341553751
 20
87.27954167352027
 10
1156.031341553751
 20
87.49967400010519
 10
1156.031341553751
 20
87.7198063266901
 10
1156.108806598025
 20
87.90803541753803
 10
1156.263736686572
 20
88.06436127264897
 10
1156.418766472732
 20
88.2206871277599
 10
1156.612478932222
 20
88.2988500553156
 10
1156.844874065043
 20
88.2988500553156
 10
1157.075873431301
 20
88.2988500553156
 10
1157.269187100344
 20
88.2206871277599
 10
1157.424815072173
 20
88.06436127264897
 10
1157.580542741614
 20
87.90803541753803
 10
1157.658406576335
 20
87.7198063266901
 10
1157.658406576335
 20
87.49967400010519
 10
1157.658406576335
 20
87.27954167352027
 10
1157.581838810566
 20
87.0913125826728
 10
1157.428703279029
 20
86.93498672756186
 10
1157.275567747492
 20
86.77866087245093
 10
1157.080958009496
 20
86.70049794489523
 10
1156.844874065043
 20
86.70049794489523
 97
        0
 97
        0
 75
     0
 76
     1
 98
        0
  0
HATCH
  5
65
330
1F
100
AcDbEntity
  8
0
 62
    18
420
        0
440
 33554687
100
AcDbHatch
 10
0.0
 20
0.0
 30
0.0
210
0.0
220
0.0
230
1.0
  2
SOLID
 70
     1
 71
     1
 91
        1
 92
        0
 93
        1
 72
     4
 94
        3
 73
     0
 74
     1
 95
       92
 96
       88
 40
0.0
 40
0.0
 40
0.0
 40
0.0
 40
1.0
 40
1.0
 40
1.0
 40
2.0
 40
2.0
 40
2.0
 40
3.0
 40
3.0
 40
3.0
 40
4.0
 40
4.0
 40
4.0
 40
5.0
 40
5.0
 40
5.0
 40
6.0
 40
6.0
 40
6.0
 40
7.0
 40
7.0
 40
7.0
 40
8.0
 40
8.0
 40
8.0
 40
9.0
 40
9.0
 40
9.0
 40
10.0
 40
10.0
 40
10.0
 40
11.0
 40
11.0
 40
11.0
 40
12.0
 40
12.0
 40
12.0
 40
13.0
 40
13.0
 40
13.0
 40
14.0
 40
14.0
 40
14.0
 40
15.0
 40
15.0
 40
15.0
 40
16.0
 40
16.0
 40
16.0
 40
17.0
 40
17.0
 40
17.0
 40
18.0
 40
18.0
 40
18.0
 40
19.0
 40
19.0
 40
19.0
 40
20.0
 40
20.0
 40
20.0
 40
21.0
 40
21.0
 40
21.0
 40
22.0
 40
22.0
 40
22.0
 40
23.0
 40
23.0
 40
23.0
 40
24.0
 40
24.0
 40
24.0
 40
25.0
 40
25.0
 40
25.0
 40
26.0
 40
26.0
 40
26.0
 40
27.0
 40
27.0
 40
27.0
 40
28.0
 40
28.0
 40
28.0
 40
29.0
 40
29.0
 40
29.0
 40
29.0
 10
1160.328707407516
 20
81.01534133657515
 10
1159.862920165757
 20
81.01534133657515
 10
1159.457749071898
 20
81.08712361698281
 10
1159.113194125939
 20
81.2306881777995
 10
1158.76863917998
 20
81.37425273861527
 10
1158.440035851889
 20
81.59917055056076
 10
1158.127384141668
 20
81.90544161363505
 10
1158.127384141668
 20
81.90544161363505
 10
1158.979200535844
 20
82.78597091997426
 10
1158.979200535844
 20
82.78597091997426
 10
1159.189761891707
 20
82.56902891696336
 10
1159.397132923997
 20
82.40632241470485
 10
1159.601313632714
 20
82.29785141319962
 10
1159.80549434143
 20
82.18938041169395
 10
1160.032007315162
 20
82.13514491094111
 10
1160.28085255391
 20
82.13514491094111
 10
1160.504175204069
 20
82.13514491094111
 10
1160.679643000622
 20
82.17502395561223
 10
1160.80725594357
 20
82.25478204495448
 10
1160.934868886517
 20
82.33454013429719
 10
1160.998675357991
 20
82.44460629758942
 10
1160.998675357991
 20
82.58498053483208
 10
1160.998675357991
 20
82.7253547720743
 10
1160.93327372473
 20
82.83382577357997
 10
1160.802470458209
 20
82.91039353934866
 10
1160.671667191687
 20
82.98696130511735
 10
1160.440368732595
 20
83.06033874731202
 10
1160.108575080931
 20
83.13052586593312
 10
1159.534316837666
 20
83.2389968674388
 10
1159.106813478791
 20
83.42084531113915
 10
1158.826065004306
 20
83.67607119703462
 10
1158.545316529821
 20
83.93129708293009
 10
1158.404942292579
 20
84.29180364675722
 10
1158.404942292579
 20
84.75759088851646
 10
1158.404942292579
 20
85.03833936300134
 10
1158.483105220134
 20
85.30154105783095
 10
1158.639431075245
 20
85.54719597300573
 10
1158.795756930356
 20
85.79285088818006
 10
1159.022269904088
 20
85.98905578796212
 10
1159.318969996442
 20
86.13581067235191
 10
1159.615670088795
 20
86.2825655567417
 10
1159.968200843688
 20
86.35594299893637
 10
1160.376562261121
 20
86.35594299893637
 10
1160.855110797175
 20
86.35594299893637
 10
1161.233164140657
 20
86.28097039495469
 10
1161.510722291569
 20
86.13102518699088
 10
1161.78828044248
 20
85.98107997902753
 10
1162.057862784457
 20
85.74659119636135
 10
1162.3194693175
 20
85.4275588389919
 10
1162.3194693175
 20
85.4275588389919
 10
1161.34323030395
 20
84.67145215202663
 10
1161.34323030395
 20
84.67145215202663
 10
1161.202856066707
 20
84.8820135078904
 10
1161.057696344104
 20
85.03195871585422
 10
1160.907751136141
 20
85.12128777591761
 10
1160.757805928177
 20
85.210616835981
 10
1160.580742969837
 20
85.2552813660127
 10
1160.376562261121
 20
85.2552813660127
 10
1160.185142846699
 20
85.2552813660127
 10
1160.030412153375
 20
85.210616835981
 10
1159.912370181149
 20
85.12128777591761
 10
1159.794328208922
 20
85.03195871585422
 10
1159.735307222809
 20
84.9266780379221
 10
1159.735307222809
 20
84.80544574212172
 10
1159.735307222809
 20
84.68421344632179
 10
1159.794328208922
 20
84.58690857732381
 10
1159.912370181149
 20
84.51353113512914
 10
1160.030412153375
 20
84.44015369293402
 10
1160.22023640601
 20
84.37156173609947
 10
1160.481842939053
 20
84.30775526462594
 10
1160.934868886517
 20
84.20566491026784
 10
1161.293780288558
 20
84.09081326161458
 10
1161.558577145174
 20
83.96320031866708
 10
1161.823374001791
 20
83.83558737571911
 10
1162.019578901573
 20
83.67128571167405
 10
1162.14719184452
 20
83.47029532653141
 10
1162.274804787468
 20
83.26930494138878
 10
1162.338611258942
 20
83.00929357013274
 10
1162.338611258942
 20
82.69026121276374
 10
1162.338611258942
 20
82.35846756109959
 10
1162.254067684239
 20
82.06655295410701
 10
1162.084980534833
 20
81.8145173917851
 10
1161.915893385428
 20
81.5624818294632
 10
1161.678214279188
 20
81.36627692968113
 10
1161.371943216113
 20
81.22590269243892
 10
1161.065672153039
 20
81.08552845519625
 10
1160.717926883506
 20
81.01534133657515
 10
1160.328707407516
 20
81.01534133657515
 97
        0
 97
        0
 75
     0
 76
     1
 98
        0
  0
HATCH
  5
66
330
1F
100
AcDbEntity
  8
0
 62
    18
420
        0
440
 33554687
100
AcDbHatch
 10
0.0
 20
0.0
 30
0.0
210
0.0
220
0.0
230
1.0
  2
SOLID
 70
     1
 71
     1
 91
        1
 92
        0
 93
        1
 72
     4
 94
        3
 73
     0
 74
     1
 95
       62
 96
       58
 40
0.0
 40
0.0
 40
0.0
 40
0.0
 40
1.0
 40
1.0
 40
1.0
 40
2.0
 40
2.0
 40
2.0
 40
3.0
 40
3.0
 40
3.0
 40
4.0
 40
4.0
 40
4.0
 40
5.0
 40
5.0
 40
5.0
 40
6.0
 40
6.0
 40
6.0
 40
7.0
 40
7.0
 40
7.0
 40
8.0
 40
8.0
 40
8.0
 40
9.0
 40
9.0
 40
9.0
 40
10.0
 40
10.0
 40
10.0
 40
11.0
 40
11.0
 40
11.0
 40
12.0
 40
12.0
 40
12.0
 40
13.0
 40
13.0
 40
13.0
 40
14.0
 40
14.0
 40
14.0
 40
15.0
 40
15.0
 40
15.0
 40
16.0
 40
16.0
 40
16.0
 40
17.0
 40
17.0
 40
17.0
 40
18.0
 40
18.0
 40
18.0
 40
19.0
 40
19.0
 40
19.0
 40
19.0
 10
1163.429701921144
 20
85.0160070979855
 10
1163.429701921144
 20
85.0160070979855
 10
1162.491746790479
 20
85.0160070979855
 10
1162.491746790479
 20
85.0160070979855
 10
1162.491746790479
 20
85.0160070979855
 10
1162.491746790479
 20
86.22194940884128
 10
1162.491746790479
 20
86.22194940884128
 10
1162.491746790479
 20
86.22194940884128
 10
1163.429701921144
 20
86.22194940884128
 10
1163.429701921144
 20
86.22194940884128
 10
1163.429701921144
 20
86.22194940884128
 10
1163.429701921144
 20
87.35132395392839
 10
1163.429701921144
 20
87.35132395392839
 10
1163.429701921144
 20
87.35132395392839
 10
1164.779208792816
 20
87.61931113411856
 10
1164.779208792816
 20
87.61931113411856
 10
1164.779208792816
 20
87.61931113411856
 10
1164.779208792816
 20
86.22194940884128
 10
1164.779208792816
 20
86.22194940884128
 10
1164.779208792816
 20
86.22194940884128
 10
1166.23399634242
 20
86.22194940884128
 10
1166.23399634242
 20
86.22194940884128
 10
1166.23399634242
 20
86.22194940884128
 10
1166.23399634242
 20
85.0160070979855
 10
1166.23399634242
 20
85.0160070979855
 10
1166.23399634242
 20
85.0160070979855
 10
1164.779208792816
 20
85.0160070979855
 10
1164.779208792816
 20
85.0160070979855
 10
1164.779208792816
 20
85.0160070979855
 10
1164.779208792816
 20
82.93910645151163
 10
1164.779208792816
 20
82.93910645151163
 10
1164.779208792816
 20
82.69664185991132
 10
1164.852586235011
 20
82.51479341621052
 10
1164.999341119401
 20
82.39356112041014
 10
1165.146096003791
 20
82.27232882460976
 10
1165.321563800344
 20
82.2117126767098
 10
1165.52574450906
 20
82.2117126767098
 10
1165.81925427784
 20
82.2117126767098
 10
1166.055338222293
 20
82.24042558887322
 10
1166.23399634242
 20
82.29785141319962
 10
1166.23399634242
 20
82.29785141319962
 10
1166.23399634242
 20
81.14933492667024
 10
1166.23399634242
 20
81.14933492667024
 10
1166.068099516588
 20
81.11743169093324
 10
1165.922939793985
 20
81.0950994259174
 10
1165.798517174611
 20
81.08233813162224
 10
1165.674094555237
 20
81.06957683732799
 10
1165.512983214766
 20
81.0631961901804
 10
1165.315183153197
 20
81.0631961901804
 10
1164.760066851374
 20
81.0631961901804
 10
1164.30704090391
 20
81.21952204529134
 10
1163.956105310804
 20
81.53217375551321
 10
1163.605169717697
 20
81.84482546573508
 10
1163.429701921144
 20
82.26275785388907
 10
1163.429701921144
 20
82.78597091997426
 10
1163.429701921144
 20
82.78597091997426
 10
1163.429701921144
 20
85.0160070979855
 10
1163.429701921144
 20
85.0160070979855
 97
        0
 97
        0
 75
     0
 76
     1
 98
        0
  0
HATCH
  5
67
330
1F
100
AcDbEntity
  8
0
 62
    18
420
        0
440
 33554687
100
AcDbHatch
 10
0.0
 20
0.0
 30
0.0
210
0.0
220
0.0
230
1.0
  2
SOLID
 70
     1
 71
     1
 91
        2
 92
        0
 93
        1
 72
     4
 94
        3
 73
     0
 74
     1
 95
       62
 96
       58
 40
0.0
 40
0.0
 40
0.0
 40
0.0
 40
1.0
 40
1.0
 40
1.0
 40
2.0
 40
2.0
 40
2.0
 40
3.0
 40
3.0
 40
3.0
 40
4.0
 40
4.0
 40
4.0
 40
5.0
 40
5.0
 40
5.0
 40
6.0
 40
6.0
 40
6.0
 40
7.0
 40
7.0
 40
7.0
 40
8.0
 40
8.0
 40
8.0
 40
9.0
 40
9.0
 40
9.0
 40
10.0
 40
10.0
 40
10.0
 40
11.0
 40
11.0
 40
11.0
 40
12.0
 40
12.0
 40
12.0
 40
13.0
 40
13.0
 40
13.0
 40
14.0
 40
14.0
 40
14.0
 40
15.0
 40
15.0
 40
15.0
 40
16.0
 40
16.0
 40
16.0
 40
17.0
 40
17.0
 40
17.0
 40
18.0
 40
18.0
 40
18.0
 40
19.0
 40
19.0
 40
19.0
 40
19.0
 10
1167.665211449017
 20
83.21666460242295
 10
1167.69707892592
 20
83.10941651232451
 10
1167.740029966233
 20
83.00573099617986
 10
1167.794064569956
 20
82.90560805398809
 10
1167.902535571461
 20
82.70461766884546
 10
1168.055671102999
 20
82.54031600479993
 10
1168.253471164567
 20
82.41270306185243
 10
1168.451271226136
 20
82.28509011890446
 10
1168.690545494163
 20
82.22128364743094
 10
1168.971293968648
 20
82.22128364743094
 10
1169.220139207396
 20
82.22128364743094
 10
1169.45622315185
 20
82.27392398639677
 10
1169.679545802008
 20
82.37920466432843
 10
1169.902868452167
 20
82.48448534226054
 10
1170.081526572293
 20
82.62645474128976
 10
1170.215520162388
 20
82.80511286141655
 10
1170.215520162388
 20
82.80511286141655
 10
1171.105620439449
 20
81.90544161363505
 10
1171.105620439449
 20
81.90544161363505
 10
1170.875917142143
 20
81.64383508059245
 10
1170.569646079068
 20
81.43008340115512
 10
1170.186807250225
 20
81.26418657532304
 10
1169.803968421382
 20
81.09828974949096
 10
1169.386036033228
 20
81.01534133657515
 10
1168.933010085764
 20
81.01534133657515
 10
1168.403416372531
 20
81.01534133657515
 10
1167.934438807198
 20
81.12859782344094
 10
1167.526077389766
 20
81.35511079717298
 10
1167.117715972333
 20
81.58162377090548
 10
1166.801873938537
 20
81.89587064291436
 10
1166.578551288379
 20
82.29785141319962
 10
1166.35522863822
 20
82.69983218348489
 10
1166.243567313141
 20
83.14966780737541
 10
1166.243567313141
 20
83.64735828487119
 10
1166.243567313141
 20
84.20247458669382
 10
1166.356823800007
 20
84.68421344632179
 10
1166.583336773739
 20
85.09257486375418
 10
1166.809849747471
 20
85.50093628118657
 10
1167.122501457693
 20
85.8135879914089
 10
1167.521291904405
 20
86.0305299944198
 10
1167.920082351117
 20
86.2474719974307
 10
1168.36832281322
 20
86.35594299893637
 10
1168.866013290716
 20
86.35594299893637
 10
1169.357323121065
 20
86.35594299893637
 10
1169.7896119653
 20
86.2490671592177
 10
1170.162879823422
 20
86.03531547978037
 10
1170.536147681544
 20
85.82156380034303
 10
1170.824871964964
 20
85.52007822262885
 10
1171.02905267368
 20
85.13085874663875
 10
1171.233233382396
 20
84.7416392706482
 10
1171.335323736754
 20
84.29180364675722
 10
1171.335323736754
 20
83.78135187496628
 10
1171.335323736754
 20
83.60907440198707
 10
1171.32256244246
 20
83.42084531113915
 10
1171.29703985387
 20
83.21666460242295
 10
1171.29703985387
 20
83.21666460242295
 10
1167.665211449017
 20
83.21666460242295
 10
1167.665211449017
 20
83.21666460242295
 97
        0
 97
        0
 92
        0
 93
        1
 72
     4
 94
        3
 73
     0
 74
     1
 95
       20
 96
       16
 40
0.0
 40
0.0
 40
0.0
 40
0.0
 40
1.0
 40
1.0
 40
1.0
 40
2.0
 40
2.0
 40
2.0
 40
3.0
 40
3.0
 40
3.0
 40
4.0
 40
4.0
 40
4.0
 40
5.0
 40
5.0
 40
5.0
 40
5.0
 10
1167.641667219467
 20
84.21373886131005
 10
1167.641667219467
 20
84.21373886131005
 10
1169.962866483356
 20
84.18794775837705
 10
1169.962866483356
 20
84.18794775837705
 10
1169.93154230255
 20
84.47856248279277
 10
1169.849863369728
 20
84.71151289441696
 10
1169.717829684892
 20
84.88679899325098
 10
1169.532790917618
 20
85.1324539084253
 10
1169.242471472412
 20
85.2552813660127
 10
1168.846871349274
 20
85.2552813660127
 10
1168.464032520431
 20
85.2552813660127
 10
1168.16095178093
 20
85.12607326127818
 10
1167.937629130772
 20
84.86765705180869
 10
1167.790527696961
 20
84.69743967839895
 10
1167.691873726526
 20
84.47946694823258
 10
1167.641667219467
 20
84.21373886131005
 97
        0
 97
        0
 75
     0
 76
     1
 98
        0
  0
HATCH
  5
68
330
1F
100
AcDbEntity
  8
0
 62
    18
420
        0
440
 33554687
100
AcDbHatch
 10
0.0
 20
0.0
 30
0.0
210
0.0
220
0.0
230
1.0
  2
SOLID
 70
     1
 71
     1
 91
        1
 92
        0
 93
        1
 72
     4
 94
        3
 73
     0
 74
     1
 95
       59
 96
       55
 40
0.0
 40
0.0
 40
0.0
 40
0.0
 40
1.0
 40
1.0
 40
1.0
 40
2.0
 40
2.0
 40
2.0
 40
3.0
 40
3.0
 40
3.0
 40
4.0
 40
4.0
 40
4.0
 40
5.0
 40
5.0
 40
5.0
 40
6.0
 40
6.0
 40
6.0
 40
7.0
 40
7.0
 40
7.0
 40
8.0
 40
8.0
 40
8.0
 40
9.0
 40
9.0
 40
9.0
 40
10.0
 40
10.0
 40
10.0
 40
11.0
 40
11.0
 40
11.0
 40
12.0
 40
12.0
 40
12.0
 40
13.0
 40
13.0
 40
13.0
 40
14.0
 40
14.0
 40
14.0
 40
15.0
 40
15.0
 40
15.0
 40
16.0
 40
16.0
 40
16.0
 40
17.0
 40
17.0
 40
17.0
 40
18.0
 40
18.0
 40
18.0
 40
18.0
 10
1172.024433628673
 20
86.22194940884128
 10
1172.024433628673
 20
86.22194940884128
 10
1173.335656617461
 20
86.22194940884128
 10
1173.335656617461
 20
86.22194940884128
 10
1173.335656617461
 20
86.22194940884128
 10
1173.335656617461
 20
85.57112339980813
 10
1173.335656617461
 20
85.57112339980813
 10
1173.335656617461
 20
85.57112339980813
 10
1173.393082441787
 20
85.57112339980813
 10
1173.393082441787
 20
85.57112339980813
 10
1173.53345667903
 20
85.78806540281903
 10
1173.732851902385
 20
85.97150900830638
 10
1173.991268111854
 20
86.1214542162702
 10
1174.249684321323
 20
86.271399424234
 10
1174.554360222611
 20
86.34637202821568
 10
1174.905295815717
 20
86.34637202821568
 10
1175.230708820234
 20
86.34637202821568
 10
1175.533789559735
 20
86.26023329172585
 10
1175.81453803422
 20
86.0879558187462
 10
1176.095286508705
 20
85.91567834576699
 10
1176.32020432065
 20
85.68118956310082
 10
1176.489291470056
 20
85.38448947074721
 10
1176.658378619461
 20
85.08778937839361
 10
1176.742922194164
 20
84.75759088851646
 10
1176.742922194164
 20
84.39389400111531
 10
1176.742922194164
 20
84.39389400111531
 10
1176.742922194164
 20
81.14933492667024
 10
1176.742922194164
 20
81.14933492667024
 10
1176.742922194164
 20
81.14933492667024
 10
1175.383844351771
 20
81.14933492667024
 10
1175.383844351771
 20
81.14933492667024
 10
1175.383844351771
 20
81.14933492667024
 10
1175.383844351771
 20
84.06848099659874
 10
1175.383844351771
 20
84.06848099659874
 10
1175.383844351771
 20
84.40665529541047
 10
1175.291324968134
 20
84.67304731381364
 10
1175.10628620086
 20
84.86765705180869
 10
1174.921247433586
 20
85.0622667898042
 10
1174.672402194838
 20
85.15957165880172
 10
1174.359750484616
 20
85.15957165880172
 10
1174.059860068689
 20
85.15957165880172
 10
1173.820585800662
 20
85.06067162801719
 10
1173.641927680535
 20
84.86287156644858
 10
1173.463269560408
 20
84.6650715048795
 10
1173.373940500345
 20
84.4002746482629
 10
1173.373940500345
 20
84.06848099659874
 10
1173.373940500345
 20
84.06848099659874
 10
1173.373940500345
 20
81.14933492667024
 10
1173.373940500345
 20
81.14933492667024
 10
1173.373940500345
 20
81.14933492667024
 10
1172.024433628673
 20
81.14933492667024
 10
1172.024433628673
 20
81.14933492667024
 10
1172.024433628673
 20
81.14933492667024
 10
1172.024433628673
 20
86.22194940884128
 10
1172.024433628673
 20
86.22194940884128
 97
        0
 97
        0
 75
     0
 76
     1
 98
        0
  0
HATCH
  5
69
330
1F
100
AcDbEntity
  8
0
 62
    18
420
        0
440
 33554687
100
AcDbHatch
 10
0.0
 20
0.0
 30
0.0
210
0.0
220
0.0
230
1.0
  2
SOLID
 70
     1
 71
     1
 91
        1
 92
        0
 93
        1
 72
     4
 94
        3
 73
     0
 74
     1
 95
       62
 96
       58
 40
0.0
 40
0.0
 40
0.0
 40
0.0
 40
1.0
 40
1.0
 40
1.0
 40
2.0
 40
2.0
 40
2.0
 40
3.0
 40
3.0
 40
3.0
 40
4.0
 40
4.0
 40
4.0
 40
5.0
 40
5.0
 40
5.0
 40
6.0
 40
6.0
 40
6.0
 40
7.0
 40
7.0
 40
7.0
 40
8.0
 40
8.0
 40
8.0
 40
9.0
 40
9.0
 40
9.0
 40
10.0
 40
10.0
 40
10.0
 40
11.0
 40
11.0
 40
11.0
 40
12.0
 40
12.0
 40
12.0
 40
13.0
 40
13.0
 40
13.0
 40
14.0
 40
14.0
 40
14.0
 40
15.0
 40
15.0
 40
15.0
 40
16.0
 40
16.0
 40
16.0
 40
17.0
 40
17.0
 40
17.0
 40
18.0
 40
18.0
 40
18.0
 40
19.0
 40
19.0
 40
19.0
 40
19.0
 10
1179.671639234814
 20
85.0160070979855
 10
1179.671639234814
 20
85.0160070979855
 10
1178.733684104148
 20
85.0160070979855
 10
1178.733684104148
 20
85.0160070979855
 10
1178.733684104148
 20
85.0160070979855
 10
1178.733684104148
 20
86.22194940884128
 10
1178.733684104148
 20
86.22194940884128
 10
1178.733684104148
 20
86.22194940884128
 10
1179.671639234814
 20
86.22194940884128
 10
1179.671639234814
 20
86.22194940884128
 10
1179.671639234814
 20
86.22194940884128
 10
1179.671639234814
 20
87.35132395392839
 10
1179.671639234814
 20
87.35132395392839
 10
1179.671639234814
 20
87.35132395392839
 10
1181.021146106486
 20
87.61931113411856
 10
1181.021146106486
 20
87.61931113411856
 10
1181.021146106486
 20
87.61931113411856
 10
1181.021146106486
 20
86.22194940884128
 10
1181.021146106486
 20
86.22194940884128
 10
1181.021146106486
 20
86.22194940884128
 10
1182.47593365609
 20
86.22194940884128
 10
1182.47593365609
 20
86.22194940884128
 10
1182.47593365609
 20
86.22194940884128
 10
1182.47593365609
 20
85.0160070979855
 10
1182.47593365609
 20
85.0160070979855
 10
1182.47593365609
 20
85.0160070979855
 10
1181.021146106486
 20
85.0160070979855
 10
1181.021146106486
 20
85.0160070979855
 10
1181.021146106486
 20
85.0160070979855
 10
1181.021146106486
 20
82.93910645151163
 10
1181.021146106486
 20
82.93910645151163
 10
1181.021146106486
 20
82.69664185991132
 10
1181.094523548681
 20
82.51479341621052
 10
1181.241278433071
 20
82.39356112041014
 10
1181.388033317461
 20
82.27232882460976
 10
1181.563501114014
 20
82.2117126767098
 10
1181.76768182273
 20
82.2117126767098
 10
1182.06119159151
 20
82.2117126767098
 10
1182.297275535963
 20
82.24042558887322
 10
1182.47593365609
 20
82.29785141319962
 10
1182.47593365609
 20
82.29785141319962
 10
1182.47593365609
 20
81.14933492667024
 10
1182.47593365609
 20
81.14933492667024
 10
1182.310036830258
 20
81.11743169093324
 10
1182.164877107655
 20
81.0950994259174
 10
1182.040454488281
 20
81.08233813162224
 10
1181.916031868907
 20
81.06957683732799
 10
1181.754920528435
 20
81.0631961901804
 10
1181.557120466867
 20
81.0631961901804
 10
1181.002004165044
 20
81.0631961901804
 10
1180.54897821758
 20
81.21952204529134
 10
1180.198042624473
 20
81.53217375551321
 10
1179.847107031367
 20
81.84482546573508
 10
1179.671639234814
 20
82.26275785388907
 10
1179.671639234814
 20
82.78597091997426
 10
1179.671639234814
 20
82.78597091997426
 10
1179.671639234814
 20
85.0160070979855
 10
1179.671639234814
 20
85.0160070979855
 97
        0
 97
        0
 75
     0
 76
     1
 98
        0
  0
HATCH
  5
6A
330
1F
100
AcDbEntity
  8
0
 62
    18
420
        0
440
 33554687
100
AcDbHatch
 10
0.0
 20
0.0
 30
0.0
210
0.0
220
0.0
230
1.0
  2
SOLID
 70
     1
 71
     1
 91
        2
 92
        0
 93
        1
 72
     4
 94
        3
 73
     0
 74
     1
 95
       41
 96
       37
 40
0.0
 40
0.0
 40
0.0
 40
0.0
 40
1.0
 40
1.0
 40
1.0
 40
2.0
 40
2.0
 40
2.0
 40
3.0
 40
3.0
 40
3.0
 40
4.0
 40
4.0
 40
4.0
 40
5.0
 40
5.0
 40
5.0
 40
6.0
 40
6.0
 40
6.0
 40
7.0
 40
7.0
 40
7.0
 40
8.0
 40
8.0
 40
8.0
 40
9.0
 40
9.0
 40
9.0
 40
10.0
 40
10.0
 40
10.0
 40
11.0
 40
11.0
 40
11.0
 40
12.0
 40
12.0
 40
12.0
 40
12.0
 10
1185.165376428713
 20
81.01534133657515
 10
1184.661305304069
 20
81.01534133657515
 10
1184.205089033031
 20
81.13178814701496
 10
1183.796727615598
 20
81.36468176789458
 10
1183.388366198166
 20
81.59757538877375
 10
1183.06773867901
 20
81.91820290793021
 10
1182.83484505813
 20
82.3265643253626
 10
1182.60195143725
 20
82.73492574279544
 10
1182.485504626811
 20
83.18795169025952
 10
1182.485504626811
 20
83.68564216775576
 10
1182.485504626811
 20
84.18333264525154
 10
1182.60195143725
 20
84.63635859271608
 10
1182.83484505813
 20
85.04472001014892
 10
1183.06773867901
 20
85.45308142758176
 10
1183.388366198166
 20
85.77370894673777
 10
1183.796727615598
 20
86.00660256761739
 10
1184.205089033031
 20
86.23949618849656
 10
1184.661305304069
 20
86.35594299893637
 10
1185.165376428713
 20
86.35594299893637
 10
1185.669447553356
 20
86.35594299893637
 10
1186.127258986181
 20
86.23949618849656
 10
1186.538810727187
 20
86.00660256761739
 10
1186.950362468194
 20
85.77370894673777
 10
1187.272585149137
 20
85.45308142758176
 10
1187.505478770016
 20
85.04472001014892
 10
1187.738372390896
 20
84.63635859271608
 10
1187.854819201335
 20
84.18333264525154
 10
1187.854819201335
 20
83.68564216775576
 10
1187.854819201335
 20
83.18795169025952
 10
1187.738372390896
 20
82.73492574279544
 10
1187.505478770016
 20
82.3265643253626
 10
1187.272585149137
 20
81.91820290793021
 10
1186.950362468194
 20
81.59757538877375
 10
1186.538810727187
 20
81.36468176789458
 10
1186.127258986181
 20
81.13178814701496
 10
1185.669447553356
 20
81.01534133657515
 10
1185.165376428713
 20
81.01534133657515
 97
        0
 97
        0
 92
        0
 93
        1
 72
     4
 94
        3
 73
     0
 74
     1
 95
       38
 96
       34
 40
0.0
 40
0.0
 40
0.0
 40
0.0
 40
1.0
 40
1.0
 40
1.0
 40
2.0
 40
2.0
 40
2.0
 40
3.0
 40
3.0
 40
3.0
 40
4.0
 40
4.0
 40
4.0
 40
5.0
 40
5.0
 40
5.0
 40
6.0
 40
6.0
 40
6.0
 40
7.0
 40
7.0
 40
7.0
 40
8.0
 40
8.0
 40
8.0
 40
9.0
 40
9.0
 40
9.0
 40
10.0
 40
10.0
 40
10.0
 40
11.0
 40
11.0
 40
11.0
 40
11.0
 10
1185.165376428713
 20
82.25956753031505
 10
1185.420602314608
 20
82.25956753031505
 10
1185.648710450127
 20
82.31699335464191
 10
1185.84970083527
 20
82.43184500329471
 10
1186.050691220412
 20
82.54669665194751
 10
1186.20861223731
 20
82.71259347777959
 10
1186.323463885963
 20
82.92953548079049
 10
1186.438315534616
 20
83.14647748380185
 10
1186.495741358942
 20
83.3985130461233
 10
1186.495741358942
 20
83.68564216775576
 10
1186.495741358942
 20
83.97277128938822
 10
1186.438315534616
 20
84.22480685171013
 10
1186.323463885963
 20
84.44174885472103
 10
1186.20861223731
 20
84.65869085773193
 10
1186.050691220412
 20
84.82618284535101
 10
1185.84970083527
 20
84.94422481757738
 10
1185.648710450127
 20
85.0622667898042
 10
1185.420602314608
 20
85.12128777591761
 10
1185.165376428713
 20
85.12128777591761
 10
1184.78253759987
 20
85.12128777591761
 10
1184.466695566074
 20
84.99048450939608
 10
1184.217850327326
 20
84.72887797635349
 10
1183.969005088578
 20
84.46727144331044
 10
1183.844582469204
 20
84.11952617377801
 10
1183.844582469204
 20
83.68564216775576
 10
1183.844582469204
 20
83.3985130461233
 10
1183.90200829353
 20
83.14647748380185
 10
1184.016859942183
 20
82.92953548079049
 10
1184.131711590836
 20
82.71259347777959
 10
1184.288037445947
 20
82.54669665194751
 10
1184.485837507516
 20
82.43184500329471
 10
1184.683637569085
 20
82.31699335464191
 10
1184.910150542817
 20
82.25956753031505
 10
1185.165376428713
 20
82.25956753031505
 97
        0
 97
        0
 75
     0
 76
     1
 98
        0
  0
HATCH
  5
6B
330
1F
100
AcDbEntity
  8
0
 62
    18
420
        0
440
 33554687
100
AcDbHatch
 10
0.0
 20
0.0
 30
0.0
210
0.0
220
0.0
230
1.0
  2
SOLID
 70
     1
 71
     1
 91
        1
 92
        0
 93
        1
 72
     4
 94
        3
 73
     0
 74
     1
 95
       59
 96
       55
 40
0.0
 40
0.0
 40
0.0
 40
0.0
 40
1.0
 40
1.0
 40
1.0
 40
2.0
 40
2.0
 40
2.0
 40
3.0
 40
3.0
 40
3.0
 40
4.0
 40
4.0
 40
4.0
 40
5.0
 40
5.0
 40
5.0
 40
6.0
 40
6.0
 40
6.0
 40
7.0
 40
7.0
 40
7.0
 40
8.0
 40
8.0
 40
8.0
 40
9.0
 40
9.0
 40
9.0
 40
10.0
 40
10.0
 40
10.0
 40
11.0
 40
11.0
 40
11.0
 40
12.0
 40
12.0
 40
12.0
 40
13.0
 40
13.0
 40
13.0
 40
14.0
 40
14.0
 40
14.0
 40
15.0
 40
15.0
 40
15.0
 40
16.0
 40
16.0
 40
16.0
 40
17.0
 40
17.0
 40
17.0
 40
18.0
 40
18.0
 40
18.0
 40
18.0
 10
1191.798059138419
 20
81.02491230729584
 10
1191.491788075344
 20
81.02491230729584
 10
1191.201468630139
 20
81.11105104378612
 10
1190.927100802801
 20
81.28332851676532
 10
1190.652732975463
 20
81.45560598974453
 10
1190.431005487092
 20
81.69168993419771
 10
1190.261918337686
 20
81.99158035012488
 10
1190.09283118828
 20
82.29147076605204
 10
1190.008287613578
 20
82.62007409414264
 10
1190.008287613578
 20
82.97739033439575
 10
1190.008287613578
 20
82.97739033439575
 10
1190.008287613578
 20
86.22194940884128
 10
1190.008287613578
 20
86.22194940884128
 10
1190.008287613578
 20
86.22194940884128
 10
1191.36736545597
 20
86.22194940884128
 10
1191.36736545597
 20
86.22194940884128
 10
1191.36736545597
 20
86.22194940884128
 10
1191.36736545597
 20
83.31237430963392
 10
1191.36736545597
 20
83.31237430963392
 10
1191.36736545597
 20
82.97420001082219
 10
1191.456694516034
 20
82.70621283063201
 10
1191.635352636161
 20
82.5084127690634
 10
1191.814010756287
 20
82.31061270749433
 10
1192.050094700741
 20
82.2117126767098
 10
1192.34360446952
 20
82.2117126767098
 10
1192.630733591153
 20
82.2117126767098
 10
1192.860436888459
 20
82.31061270749433
 10
1193.032714361438
 20
82.5084127690634
 10
1193.204991834417
 20
82.70621283063201
 10
1193.291130570907
 20
82.97420001082219
 10
1193.291130570907
 20
83.31237430963392
 10
1193.291130570907
 20
83.31237430963392
 10
1193.291130570907
 20
86.22194940884128
 10
1193.291130570907
 20
86.22194940884128
 10
1193.291130570907
 20
86.22194940884128
 10
1194.640637442579
 20
86.22194940884128
 10
1194.640637442579
 20
86.22194940884128
 10
1194.640637442579
 20
86.22194940884128
 10
1194.640637442579
 20
81.14933492667024
 10
1194.640637442579
 20
81.14933492667024
 10
1194.640637442579
 20
81.14933492667024
 10
1193.329414453792
 20
81.14933492667024
 10
1193.329414453792
 20
81.14933492667024
 10
1193.329414453792
 20
81.14933492667024
 10
1193.329414453792
 20
81.80016093570339
 10
1193.329414453792
 20
81.80016093570339
 10
1193.329414453792
 20
81.80016093570339
 10
1193.262417658744
 20
81.80016093570339
 10
1193.262417658744
 20
81.80016093570339
 10
1193.128424068649
 20
81.58959957983961
 10
1192.93540949244
 20
81.40775113613927
 10
1192.683373930119
 20
81.2546156046019
 10
1192.431338367797
 20
81.10148007306452
 10
1192.13623343723
 20
81.02491230729584
 10
1191.798059138419
 20
81.02491230729584
 97
        0
 97
        0
 75
     0
 76
     1
 98
        0
  0
HATCH
  5
6C
330
1F
100
AcDbEntity
  8
0
 62
    18
420
        0
440
 33554687
100
AcDbHatch
 10
0.0
 20
0.0
 30
0.0
210
0.0
220
0.0
230
1.0
  2
SOLID
 70
     1
 71
     1
 91
        1
 92
        0
 93
        1
 72
     4
 94
        3
 73
     0
 74
     1
 95
       92
 96
       88
 40
0.0
 40
0.0
 40
0.0
 40
0.0
 40
1.0
 40
1.0
 40
1.0
 40
2.0
 40
2.0
 40
2.0
 40
3.0
 40
3.0
 40
3.0
 40
4.0
 40
4.0
 40
4.0
 40
5.0
 40
5.0
 40
5.0
 40
6.0
 40
6.0
 40
6.0
 40
7.0
 40
7.0
 40
7.0
 40
8.0
 40
8.0
 40
8.0
 40
9.0
 40
9.0
 40
9.0
 40
10.0
 40
10.0
 40
10.0
 40
11.0
 40
11.0
 40
11.0
 40
12.0
 40
12.0
 40
12.0
 40
13.0
 40
13.0
 40
13.0
 40
14.0
 40
14.0
 40
14.0
 40
15.0
 40
15.0
 40
15.0
 40
16.0
 40
16.0
 40
16.0
 40
17.0
 40
17.0
 40
17.0
 40
18.0
 40
18.0
 40
18.0
 40
19.0
 40
19.0
 40
19.0
 40
20.0
 40
20.0
 40
20.0
 40
21.0
 40
21.0
 40
21.0
 40
22.0
 40
22.0
 40
22.0
 40
23.0
 40
23.0
 40
23.0
 40
24.0
 40
24.0
 40
24.0
 40
25.0
 40
25.0
 40
25.0
 40
26.0
 40
26.0
 40
26.0
 40
27.0
 40
27.0
 40
27.0
 40
28.0
 40
28.0
 40
28.0
 40
29.0
 40
29.0
 40
29.0
 40
29.0
 10
1197.473644776019
 20
81.01534133657515
 10
1197.00785753426
 20
81.01534133657515
 10
1196.6026864404
 20
81.08712361698281
 10
1196.258131494442
 20
81.2306881777995
 10
1195.913576548483
 20
81.37425273861527
 10
1195.584973220392
 20
81.59917055056076
 10
1195.272321510171
 20
81.90544161363505
 10
1195.272321510171
 20
81.90544161363505
 10
1196.124137904347
 20
82.78597091997426
 10
1196.124137904347
 20
82.78597091997426
 10
1196.33469926021
 20
82.56902891696336
 10
1196.5420702925
 20
82.40632241470485
 10
1196.746251001216
 20
82.29785141319962
 10
1196.950431709933
 20
82.18938041169395
 10
1197.176944683665
 20
82.13514491094111
 10
1197.425789922413
 20
82.13514491094111
 10
1197.649112572572
 20
82.13514491094111
 10
1197.824580369125
 20
82.17502395561223
 10
1197.952193312072
 20
82.25478204495448
 10
1198.07980625502
 20
82.33454013429719
 10
1198.143612726494
 20
82.44460629758942
 10
1198.143612726494
 20
82.58498053483208
 10
1198.143612726494
 20
82.7253547720743
 10
1198.078211093233
 20
82.83382577357997
 10
1197.947407826712
 20
82.91039353934866
 10
1197.81660456019
 20
82.98696130511735
 10
1197.585306101098
 20
83.06033874731202
 10
1197.253512449434
 20
83.13052586593312
 10
1196.679254206169
 20
83.2389968674388
 10
1196.251750847294
 20
83.42084531113915
 10
1195.971002372809
 20
83.67607119703462
 10
1195.690253898324
 20
83.93129708293009
 10
1195.549879661082
 20
84.29180364675722
 10
1195.549879661082
 20
84.75759088851646
 10
1195.549879661082
 20
85.03833936300134
 10
1195.628042588637
 20
85.30154105783095
 10
1195.784368443748
 20
85.54719597300573
 10
1195.940694298859
 20
85.79285088818006
 10
1196.167207272591
 20
85.98905578796212
 10
1196.463907364945
 20
86.13581067235191
 10
1196.760607457298
 20
86.2825655567417
 10
1197.113138212191
 20
86.35594299893637
 10
1197.521499629624
 20
86.35594299893637
 10
1198.000048165678
 20
86.35594299893637
 10
1198.37810150916
 20
86.28097039495469
 10
1198.655659660072
 20
86.13102518699088
 10
1198.933217810983
 20
85.98107997902753
 10
1199.20280015296
 20
85.74659119636135
 10
1199.464406686003
 20
85.4275588389919
 10
1199.464406686003
 20
85.4275588389919
 10
1198.488167672453
 20
84.67145215202663
 10
1198.488167672453
 20
84.67145215202663
 10
1198.34779343521
 20
84.8820135078904
 10
1198.202633712607
 20
85.03195871585422
 10
1198.052688504644
 20
85.12128777591761
 10
1197.90274329668
 20
85.210616835981
 10
1197.72568033834
 20
85.2552813660127
 10
1197.521499629624
 20
85.2552813660127
 10
1197.330080215202
 20
85.2552813660127
 10
1197.175349521878
 20
85.210616835981
 10
1197.057307549652
 20
85.12128777591761
 10
1196.939265577425
 20
85.03195871585422
 10
1196.880244591312
 20
84.9266780379221
 10
1196.880244591312
 20
84.80544574212172
 10
1196.880244591312
 20
84.68421344632179
 10
1196.939265577425
 20
84.58690857732381
 10
1197.057307549652
 20
84.51353113512914
 10
1197.175349521878
 20
84.44015369293402
 10
1197.365173774513
 20
84.37156173609947
 10
1197.626780307556
 20
84.30775526462594
 10
1198.07980625502
 20
84.20566491026784
 10
1198.438717657061
 20
84.09081326161458
 10
1198.703514513677
 20
83.96320031866708
 10
1198.968311370294
 20
83.83558737571911
 10
1199.164516270076
 20
83.67128571167405
 10
1199.292129213023
 20
83.47029532653141
 10
1199.419742155971
 20
83.26930494138878
 10
1199.483548627445
 20
83.00929357013274
 10
1199.483548627445
 20
82.69026121276374
 10
1199.483548627445
 20
82.35846756109959
 10
1199.399005052742
 20
82.06655295410701
 10
1199.229917903336
 20
81.8145173917851
 10
1199.060830753931
 20
81.5624818294632
 10
1198.823151647691
 20
81.36627692968113
 10
1198.516880584616
 20
81.22590269243892
 10
1198.210609521542
 20
81.08552845519625
 10
1197.862864252009
 20
81.01534133657515
 10
1197.473644776019
 20
81.01534133657515
 97
        0
 97
        0
 75
     0
 76
     1
 98
        0
  0
VIEWPORT
  5
71
330
6D
100
AcDbEntity
 67
     1
  8
0
100
AcDbViewport
 10
128.5
 20
97.5
 30
0.0
 40
314.226
 41
222.18
 68
     1
 69
     1
 12
84.709
 22
127.0
 13
0.0
 23
0.0
 14
10.0
 24
10.0
 15
10.0
 25
10.0
 16
0.0
 26
0.0
 36
1.0
 17
0.0
 27
0.0
 37
0.0
 42
50.0
 43
0.0
 44
0.0
 45
222.18
 50
0.0
 51
0.0
 72
   100
 90
   557152
  1

281
     0
 71
     1
 74
     0
110
0.0
120
0.0
130
0.0
111
1.0
121
0.0
131
0.0
112
0.0
122
1.0
132
0.0
 79
     0
146
0.0
170
     0
 61
     5
348
2F
292
     1
282
     1
141
0.0
142
0.0
 63
   256
361
72
  0
VIEWPORT
  5
73
330
6D
100
AcDbEntity
 67
     1
  8
0
100
AcDbViewport
 10
127.0
 20
84.709
 30
0.0
 40
254.0
 41
169.418
 68
     2
 69
     2
 12
1164.166666666667
 22
84.6646266900093
 13
0.0
 23
0.0
 14
10.0
 24
10.0
 15
10.0
 25
10.0
 16
0.0
 26
0.0
 36
1.0
 17
0.0
 27
0.0
 37
0.0
 42
50.0
 43
0.0
 44
0.0
 45
169.418
 50
0.0
 51
0.0
 72
   100
 90
   557152
  1

281
     0
 71
     1
 74
     0
110
0.0
120
0.0
130
0.0
111
1.0
121
0.0
131
0.0
112
0.0
122
1.0
132
0.0
 79
     0
146
0.0
170
     0
 61
     5
348
2F
292
     1
282
     1
141
0.0
142
0.0
 63
   256
361
74
  0
ENDSEC
  0
SECTION
  2
OBJECTS
  0
DICTIONARY
  5
C
330
0
100
AcDbDictionary
281
     1
  3
ACAD_DETAILVIEWSTYLE
350
7C
  3
ACAD_GROUP
350
D
  3
ACAD_LAYOUT
350
1A
  3
ACAD_MATERIAL
350
43
  3
ACAD_MLEADERSTYLE
350
5B
  3
ACAD_MLINESTYLE
350
17
  3
ACAD_PLOTSETTINGS
350
19
  3
ACAD_PLOTSTYLENAME
350
E
  3
ACAD_SCALELIST
350
47
  3
ACAD_SECTIONVIEWSTYLE
350
7D
  3
ACAD_TABLESTYLE
350
59
  3
ACAD_VISUALSTYLE
350
2A
  3
ACDB_RECOMPOSE_DATA
350
79
  3
AcDbVariableDictionary
350
75
  0
SUN
  5
5D
330
29
100
AcDbSun
 90
        1
290
     0
 63
     7
421
 16777215
 40
1.0
291
     1
 91
  2455826
 92
 54000000
292
     0
 70
     2
 71
   256
280
     1
  0
SUN
  5
72
330
71
100
AcDbSun
 90
        1
290
     0
 63
     7
421
 16777215
 40
1.0
291
     1
 91
  2455826
 92
 54000000
292
     0
 70
     2
 71
   256
280
     1
  0
SUN
  5
74
330
73
100
AcDbSun
 90
        1
290
     0
 63
     7
421
 16777215
 40
1.0
291
     1
 91
  2455826
 92
 54000000
292
     0
 70
     2
 71
   256
280
     1
  0
DICTIONARY
  5
7C
102
{ACAD_REACTORS
330
C
102
}
330
C
100
AcDbDictionary
281
     1
  0
DICTIONARY
  5
D
102
{ACAD_REACTORS
330
C
102
}
330
C
100
AcDbDictionary
281
     1
  0
DICTIONARY
  5
1A
102
{ACAD_REACTORS
330
C
102
}
330
C
100
AcDbDictionary
281
     1
  3
Layout1
350
6E
  3
Model
350
22
  0
DICTIONARY
  5
43
102
{ACAD_REACTORS
330
C
102
}
330
C
100
AcDbDictionary
281
     1
  3
ByBlock
350
45
  3
ByLayer
350
44
  3
Global
350
46
  0
DICTIONARY
  5
5B
102
{ACAD_REACTORS
330
C
102
}
330
C
100
AcDbDictionary
281
     1
  3
Standard
350
5C
  0
DICTIONARY
  5
17
102
{ACAD_REACTORS
330
C
102
}
330
C
100
AcDbDictionary
281
     1
  3
Standard
350
18
  0
DICTIONARY
  5
19
102
{ACAD_REACTORS
330
C
102
}
330
C
100
AcDbDictionary
281
     1
  0
ACDBDICTIONARYWDFLT
  5
E
102
{ACAD_REACTORS
330
C
102
}
330
C
100
AcDbDictionary
281
     1
  3
Normal
350
F
100
AcDbDictionaryWithDefault
340
F
  0
DICTIONARY
  5
47
102
{ACAD_REACTORS
330
C
102
}
330
C
100
AcDbDictionary
281
     1
  3
A0
350
48
  3
A1
350
49
  3
A2
350
4A
  3
A3
350
4B
  3
A4
350
4C
  3
A5
350
4D
  3
A6
350
4E
  3
A7
350
4F
  3
A8
350
50
  3
A9
350
51
  3
B0
350
52
  3
B1
350
53
  3
B2
350
54
  3
B3
350
55
  3
B4
350
56
  3
B5
350
57
  3
B6
350
58
  0
DICTIONARY
  5
7D
102
{ACAD_REACTORS
330
C
102
}
330
C
100
AcDbDictionary
281
     1
  0
DICTIONARY
  5
59
102
{ACAD_REACTORS
330
C
102
}
330
C
100
AcDbDictionary
281
     1
  3
Standard
350
5A
  0
DICTIONARY
  5
2A
102
{ACAD_REACTORS
330
C
102
}
330
C
100
AcDbDictionary
281
     1
  3
2dWireframe
350
2F
  3
Basic
350
32
  3
Brighten
350
36
  3
ColorChange
350
3A
  3
Conceptual
350
34
  3
Dim
350
35
  3
EdgeColorOff
350
3D
  3
Facepattern
350
39
  3
Flat
350
2B
  3
FlatWithEdges
350
2C
  3
Gouraud
350
2D
  3
GouraudWithEdges
350
2E
  3
Hidden
350
31
  3
JitterOff
350
3B
  3
Linepattern
350
38
  3
OverhangOff
350
3C
  3
Realistic
350
33
  3
Shaded
350
42
  3
Shaded with edges
350
41
  3
Shades of Gray
350
3E
  3
Sketchy
350
3F
  3
Thicken
350
37
  3
Wireframe
350
30
  3
X-Ray
350
40
  0
XRECORD
  5
79
102
{ACAD_REACTORS
330
C
102
}
330
C
100
AcDbXrecord
280
     1
 90
        1
330
5A
  0
DICTIONARY
  5
75
102
{ACAD_REACTORS
330
C
102
}
330
C
100
AcDbDictionary
281
     1
  3
CANNOSCALE
350
76
  3
CENTEREXE
350
7E
  3
CENTERLTYPEFILE
350
7F
  3
CMLEADERSTYLE
350
7B
  3
CTABLESTYLE
350
7A
  0
LAYOUT
  5
6E
102
{ACAD_REACTORS
330
1A
102
}
330
1A
100
AcDbPlotSettings
  1

  2
none_device
  4
ISO_A4_(210.00_x_297.00_MM)
  6

 40
0.0
 41
0.0
 42
0.0
 43
0.0
 44
169.418
 45
254.0
 46
0.0
 47
0.0
 48
0.0
 49
0.0
140
0.0
141
0.0
142
1.0
143
1.0
 70
   688
 72
     1
 73
     3
 74
     5
  7

 75
    16
 76
     0
 77
     2
 78
   300
147
1.0
148
0.0
149
0.0
100
AcDbLayout
  1
Layout1
 70
     1
 71
     1
 10
-20.0
 20
-7.5
 11
277.0
 21
202.5
 12
0.0
 22
0.0
 32
0.0
 14
169.418
 24
254.0
 34
0.0
 15
0.0
 25
0.0
 35
0.0
146
0.0
 13
0.0
 23
0.0
 33
0.0
 16
1.0
 26
0.0
 36
0.0
 17
0.0
 27
1.0
 37
0.0
 76
     0
330
6D
331
71
  0
LAYOUT
  5
22
102
{ACAD_REACTORS
330
1A
102
}
330
1A
100
AcDbPlotSettings
  1

  2
none_device
  4
Letter_(8.50_x_11.00_Inches)
  6

 40
6.35
 41
6.35
 42
6.35000508
 43
6.35000508
 44
215.9
 45
279.4
 46
0.0
 47
0.0
 48
0.0
 49
0.0
140
0.0
141
0.0
142
1.0
143
1.0
 70
  1712
 72
     1
 73
     0
 74
     0
  7

 75
     0
 76
     0
 77
     2
 78
   300
147
1.0
148
0.0
149
0.0
100
AcDbLayout
  1
Model
 70
     1
 71
     0
 10
0.0
 20
0.0
 11
420.0
 21
297.0
 12
0.0
 22
0.0
 32
0.0
 14
1.000000000000000E+20
 24
1.000000000000000E+20
 34
1.000000000000000E+20
 15
-1.000000000000000E+20
 25
-1.000000000000000E+20
 35
-1.000000000000000E+20
146
0.0
 13
0.0
 23
0.0
 33
0.0
 16
1.0
 26
0.0
 36
0.0
 17
0.0
 27
1.0
 37
0.0
 76
     0
330
1F
331
29
  0
MATERIAL
  5
45
102
{ACAD_REACTORS
330
43
102
}
330
43
100
AcDbMaterial
  1
ByBlock
 72
     1
 94
      127
  0
MATERIAL
  5
44
102
{ACAD_REACTORS
330
43
102
}
330
43
100
AcDbMaterial
  1
ByLayer
 72
     1
 94
      127
  0
MATERIAL
  5
46
102
{ACAD_REACTORS
330
43
102
}
330
43
100
AcDbMaterial
  1
Global
 72
     1
 94
      127
  0
MLEADERSTYLE
  5
5C
102
{ACAD_REACTORS
330
5B
102
}
330
5B
100
AcDbMLeaderStyle
179
     2
170
     2
171
     1
172
     0
 90
        2
 40
0.0
 41
0.0
173
     1
 91
-1056964608
340
14
 92
       -2
290
     1
 42
2.0
291
     1
 43
8.0
  3
Standard
341
0
 44
4.0
300

342
11
174
     1
178
     6
175
     1
176
     0
 93
-1056964608
 45
4.0
292
     0
297
     0
 46
4.0
343
0
 94
-1056964608
 47
1.0
 49
1.0
140
1.0
293
     1
141
0.0
294
     1
177
     0
142
1.0
295
     0
296
     0
143
3.75
271
     0
272
     9
273
     9
298
     0
  0
MLINESTYLE
  5
18
102
{ACAD_REACTORS
330
17
102
}
330
17
100
AcDbMlineStyle
  2
Standard
 70
     0
  3

 62
   256
 51
90.0
 52
90.0
 71
     2
 49
0.5
 62
   256
  6
BYLAYER
 49
-0.5
 62
   256
  6
BYLAYER
  0
ACDBPLACEHOLDER
  5
F
102
{ACAD_REACTORS
330
E
102
}
330
E
  0
SCALE
  5
48
102
{ACAD_REACTORS
330
47
102
}
330
47
100
AcDbScale
 70
     0
300
1:1
140
1.0
141
1.0
290
     1
  0
SCALE
  5
49
102
{ACAD_REACTORS
330
47
102
}
330
47
100
AcDbScale
 70
     0
300
1:2
140
1.0
141
2.0
290
     0
  0
SCALE
  5
4A
102
{ACAD_REACTORS
330
47
102
}
330
47
100
AcDbScale
 70
     0
300
1:4
140
1.0
141
4.0
290
     0
  0
SCALE
  5
4B
102
{ACAD_REACTORS
330
47
102
}
330
47
100
AcDbScale
 70
     0
300
1:5
140
1.0
141
5.0
290
     0
  0
SCALE
  5
4C
102
{ACAD_REACTORS
330
47
102
}
330
47
100
AcDbScale
 70
     0
300
1:8
140
1.0
141
8.0
290
     0
  0
SCALE
  5
4D
102
{ACAD_REACTORS
330
47
102
}
330
47
100
AcDbScale
 70
     0
300
1:10
140
1.0
141
10.0
290
     0
  0
SCALE
  5
4E
102
{ACAD_REACTORS
330
47
102
}
330
47
100
AcDbScale
 70
     0
300
1:16
140
1.0
141
16.0
290
     0
  0
SCALE
  5
4F
102
{ACAD_REACTORS
330
47
102
}
330
47
100
AcDbScale
 70
     0
300
1:20
140
1.0
141
20.0
290
     0
  0
SCALE
  5
50
102
{ACAD_REACTORS
330
47
102
}
330
47
100
AcDbScale
 70
     0
300
1:30
140
1.0
141
30.0
290
     0
  0
SCALE
  5
51
102
{ACAD_REACTORS
330
47
102
}
330
47
100
AcDbScale
 70
     0
300
1:40
140
1.0
141
40.0
290
     0
  0
SCALE
  5
52
102
{ACAD_REACTORS
330
47
102
}
330
47
100
AcDbScale
 70
     0
300
1:50
140
1.0
141
50.0
290
     0
  0
SCALE
  5
53
102
{ACAD_REACTORS
330
47
102
}
330
47
100
AcDbScale
 70
     0
300
1:100
140
1.0
141
100.0
290
     0
  0
SCALE
  5
54
102
{ACAD_REACTORS
330
47
102
}
330
47
100
AcDbScale
 70
     0
300
2:1
140
2.0
141
1.0
290
     0
  0
SCALE
  5
55
102
{ACAD_REACTORS
330
47
102
}
330
47
100
AcDbScale
 70
     0
300
4:1
140
4.0
141
1.0
290
     0
  0
SCALE
  5
56
102
{ACAD_REACTORS
330
47
102
}
330
47
100
AcDbScale
 70
     0
300
8:1
140
8.0
141
1.0
290
     0
  0
SCALE
  5
57
102
{ACAD_REACTORS
330
47
102
}
330
47
100
AcDbScale
 70
     0
300
10:1
140
10.0
141
1.0
290
     0
  0
SCALE
  5
58
102
{ACAD_REACTORS
330
47
102
}
330
47
100
AcDbScale
 70
     0
300
100:1
140
100.0
141
1.0
290
     0
  0
TABLESTYLE
  5
5A
102
{ACAD_REACTORS
330
59
102
}
102
{ACAD_XDICTIONARY
360
77
102
}
330
59
100
AcDbTableStyle
  3
Standard
 70
     0
 71
     0
 40
0.06
 41
0.06
280
     0
281
     0
  7
Standard
140
4.5
170
     2
 62
     0
 63
   257
283
     0
 90
        4
 91
        0
  1

274
    -2
284
     1
 64
     0
275
    -2
285
     1
 65
     0
276
    -2
286
     1
 66
     0
277
    -2
287
     1
 67
     0
278
    -2
288
     1
 68
     0
279
    -2
289
     1
 69
     0
  7
Standard
140
6.0
170
     5
 62
     0
 63
   257
283
     0
 90
        4
 91
        0
  1

274
    -2
284
     1
 64
     0
275
    -2
285
     1
 65
     0
276
    -2
286
     1
 66
     0
277
    -2
287
     1
 67
     0
278
    -2
288
     1
 68
     0
279
    -2
289
     1
 69
     0
  7
Standard
140
4.5
170
     5
 62
     0
 63
   257
283
     0
 90
        4
 91
        0
  1

274
    -2
284
     1
 64
     0
275
    -2
285
     1
 65
     0
276
    -2
286
     1
 66
     0
277
    -2
287
     1
 67
     0
278
    -2
288
     1
 68
     0
279
    -2
289
     1
 69
     0
  0
VISUALSTYLE
  5
2F
102
{ACAD_REACTORS
330
2A
102
}
330
2A
100
AcDbVisualStyle
  2
2dWireframe
 70
     4
177
     3
291
     0
 70
    58
 90
        0
176
     1
 90
        2
176
     1
 90
        0
176
     1
 90
        0
176
     1
 40
0.6
176
     1
 40
30.0
176
     1
 62
     7
420
 16777215
176
     1
 90
        1
176
     1
 90
        4
176
     1
 62
     7
176
     1
 62
   257
176
     1
 90
        1
176
     1
 90
        1
176
     1
 40
1.0
176
     1
 90
        0
176
     1
 62
   257
176
     1
 40
1.0
176
     1
 90
        1
176
     1
 90
        6
176
     1
 90
        2
176
     1
 62
     7
176
     1
 90
        5
176
     1
 90
        0
176
     1
 90
        0
176
     1
290
     0
176
     1
 90
        1
176
     1
 40
0.0
176
     1
 90
        0
176
     1
290
     1
176
     1
290
     1
176
     1
290
     0
176
     1
290
     0
176
     1
290
     0
176
     1
290
     0
176
     1
290
     0
176
     1
290
     0
176
     1
290
     0
176
     1
 90
       50
176
     1
 40
0.0
176
     1
 40
1.0
176
     1
 90
        0
176
     1
 62
    18
420
        0
176
     1
 90
       50
176
     1
 90
        3
176
     1
 62
     5
420
      255
176
     1
290
     0
176
     1
 90
       50
176
     1
 90
       50
176
     1
 90
       50
176
     1
290
     0
176
     1
 90
       50
176
     1
 62
   256
176
     0
 40
1.0
176
     0
 90
        2
176
     1
  1
strokes_ogs.tif
176
     1
290
     0
176
     1
 40
1.0
176
     1
 40
1.0
176
     1
  0
VISUALSTYLE
  5
32
102
{ACAD_REACTORS
330
2A
102
}
330
2A
100
AcDbVisualStyle
  2
Basic
 70
     7
177
     3
291
     1
 70
    58
 90
        1
176
     1
 90
        0
176
     1
 90
        1
176
     1
 90
        0
176
     1
 40
0.6
176
     1
 40
30.0
176
     1
 62
     7
420
 16777215
176
     1
 90
        0
176
     1
 90
        4
176
     1
 62
     7
176
     1
 62
   257
176
     1
 90
        1
176
     1
 90
        1
176
     1
 40
1.0
176
     1
 90
        8
176
     1
 62
     7
176
     1
 40
1.0
176
     1
 90
        1
176
     1
 90
        6
176
     1
 90
        2
176
     1
 62
     7
176
     1
 90
        5
176
     1
 90
        0
176
     1
 90
        0
176
     1
290
     0
176
     1
 90
        1
176
     1
 40
0.0
176
     1
 90
        0
176
     1
290
     0
176
     1
290
     1
176
     1
290
     1
176
     1
290
     0
176
     1
290
     0
176
     1
290
     0
176
     1
290
     0
176
     1
290
     0
176
     1
290
     0
176
     1
 90
       50
176
     1
 40
0.0
176
     1
 40
1.0
176
     1
 90
        0
176
     1
 62
    18
420
        0
176
     1
 90
       50
176
     1
 90
        3
176
     1
 62
     5
420
      255
176
     1
290
     0
176
     1
 90
       50
176
     1
 90
       50
176
     1
 90
       50
176
     1
290
     0
176
     1
 90
       50
176
     1
 62
   256
176
     0
 40
1.0
176
     0
 90
        2
176
     1
  1
strokes_ogs.tif
176
     1
290
     0
176
     1
 40
1.0
176
     1
 40
1.0
176
     1
  0
VISUALSTYLE
  5
36
102
{ACAD_REACTORS
330
2A
102
}
330
2A
100
AcDbVisualStyle
  2
Brighten
 70
    12
177
     3
291
     1
 70
    58
 90
        2
176
     1
 90
        2
176
     1
 90
        0
176
     1
 90
        0
176
     1
 40
0.6
176
     1
 40
30.0
176
     1
 62
     7
420
 16777215
176
     1
 90
        1
176
     1
 90
        4
176
     1
 62
     7
176
     1
 62
   257
176
     1
 90
        1
176
     1
 90
        1
176
     1
 40
1.0
176
     1
 90
        8
176
     1
 62
     7
176
     1
 40
1.0
176
     1
 90
        1
176
     1
 90
        6
176
     1
 90
        2
176
     1
 62
     7
176
     1
 90
        5
176
     1
 90
        0
176
     1
 90
        0
176
     1
290
     0
176
     1
 90
        1
176
     1
 40
50.0
176
     1
 90
        0
176
     1
290
     0
176
     1
290
     1
176
     1
290
     1
176
     1
290
     0
176
     1
290
     0
176
     1
290
     0
176
     1
290
     0
176
     1
290
     0
176
     1
290
     0
176
     1
 90
       50
176
     1
 40
0.0
176
     1
 40
1.0
176
     1
 90
        0
176
     1
 62
    18
420
        0
176
     1
 90
       50
176
     1
 90
        3
176
     1
 62
     5
420
      255
176
     1
290
     0
176
     1
 90
       50
176
     1
 90
       50
176
     1
 90
       50
176
     1
290
     0
176
     1
 90
       50
176
     1
 62
   256
176
     0
 40
1.0
176
     0
 90
        2
176
     1
  1
strokes_ogs.tif
176
     1
290
     0
176
     1
 40
1.0
176
     1
 40
1.0
176
     1
  0
VISUALSTYLE
  5
3A
102
{ACAD_REACTORS
330
2A
102
}
330
2A
100
AcDbVisualStyle
  2
ColorChange
 70
    16
177
     3
291
     1
 70
    58
 90
        2
176
     1
 90
        2
176
     1
 90
        3
176
     1
 90
        0
176
     1
 40
0.6
176
     1
 40
30.0
176
     1
 62
     8
420
  8421504
176
     1
 90
        1
176
     1
 90
        4
176
     1
 62
     7
176
     1
 62
   257
176
     1
 90
        1
176
     1
 90
        1
176
     1
 40
1.0
176
     1
 90
        8
176
     1
 62
     8
420
  8421504
176
     1
 40
1.0
176
     1
 90
        1
176
     1
 90
        6
176
     1
 90
        2
176
     1
 62
     7
176
     1
 90
        5
176
     1
 90
        0
176
     1
 90
        0
176
     1
290
     0
176
     1
 90
        1
176
     1
 40
0.0
176
     1
 90
        0
176
     1
290
     0
176
     1
290
     1
176
     1
290
     1
176
     1
290
     0
176
     1
290
     0
176
     1
290
     0
176
     1
290
     0
176
     1
290
     0
176
     1
290
     0
176
     1
 90
       50
176
     1
 40
0.0
176
     1
 40
1.0
176
     1
 90
        0
176
     1
 62
    18
420
        0
176
     1
 90
       50
176
     1
 90
        3
176
     1
 62
     5
420
      255
176
     1
290
     0
176
     1
 90
       50
176
     1
 90
       50
176
     1
 90
       50
176
     1
290
     0
176
     1
 90
       50
176
     1
 62
   256
176
     0
 40
1.0
176
     0
 90
        2
176
     1
  1
strokes_ogs.tif
176
     1
290
     0
176
     1
 40
1.0
176
     1
 40
1.0
176
     1
  0
VISUALSTYLE
  5
34
102
{ACAD_REACTORS
330
2A
102
}
330
2A
100
AcDbVisualStyle
  2
Conceptual
 70
     9
177
     3
291
     0
 70
    58
 90
        3
176
     1
 90
        2
176
     1
 90
        0
176
     1
 90
        0
176
     1
 40
0.6
176
     1
 40
30.0
176
     1
 62
     7
420
 16777215
176
     1
 90
        2
176
     1
 90
        2
176
     1
 62
     7
176
     1
 62
   257
176
     1
 90
        1
176
     1
 90
        1
176
     1
 40
179.0
176
     1
 90
        8
176
     1
 62
     7
176
     1
 40
1.0
176
     1
 90
        1
176
     1
 90
        6
176
     1
 90
        2
176
     1
 62
     7
176
     1
 90
        3
176
     1
 90
        0
176
     1
 90
        0
176
     1
290
     0
176
     1
 90
        1
176
     1
 40
0.0
176
     1
 90
        0
176
     1
290
     0
176
     1
290
     1
176
     1
290
     1
176
     1
290
     0
176
     1
290
     0
176
     1
290
     0
176
     1
290
     0
176
     1
290
     0
176
     1
290
     0
176
     1
 90
       50
176
     1
 40
0.0
176
     1
 40
1.0
176
     1
 90
        0
176
     1
 62
    18
420
        0
176
     1
 90
       50
176
     1
 90
        3
176
     1
 62
     5
420
      255
176
     1
290
     0
176
     1
 90
       50
176
     1
 90
       50
176
     1
 90
       50
176
     1
290
     0
176
     1
 90
       50
176
     1
 62
   256
176
     0
 40
1.0
176
     0
 90
        2
176
     1
  1
strokes_ogs.tif
176
     1
290
     0
176
     1
 40
1.0
176
     1
 40
1.0
176
     1
  0
VISUALSTYLE
  5
35
102
{ACAD_REACTORS
330
2A
102
}
330
2A
100
AcDbVisualStyle
  2
Dim
 70
    11
177
     3
291
     1
 70
    58
 90
        2
176
     1
 90
        2
176
     1
 90
        0
176
     1
 90
        0
176
     1
 40
0.6
176
     1
 40
30.0
176
     1
 62
     7
420
 16777215
176
     1
 90
        1
176
     1
 90
        4
176
     1
 62
     7
176
     1
 62
   257
176
     1
 90
        1
176
     1
 90
        1
176
     1
 40
1.0
176
     1
 90
        8
176
     1
 62
     7
176
     1
 40
1.0
176
     1
 90
        1
176
     1
 90
        6
176
     1
 90
        2
176
     1
 62
     7
176
     1
 90
        5
176
     1
 90
        0
176
     1
 90
        0
176
     1
290
     0
176
     1
 90
        1
176
     1
 40
-50.0
176
     1
 90
        0
176
     1
290
     0
176
     1
290
     1
176
     1
290
     1
176
     1
290
     0
176
     1
290
     0
176
     1
290
     0
176
     1
290
     0
176
     1
290
     0
176
     1
290
     0
176
     1
 90
       50
176
     1
 40
0.0
176
     1
 40
1.0
176
     1
 90
        0
176
     1
 62
    18
420
        0
176
     1
 90
       50
176
     1
 90
        3
176
     1
 62
     5
420
      255
176
     1
290
     0
176
     1
 90
       50
176
     1
 90
       50
176
     1
 90
       50
176
     1
290
     0
176
     1
 90
       50
176
     1
 62
   256
176
     0
 40
1.0
176
     0
 90
        2
176
     1
  1
strokes_ogs.tif
176
     1
290
     0
176
     1
 40
1.0
176
     1
 40
1.0
176
     1
  0
VISUALSTYLE
  5
3D
102
{ACAD_REACTORS
330
2A
102
}
330
2A
100
AcDbVisualStyle
  2
EdgeColorOff
 70
    22
177
     3
291
     1
 70
    58
 90
        2
176
     0
 90
        2
176
     0
 90
        0
176
     0
 90
        0
176
     0
 40
0.6
176
     0
 40
30.0
176
     0
 62
     7
420
 16777215
176
     0
 90
        1
176
     0
 90
        4
176
     0
 62
     7
176
     0
 62
   257
176
     0
 90
        1
176
     0
 90
        1
176
     0
 40
1.0
176
     0
 90
        8
176
     2
 62
     7
176
     0
 40
1.0
176
     0
 90
        1
176
     0
 90
        6
176
     0
 90
        2
176
     0
 62
     7
176
     0
 90
        5
176
     0
 90
        0
176
     0
 90
        0
176
     0
290
     0
176
     0
 90
        1
176
     0
 40
0.0
176
     0
 90
        0
176
     0
290
     0
176
     0
290
     1
176
     0
290
     1
176
     0
290
     0
176
     0
290
     0
176
     0
290
     0
176
     0
290
     0
176
     0
290
     0
176
     0
290
     0
176
     0
 90
       50
176
     0
 40
0.0
176
     0
 40
1.0
176
     0
 90
        0
176
     0
 62
    18
420
        0
176
     0
 90
       50
176
     0
 90
        3
176
     0
 62
     5
420
      255
176
     0
290
     0
176
     0
 90
       50
176
     0
 90
       50
176
     0
 90
       50
176
     0
290
     0
176
     0
 90
       50
176
     0
 62
   256
176
     0
 40
1.0
176
     0
 90
        2
176
     0
  1
strokes_ogs.tif
176
     0
290
     0
176
     0
 40
1.0
176
     0
 40
1.0
176
     0
  0
VISUALSTYLE
  5
39
102
{ACAD_REACTORS
330
2A
102
}
330
2A
100
AcDbVisualStyle
  2
Facepattern
 70
    15
177
     3
291
     1
 70
    58
 90
        2
176
     1
 90
        2
176
     1
 90
        0
176
     1
 90
        0
176
     1
 40
0.6
176
     1
 40
30.0
176
     1
 62
     7
420
 16777215
176
     1
 90
        1
176
     1
 90
        4
176
     1
 62
     7
176
     1
 62
   257
176
     1
 90
        1
176
     1
 90
        1
176
     1
 40
1.0
176
     1
 90
        8
176
     1
 62
     7
176
     1
 40
1.0
176
     1
 90
        1
176
     1
 90
        6
176
     1
 90
        2
176
     1
 62
     7
176
     1
 90
        5
176
     1
 90
        0
176
     1
 90
        0
176
     1
290
     0
176
     1
 90
        1
176
     1
 40
0.0
176
     1
 90
        0
176
     1
290
     0
176
     1
290
     1
176
     1
290
     1
176
     1
290
     0
176
     1
290
     0
176
     1
290
     0
176
     1
290
     0
176
     1
290
     0
176
     1
290
     0
176
     1
 90
       50
176
     1
 40
0.0
176
     1
 40
1.0
176
     1
 90
        0
176
     1
 62
    18
420
        0
176
     1
 90
       50
176
     1
 90
        3
176
     1
 62
     5
420
      255
176
     1
290
     0
176
     1
 90
       50
176
     1
 90
       50
176
     1
 90
       50
176
     1
290
     0
176
     1
 90
       50
176
     1
 62
   256
176
     0
 40
1.0
176
     0
 90
        2
176
     1
  1
strokes_ogs.tif
176
     1
290
     0
176
     1
 40
1.0
176
     1
 40
1.0
176
     1
  0
VISUALSTYLE
  5
2B
102
{ACAD_REACTORS
330
2A
102
}
330
2A
100
AcDbVisualStyle
  2
Flat
 70
     0
177
     3
291
     1
 70
    58
 90
        2
176
     1
 90
        1
176
     1
 90
        1
176
     1
 90
        2
176
     1
 40
0.6
176
     1
 40
30.0
176
     1
 62
     7
420
 16777215
176
     1
 90
        0
176
     1
 90
        0
176
     1
 62
     7
176
     1
 62
   257
176
     1
 90
        1
176
     1
 90
        1
176
     1
 40
1.0
176
     1
 90
        8
176
     1
 62
     7
176
     1
 40
1.0
176
     1
 90
        1
176
     1
 90
        6
176
     1
 90
        2
176
     1
 62
     7
176
     1
 90
        5
176
     1
 90
        0
176
     1
 90
        0
176
     1
290
     0
176
     1
 90
       13
176
     1
 40
0.0
176
     1
 90
        0
176
     1
290
     0
176
     1
290
     1
176
     1
290
     1
176
     1
290
     0
176
     1
290
     0
176
     1
290
     0
176
     1
290
     0
176
     1
290
     0
176
     1
290
     0
176
     1
 90
       50
176
     1
 40
0.0
176
     1
 40
1.0
176
     1
 90
        0
176
     1
 62
    18
420
        0
176
     1
 90
       50
176
     1
 90
        3
176
     1
 62
     5
420
      255
176
     1
290
     0
176
     1
 90
       50
176
     1
 90
       50
176
     1
 90
       50
176
     1
290
     0
176
     1
 90
       50
176
     1
 62
   256
176
     0
 40
1.0
176
     0
 90
        2
176
     1
  1
strokes_ogs.tif
176
     1
290
     0
176
     1
 40
1.0
176
     1
 40
1.0
176
     1
  0
VISUALSTYLE
  5
2C
102
{ACAD_REACTORS
330
2A
102
}
330
2A
100
AcDbVisualStyle
  2
FlatWithEdges
 70
     1
177
     3
291
     1
 70
    58
 90
        2
176
     1
 90
        1
176
     1
 90
        1
176
     1
 90
        2
176
     1
 40
0.6
176
     1
 40
30.0
176
     1
 62
     7
420
 16777215
176
     1
 90
        1
176
     1
 90
        0
176
     1
 62
     7
176
     1
 62
   257
176
     1
 90
        1
176
     1
 90
        1
176
     1
 40
1.0
176
     1
 90
        0
176
     1
 62
   257
176
     1
 40
1.0
176
     1
 90
        1
176
     1
 90
        6
176
     1
 90
        2
176
     1
 62
     7
176
     1
 90
        5
176
     1
 90
        0
176
     1
 90
        0
176
     1
290
     0
176
     1
 90
       13
176
     1
 40
0.0
176
     1
 90
        0
176
     1
290
     0
176
     1
290
     1
176
     1
290
     1
176
     1
290
     0
176
     1
290
     0
176
     1
290
     0
176
     1
290
     0
176
     1
290
     0
176
     1
290
     0
176
     1
 90
       50
176
     1
 40
0.0
176
     1
 40
1.0
176
     1
 90
        0
176
     1
 62
    18
420
        0
176
     1
 90
       50
176
     1
 90
        3
176
     1
 62
     5
420
      255
176
     1
290
     0
176
     1
 90
       50
176
     1
 90
       50
176
     1
 90
       50
176
     1
290
     0
176
     1
 90
       50
176
     1
 62
   256
176
     0
 40
1.0
176
     0
 90
        2
176
     1
  1
strokes_ogs.tif
176
     1
290
     0
176
     1
 40
1.0
176
     1
 40
1.0
176
     1
  0
VISUALSTYLE
  5
2D
102
{ACAD_REACTORS
330
2A
102
}
330
2A
100
AcDbVisualStyle
  2
Gouraud
 70
     2
177
     3
291
     1
 70
    58
 90
        2
176
     1
 90
        2
176
     1
 90
        1
176
     1
 90
        2
176
     1
 40
0.6
176
     1
 40
30.0
176
     1
 62
     7
420
 16777215
176
     1
 90
        0
176
     1
 90
        0
176
     1
 62
     7
176
     1
 62
   257
176
     1
 90
        1
176
     1
 90
        1
176
     1
 40
1.0
176
     1
 90
        0
176
     1
 62
     7
176
     1
 40
1.0
176
     1
 90
        1
176
     1
 90
        6
176
     1
 90
        2
176
     1
 62
     7
176
     1
 90
        5
176
     1
 90
        0
176
     1
 90
        0
176
     1
290
     0
176
     1
 90
       13
176
     1
 40
0.0
176
     1
 90
        0
176
     1
290
     0
176
     1
290
     1
176
     1
290
     1
176
     1
290
     0
176
     1
290
     0
176
     1
290
     0
176
     1
290
     0
176
     1
290
     0
176
     1
290
     0
176
     1
 90
       50
176
     1
 40
0.0
176
     1
 40
1.0
176
     1
 90
        0
176
     1
 62
    18
420
        0
176
     1
 90
       50
176
     1
 90
        3
176
     1
 62
     5
420
      255
176
     1
290
     0
176
     1
 90
       50
176
     1
 90
       50
176
     1
 90
       50
176
     1
290
     0
176
     1
 90
       50
176
     1
 62
   256
176
     0
 40
1.0
176
     0
 90
        2
176
     1
  1
strokes_ogs.tif
176
     1
290
     0
176
     1
 40
1.0
176
     1
 40
1.0
176
     1
  0
VISUALSTYLE
  5
2E
102
{ACAD_REACTORS
330
2A
102
}
330
2A
100
AcDbVisualStyle
  2
GouraudWithEdges
 70
     3
177
     3
291
     1
 70
    58
 90
        2
176
     1
 90
        2
176
     1
 90
        1
176
     1
 90
        2
176
     1
 40
0.6
176
     1
 40
30.0
176
     1
 62
     7
420
 16777215
176
     1
 90
        1
176
     1
 90
        0
176
     1
 62
     7
176
     1
 62
   257
176
     1
 90
        1
176
     1
 90
        1
176
     1
 40
1.0
176
     1
 90
        0
176
     1
 62
   257
176
     1
 40
1.0
176
     1
 90
        1
176
     1
 90
        6
176
     1
 90
        2
176
     1
 62
     7
176
     1
 90
        5
176
     1
 90
        0
176
     1
 90
        0
176
     1
290
     0
176
     1
 90
       13
176
     1
 40
0.0
176
     1
 90
        0
176
     1
290
     0
176
     1
290
     1
176
     1
290
     1
176
     1
290
     0
176
     1
290
     0
176
     1
290
     0
176
     1
290
     0
176
     1
290
     0
176
     1
290
     0
176
     1
 90
       50
176
     1
 40
0.0
176
     1
 40
1.0
176
     1
 90
        0
176
     1
 62
    18
420
        0
176
     1
 90
       50
176
     1
 90
        3
176
     1
 62
     5
420
      255
176
     1
290
     0
176
     1
 90
       50
176
     1
 90
       50
176
     1
 90
       50
176
     1
290
     0
176
     1
 90
       50
176
     1
 62
   256
176
     0
 40
1.0
176
     0
 90
        2
176
     1
  1
strokes_ogs.tif
176
     1
290
     0
176
     1
 40
1.0
176
     1
 40
1.0
176
     1
  0
VISUALSTYLE
  5
31
102
{ACAD_REACTORS
330
2A
102
}
330
2A
100
AcDbVisualStyle
  2
Hidden
 70
     6
177
     3
291
     0
 70
    58
 90
        1
176
     1
 90
        2
176
     1
 90
        2
176
     1
 90
        0
176
     1
 40
0.6
176
     1
 40
30.0
176
     1
 62
     7
420
 16777215
176
     1
 90
        2
176
     1
 90
        2
176
     1
 62
     7
176
     1
 62
   257
176
     1
 90
        2
176
     1
 90
        1
176
     1
 40
40.0
176
     1
 90
        0
176
     1
 62
   257
176
     1
 40
1.0
176
     1
 90
        1
176
     1
 90
        6
176
     1
 90
        2
176
     1
 62
     7
176
     1
 90
        3
176
     1
 90
        0
176
     1
 90
        0
176
     1
290
     0
176
     1
 90
        1
176
     1
 40
0.0
176
     1
 90
        0
176
     1
290
     0
176
     1
290
     1
176
     1
290
     1
176
     1
290
     0
176
     1
290
     0
176
     1
290
     0
176
     1
290
     0
176
     1
290
     0
176
     1
290
     0
176
     1
 90
       50
176
     1
 40
0.0
176
     1
 40
1.0
176
     1
 90
        0
176
     1
 62
    18
420
        0
176
     1
 90
       50
176
     1
 90
        3
176
     1
 62
     5
420
      255
176
     1
290
     0
176
     1
 90
       50
176
     1
 90
       50
176
     1
 90
       50
176
     1
290
     0
176
     1
 90
       50
176
     1
 62
   256
176
     0
 40
1.0
176
     0
 90
        2
176
     1
  1
strokes_ogs.tif
176
     1
290
     0
176
     1
 40
1.0
176
     1
 40
1.0
176
     1
  0
VISUALSTYLE
  5
3B
102
{ACAD_REACTORS
330
2A
102
}
330
2A
100
AcDbVisualStyle
  2
JitterOff
 70
    20
177
     3
291
     1
 70
    58
 90
        2
176
     0
 90
        2
176
     0
 90
        0
176
     0
 90
        0
176
     0
 40
0.6
176
     0
 40
30.0
176
     0
 62
     7
420
 16777215
176
     0
 90
        1
176
     0
 90
        4
176
     0
 62
     7
176
     0
 62
   257
176
     0
 90
        1
176
     0
 90
        1
176
     0
 40
1.0
176
     0
 90
       10
176
     2
 62
     7
176
     0
 40
1.0
176
     0
 90
        1
176
     0
 90
        6
176
     0
 90
        2
176
     0
 62
     7
176
     0
 90
        5
176
     0
 90
        0
176
     0
 90
        0
176
     0
290
     0
176
     0
 90
        1
176
     0
 40
0.0
176
     0
 90
        0
176
     0
290
     0
176
     0
290
     1
176
     0
290
     1
176
     0
290
     0
176
     0
290
     0
176
     0
290
     0
176
     0
290
     0
176
     0
290
     0
176
     0
290
     0
176
     0
 90
       50
176
     0
 40
0.0
176
     0
 40
1.0
176
     0
 90
        0
176
     0
 62
    18
420
        0
176
     0
 90
       50
176
     0
 90
        3
176
     0
 62
     5
420
      255
176
     0
290
     0
176
     0
 90
       50
176
     0
 90
       50
176
     0
 90
       50
176
     0
290
     0
176
     0
 90
       50
176
     0
 62
   256
176
     0
 40
1.0
176
     0
 90
        2
176
     0
  1
strokes_ogs.tif
176
     0
290
     0
176
     0
 40
1.0
176
     0
 40
1.0
176
     0
  0
VISUALSTYLE
  5
38
102
{ACAD_REACTORS
330
2A
102
}
330
2A
100
AcDbVisualStyle
  2
Linepattern
 70
    14
177
     3
291
     1
 70
    58
 90
        2
176
     1
 90
        2
176
     1
 90
        0
176
     1
 90
        0
176
     1
 40
0.6
176
     1
 40
30.0
176
     1
 62
     7
420
 16777215
176
     1
 90
        1
176
     1
 90
        4
176
     1
 62
     7
176
     1
 62
   257
176
     1
 90
        7
176
     1
 90
        7
176
     1
 40
1.0
176
     1
 90
        8
176
     1
 62
     7
176
     1
 40
1.0
176
     1
 90
        1
176
     1
 90
        6
176
     1
 90
        2
176
     1
 62
     7
176
     1
 90
        5
176
     1
 90
        0
176
     1
 90
        0
176
     1
290
     0
176
     1
 90
        1
176
     1
 40
0.0
176
     1
 90
        0
176
     1
290
     0
176
     1
290
     1
176
     1
290
     1
176
     1
290
     0
176
     1
290
     0
176
     1
290
     0
176
     1
290
     0
176
     1
290
     0
176
     1
290
     0
176
     1
 90
       50
176
     1
 40
0.0
176
     1
 40
1.0
176
     1
 90
        0
176
     1
 62
    18
420
        0
176
     1
 90
       50
176
     1
 90
        3
176
     1
 62
     5
420
      255
176
     1
290
     0
176
     1
 90
       50
176
     1
 90
       50
176
     1
 90
       50
176
     1
290
     0
176
     1
 90
       50
176
     1
 62
   256
176
     0
 40
1.0
176
     0
 90
        2
176
     1
  1
strokes_ogs.tif
176
     1
290
     0
176
     1
 40
1.0
176
     1
 40
1.0
176
     1
  0
VISUALSTYLE
  5
3C
102
{ACAD_REACTORS
330
2A
102
}
330
2A
100
AcDbVisualStyle
  2
OverhangOff
 70
    21
177
     3
291
     1
 70
    58
 90
        2
176
     0
 90
        2
176
     0
 90
        0
176
     0
 90
        0
176
     0
 40
0.6
176
     0
 40
30.0
176
     0
 62
     7
420
 16777215
176
     0
 90
        1
176
     0
 90
        4
176
     0
 62
     7
176
     0
 62
   257
176
     0
 90
        1
176
     0
 90
        1
176
     0
 40
1.0
176
     0
 90
        9
176
     2
 62
     7
176
     0
 40
1.0
176
     0
 90
        1
176
     0
 90
        6
176
     0
 90
        2
176
     0
 62
     7
176
     0
 90
        5
176
     0
 90
        0
176
     0
 90
        0
176
     0
290
     0
176
     0
 90
        1
176
     0
 40
0.0
176
     0
 90
        0
176
     0
290
     0
176
     0
290
     1
176
     0
290
     1
176
     0
290
     0
176
     0
290
     0
176
     0
290
     0
176
     0
290
     0
176
     0
290
     0
176
     0
290
     0
176
     0
 90
       50
176
     0
 40
0.0
176
     0
 40
1.0
176
     0
 90
        0
176
     0
 62
    18
420
        0
176
     0
 90
       50
176
     0
 90
        3
176
     0
 62
     5
420
      255
176
     0
290
     0
176
     0
 90
       50
176
     0
 90
       50
176
     0
 90
       50
176
     0
290
     0
176
     0
 90
       50
176
     0
 62
   256
176
     0
 40
1.0
176
     0
 90
        2
176
     0
  1
strokes_ogs.tif
176
     0
290
     0
176
     0
 40
1.0
176
     0
 40
1.0
176
     0
  0
VISUALSTYLE
  5
33
102
{ACAD_REACTORS
330
2A
102
}
330
2A
100
AcDbVisualStyle
  2
Realistic
 70
     8
177
     3
291
     0
 70
    58
 90
        2
176
     1
 90
        3
176
     1
 90
        0
176
     1
 90
        2
176
     1
 40
0.6
176
     1
 40
30.0
176
     1
 62
     7
420
 16777215
176
     1
 90
        0
176
     1
 90
        0
176
     1
 62
     7
176
     1
 62
   257
176
     1
 90
        1
176
     1
 90
        1
176
     1
 40
1.0
176
     1
 90
        8
176
     1
 62
   257
176
     1
 40
1.0
176
     1
 90
        1
176
     1
 90
        6
176
     1
 90
        2
176
     1
 62
     7
176
     1
 90
        3
176
     1
 90
        0
176
     1
 90
        0
176
     1
290
     0
176
     1
 90
       13
176
     1
 40
0.0
176
     1
 90
        0
176
     1
290
     0
176
     1
290
     1
176
     1
290
     1
176
     1
290
     0
176
     1
290
     0
176
     1
290
     0
176
     1
290
     0
176
     1
290
     0
176
     1
290
     0
176
     1
 90
       50
176
     1
 40
0.0
176
     1
 40
1.0
176
     1
 90
        0
176
     1
 62
    18
420
        0
176
     1
 90
       50
176
     1
 90
        3
176
     1
 62
     5
420
      255
176
     1
290
     0
176
     1
 90
       50
176
     1
 90
       50
176
     1
 90
       50
176
     1
290
     0
176
     1
 90
       50
176
     1
 62
   256
176
     0
 40
1.0
176
     0
 90
        2
176
     1
  1
strokes_ogs.tif
176
     1
290
     0
176
     1
 40
1.0
176
     1
 40
1.0
176
     1
  0
VISUALSTYLE
  5
42
102
{ACAD_REACTORS
330
2A
102
}
330
2A
100
AcDbVisualStyle
  2
Shaded
 70
    27
177
     3
291
     0
 70
    58
 90
        2
176
     1
 90
        2
176
     1
 90
        1
176
     1
 90
        2
176
     1
 40
0.6
176
     1
 40
30.0
176
     1
 62
     7
420
 16777215
176
     1
 90
        0
176
     1
 90
        4
176
     1
 62
     7
176
     1
 62
   257
176
     1
 90
        1
176
     1
 90
        1
176
     1
 40
1.0
176
     1
 90
        8
176
     1
 62
   257
176
     1
 40
1.0
176
     1
 90
        1
176
     1
 90
        6
176
     1
 90
        2
176
     1
 62
     8
420
  7895160
176
     1
 90
        3
176
     1
 90
        0
176
     1
 90
        0
176
     1
290
     0
176
     1
 90
        5
176
     1
 40
0.0
176
     1
 90
        0
176
     1
290
     0
176
     1
290
     1
176
     1
290
     1
176
     1
290
     0
176
     1
290
     0
176
     1
290
     0
176
     1
290
     0
176
     1
290
     0
176
     1
290
     0
176
     1
 90
       50
176
     1
 40
0.0
176
     1
 40
1.0
176
     1
 90
        0
176
     1
 62
    18
420
        0
176
     1
 90
       50
176
     1
 90
        3
176
     1
 62
     5
420
      255
176
     1
290
     0
176
     1
 90
       50
176
     1
 90
       50
176
     1
 90
       50
176
     1
290
     0
176
     1
 90
       50
176
     1
 62
   256
176
     0
 40
1.0
176
     0
 90
        2
176
     1
  1
strokes_ogs.tif
176
     1
290
     0
176
     1
 40
1.0
176
     1
 40
1.0
176
     1
  0
VISUALSTYLE
  5
41
102
{ACAD_REACTORS
330
2A
102
}
330
2A
100
AcDbVisualStyle
  2
Shaded with edges
 70
    26
177
     3
291
     0
 70
    58
 90
        2
176
     1
 90
        2
176
     1
 90
        1
176
     1
 90
        2
176
     1
 40
0.6
176
     1
 40
30.0
176
     1
 62
     7
420
 16777215
176
     1
 90
        1
176
     1
 90
       10
176
     1
 62
     7
176
     1
 62
   257
176
     1
 90
        2
176
     1
 90
        1
176
     1
 40
1.0
176
     1
 90
        8
176
     1
 62
   257
176
     1
 40
1.0
176
     1
 90
        1
176
     1
 90
        6
176
     1
 90
        2
176
     1
 62
     7
176
     1
 90
        3
176
     1
 90
        0
176
     1
 90
        0
176
     1
290
     0
176
     1
 90
        5
176
     1
 40
0.0
176
     1
 90
        0
176
     1
290
     0
176
     1
290
     1
176
     1
290
     1
176
     1
290
     0
176
     1
290
     0
176
     1
290
     0
176
     1
290
     0
176
     1
290
     0
176
     1
290
     0
176
     1
 90
       50
176
     1
 40
0.0
176
     1
 40
1.0
176
     1
 90
        0
176
     1
 62
    18
420
        0
176
     1
 90
       50
176
     1
 90
        3
176
     1
 62
     5
420
      255
176
     1
290
     0
176
     1
 90
       50
176
     1
 90
       50
176
     1
 90
       50
176
     1
290
     0
176
     1
 90
       50
176
     1
 62
   256
176
     0
 40
1.0
176
     0
 90
        2
176
     1
  1
strokes_ogs.tif
176
     1
290
     0
176
     1
 40
1.0
176
     1
 40
1.0
176
     1
  0
VISUALSTYLE
  5
3E
102
{ACAD_REACTORS
330
2A
102
}
330
2A
100
AcDbVisualStyle
  2
Shades of Gray
 70
    23
177
     3
291
     0
 70
    58
 90
        2
176
     1
 90
        2
176
     1
 90
        3
176
     1
 90
        0
176
     1
 40
0.6
176
     1
 40
30.0
176
     1
 62
     7
420
 16777215
176
     1
 90
        2
176
     1
 90
        2
176
     1
 62
     7
176
     1
 62
     7
176
     1
 90
        1
176
     1
 90
        1
176
     1
 40
40.0
176
     1
 90
        8
176
     1
 62
     7
176
     1
 40
1.0
176
     1
 90
        1
176
     1
 90
        6
176
     1
 90
        2
176
     1
 62
     7
176
     1
 90
        3
176
     1
 90
        0
176
     1
 90
        0
176
     1
290
     0
176
     1
 90
        1
176
     1
 40
0.0
176
     1
 90
        0
176
     1
290
     0
176
     1
290
     1
176
     1
290
     1
176
     1
290
     0
176
     1
290
     0
176
     1
290
     0
176
     1
290
     0
176
     1
290
     0
176
     1
290
     0
176
     1
 90
       50
176
     1
 40
0.0
176
     1
 40
1.0
176
     1
 90
        0
176
     1
 62
    18
420
        0
176
     1
 90
       50
176
     1
 90
        3
176
     1
 62
     5
420
      255
176
     1
290
     0
176
     1
 90
       50
176
     1
 90
       50
176
     1
 90
       50
176
     1
290
     0
176
     1
 90
       50
176
     1
 62
   256
176
     0
 40
1.0
176
     0
 90
        2
176
     1
  1
strokes_ogs.tif
176
     1
290
     0
176
     1
 40
1.0
176
     1
 40
1.0
176
     1
  0
VISUALSTYLE
  5
3F
102
{ACAD_REACTORS
330
2A
102
}
330
2A
100
AcDbVisualStyle
  2
Sketchy
 70
    24
177
     3
291
     0
 70
    58
 90
        1
176
     1
 90
        2
176
     1
 90
        2
176
     1
 90
        0
176
     1
 40
0.6
176
     1
 40
30.0
176
     1
 62
     7
420
 16777215
176
     1
 90
        2
176
     1
 90
        2
176
     1
 62
     7
176
     1
 62
     7
176
     1
 90
        1
176
     1
 90
        1
176
     1
 40
40.0
176
     1
 90
       11
176
     1
 62
     7
176
     1
 40
1.0
176
     1
 90
        1
176
     1
 90
        6
176
     1
 90
        2
176
     1
 62
     7
176
     1
 90
        6
176
     1
 90
        0
176
     1
 90
        0
176
     1
290
     0
176
     1
 90
        1
176
     1
 40
0.0
176
     1
 90
        0
176
     1
290
     0
176
     1
290
     1
176
     1
290
     1
176
     1
290
     0
176
     1
290
     0
176
     1
290
     0
176
     1
290
     0
176
     1
290
     0
176
     1
290
     0
176
     1
 90
       50
176
     1
 40
0.0
176
     1
 40
1.0
176
     1
 90
        0
176
     1
 62
    18
420
        0
176
     1
 90
       50
176
     1
 90
        3
176
     1
 62
     5
420
      255
176
     1
290
     0
176
     1
 90
       50
176
     1
 90
       50
176
     1
 90
       50
176
     1
290
     0
176
     1
 90
       50
176
     1
 62
   256
176
     0
 40
1.0
176
     0
 90
        2
176
     1
  1
strokes_ogs.tif
176
     1
290
     0
176
     1
 40
1.0
176
     1
 40
1.0
176
     1
  0
VISUALSTYLE
  5
37
102
{ACAD_REACTORS
330
2A
102
}
330
2A
100
AcDbVisualStyle
  2
Thicken
 70
    13
177
     3
291
     1
 70
    58
 90
        2
176
     1
 90
        2
176
     1
 90
        0
176
     1
 90
        0
176
     1
 40
0.6
176
     1
 40
30.0
176
     1
 62
     7
420
 16777215
176
     1
 90
        1
176
     1
 90
        4
176
     1
 62
     7
176
     1
 62
   257
176
     1
 90
        1
176
     1
 90
        1
176
     1
 40
1.0
176
     1
 90
       12
176
     1
 62
     7
176
     1
 40
1.0
176
     1
 90
        1
176
     1
 90
        6
176
     1
 90
        2
176
     1
 62
     7
176
     1
 90
        5
176
     1
 90
        0
176
     1
 90
        0
176
     1
290
     0
176
     1
 90
        1
176
     1
 40
0.0
176
     1
 90
        0
176
     1
290
     0
176
     1
290
     1
176
     1
290
     1
176
     1
290
     0
176
     1
290
     0
176
     1
290
     0
176
     1
290
     0
176
     1
290
     0
176
     1
290
     0
176
     1
 90
       50
176
     1
 40
0.0
176
     1
 40
1.0
176
     1
 90
        0
176
     1
 62
    18
420
        0
176
     1
 90
       50
176
     1
 90
        3
176
     1
 62
     5
420
      255
176
     1
290
     0
176
     1
 90
       50
176
     1
 90
       50
176
     1
 90
       50
176
     1
290
     0
176
     1
 90
       50
176
     1
 62
   256
176
     0
 40
1.0
176
     0
 90
        2
176
     1
  1
strokes_ogs.tif
176
     1
290
     0
176
     1
 40
1.0
176
     1
 40
1.0
176
     1
  0
VISUALSTYLE
  5
30
102
{ACAD_REACTORS
330
2A
102
}
330
2A
100
AcDbVisualStyle
  2
Wireframe
 70
     5
177
     3
291
     0
 70
    58
 90
        0
176
     1
 90
        2
176
     1
 90
        0
176
     1
 90
        0
176
     1
 40
0.6
176
     1
 40
30.0
176
     1
 62
     7
420
 16777215
176
     1
 90
        1
176
     1
 90
        4
176
     1
 62
     7
176
     1
 62
   257
176
     1
 90
        1
176
     1
 90
        1
176
     1
 40
1.0
176
     1
 90
        0
176
     1
 62
   257
176
     1
 40
1.0
176
     1
 90
        1
176
     1
 90
        6
176
     1
 90
        2
176
     1
 62
     7
176
     1
 90
        3
176
     1
 90
        0
176
     1
 90
        0
176
     1
290
     0
176
     1
 90
        1
176
     1
 40
0.0
176
     1
 90
        0
176
     1
290
     0
176
     1
290
     1
176
     1
290
     1
176
     1
290
     0
176
     1
290
     0
176
     1
290
     0
176
     1
290
     0
176
     1
290
     0
176
     1
290
     0
176
     1
 90
       50
176
     1
 40
0.0
176
     1
 40
1.0
176
     1
 90
        0
176
     1
 62
    18
420
        0
176
     1
 90
       50
176
     1
 90
        3
176
     1
 62
     5
420
      255
176
     1
290
     0
176
     1
 90
       50
176
     1
 90
       50
176
     1
 90
       50
176
     1
290
     0
176
     1
 90
       50
176
     1
 62
   256
176
     0
 40
1.0
176
     0
 90
        2
176
     1
  1
strokes_ogs.tif
176
     1
290
     0
176
     1
 40
1.0
176
     1
 40
1.0
176
     1
  0
VISUALSTYLE
  5
40
102
{ACAD_REACTORS
330
2A
102
}
330
2A
100
AcDbVisualStyle
  2
X-Ray
 70
    25
177
     3
291
     0
 70
    58
 90
        2
176
     1
 90
        2
176
     1
 90
        1
176
     1
 90
        1
176
     1
 40
0.5
176
     1
 40
30.0
176
     1
 62
     7
420
 16777215
176
     1
 90
        1
176
     1
 90
        0
176
     1
 62
     7
176
     1
 62
   257
176
     1
 90
        1
176
     1
 90
        1
176
     1
 40
1.0
176
     1
 90
        8
176
     1
 62
     7
176
     1
 40
1.0
176
     1
 90
        1
176
     1
 90
        6
176
     1
 90
        2
176
     1
 62
     7
176
     1
 90
        3
176
     1
 90
        0
176
     1
 90
        0
176
     1
290
     0
176
     1
 90
       13
176
     1
 40
0.0
176
     1
 90
        0
176
     1
290
     0
176
     1
290
     1
176
     1
290
     1
176
     1
290
     0
176
     1
290
     0
176
     1
290
     0
176
     1
290
     0
176
     1
290
     0
176
     1
290
     0
176
     1
 90
       50
176
     1
 40
0.0
176
     1
 40
1.0
176
     1
 90
        0
176
     1
 62
    18
420
        0
176
     1
 90
       50
176
     1
 90
        3
176
     1
 62
     5
420
      255
176
     1
290
     0
176
     1
 90
       50
176
     1
 90
       50
176
     1
 90
       50
176
     1
290
     0
176
     1
 90
       50
176
     1
 62
   256
176
     0
 40
1.0
176
     0
 90
        2
176
     1
  1
strokes_ogs.tif
176
     1
290
     0
176
     1
 40
1.0
176
     1
 40
1.0
176
     1
  0
DICTIONARYVAR
  5
76
102
{ACAD_REACTORS
330
75
102
}
330
75
100
DictionaryVariables
280
     0
  1
1:1
  0
DICTIONARYVAR
  5
7E
102
{ACAD_REACTORS
330
75
102
}
330
75
100
DictionaryVariables
280
     0
  1
3.500000
  0
DICTIONARYVAR
  5
7F
102
{ACAD_REACTORS
330
75
102
}
330
75
100
DictionaryVariables
280
     0
  1
acadiso.lin
  0
DICTIONARYVAR
  5
7B
102
{ACAD_REACTORS
330
75
102
}
330
75
100
DictionaryVariables
280
     0
  1
Standard
  0
DICTIONARYVAR
  5
7A
102
{ACAD_REACTORS
330
75
102
}
330
75
100
DictionaryVariables
280
     0
  1
Standard
  0
DICTIONARY
  5
77
330
5A
100
AcDbDictionary
280
     1
281
     1
  3
ACAD_ROUNDTRIP_2008_TABLESTYLE_CELLSTYLEMAP
360
78
  0
CELLSTYLEMAP
  5
78
102
{ACAD_REACTORS
330
77
102
}
330
77
100
AcDbCellStyleMap
 90
        3
300
CELLSTYLE
  1
TABLEFORMAT_BEGIN
 90
        5
170
     1
 91
        0
 92
    32768
 62
   257
 93
        1
300
CONTENTFORMAT
  1
CONTENTFORMAT_BEGIN
 90
        0
 91
        0
 92
        4
 93
        0
300

 40
0.0
140
1.0
 94
        5
 62
     0
340
11
144
6.0
309
CONTENTFORMAT_END
171
     1
301
MARGIN
  1
CELLMARGIN_BEGIN
 40
1.5
 40
1.5
 40
1.5
 40
1.5
 40
1.5
 40
1.5
309
CELLMARGIN_END
 94
        6
 95
        1
302
GRIDFORMAT
  1
GRIDFORMAT_BEGIN
 90
        0
 91
        1
 62
     0
 92
       -2
340
14
 93
        0
 40
0.045
309
GRIDFORMAT_END
 95
        2
302
GRIDFORMAT
  1
GRIDFORMAT_BEGIN
 90
        0
 91
        1
 62
     0
 92
       -2
340
14
 93
        0
 40
0.045
309
GRIDFORMAT_END
 95
        4
302
GRIDFORMAT
  1
GRIDFORMAT_BEGIN
 90
        0
 91
        1
 62
     0
 92
       -2
340
14
 93
        0
 40
0.045
309
GRIDFORMAT_END
 95
        8
302
GRIDFORMAT
  1
GRIDFORMAT_BEGIN
 90
        0
 91
        1
 62
     0
 92
       -2
340
14
 93
        0
 40
0.045
309
GRIDFORMAT_END
 95
       16
302
GRIDFORMAT
  1
GRIDFORMAT_BEGIN
 90
        0
 91
        1
 62
     0
 92
       -2
340
14
 93
        0
 40
0.045
309
GRIDFORMAT_END
 95
       32
302
GRIDFORMAT
  1
GRIDFORMAT_BEGIN
 90
        0
 91
        1
 62
     0
 92
       -2
340
14
 93
        0
 40
0.045
309
GRIDFORMAT_END
309
TABLEFORMAT_END
  1
CELLSTYLE_BEGIN
 90
        1
 91
        1
300
_TITLE
309
CELLSTYLE_END
300
CELLSTYLE
  1
TABLEFORMAT_BEGIN
 90
        5
170
     1
 91
        0
 92
        0
 62
   257
 93
        1
300
CONTENTFORMAT
  1
CONTENTFORMAT_BEGIN
 90
        0
 91
        0
 92
        4
 93
        0
300

 40
0.0
140
1.0
 94
        5
 62
     0
340
11
144
4.5
309
CONTENTFORMAT_END
171
     1
301
MARGIN
  1
CELLMARGIN_BEGIN
 40
1.5
 40
1.5
 40
1.5
 40
1.5
 40
1.5
 40
1.5
309
CELLMARGIN_END
 94
        6
 95
        1
302
GRIDFORMAT
  1
GRIDFORMAT_BEGIN
 90
        0
 91
        1
 62
     0
 92
       -2
340
14
 93
        0
 40
0.045
309
GRIDFORMAT_END
 95
        2
302
GRIDFORMAT
  1
GRIDFORMAT_BEGIN
 90
        0
 91
        1
 62
     0
 92
       -2
340
14
 93
        0
 40
0.045
309
GRIDFORMAT_END
 95
        4
302
GRIDFORMAT
  1
GRIDFORMAT_BEGIN
 90
        0
 91
        1
 62
     0
 92
       -2
340
14
 93
        0
 40
0.045
309
GRIDFORMAT_END
 95
        8
302
GRIDFORMAT
  1
GRIDFORMAT_BEGIN
 90
        0
 91
        1
 62
     0
 92
       -2
340
14
 93
        0
 40
0.045
309
GRIDFORMAT_END
 95
       16
302
GRIDFORMAT
  1
GRIDFORMAT_BEGIN
 90
        0
 91
        1
 62
     0
 92
       -2
340
14
 93
        0
 40
0.045
309
GRIDFORMAT_END
 95
       32
302
GRIDFORMAT
  1
GRIDFORMAT_BEGIN
 90
        0
 91
        1
 62
     0
 92
       -2
340
14
 93
        0
 40
0.045
309
GRIDFORMAT_END
309
TABLEFORMAT_END
  1
CELLSTYLE_BEGIN
 90
        2
 91
        1
300
_HEADER
309
CELLSTYLE_END
300
CELLSTYLE
  1
TABLEFORMAT_BEGIN
 90
        5
170
     1
 91
        0
 92
        0
 62
   257
 93
        1
300
CONTENTFORMAT
  1
CONTENTFORMAT_BEGIN
 90
        0
 91
        0
 92
        4
 93
        0
300

 40
0.0
140
1.0
 94
        2
 62
     0
340
11
144
4.5
309
CONTENTFORMAT_END
171
     1
301
MARGIN
  1
CELLMARGIN_BEGIN
 40
1.5
 40
1.5
 40
1.5
 40
1.5
 40
1.5
 40
1.5
309
CELLMARGIN_END
 94
        6
 95
        1
302
GRIDFORMAT
  1
GRIDFORMAT_BEGIN
 90
        0
 91
        1
 62
     0
 92
       -2
340
14
 93
        0
 40
0.045
309
GRIDFORMAT_END
 95
        2
302
GRIDFORMAT
  1
GRIDFORMAT_BEGIN
 90
        0
 91
        1
 62
     0
 92
       -2
340
14
 93
        0
 40
0.045
309
GRIDFORMAT_END
 95
        4
302
GRIDFORMAT
  1
GRIDFORMAT_BEGIN
 90
        0
 91
        1
 62
     0
 92
       -2
340
14
 93
        0
 40
0.045
309
GRIDFORMAT_END
 95
        8
302
GRIDFORMAT
  1
GRIDFORMAT_BEGIN
 90
        0
 91
        1
 62
     0
 92
       -2
340
14
 93
        0
 40
0.045
309
GRIDFORMAT_END
 95
       16
302
GRIDFORMAT
  1
GRIDFORMAT_BEGIN
 90
        0
 91
        1
 62
     0
 92
       -2
340
14
 93
        0
 40
0.045
309
GRIDFORMAT_END
 95
       32
302
GRIDFORMAT
  1
GRIDFORMAT_BEGIN
 90
        0
 91
        1
 62
     0
 92
       -2
340
14
 93
        0
 40
0.045
309
GRIDFORMAT_END
309
TABLEFORMAT_END
  1
CELLSTYLE_BEGIN
 90
        3
 91
        2
300
_DATA
309
CELLSTYLE_END
  0
ENDSEC
  0
EOF
