  0
SECTION
  2
HEADER
  9
$ACADVER
  1
AC1032
  9
$ACADMAINTVER
 90
       55
  9
$DWGCODEPAGE
  3
ISO8859-1
  9
$LASTSAVEDBY
  1
User
  9
$REQUIREDVERSIONS
160
                 0
  9
$INSBASE
 10
0.0
 20
0.0
 30
0.0
  9
$EXTMIN
 10
1.000000000000000E+20
 20
1.000000000000000E+20
 30
1.000000000000000E+20
  9
$EXTMAX
 10
-1.000000000000000E+20
 20
-1.000000000000000E+20
 30
-1.000000000000000E+20
  9
$LIMMIN
 10
0.0
 20
0.0
  9
$LIMMAX
 10
420.0
 20
297.0
  9
$ORTHOMODE
 70
     0
  9
$REGENMODE
 70
     1
  9
$FILLMODE
 70
     1
  9
$QTEXTMODE
 70
     0
  9
$MIRRTEXT
 70
     1
  9
$LTSCALE
 40
1.0
  9
$ATTMODE
 70
     1
  9
$TEXTSIZE
 40
2.5
  9
$TRACEWID
 40
1.0
  9
$TEXTSTYLE
  7
Standard
  9
$CLAYER
  8
0
  9
$CELTYPE
  6
ByLayer
  9
$CECOLOR
 62
   256
  9
$CELTSCALE
 40
1.0
  9
$DISPSILH
 70
     0
  9
$DIMSCALE
 40
1.0
  9
$DIMASZ
 40
2.5
  9
$DIMEXO
 40
0.625
  9
$DIMDLI
 40
3.75
  9
$DIMRND
 40
0.0
  9
$DIMDLE
 40
0.0
  9
$DIMEXE
 40
1.25
  9
$DIMTP
 40
0.0
  9
$DIMTM
 40
0.0
  9
$DIMTXT
 40
2.5
  9
$DIMCEN
 40
2.5
  9
$DIMTSZ
 40
0.0
  9
$DIMTOL
 70
     0
  9
$DIMLIM
 70
     0
  9
$DIMTIH
 70
     0
  9
$DIMTOH
 70
     0
  9
$DIMSE1
 70
     0
  9
$DIMSE2
 70
     0
  9
$DIMTAD
 70
     1
  9
$DIMZIN
 70
     8
  9
$DIMBLK
  1

  9
$DIMASO
 70
     1
  9
$DIMSHO
 70
     1
  9
$DIMPOST
  1

  9
$DIMAPOST
  1

  9
$DIMALT
 70
     0
  9
$DIMALTD
 70
     3
  9
$DIMALTF
 40
0.03937007874016
  9
$DIMLFAC
 40
1.0
  9
$DIMTOFL
 70
     1
  9
$DIMTVP
 40
0.0
  9
$DIMTIX
 70
     0
  9
$DIMSOXD
 70
     0
  9
$DIMSAH
 70
     0
  9
$DIMBLK1
  1

  9
$DIMBLK2
  1

  9
$DIMSTYLE
  2
ISO-25
  9
$DIMCLRD
 70
     0
  9
$DIMCLRE
 70
     0
  9
$DIMCLRT
 70
     0
  9
$DIMTFAC
 40
1.0
  9
$DIMGAP
 40
0.625
  9
$DIMJUST
 70
     0
  9
$DIMSD1
 70
     0
  9
$DIMSD2
 70
     0
  9
$DIMTOLJ
 70
     0
  9
$DIMTZIN
 70
     8
  9
$DIMALTZ
 70
     0
  9
$DIMALTTZ
 70
     0
  9
$DIMUPT
 70
     0
  9
$DIMDEC
 70
     2
  9
$DIMTDEC
 70
     2
  9
$DIMALTU
 70
     2
  9
$DIMALTTD
 70
     3
  9
$DIMTXSTY
  7
Standard
  9
$DIMAUNIT
 70
     0
  9
$DIMADEC
 70
     0
  9
$DIMALTRND
 40
0.0
  9
$DIMAZIN
 70
     0
  9
$DIMDSEP
 70
    44
  9
$DIMATFIT
 70
     3
  9
$DIMFRAC
 70
     0
  9
$DIMLDRBLK
  1

  9
$DIMLUNIT
 70
     2
  9
$DIMLWD
 70
    -2
  9
$DIMLWE
 70
    -2
  9
$DIMTMOVE
 70
     0
  9
$DIMFXL
 40
1.0
  9
$DIMFXLON
 70
     0
  9
$DIMJOGANG
 40
0.7853981633974483
  9
$DIMTFILL
 70
     0
  9
$DIMTFILLCLR
 70
     0
  9
$DIMARCSYM
 70
     0
  9
$DIMLTYPE
  6

  9
$DIMLTEX1
  6

  9
$DIMLTEX2
  6

  9
$DIMTXTDIRECTION
 70
     0
  9
$LUNITS
 70
     2
  9
$LUPREC
 70
     4
  9
$SKETCHINC
 40
1.0
  9
$FILLETRAD
 40
0.0
  9
$AUNITS
 70
     0
  9
$AUPREC
 70
     0
  9
$MENU
  1
.
  9
$ELEVATION
 40
0.0
  9
$PELEVATION
 40
0.0
  9
$THICKNESS
 40
0.0
  9
$LIMCHECK
 70
     0
  9
$CHAMFERA
 40
0.0
  9
$CHAMFERB
 40
0.0
  9
$CHAMFERC
 40
0.0
  9
$CHAMFERD
 40
0.0
  9
$SKPOLY
 70
     0
  9
$TDCREATE
 40
2461208.002878982
  9
$TDUCREATE
 40
2461208.127878982
  9
$TDUPDATE
 40
2461208.002879028
  9
$TDUUPDATE
 40
2461208.127879028
  9
$TDINDWG
 40
0.0000000116
  9
$TDUSRTIMER
 40
0.0000000116
  9
$USRTIMER
 70
     1
  9
$ANGBASE
 50
0.0
  9
$ANGDIR
 70
     0
  9
$PDMODE
 70
     0
  9
$PDSIZE
 40
0.0
  9
$PLINEWID
 40
0.0
  9
$SPLFRAME
 70
     0
  9
$SPLINETYPE
 70
     6
  9
$SPLINESEGS
 70
     8
  9
$HANDSEED
  5
86
  9
$SURFTAB1
 70
     6
  9
$SURFTAB2
 70
     6
  9
$SURFTYPE
 70
     6
  9
$SURFU
 70
     6
  9
$SURFV
 70
     6
  9
$UCSBASE
  2

  9
$UCSNAME
  2

  9
$UCSORG
 10
0.0
 20
0.0
 30
0.0
  9
$UCSXDIR
 10
1.0
 20
0.0
 30
0.0
  9
$UCSYDIR
 10
0.0
 20
1.0
 30
0.0
  9
$UCSORTHOREF
  2

  9
$UCSORTHOVIEW
 70
     0
  9
$UCSORGTOP
 10
0.0
 20
0.0
 30
0.0
  9
$UCSORGBOTTOM
 10
0.0
 20
0.0
 30
0.0
  9
$UCSORGLEFT
 10
0.0
 20
0.0
 30
0.0
  9
$UCSORGRIGHT
 10
0.0
 20
0.0
 30
0.0
  9
$UCSORGFRONT
 10
0.0
 20
0.0
 30
0.0
  9
$UCSORGBACK
 10
0.0
 20
0.0
 30
0.0
  9
$PUCSBASE
  2

  9
$PUCSNAME
  2

  9
$PUCSORG
 10
0.0
 20
0.0
 30
0.0
  9
$PUCSXDIR
 10
1.0
 20
0.0
 30
0.0
  9
$PUCSYDIR
 10
0.0
 20
1.0
 30
0.0
  9
$PUCSORTHOREF
  2

  9
$PUCSORTHOVIEW
 70
     0
  9
$PUCSORGTOP
 10
0.0
 20
0.0
 30
0.0
  9
$PUCSORGBOTTOM
 10
0.0
 20
0.0
 30
0.0
  9
$PUCSORGLEFT
 10
0.0
 20
0.0
 30
0.0
  9
$PUCSORGRIGHT
 10
0.0
 20
0.0
 30
0.0
  9
$PUCSORGFRONT
 10
0.0
 20
0.0
 30
0.0
  9
$PUCSORGBACK
 10
0.0
 20
0.0
 30
0.0
  9
$USERI1
 70
     0
  9
$USERI2
 70
     0
  9
$USERI3
 70
     0
  9
$USERI4
 70
     0
  9
$USERI5
 70
     0
  9
$USERR1
 40
0.0
  9
$USERR2
 40
0.0
  9
$USERR3
 40
0.0
  9
$USERR4
 40
0.0
  9
$USERR5
 40
0.0
  9
$WORLDVIEW
 70
     1
  9
$SHADEDGE
 70
     3
  9
$SHADEDIF
 70
    70
  9
$TILEMODE
 70
     1
  9
$MAXACTVP
 70
    64
  9
$PINSBASE
 10
0.0
 20
0.0
 30
0.0
  9
$PLIMCHECK
 70
     0
  9
$PEXTMIN
 10
169.418
 20
254.0
 30
0.0
  9
$PEXTMAX
 10
0.0
 20
0.0
 30
0.0
  9
$PLIMMIN
 10
-20.0
 20
-7.5
  9
$PLIMMAX
 10
277.0
 20
202.5
  9
$UNITMODE
 70
     0
  9
$VISRETAIN
 70
     1
  9
$PLINEGEN
 70
     0
  9
$PSLTSCALE
 70
     1
  9
$TREEDEPTH
 70
  3020
  9
$CMLSTYLE
  2
Standard
  9
$CMLJUST
 70
     0
  9
$CMLSCALE
 40
20.0
  9
$PROXYGRAPHICS
 70
     1
  9
$MEASUREMENT
 70
     1
  9
$CELWEIGHT
370
    -1
  9
$ENDCAPS
280
     0
  9
$JOINSTYLE
280
     0
  9
$LWDISPLAY
290
     0
  9
$INSUNITS
 70
     4
  9
$HYPERLINKBASE
  1

  9
$STYLESHEET
  1

  9
$XEDIT
290
     1
  9
$CEPSNTYPE
380
     0
  9
$PSTYLEMODE
290
     1
  9
$FINGERPRINTGUID
  2
{76d3af85-4415-4ba3-a236-ab0bb5a64135}
  9
$VERSIONGUID
  2
{FAEB1C32-E019-11D5-929B-00C0DF256EC4}
  9
$EXTNAMES
290
     1
  9
$PSVPSCALE
 40
0.0
  9
$OLESTARTUP
290
     0
  9
$SORTENTS
280
   127
  9
$INDEXCTL
280
     0
  9
$HIDETEXT
280
     1
  9
$XCLIPFRAME
280
     2
  9
$HALOGAP
280
     0
  9
$OBSCOLOR
 70
   257
  9
$OBSLTYPE
280
     0
  9
$INTERSECTIONDISPLAY
280
     0
  9
$INTERSECTIONCOLOR
 70
   257
  9
$DIMASSOC
280
     2
  9
$PROJECTNAME
  1

  9
$CAMERADISPLAY
290
     0
  9
$LENSLENGTH
 40
50.0
  9
$CAMERAHEIGHT
 40
0.0
  9
$STEPSPERSEC
 40
2.0
  9
$STEPSIZE
 40
6.0
  9
$3DDWFPREC
 40
2.0
  9
$PSOLWIDTH
 40
5.0
  9
$PSOLHEIGHT
 40
80.0
  9
$LOFTANG1
 40
1.570796326794897
  9
$LOFTANG2
 40
1.570796326794897
  9
$LOFTMAG1
 40
0.0
  9
$LOFTMAG2
 40
0.0
  9
$LOFTPARAM
 70
     7
  9
$LOFTNORMALS
280
     1
  9
$LATITUDE
 40
37.795
  9
$LONGITUDE
 40
-122.394
  9
$NORTHDIRECTION
 40
0.0
  9
$TIMEZONE
 70
 -8000
  9
$LIGHTGLYPHDISPLAY
280
     1
  9
$TILEMODELIGHTSYNCH
280
     1
  9
$CMATERIAL
347
44
  9
$SOLIDHIST
280
     0
  9
$SHOWHIST
280
     1
  9
$DWFFRAME
280
     2
  9
$DGNFRAME
280
     2
  9
$REALWORLDSCALE
290
     1
  9
$INTERFERECOLOR
 62
   256
  9
$CSHADOW
280
     0
  9
$SHADOWPLANELOCATION
 40
0.0
  0
ENDSEC
  0
SECTION
  2
CLASSES
  0
CLASS
  1
ACDBDICTIONARYWDFLT
  2
AcDbDictionaryWithDefault
  3
ObjectDBX Classes
 90
        0
 91
        3
280
     0
281
     0
  0
CLASS
  1
VISUALSTYLE
  2
AcDbVisualStyle
  3
ObjectDBX Classes
 90
     4095
 91
        3
280
     0
281
     0
  0
CLASS
  1
MATERIAL
  2
AcDbMaterial
  3
ObjectDBX Classes
 90
     1153
 91
        3
280
     0
281
     0
  0
CLASS
  1
SCALE
  2
AcDbScale
  3
ObjectDBX Classes
 90
     1153
 91
        3
280
     0
281
     0
  0
CLASS
  1
TABLESTYLE
  2
AcDbTableStyle
  3
ObjectDBX Classes
 90
     4095
 91
        3
280
     0
281
     0
  0
CLASS
  1
MLEADERSTYLE
  2
AcDbMLeaderStyle
  3
ACDB_MLEADERSTYLE_CLASS
 90
     4095
 91
        3
280
     0
281
     0
  0
CLASS
  1
SUN
  2
AcDbSun
  3
SCENEOE
 90
     1153
 91
        3
280
     0
281
     0
  0
CLASS
  1
DICTIONARYVAR
  2
AcDbDictionaryVar
  3
ObjectDBX Classes
 90
        0
 91
        3
280
     0
281
     0
  0
CLASS
  1
CELLSTYLEMAP
  2
AcDbCellStyleMap
  3
ObjectDBX Classes
 90
     1152
 91
        3
280
     0
281
     0
  0
ENDSEC
  0
SECTION
  2
TABLES
  0
TABLE
  2
VPORT
  5
8
330
0
100
AcDbSymbolTable
 70
     1
  0
VPORT
  5
29
330
8
100
AcDbSymbolTableRecord
100
AcDbViewportTableRecord
  2
*Active
 70
     0
 10
0.0
 20
0.0
 11
1.0
 21
1.0
 12
2003.721333333333
 22
84.66666666666674
 13
0.0
 23
0.0
 14
10.0
 24
10.0
 15
10.0
 25
10.0
 16
0.0
 26
0.0
 36
1.0
 17
0.0
 27
0.0
 37
0.0
 40
169.3333333333333
 41
1.972972972850329
 42
50.0
 43
0.0
 44
0.0
 50
0.0
 51
0.0
 71
     0
 72
   100
 73
     1
 74
     3
 75
     0
 76
     0
 77
     0
 78
     0
281
     0
 65
     1
110
0.0
120
0.0
130
0.0
111
1.0
121
0.0
131
0.0
112
0.0
122
1.0
132
0.0
 79
     0
146
0.0
348
2F
 60
     3
 61
     5
292
     1
282
     1
141
0.0
142
0.0
 63
   250
361
5D
  0
ENDTAB
  0
TABLE
  2
LTYPE
  5
5
330
0
100
AcDbSymbolTable
 70
     1
  0
LTYPE
  5
14
330
5
100
AcDbSymbolTableRecord
100
AcDbLinetypeTableRecord
  2
ByBlock
 70
     0
  3

 72
    65
 73
     0
 40
0.0
  0
LTYPE
  5
15
330
5
100
AcDbSymbolTableRecord
100
AcDbLinetypeTableRecord
  2
ByLayer
 70
     0
  3

 72
    65
 73
     0
 40
0.0
  0
LTYPE
  5
16
330
5
100
AcDbSymbolTableRecord
100
AcDbLinetypeTableRecord
  2
Continuous
 70
     0
  3
Solid line
 72
    65
 73
     0
 40
0.0
  0
ENDTAB
  0
TABLE
  2
LAYER
  5
2
330
0
100
AcDbSymbolTable
 70
     1
  0
LAYER
  5
10
330
2
100
AcDbSymbolTableRecord
100
AcDbLayerTableRecord
  2
0
 70
     0
 62
     7
  6
Continuous
370
    -3
390
F
347
46
348
0
  0
ENDTAB
  0
TABLE
  2
STYLE
  5
3
330
0
100
AcDbSymbolTable
 70
     1
  0
STYLE
  5
11
330
3
100
AcDbSymbolTableRecord
100
AcDbTextStyleTableRecord
  2
Standard
 70
     0
 40
0.0
 41
1.0
 50
0.0
 71
     0
 42
2.5
  3
txt
  4

  0
ENDTAB
  0
TABLE
  2
VIEW
  5
6
330
0
100
AcDbSymbolTable
 70
     0
  0
ENDTAB
  0
TABLE
  2
UCS
  5
7
330
0
100
AcDbSymbolTable
 70
     0
  0
ENDTAB
  0
TABLE
  2
APPID
  5
9
330
0
100
AcDbSymbolTable
 70
     1
  0
APPID
  5
12
330
9
100
AcDbSymbolTableRecord
100
AcDbRegAppTableRecord
  2
ACAD
 70
     0
  0
ENDTAB
  0
TABLE
  2
DIMSTYLE
  5
A
330
0
100
AcDbSymbolTable
 70
     1
100
AcDbDimStyleTable
  0
DIMSTYLE
105
27
330
A
100
AcDbSymbolTableRecord
100
AcDbDimStyleTableRecord
  2
ISO-25
 70
     0
 41
2.5
 42
0.625
 43
3.75
 44
1.25
 73
     0
 74
     0
 77
     1
 78
     8
140
2.5
141
2.5
143
0.03937007874016
147
0.625
171
     3
172
     1
178
     0
271
     2
272
     2
274
     3
278
    44
283
     0
284
     8
340
11
  0
ENDTAB
  0
TABLE
  2
BLOCK_RECORD
  5
1
330
0
100
AcDbSymbolTable
 70
     0
  0
BLOCK_RECORD
  5
1F
330
1
100
AcDbSymbolTableRecord
100
AcDbBlockTableRecord
  2
*Model_Space
340
22
 70
     0
280
     1
281
     0
  0
BLOCK_RECORD
  5
73
330
1
100
AcDbSymbolTableRecord
100
AcDbBlockTableRecord
  2
*Paper_Space
340
74
 70
     0
280
     1
281
     0
  0
ENDTAB
  0
ENDSEC
  0
SECTION
  2
BLOCKS
  0
BLOCK
  5
20
330
1F
100
AcDbEntity
  8
0
100
AcDbBlockBegin
  2
*Model_Space
 70
     0
 10
0.0
 20
0.0
 30
0.0
  3
*Model_Space
  1

  0
ENDBLK
  5
21
330
1F
100
AcDbEntity
  8
0
100
AcDbBlockEnd
  0
BLOCK
  5
75
330
73
100
AcDbEntity
 67
     1
  8
0
100
AcDbBlockBegin
  2
*Paper_Space
 70
     0
 10
0.0
 20
0.0
 30
0.0
  3
*Paper_Space
  1

  0
ENDBLK
  5
76
330
73
100
AcDbEntity
 67
     1
  8
0
100
AcDbBlockEnd
  0
ENDSEC
  0
SECTION
  2
ENTITIES
  0
HATCH
  5
5E
330
1F
100
AcDbEntity
  8
0
 62
    18
420
        0
440
 33554687
100
AcDbHatch
 10
0.0
 20
0.0
 30
0.0
210
0.0
220
0.0
230
1.0
  2
SOLID
 70
     1
 71
     1
 91
        2
 92
        0
 93
        1
 72
     4
 94
        3
 73
     0
 74
     1
 95
       56
 96
       52
 40
0.0
 40
0.0
 40
0.0
 40
0.0
 40
1.0
 40
1.0
 40
1.0
 40
2.0
 40
2.0
 40
2.0
 40
3.0
 40
3.0
 40
3.0
 40
4.0
 40
4.0
 40
4.0
 40
5.0
 40
5.0
 40
5.0
 40
6.0
 40
6.0
 40
6.0
 40
7.0
 40
7.0
 40
7.0
 40
8.0
 40
8.0
 40
8.0
 40
9.0
 40
9.0
 40
9.0
 40
10.0
 40
10.0
 40
10.0
 40
11.0
 40
11.0
 40
11.0
 40
12.0
 40
12.0
 40
12.0
 40
13.0
 40
13.0
 40
13.0
 40
14.0
 40
14.0
 40
14.0
 40
15.0
 40
15.0
 40
15.0
 40
16.0
 40
16.0
 40
16.0
 40
17.0
 40
17.0
 40
17.0
 40
17.0
 10
1970.9216166722
 20
58.18452399066064
 10
1970.436687488999
 20
58.18452399066064
 10
1970.002803482976
 20
58.30735144824757
 10
1969.619964654133
 20
58.55300636342213
 10
1969.23712582529
 20
58.79866127859646
 10
1968.93883057115
 20
59.12566944489981
 10
1968.725078891713
 20
59.53403086233266
 10
1968.511327212275
 20
59.94239227976527
 10
1968.404451372557
 20
60.38265693293488
 10
1968.404451372557
 20
60.85482482184125
 10
1968.404451372557
 20
61.32699271074785
 10
1968.511327212275
 20
61.76725736391745
 10
1968.725078891713
 20
62.17561878135007
 10
1968.93883057115
 20
62.58398019878268
 10
1969.23712582529
 20
62.91098836508627
 10
1969.619964654133
 20
63.1566432802606
 10
1970.002803482976
 20
63.40229819543492
 10
1970.436687488999
 20
63.52512565302209
 10
1970.9216166722
 20
63.52512565302209
 10
1971.272552265306
 20
63.52512565302209
 10
1971.591584622676
 20
63.44377240189306
 10
1971.878713744308
 20
63.28106589963454
 10
1972.16584286594
 20
63.11835939737625
 10
1972.357262280362
 20
62.89982223257834
 10
1972.452971987572
 20
62.62545440524059
 10
1972.452971987572
 20
62.62545440524059
 10
1972.510397811899
 20
62.62545440524059
 10
1972.510397811899
 20
62.62545440524059
 10
1972.510397811899
 20
62.62545440524059
 10
1972.510397811899
 20
65.21918747065297
 10
1972.510397811899
 20
65.21918747065297
 10
1972.510397811899
 20
65.21918747065297
 10
1973.869475654292
 20
65.21918747065297
 10
1973.869475654292
 20
65.21918747065297
 10
1973.869475654292
 20
65.21918747065297
 10
1973.869475654292
 20
58.31851758075572
 10
1973.869475654292
 20
58.31851758075572
 10
1973.869475654292
 20
58.31851758075572
 10
1972.558252665504
 20
58.31851758075572
 10
1972.558252665504
 20
58.31851758075572
 10
1972.558252665504
 20
58.31851758075572
 10
1972.558252665504
 20
59.06505329699985
 10
1972.558252665504
 20
59.06505329699985
 10
1972.558252665504
 20
59.06505329699985
 10
1972.491255870457
 20
59.06505329699985
 10
1972.491255870457
 20
59.06505329699985
 10
1972.395546163246
 20
58.8034467639568
 10
1972.200936425251
 20
58.59129024630624
 10
1971.907426656471
 20
58.42858374404796
 10
1971.613916887691
 20
58.26587724178967
 10
1971.285313559601
 20
58.18452399066064
 10
1970.9216166722
 20
58.18452399066064
 97
        0
 97
        0
 92
        0
 93
        1
 72
     4
 94
        3
 73
     0
 74
     1
 95
       32
 96
       28
 40
0.0
 40
0.0
 40
0.0
 40
0.0
 40
1.0
 40
1.0
 40
1.0
 40
2.0
 40
2.0
 40
2.0
 40
3.0
 40
3.0
 40
3.0
 40
4.0
 40
4.0
 40
4.0
 40
5.0
 40
5.0
 40
5.0
 40
6.0
 40
6.0
 40
6.0
 40
7.0
 40
7.0
 40
7.0
 40
8.0
 40
8.0
 40
8.0
 40
9.0
 40
9.0
 40
9.0
 40
9.0
 10
1971.141748998785
 20
59.42875018440077
 10
1971.403355531828
 20
59.42875018440077
 10
1971.637844314494
 20
59.49096149408774
 10
1971.845215346784
 20
59.61538411346169
 10
1972.052586379074
 20
59.73980673283563
 10
1972.215292881332
 20
59.91048904402828
 10
1972.333334853559
 20
60.12743104703941
 10
1972.451376825786
 20
60.34437305005054
 10
1972.510397811899
 20
60.58683764165107
 10
1972.510397811899
 20
60.85482482184125
 10
1972.510397811899
 20
61.26956688642122
 10
1972.381189707165
 20
61.6125266705933
 10
1972.122773497695
 20
61.88370417435726
 10
1971.864357288226
 20
62.154881678121
 10
1971.537349121923
 20
62.29047043000287
 10
1971.141748998785
 20
62.29047043000287
 10
1970.746148875647
 20
62.29047043000287
 10
1970.417545547557
 20
62.154881678121
 10
1970.155939014514
 20
61.88370417435726
 10
1969.894332481471
 20
61.6125266705933
 10
1969.763529214949
 20
61.27275720999501
 10
1969.763529214949
 20
60.86439579256239
 10
1969.763529214949
 20
60.44965372798242
 10
1969.894332481471
 20
60.10669394381034
 10
1970.155939014514
 20
59.83551644004638
 10
1970.417545547557
 20
59.56433893628264
 10
1970.746148875647
 20
59.42875018440077
 10
1971.141748998785
 20
59.42875018440077
 97
        0
 97
        0
 75
     0
 76
     1
 98
        0
  0
HATCH
  5
5F
330
1F
100
AcDbEntity
  8
0
 62
    18
420
        0
440
 33554687
100
AcDbHatch
 10
0.0
 20
0.0
 30
0.0
210
0.0
220
0.0
230
1.0
  2
SOLID
 70
     1
 71
     1
 91
        2
 92
        0
 93
        1
 72
     4
 94
        3
 73
     0
 74
     1
 95
       41
 96
       37
 40
0.0
 40
0.0
 40
0.0
 40
0.0
 40
1.0
 40
1.0
 40
1.0
 40
2.0
 40
2.0
 40
2.0
 40
3.0
 40
3.0
 40
3.0
 40
4.0
 40
4.0
 40
4.0
 40
5.0
 40
5.0
 40
5.0
 40
6.0
 40
6.0
 40
6.0
 40
7.0
 40
7.0
 40
7.0
 40
8.0
 40
8.0
 40
8.0
 40
9.0
 40
9.0
 40
9.0
 40
10.0
 40
10.0
 40
10.0
 40
11.0
 40
11.0
 40
11.0
 40
12.0
 40
12.0
 40
12.0
 40
12.0
 10
1977.228886377389
 20
58.18452399066064
 10
1976.724815252746
 20
58.18452399066064
 10
1976.268598981708
 20
58.30097080110045
 10
1975.860237564275
 20
58.53386442197984
 10
1975.451876146843
 20
58.76675804285946
 10
1975.131248627687
 20
59.08738556201547
 10
1974.898355006807
 20
59.49574697944831
 10
1974.665461385928
 20
59.90410839688093
 10
1974.549014575488
 20
60.35713434434524
 10
1974.549014575488
 20
60.85482482184125
 10
1974.549014575488
 20
61.35251529933726
 10
1974.665461385928
 20
61.80554124680179
 10
1974.898355006807
 20
62.21390266423441
 10
1975.131248627687
 20
62.62226408166703
 10
1975.451876146843
 20
62.94289160082303
 10
1975.860237564275
 20
63.17578522170288
 10
1976.268598981708
 20
63.40867884258228
 10
1976.724815252746
 20
63.52512565302209
 10
1977.228886377389
 20
63.52512565302209
 10
1977.732957502033
 20
63.52512565302209
 10
1978.190768934858
 20
63.40867884258228
 10
1978.602320675864
 20
63.17578522170288
 10
1979.013872416871
 20
62.94289160082303
 10
1979.336095097814
 20
62.62226408166703
 10
1979.568988718693
 20
62.21390266423441
 10
1979.801882339573
 20
61.80554124680179
 10
1979.918329150012
 20
61.35251529933726
 10
1979.918329150012
 20
60.85482482184125
 10
1979.918329150012
 20
60.35713434434524
 10
1979.801882339573
 20
59.90410839688093
 10
1979.568988718693
 20
59.49574697944831
 10
1979.336095097814
 20
59.08738556201547
 10
1979.013872416871
 20
58.76675804285946
 10
1978.602320675864
 20
58.53386442197984
 10
1978.190768934858
 20
58.30097080110045
 10
1977.732957502033
 20
58.18452399066064
 10
1977.228886377389
 20
58.18452399066064
 97
        0
 97
        0
 92
        0
 93
        1
 72
     4
 94
        3
 73
     0
 74
     1
 95
       38
 96
       34
 40
0.0
 40
0.0
 40
0.0
 40
0.0
 40
1.0
 40
1.0
 40
1.0
 40
2.0
 40
2.0
 40
2.0
 40
3.0
 40
3.0
 40
3.0
 40
4.0
 40
4.0
 40
4.0
 40
5.0
 40
5.0
 40
5.0
 40
6.0
 40
6.0
 40
6.0
 40
7.0
 40
7.0
 40
7.0
 40
8.0
 40
8.0
 40
8.0
 40
9.0
 40
9.0
 40
9.0
 40
10.0
 40
10.0
 40
10.0
 40
11.0
 40
11.0
 40
11.0
 40
11.0
 10
1977.228886377389
 20
59.42875018440077
 10
1977.484112263285
 20
59.42875018440077
 10
1977.712220398804
 20
59.48617600872717
 10
1977.913210783947
 20
59.6010276573802
 10
1978.114201169089
 20
59.715879306033
 10
1978.272122185987
 20
59.88177613186508
 10
1978.38697383464
 20
60.09871813487621
 10
1978.501825483293
 20
60.31566013788733
 10
1978.559251307619
 20
60.56769570020901
 10
1978.559251307619
 20
60.85482482184125
 10
1978.559251307619
 20
61.14195394347371
 10
1978.501825483293
 20
61.39398950579539
 10
1978.38697383464
 20
61.61093150880652
 10
1978.272122185987
 20
61.82787351181764
 10
1978.114201169089
 20
61.99536549943628
 10
1977.913210783947
 20
62.11340747166309
 10
1977.712220398804
 20
62.23144944388969
 10
1977.484112263285
 20
62.29047043000287
 10
1977.228886377389
 20
62.29047043000287
 10
1976.846047548546
 20
62.29047043000287
 10
1976.530205514751
 20
62.15966716348157
 10
1976.281360276002
 20
61.89806063043875
 10
1976.032515037255
 20
61.63645409739615
 10
1975.90809241788
 20
61.2887088278635
 10
1975.90809241788
 20
60.85482482184125
 10
1975.90809241788
 20
60.56769570020901
 10
1975.965518242207
 20
60.31566013788733
 10
1976.08036989086
 20
60.09871813487621
 10
1976.195221539513
 20
59.88177613186508
 10
1976.351547394624
 20
59.715879306033
 10
1976.549347456193
 20
59.6010276573802
 10
1976.747147517762
 20
59.48617600872717
 10
1976.973660491494
 20
59.42875018440077
 10
1977.228886377389
 20
59.42875018440077
 97
        0
 97
        0
 75
     0
 76
     1
 98
        0
  0
HATCH
  5
60
330
1F
100
AcDbEntity
  8
0
 62
    18
420
        0
440
 33554687
100
AcDbHatch
 10
0.0
 20
0.0
 30
0.0
210
0.0
220
0.0
230
1.0
  2
SOLID
 70
     1
 71
     1
 91
        1
 92
        0
 93
        1
 72
     4
 94
        3
 73
     0
 74
     1
 95
       59
 96
       55
 40
0.0
 40
0.0
 40
0.0
 40
0.0
 40
1.0
 40
1.0
 40
1.0
 40
2.0
 40
2.0
 40
2.0
 40
3.0
 40
3.0
 40
3.0
 40
4.0
 40
4.0
 40
4.0
 40
5.0
 40
5.0
 40
5.0
 40
6.0
 40
6.0
 40
6.0
 40
7.0
 40
7.0
 40
7.0
 40
8.0
 40
8.0
 40
8.0
 40
9.0
 40
9.0
 40
9.0
 40
10.0
 40
10.0
 40
10.0
 40
11.0
 40
11.0
 40
11.0
 40
12.0
 40
12.0
 40
12.0
 40
13.0
 40
13.0
 40
13.0
 40
14.0
 40
14.0
 40
14.0
 40
15.0
 40
15.0
 40
15.0
 40
16.0
 40
16.0
 40
16.0
 40
17.0
 40
17.0
 40
17.0
 40
18.0
 40
18.0
 40
18.0
 40
18.0
 10
1980.607439041931
 20
63.391132062927
 10
1980.607439041931
 20
63.391132062927
 10
1981.918662030719
 20
63.391132062927
 10
1981.918662030719
 20
63.391132062927
 10
1981.918662030719
 20
63.391132062927
 10
1981.918662030719
 20
62.74030605389362
 10
1981.918662030719
 20
62.74030605389362
 10
1981.918662030719
 20
62.74030605389362
 10
1981.976087855045
 20
62.74030605389362
 10
1981.976087855045
 20
62.74030605389362
 10
1982.116462092288
 20
62.95724805690475
 10
1982.315857315643
 20
63.1406916623921
 10
1982.574273525113
 20
63.29063687035568
 10
1982.832689734581
 20
63.44058207831927
 10
1983.137365635869
 20
63.51555468230094
 10
1983.488301228975
 20
63.51555468230094
 10
1983.813714233492
 20
63.51555468230094
 10
1984.116794972993
 20
63.42941594581134
 10
1984.397543447478
 20
63.25713847283191
 10
1984.678291921963
 20
63.08486099985248
 10
1984.903209733908
 20
62.85037221718608
 10
1985.072296883314
 20
62.5536721248327
 10
1985.241384032719
 20
62.25697203247933
 10
1985.325927607422
 20
61.92677354260195
 10
1985.325927607422
 20
61.56307665520103
 10
1985.325927607422
 20
61.56307665520103
 10
1985.325927607422
 20
58.31851758075572
 10
1985.325927607422
 20
58.31851758075572
 10
1985.325927607422
 20
58.31851758075572
 10
1983.966849765029
 20
58.31851758075572
 10
1983.966849765029
 20
58.31851758075572
 10
1983.966849765029
 20
58.31851758075572
 10
1983.966849765029
 20
61.23766365068445
 10
1983.966849765029
 20
61.23766365068445
 10
1983.966849765029
 20
61.57583794949574
 10
1983.874330381392
 20
61.84222996789913
 10
1983.689291614118
 20
62.03683970589441
 10
1983.504252846844
 20
62.23144944388969
 10
1983.255407608096
 20
62.32875431288721
 10
1982.942755897874
 20
62.32875431288721
 10
1982.642865481947
 20
62.32875431288721
 10
1982.40359121392
 20
62.22985428210291
 10
1982.224933093793
 20
62.03205422053384
 10
1982.046274973666
 20
61.834254158965
 10
1981.956945913603
 20
61.56945730234861
 10
1981.956945913603
 20
61.23766365068445
 10
1981.956945913603
 20
61.23766365068445
 10
1981.956945913603
 20
58.31851758075572
 10
1981.956945913603
 20
58.31851758075572
 10
1981.956945913603
 20
58.31851758075572
 10
1980.607439041931
 20
58.31851758075572
 10
1980.607439041931
 20
58.31851758075572
 10
1980.607439041931
 20
58.31851758075572
 10
1980.607439041931
 20
63.391132062927
 10
1980.607439041931
 20
63.391132062927
 97
        0
 97
        0
 75
     0
 76
     1
 98
        0
  0
HATCH
  5
61
330
1F
100
AcDbEntity
  8
0
 62
    18
420
        0
440
 33554687
100
AcDbHatch
 10
0.0
 20
0.0
 30
0.0
210
0.0
220
0.0
230
1.0
  2
SOLID
 70
     1
 71
     1
 91
        1
 92
        0
 93
        1
 72
     4
 94
        3
 73
     0
 74
     1
 95
       26
 96
       22
 40
0.0
 40
0.0
 40
0.0
 40
0.0
 40
1.0
 40
1.0
 40
1.0
 40
2.0
 40
2.0
 40
2.0
 40
3.0
 40
3.0
 40
3.0
 40
4.0
 40
4.0
 40
4.0
 40
5.0
 40
5.0
 40
5.0
 40
6.0
 40
6.0
 40
6.0
 40
7.0
 40
7.0
 40
7.0
 40
7.0
 10
1985.948040704293
 20
64.77892281748336
 10
1985.922518115703
 20
64.9767228790522
 10
1985.973563292882
 20
65.14421486667106
 10
1986.10117623583
 20
65.28139878033994
 10
1986.228789178778
 20
65.41858269400859
 10
1986.385115033889
 20
65.48717465084314
 10
1986.570153801163
 20
65.48717465084314
 10
1986.755192568437
 20
65.48717465084314
 10
1986.909923261761
 20
65.41858269400859
 10
1987.034345881135
 20
65.28139878033994
 10
1987.158768500509
 20
65.14421486667106
 10
1987.208218515901
 20
64.9767228790522
 10
1987.182695927312
 20
64.77892281748336
 10
1987.182695927312
 20
64.77892281748336
 10
1986.924279717843
 20
62.56802858091419
 10
1986.924279717843
 20
62.56802858091419
 10
1986.924279717843
 20
62.56802858091419
 10
1986.196885943041
 20
62.56802858091419
 10
1986.196885943041
 20
62.56802858091419
 10
1986.196885943041
 20
62.56802858091419
 10
1985.948040704293
 20
64.77892281748336
 10
1985.948040704293
 20
64.77892281748336
 97
        0
 97
        0
 75
     0
 76
     1
 98
        0
  0
HATCH
  5
62
330
1F
100
AcDbEntity
  8
0
 62
    18
420
        0
440
 33554687
100
AcDbHatch
 10
0.0
 20
0.0
 30
0.0
210
0.0
220
0.0
230
1.0
  2
SOLID
 70
     1
 71
     1
 91
        1
 92
        0
 93
        1
 72
     4
 94
        3
 73
     0
 74
     1
 95
       62
 96
       58
 40
0.0
 40
0.0
 40
0.0
 40
0.0
 40
1.0
 40
1.0
 40
1.0
 40
2.0
 40
2.0
 40
2.0
 40
3.0
 40
3.0
 40
3.0
 40
4.0
 40
4.0
 40
4.0
 40
5.0
 40
5.0
 40
5.0
 40
6.0
 40
6.0
 40
6.0
 40
7.0
 40
7.0
 40
7.0
 40
8.0
 40
8.0
 40
8.0
 40
9.0
 40
9.0
 40
9.0
 40
10.0
 40
10.0
 40
10.0
 40
11.0
 40
11.0
 40
11.0
 40
12.0
 40
12.0
 40
12.0
 40
13.0
 40
13.0
 40
13.0
 40
14.0
 40
14.0
 40
14.0
 40
15.0
 40
15.0
 40
15.0
 40
16.0
 40
16.0
 40
16.0
 40
17.0
 40
17.0
 40
17.0
 40
18.0
 40
18.0
 40
18.0
 40
19.0
 40
19.0
 40
19.0
 40
19.0
 10
1988.522631828263
 20
62.18518975207121
 10
1988.522631828263
 20
62.18518975207121
 10
1987.584676697597
 20
62.18518975207121
 10
1987.584676697597
 20
62.18518975207121
 10
1987.584676697597
 20
62.18518975207121
 10
1987.584676697597
 20
63.391132062927
 10
1987.584676697597
 20
63.391132062927
 10
1987.584676697597
 20
63.391132062927
 10
1988.522631828263
 20
63.391132062927
 10
1988.522631828263
 20
63.391132062927
 10
1988.522631828263
 20
63.391132062927
 10
1988.522631828263
 20
64.5205066080141
 10
1988.522631828263
 20
64.5205066080141
 10
1988.522631828263
 20
64.5205066080141
 10
1989.872138699935
 20
64.7884937882045
 10
1989.872138699935
 20
64.7884937882045
 10
1989.872138699935
 20
64.7884937882045
 10
1989.872138699935
 20
63.391132062927
 10
1989.872138699935
 20
63.391132062927
 10
1989.872138699935
 20
63.391132062927
 10
1991.326926249539
 20
63.391132062927
 10
1991.326926249539
 20
63.391132062927
 10
1991.326926249539
 20
63.391132062927
 10
1991.326926249539
 20
62.18518975207121
 10
1991.326926249539
 20
62.18518975207121
 10
1991.326926249539
 20
62.18518975207121
 10
1989.872138699935
 20
62.18518975207121
 10
1989.872138699935
 20
62.18518975207121
 10
1989.872138699935
 20
62.18518975207121
 10
1989.872138699935
 20
60.10828910559735
 10
1989.872138699935
 20
60.10828910559735
 10
1989.872138699935
 20
59.86582451399659
 10
1989.94551614213
 20
59.68397607029601
 10
1990.09227102652
 20
59.56274377449586
 10
1990.23902591091
 20
59.44151147869547
 10
1990.414493707462
 20
59.38089533079528
 10
1990.618674416179
 20
59.38089533079528
 10
1990.912184184959
 20
59.38089533079528
 10
1991.148268129412
 20
59.40960824295848
 10
1991.326926249539
 20
59.46703406728511
 10
1991.326926249539
 20
59.46703406728511
 10
1991.326926249539
 20
58.31851758075572
 10
1991.326926249539
 20
58.31851758075572
 10
1991.161029423707
 20
58.28661434501873
 10
1991.015869701104
 20
58.26428208000289
 10
1990.89144708173
 20
58.25152078570818
 10
1990.767024462356
 20
58.23875949141325
 10
1990.605913121884
 20
58.2323788442659
 10
1990.408113060315
 20
58.2323788442659
 10
1989.852996758493
 20
58.2323788442659
 10
1989.399970811028
 20
58.38870469937683
 10
1989.049035217922
 20
58.7013564095987
 10
1988.698099624816
 20
59.01400811982057
 10
1988.522631828263
 20
59.43194050797433
 10
1988.522631828263
 20
59.95515357405998
 10
1988.522631828263
 20
59.95515357405998
 10
1988.522631828263
 20
62.18518975207121
 10
1988.522631828263
 20
62.18518975207121
 97
        0
 97
        0
 75
     0
 76
     1
 98
        0
  0
HATCH
  5
63
330
1F
100
AcDbEntity
  8
0
 62
    18
420
        0
440
 33554687
100
AcDbHatch
 10
0.0
 20
0.0
 30
0.0
210
0.0
220
0.0
230
1.0
  2
SOLID
 70
     1
 71
     1
 91
        1
 92
        0
 93
        5
 72
     1
 10
1994.686336972637
 20
58.31851758075572
 11
1993.336830100966
 21
58.31851758075572
 72
     1
 10
1993.336830100966
 20
58.31851758075572
 11
1993.336830100966
 21
59.43832115512191
 72
     1
 10
1993.336830100966
 20
59.43832115512191
 11
1993.346401071687
 21
65.21918747065297
 72
     1
 10
1993.346401071687
 20
65.21918747065297
 11
1994.695907943359
 21
65.21918747065297
 72
     1
 10
1994.695907943359
 20
65.21918747065297
 11
1994.686336972637
 21
58.31851758075572
 97
        0
 75
     0
 76
     1
 98
        0
  0
HATCH
  5
64
330
1F
100
AcDbEntity
  8
0
 62
    18
420
        0
440
 33554687
100
AcDbHatch
 10
0.0
 20
0.0
 30
0.0
210
0.0
220
0.0
230
1.0
  2
SOLID
 70
     1
 71
     1
 91
        2
 92
        0
 93
        4
 72
     1
 10
1995.700859869071
 20
63.391132062927
 11
1997.050366740743
 21
63.391132062927
 72
     1
 10
1997.050366740743
 20
63.391132062927
 11
1997.050366740743
 21
58.31851758075572
 72
     1
 10
1997.050366740743
 20
58.31851758075572
 11
1995.700859869071
 21
58.31851758075572
 72
     1
 10
1995.700859869071
 20
58.31851758075572
 11
1995.700859869071
 21
63.391132062927
 97
        0
 92
        0
 93
        1
 72
     4
 94
        3
 73
     0
 74
     1
 95
       29
 96
       25
 40
0.0
 40
0.0
 40
0.0
 40
0.0
 40
1.0
 40
1.0
 40
1.0
 40
2.0
 40
2.0
 40
2.0
 40
3.0
 40
3.0
 40
3.0
 40
4.0
 40
4.0
 40
4.0
 40
5.0
 40
5.0
 40
5.0
 40
6.0
 40
6.0
 40
6.0
 40
7.0
 40
7.0
 40
7.0
 40
8.0
 40
8.0
 40
8.0
 40
8.0
 10
1996.39954073171
 20
63.86968059898095
 10
1996.167145598889
 20
63.86968059898095
 10
1995.973433139398
 20
63.94784352653642
 10
1995.818403353239
 20
64.10416938164735
 10
1995.663473264692
 20
64.26049523675806
 10
1995.586008220418
 20
64.44872432760621
 10
1995.586008220418
 20
64.6688566541909
 10
1995.586008220418
 20
64.8889889807756
 10
1995.663473264692
 20
65.07721807162352
 10
1995.818403353239
 20
65.23354392673446
 10
1995.973433139398
 20
65.38986978184539
 10
1996.167145598889
 20
65.46803270940109
 10
1996.39954073171
 20
65.46803270940109
 10
1996.630540097967
 20
65.46803270940109
 10
1996.823853767011
 20
65.38986978184539
 10
1996.97948173884
 20
65.23354392673446
 10
1997.135209408281
 20
65.07721807162352
 10
1997.213073243001
 20
64.8889889807756
 10
1997.213073243001
 20
64.6688566541909
 10
1997.213073243001
 20
64.44872432760621
 10
1997.136505477233
 20
64.26049523675806
 10
1996.983369945696
 20
64.10416938164735
 10
1996.830234414158
 20
63.94784352653642
 10
1996.635624676163
 20
63.86968059898095
 10
1996.39954073171
 20
63.86968059898095
 97
        0
 97
        0
 75
     0
 76
     1
 98
        0
  0
HATCH
  5
65
330
1F
100
AcDbEntity
  8
0
 62
    18
420
        0
440
 33554687
100
AcDbHatch
 10
0.0
 20
0.0
 30
0.0
210
0.0
220
0.0
230
1.0
  2
SOLID
 70
     1
 71
     1
 91
        1
 92
        0
 93
        1
 72
     4
 94
        3
 73
     0
 74
     1
 95
       92
 96
       88
 40
0.0
 40
0.0
 40
0.0
 40
0.0
 40
1.0
 40
1.0
 40
1.0
 40
2.0
 40
2.0
 40
2.0
 40
3.0
 40
3.0
 40
3.0
 40
4.0
 40
4.0
 40
4.0
 40
5.0
 40
5.0
 40
5.0
 40
6.0
 40
6.0
 40
6.0
 40
7.0
 40
7.0
 40
7.0
 40
8.0
 40
8.0
 40
8.0
 40
9.0
 40
9.0
 40
9.0
 40
10.0
 40
10.0
 40
10.0
 40
11.0
 40
11.0
 40
11.0
 40
12.0
 40
12.0
 40
12.0
 40
13.0
 40
13.0
 40
13.0
 40
14.0
 40
14.0
 40
14.0
 40
15.0
 40
15.0
 40
15.0
 40
16.0
 40
16.0
 40
16.0
 40
17.0
 40
17.0
 40
17.0
 40
18.0
 40
18.0
 40
18.0
 40
19.0
 40
19.0
 40
19.0
 40
20.0
 40
20.0
 40
20.0
 40
21.0
 40
21.0
 40
21.0
 40
22.0
 40
22.0
 40
22.0
 40
23.0
 40
23.0
 40
23.0
 40
24.0
 40
24.0
 40
24.0
 40
25.0
 40
25.0
 40
25.0
 40
26.0
 40
26.0
 40
26.0
 40
27.0
 40
27.0
 40
27.0
 40
28.0
 40
28.0
 40
28.0
 40
29.0
 40
29.0
 40
29.0
 40
29.0
 10
1999.883374074182
 20
58.18452399066064
 10
1999.417586832423
 20
58.18452399066064
 10
1999.012415738564
 20
58.25630627106852
 10
1998.667860792605
 20
58.39987083188475
 10
1998.323305846647
 20
58.54343539270099
 10
1997.994702518556
 20
58.76835320464625
 10
1997.682050808334
 20
59.07462426772076
 10
1997.682050808334
 20
59.07462426772076
 10
1998.53386720251
 20
59.95515357405998
 10
1998.53386720251
 20
59.95515357405998
 10
1998.744428558374
 20
59.73821157104885
 10
1998.951799590664
 20
59.57550506879056
 10
1999.15598029938
 20
59.46703406728511
 10
1999.360161008097
 20
59.35856306577944
 10
1999.586673981829
 20
59.30432756502682
 10
1999.835519220577
 20
59.30432756502682
 10
2000.058841870735
 20
59.30432756502682
 10
2000.234309667288
 20
59.34420660969795
 10
2000.361922610236
 20
59.4239646990402
 10
2000.489535553184
 20
59.50372278838245
 10
2000.553342024658
 20
59.61378895167491
 10
2000.553342024658
 20
59.75416318891735
 10
2000.553342024658
 20
59.89453742615979
 10
2000.487940391397
 20
60.00300842766546
 10
2000.357137124876
 20
60.07957619343392
 10
2000.226333858354
 20
60.15614395920261
 10
1999.995035399261
 20
60.22952140139751
 10
1999.663241747598
 20
60.29970852001884
 10
1999.088983504333
 20
60.40817952152429
 10
1998.661480145458
 20
60.59002796522486
 10
1998.380731670973
 20
60.84525385112033
 10
1998.099983196488
 20
61.1004797370158
 10
1997.959608959246
 20
61.46098630084293
 10
1997.959608959246
 20
61.92677354260195
 10
1997.959608959246
 20
62.20752201708706
 10
1998.037771886801
 20
62.47072371191666
 10
1998.194097741912
 20
62.71637862709099
 10
1998.350423597023
 20
62.96203354226532
 10
1998.576936570755
 20
63.15823844204738
 10
1998.873636663109
 20
63.30499332643717
 10
1999.170336755462
 20
63.45174821082719
 10
1999.522867510355
 20
63.52512565302209
 10
1999.931228927788
 20
63.52512565302209
 10
2000.409777463841
 20
63.52512565302209
 10
2000.787830807324
 20
63.45015304904041
 10
2001.065388958235
 20
63.30020784107683
 10
2001.342947109147
 20
63.15026263311324
 10
2001.612529451124
 20
62.91577385044684
 10
2001.874135984167
 20
62.59674149307739
 10
2001.874135984167
 20
62.59674149307739
 10
2000.897896970617
 20
61.84063480611235
 10
2000.897896970617
 20
61.84063480611235
 10
2000.757522733374
 20
62.05119616197612
 10
2000.612363010771
 20
62.20114136993971
 10
2000.462417802808
 20
62.29047043000287
 10
2000.312472594844
 20
62.37979949006649
 10
2000.135409636504
 20
62.42446402009796
 10
1999.931228927788
 20
62.42446402009796
 10
1999.739809513366
 20
62.42446402009796
 10
1999.585078820042
 20
62.37979949006649
 10
1999.467036847816
 20
62.29047043000287
 10
1999.348994875589
 20
62.20114136993971
 10
1999.289973889476
 20
62.09586069200782
 10
1999.289973889476
 20
61.97462839620744
 10
1999.289973889476
 20
61.85339610040705
 10
1999.348994875589
 20
61.75609123140953
 10
1999.467036847816
 20
61.68271378921463
 10
1999.585078820042
 20
61.60933634701973
 10
1999.774903072677
 20
61.54074439018518
 10
2000.036509605719
 20
61.47693791871143
 10
2000.489535553184
 20
61.3748475643531
 10
2000.848446955224
 20
61.2599959157003
 10
2001.113243811841
 20
61.13238297275257
 10
2001.378040668457
 20
61.00477002980483
 10
2001.574245568239
 20
60.84046836575976
 10
2001.701858511187
 20
60.6394779806169
 10
2001.829471454135
 20
60.43848759547427
 10
2001.893277925609
 20
60.17847622421846
 10
2001.893277925609
 20
59.85944386684923
 10
2001.893277925609
 20
59.52765021518508
 10
2001.808734350906
 20
59.23573560819227
 10
2001.6396472015
 20
58.98370004587059
 10
2001.470560052094
 20
58.73166448354891
 10
2001.232880945854
 20
58.53545958376662
 10
2000.92660988278
 20
58.39508534652418
 10
2000.620338819705
 20
58.25471110928174
 10
2000.272593550173
 20
58.18452399066064
 10
1999.883374074182
 20
58.18452399066064
 97
        0
 97
        0
 75
     0
 76
     1
 98
        0
  0
HATCH
  5
66
330
1F
100
AcDbEntity
  8
0
 62
    18
420
        0
440
 33554687
100
AcDbHatch
 10
0.0
 20
0.0
 30
0.0
210
0.0
220
0.0
230
1.0
  2
SOLID
 70
     1
 71
     1
 91
        1
 92
        0
 93
        1
 72
     4
 94
        3
 73
     0
 74
     1
 95
       62
 96
       58
 40
0.0
 40
0.0
 40
0.0
 40
0.0
 40
1.0
 40
1.0
 40
1.0
 40
2.0
 40
2.0
 40
2.0
 40
3.0
 40
3.0
 40
3.0
 40
4.0
 40
4.0
 40
4.0
 40
5.0
 40
5.0
 40
5.0
 40
6.0
 40
6.0
 40
6.0
 40
7.0
 40
7.0
 40
7.0
 40
8.0
 40
8.0
 40
8.0
 40
9.0
 40
9.0
 40
9.0
 40
10.0
 40
10.0
 40
10.0
 40
11.0
 40
11.0
 40
11.0
 40
12.0
 40
12.0
 40
12.0
 40
13.0
 40
13.0
 40
13.0
 40
14.0
 40
14.0
 40
14.0
 40
15.0
 40
15.0
 40
15.0
 40
16.0
 40
16.0
 40
16.0
 40
17.0
 40
17.0
 40
17.0
 40
18.0
 40
18.0
 40
18.0
 40
19.0
 40
19.0
 40
19.0
 40
19.0
 10
2002.984368587811
 20
62.18518975207121
 10
2002.984368587811
 20
62.18518975207121
 10
2002.046413457145
 20
62.18518975207121
 10
2002.046413457145
 20
62.18518975207121
 10
2002.046413457145
 20
62.18518975207121
 10
2002.046413457145
 20
63.391132062927
 10
2002.046413457145
 20
63.391132062927
 10
2002.046413457145
 20
63.391132062927
 10
2002.984368587811
 20
63.391132062927
 10
2002.984368587811
 20
63.391132062927
 10
2002.984368587811
 20
63.391132062927
 10
2002.984368587811
 20
64.5205066080141
 10
2002.984368587811
 20
64.5205066080141
 10
2002.984368587811
 20
64.5205066080141
 10
2004.333875459483
 20
64.7884937882045
 10
2004.333875459483
 20
64.7884937882045
 10
2004.333875459483
 20
64.7884937882045
 10
2004.333875459483
 20
63.391132062927
 10
2004.333875459483
 20
63.391132062927
 10
2004.333875459483
 20
63.391132062927
 10
2005.788663009087
 20
63.391132062927
 10
2005.788663009087
 20
63.391132062927
 10
2005.788663009087
 20
63.391132062927
 10
2005.788663009087
 20
62.18518975207121
 10
2005.788663009087
 20
62.18518975207121
 10
2005.788663009087
 20
62.18518975207121
 10
2004.333875459483
 20
62.18518975207121
 10
2004.333875459483
 20
62.18518975207121
 10
2004.333875459483
 20
62.18518975207121
 10
2004.333875459483
 20
60.10828910559735
 10
2004.333875459483
 20
60.10828910559735
 10
2004.333875459483
 20
59.86582451399659
 10
2004.407252901678
 20
59.68397607029601
 10
2004.554007786068
 20
59.56274377449586
 10
2004.700762670458
 20
59.44151147869547
 10
2004.876230467011
 20
59.38089533079528
 10
2005.080411175727
 20
59.38089533079528
 10
2005.373920944507
 20
59.38089533079528
 10
2005.61000488896
 20
59.40960824295848
 10
2005.788663009087
 20
59.46703406728511
 10
2005.788663009087
 20
59.46703406728511
 10
2005.788663009087
 20
58.31851758075572
 10
2005.788663009087
 20
58.31851758075572
 10
2005.622766183255
 20
58.28661434501873
 10
2005.477606460652
 20
58.26428208000289
 10
2005.353183841278
 20
58.25152078570818
 10
2005.228761221904
 20
58.23875949141325
 10
2005.067649881432
 20
58.2323788442659
 10
2004.869849819863
 20
58.2323788442659
 10
2004.314733518041
 20
58.2323788442659
 10
2003.861707570576
 20
58.38870469937683
 10
2003.51077197747
 20
58.7013564095987
 10
2003.159836384364
 20
59.01400811982057
 10
2002.984368587811
 20
59.43194050797433
 10
2002.984368587811
 20
59.95515357405998
 10
2002.984368587811
 20
59.95515357405998
 10
2002.984368587811
 20
62.18518975207121
 10
2002.984368587811
 20
62.18518975207121
 97
        0
 97
        0
 75
     0
 76
     1
 98
        0
  0
HATCH
  5
67
330
1F
100
AcDbEntity
  8
0
 62
    18
420
        0
440
 33554687
100
AcDbHatch
 10
0.0
 20
0.0
 30
0.0
210
0.0
220
0.0
230
1.0
  2
SOLID
 70
     1
 71
     1
 91
        2
 92
        0
 93
        1
 72
     4
 94
        3
 73
     0
 74
     1
 95
       62
 96
       58
 40
0.0
 40
0.0
 40
0.0
 40
0.0
 40
1.0
 40
1.0
 40
1.0
 40
2.0
 40
2.0
 40
2.0
 40
3.0
 40
3.0
 40
3.0
 40
4.0
 40
4.0
 40
4.0
 40
5.0
 40
5.0
 40
5.0
 40
6.0
 40
6.0
 40
6.0
 40
7.0
 40
7.0
 40
7.0
 40
8.0
 40
8.0
 40
8.0
 40
9.0
 40
9.0
 40
9.0
 40
10.0
 40
10.0
 40
10.0
 40
11.0
 40
11.0
 40
11.0
 40
12.0
 40
12.0
 40
12.0
 40
13.0
 40
13.0
 40
13.0
 40
14.0
 40
14.0
 40
14.0
 40
15.0
 40
15.0
 40
15.0
 40
16.0
 40
16.0
 40
16.0
 40
17.0
 40
17.0
 40
17.0
 40
18.0
 40
18.0
 40
18.0
 40
19.0
 40
19.0
 40
19.0
 40
19.0
 10
2007.219878115684
 20
60.38584725650844
 10
2007.251745592587
 20
60.27859916641046
 10
2007.2946966329
 20
60.17491365026535
 10
2007.348731236622
 20
60.07479070807335
 10
2007.457202238128
 20
59.87380032293072
 10
2007.610337769665
 20
59.70949865888565
 10
2007.808137831234
 20
59.58188571593791
 10
2008.005937892803
 20
59.45427277299018
 10
2008.24521216083
 20
59.39046630151643
 10
2008.525960635315
 20
59.39046630151643
 10
2008.774805874063
 20
59.39046630151643
 10
2009.010889818516
 20
59.44310664048226
 10
2009.234212468675
 20
59.54838731841414
 10
2009.457535118833
 20
59.65366799634603
 10
2009.63619323896
 20
59.79563739537525
 10
2009.770186829055
 20
59.97429551550226
 10
2009.770186829055
 20
59.97429551550226
 10
2010.660287106115
 20
59.07462426772076
 10
2010.660287106115
 20
59.07462426772076
 10
2010.43058380881
 20
58.81301773467794
 10
2010.124312745735
 20
58.59926605524061
 10
2009.741473916892
 20
58.43336922940853
 10
2009.358635088049
 20
58.26747240357645
 10
2008.940702699895
 20
58.18452399066064
 10
2008.487676752431
 20
58.18452399066064
 10
2007.958083039198
 20
58.18452399066064
 10
2007.489105473865
 20
58.29778047752666
 10
2007.080744056432
 20
58.5242934512587
 10
2006.672382638999
 20
58.75080642499097
 10
2006.356540605204
 20
59.06505329699985
 10
2006.133217955045
 20
59.46703406728511
 10
2005.909895304887
 20
59.86901483757038
 10
2005.798233979808
 20
60.3188504614609
 10
2005.798233979808
 20
60.8165409389569
 10
2005.798233979808
 20
61.37165724077954
 10
2005.911490466674
 20
61.85339610040705
 10
2006.138003440406
 20
62.26175751783967
 10
2006.364516414138
 20
62.67011893527251
 10
2006.67716812436
 20
62.98277064549438
 10
2007.075958571072
 20
63.19971264850528
 10
2007.474749017783
 20
63.41665465151641
 10
2007.922989479887
 20
63.52512565302209
 10
2008.420679957383
 20
63.52512565302209
 10
2008.911989787732
 20
63.52512565302209
 10
2009.344278631967
 20
63.41824981330342
 10
2009.717546490089
 20
63.20449813386608
 10
2010.090814348211
 20
62.99074645442852
 10
2010.379538631631
 20
62.68926087671457
 10
2010.583719340347
 20
62.30004140072401
 10
2010.787900049063
 20
61.91082192473345
 10
2010.889990403421
 20
61.46098630084293
 10
2010.889990403421
 20
60.95053452905199
 10
2010.889990403421
 20
60.77825705607279
 10
2010.877229109126
 20
60.59002796522486
 10
2010.851706520537
 20
60.38584725650844
 10
2010.851706520537
 20
60.38584725650844
 10
2007.219878115684
 20
60.38584725650844
 10
2007.219878115684
 20
60.38584725650844
 97
        0
 97
        0
 92
        0
 93
        1
 72
     4
 94
        3
 73
     0
 74
     1
 95
       20
 96
       16
 40
0.0
 40
0.0
 40
0.0
 40
0.0
 40
1.0
 40
1.0
 40
1.0
 40
2.0
 40
2.0
 40
2.0
 40
3.0
 40
3.0
 40
3.0
 40
4.0
 40
4.0
 40
4.0
 40
5.0
 40
5.0
 40
5.0
 40
5.0
 10
2007.196333886134
 20
61.38292151539508
 10
2007.196333886134
 20
61.38292151539508
 10
2009.517533150023
 20
61.35713041246277
 10
2009.517533150023
 20
61.35713041246277
 10
2009.486208969216
 20
61.64774513687826
 10
2009.404530036395
 20
61.8806955485029
 10
2009.272496351559
 20
62.05598164733669
 10
2009.087457584285
 20
62.30163656251079
 10
2008.797138139079
 20
62.42446402009796
 10
2008.401538015941
 20
62.42446402009796
 10
2008.018699187098
 20
62.42446402009796
 10
2007.715618447597
 20
62.29525591536367
 10
2007.492295797439
 20
62.03683970589441
 10
2007.345194363627
 20
61.86662233248467
 10
2007.246540393193
 20
61.64864960231785
 10
2007.196333886134
 20
61.38292151539508
 97
        0
 97
        0
 75
     0
 76
     1
 98
        0
  0
HATCH
  5
68
330
1F
100
AcDbEntity
  8
0
 62
    18
420
        0
440
 33554687
100
AcDbHatch
 10
0.0
 20
0.0
 30
0.0
210
0.0
220
0.0
230
1.0
  2
SOLID
 70
     1
 71
     1
 91
        1
 92
        0
 93
        1
 72
     4
 94
        3
 73
     0
 74
     1
 95
       59
 96
       55
 40
0.0
 40
0.0
 40
0.0
 40
0.0
 40
1.0
 40
1.0
 40
1.0
 40
2.0
 40
2.0
 40
2.0
 40
3.0
 40
3.0
 40
3.0
 40
4.0
 40
4.0
 40
4.0
 40
5.0
 40
5.0
 40
5.0
 40
6.0
 40
6.0
 40
6.0
 40
7.0
 40
7.0
 40
7.0
 40
8.0
 40
8.0
 40
8.0
 40
9.0
 40
9.0
 40
9.0
 40
10.0
 40
10.0
 40
10.0
 40
11.0
 40
11.0
 40
11.0
 40
12.0
 40
12.0
 40
12.0
 40
13.0
 40
13.0
 40
13.0
 40
14.0
 40
14.0
 40
14.0
 40
15.0
 40
15.0
 40
15.0
 40
16.0
 40
16.0
 40
16.0
 40
17.0
 40
17.0
 40
17.0
 40
18.0
 40
18.0
 40
18.0
 40
18.0
 10
2011.57910029534
 20
63.391132062927
 10
2011.57910029534
 20
63.391132062927
 10
2012.890323284127
 20
63.391132062927
 10
2012.890323284127
 20
63.391132062927
 10
2012.890323284127
 20
63.391132062927
 10
2012.890323284127
 20
62.74030605389362
 10
2012.890323284127
 20
62.74030605389362
 10
2012.890323284127
 20
62.74030605389362
 10
2012.947749108454
 20
62.74030605389362
 10
2012.947749108454
 20
62.74030605389362
 10
2013.088123345696
 20
62.95724805690475
 10
2013.287518569052
 20
63.1406916623921
 10
2013.545934778521
 20
63.29063687035568
 10
2013.80435098799
 20
63.44058207831927
 10
2014.109026889278
 20
63.51555468230094
 10
2014.459962482384
 20
63.51555468230094
 10
2014.785375486901
 20
63.51555468230094
 10
2015.088456226402
 20
63.42941594581134
 10
2015.369204700886
 20
63.25713847283191
 10
2015.649953175372
 20
63.08486099985248
 10
2015.874870987317
 20
62.85037221718608
 10
2016.043958136722
 20
62.5536721248327
 10
2016.213045286128
 20
62.25697203247933
 10
2016.297588860831
 20
61.92677354260195
 10
2016.297588860831
 20
61.56307665520103
 10
2016.297588860831
 20
61.56307665520103
 10
2016.297588860831
 20
58.31851758075572
 10
2016.297588860831
 20
58.31851758075572
 10
2016.297588860831
 20
58.31851758075572
 10
2014.938511018438
 20
58.31851758075572
 10
2014.938511018438
 20
58.31851758075572
 10
2014.938511018438
 20
58.31851758075572
 10
2014.938511018438
 20
61.23766365068445
 10
2014.938511018438
 20
61.23766365068445
 10
2014.938511018438
 20
61.57583794949574
 10
2014.845991634801
 20
61.84222996789913
 10
2014.660952867527
 20
62.03683970589441
 10
2014.475914100253
 20
62.23144944388969
 10
2014.227068861505
 20
62.32875431288721
 10
2013.914417151283
 20
62.32875431288721
 10
2013.614526735356
 20
62.32875431288721
 10
2013.375252467329
 20
62.22985428210291
 10
2013.196594347202
 20
62.03205422053384
 10
2013.017936227075
 20
61.834254158965
 10
2012.928607167011
 20
61.56945730234861
 10
2012.928607167011
 20
61.23766365068445
 10
2012.928607167011
 20
61.23766365068445
 10
2012.928607167011
 20
58.31851758075572
 10
2012.928607167011
 20
58.31851758075572
 10
2012.928607167011
 20
58.31851758075572
 10
2011.57910029534
 20
58.31851758075572
 10
2011.57910029534
 20
58.31851758075572
 10
2011.57910029534
 20
58.31851758075572
 10
2011.57910029534
 20
63.391132062927
 10
2011.57910029534
 20
63.391132062927
 97
        0
 97
        0
 75
     0
 76
     1
 98
        0
  0
HATCH
  5
69
330
1F
100
AcDbEntity
  8
0
 62
    18
420
        0
440
 33554687
100
AcDbHatch
 10
0.0
 20
0.0
 30
0.0
210
0.0
220
0.0
230
1.0
  2
SOLID
 70
     1
 71
     1
 91
        1
 92
        0
 93
        1
 72
     4
 94
        3
 73
     0
 74
     1
 95
       62
 96
       58
 40
0.0
 40
0.0
 40
0.0
 40
0.0
 40
1.0
 40
1.0
 40
1.0
 40
2.0
 40
2.0
 40
2.0
 40
3.0
 40
3.0
 40
3.0
 40
4.0
 40
4.0
 40
4.0
 40
5.0
 40
5.0
 40
5.0
 40
6.0
 40
6.0
 40
6.0
 40
7.0
 40
7.0
 40
7.0
 40
8.0
 40
8.0
 40
8.0
 40
9.0
 40
9.0
 40
9.0
 40
10.0
 40
10.0
 40
10.0
 40
11.0
 40
11.0
 40
11.0
 40
12.0
 40
12.0
 40
12.0
 40
13.0
 40
13.0
 40
13.0
 40
14.0
 40
14.0
 40
14.0
 40
15.0
 40
15.0
 40
15.0
 40
16.0
 40
16.0
 40
16.0
 40
17.0
 40
17.0
 40
17.0
 40
18.0
 40
18.0
 40
18.0
 40
19.0
 40
19.0
 40
19.0
 40
19.0
 10
2019.226305901481
 20
62.18518975207121
 10
2019.226305901481
 20
62.18518975207121
 10
2018.288350770815
 20
62.18518975207121
 10
2018.288350770815
 20
62.18518975207121
 10
2018.288350770815
 20
62.18518975207121
 10
2018.288350770815
 20
63.391132062927
 10
2018.288350770815
 20
63.391132062927
 10
2018.288350770815
 20
63.391132062927
 10
2019.226305901481
 20
63.391132062927
 10
2019.226305901481
 20
63.391132062927
 10
2019.226305901481
 20
63.391132062927
 10
2019.226305901481
 20
64.5205066080141
 10
2019.226305901481
 20
64.5205066080141
 10
2019.226305901481
 20
64.5205066080141
 10
2020.575812773153
 20
64.7884937882045
 10
2020.575812773153
 20
64.7884937882045
 10
2020.575812773153
 20
64.7884937882045
 10
2020.575812773153
 20
63.391132062927
 10
2020.575812773153
 20
63.391132062927
 10
2020.575812773153
 20
63.391132062927
 10
2022.030600322757
 20
63.391132062927
 10
2022.030600322757
 20
63.391132062927
 10
2022.030600322757
 20
63.391132062927
 10
2022.030600322757
 20
62.18518975207121
 10
2022.030600322757
 20
62.18518975207121
 10
2022.030600322757
 20
62.18518975207121
 10
2020.575812773153
 20
62.18518975207121
 10
2020.575812773153
 20
62.18518975207121
 10
2020.575812773153
 20
62.18518975207121
 10
2020.575812773153
 20
60.10828910559735
 10
2020.575812773153
 20
60.10828910559735
 10
2020.575812773153
 20
59.86582451399659
 10
2020.649190215348
 20
59.68397607029601
 10
2020.795945099738
 20
59.56274377449586
 10
2020.942699984128
 20
59.44151147869547
 10
2021.11816778068
 20
59.38089533079528
 10
2021.322348489397
 20
59.38089533079528
 10
2021.615858258177
 20
59.38089533079528
 10
2021.85194220263
 20
59.40960824295848
 10
2022.030600322757
 20
59.46703406728511
 10
2022.030600322757
 20
59.46703406728511
 10
2022.030600322757
 20
58.31851758075572
 10
2022.030600322757
 20
58.31851758075572
 10
2021.864703496924
 20
58.28661434501873
 10
2021.719543774321
 20
58.26428208000289
 10
2021.595121154948
 20
58.25152078570818
 10
2021.470698535574
 20
58.23875949141325
 10
2021.309587195102
 20
58.2323788442659
 10
2021.111787133533
 20
58.2323788442659
 10
2020.556670831711
 20
58.2323788442659
 10
2020.103644884246
 20
58.38870469937683
 10
2019.75270929114
 20
58.7013564095987
 10
2019.401773698034
 20
59.01400811982057
 10
2019.226305901481
 20
59.43194050797433
 10
2019.226305901481
 20
59.95515357405998
 10
2019.226305901481
 20
59.95515357405998
 10
2019.226305901481
 20
62.18518975207121
 10
2019.226305901481
 20
62.18518975207121
 97
        0
 97
        0
 75
     0
 76
     1
 98
        0
  0
HATCH
  5
6A
330
1F
100
AcDbEntity
  8
0
 62
    18
420
        0
440
 33554687
100
AcDbHatch
 10
0.0
 20
0.0
 30
0.0
210
0.0
220
0.0
230
1.0
  2
SOLID
 70
     1
 71
     1
 91
        2
 92
        0
 93
        1
 72
     4
 94
        3
 73
     0
 74
     1
 95
       41
 96
       37
 40
0.0
 40
0.0
 40
0.0
 40
0.0
 40
1.0
 40
1.0
 40
1.0
 40
2.0
 40
2.0
 40
2.0
 40
3.0
 40
3.0
 40
3.0
 40
4.0
 40
4.0
 40
4.0
 40
5.0
 40
5.0
 40
5.0
 40
6.0
 40
6.0
 40
6.0
 40
7.0
 40
7.0
 40
7.0
 40
8.0
 40
8.0
 40
8.0
 40
9.0
 40
9.0
 40
9.0
 40
10.0
 40
10.0
 40
10.0
 40
11.0
 40
11.0
 40
11.0
 40
12.0
 40
12.0
 40
12.0
 40
12.0
 10
2024.720043095379
 20
58.18452399066064
 10
2024.215971970736
 20
58.18452399066064
 10
2023.759755699698
 20
58.30097080110045
 10
2023.351394282265
 20
58.53386442197984
 10
2022.943032864832
 20
58.76675804285946
 10
2022.622405345676
 20
59.08738556201547
 10
2022.389511724797
 20
59.49574697944831
 10
2022.156618103917
 20
59.90410839688093
 10
2022.040171293477
 20
60.35713434434524
 10
2022.040171293477
 20
60.85482482184125
 10
2022.040171293477
 20
61.35251529933726
 10
2022.156618103917
 20
61.80554124680179
 10
2022.389511724797
 20
62.21390266423441
 10
2022.622405345676
 20
62.62226408166703
 10
2022.943032864832
 20
62.94289160082303
 10
2023.351394282265
 20
63.17578522170288
 10
2023.759755699698
 20
63.40867884258228
 10
2024.215971970736
 20
63.52512565302209
 10
2024.720043095379
 20
63.52512565302209
 10
2025.224114220023
 20
63.52512565302209
 10
2025.681925652847
 20
63.40867884258228
 10
2026.093477393854
 20
63.17578522170288
 10
2026.50502913486
 20
62.94289160082303
 10
2026.827251815803
 20
62.62226408166703
 10
2027.060145436683
 20
62.21390266423441
 10
2027.293039057562
 20
61.80554124680179
 10
2027.409485868002
 20
61.35251529933726
 10
2027.409485868002
 20
60.85482482184125
 10
2027.409485868002
 20
60.35713434434524
 10
2027.293039057562
 20
59.90410839688093
 10
2027.060145436683
 20
59.49574697944831
 10
2026.827251815803
 20
59.08738556201547
 10
2026.50502913486
 20
58.76675804285946
 10
2026.093477393854
 20
58.53386442197984
 10
2025.681925652847
 20
58.30097080110045
 10
2025.224114220023
 20
58.18452399066064
 10
2024.720043095379
 20
58.18452399066064
 97
        0
 97
        0
 92
        0
 93
        1
 72
     4
 94
        3
 73
     0
 74
     1
 95
       38
 96
       34
 40
0.0
 40
0.0
 40
0.0
 40
0.0
 40
1.0
 40
1.0
 40
1.0
 40
2.0
 40
2.0
 40
2.0
 40
3.0
 40
3.0
 40
3.0
 40
4.0
 40
4.0
 40
4.0
 40
5.0
 40
5.0
 40
5.0
 40
6.0
 40
6.0
 40
6.0
 40
7.0
 40
7.0
 40
7.0
 40
8.0
 40
8.0
 40
8.0
 40
9.0
 40
9.0
 40
9.0
 40
10.0
 40
10.0
 40
10.0
 40
11.0
 40
11.0
 40
11.0
 40
11.0
 10
2024.720043095379
 20
59.42875018440077
 10
2024.975268981275
 20
59.42875018440077
 10
2025.203377116794
 20
59.48617600872717
 10
2025.404367501936
 20
59.6010276573802
 10
2025.605357887079
 20
59.715879306033
 10
2025.763278903977
 20
59.88177613186508
 10
2025.87813055263
 20
60.09871813487621
 10
2025.992982201283
 20
60.31566013788733
 10
2026.050408025609
 20
60.56769570020901
 10
2026.050408025609
 20
60.85482482184125
 10
2026.050408025609
 20
61.14195394347371
 10
2025.992982201283
 20
61.39398950579539
 10
2025.87813055263
 20
61.61093150880652
 10
2025.763278903977
 20
61.82787351181764
 10
2025.605357887079
 20
61.99536549943628
 10
2025.404367501936
 20
62.11340747166309
 10
2025.203377116794
 20
62.23144944388969
 10
2024.975268981275
 20
62.29047043000287
 10
2024.720043095379
 20
62.29047043000287
 10
2024.337204266536
 20
62.29047043000287
 10
2024.021362232741
 20
62.15966716348157
 10
2023.772516993992
 20
61.89806063043875
 10
2023.523671755245
 20
61.63645409739615
 10
2023.39924913587
 20
61.2887088278635
 10
2023.39924913587
 20
60.85482482184125
 10
2023.39924913587
 20
60.56769570020901
 10
2023.456674960197
 20
60.31566013788733
 10
2023.57152660885
 20
60.09871813487621
 10
2023.686378257503
 20
59.88177613186508
 10
2023.842704112614
 20
59.715879306033
 10
2024.040504174183
 20
59.6010276573802
 10
2024.238304235752
 20
59.48617600872717
 10
2024.464817209484
 20
59.42875018440077
 10
2024.720043095379
 20
59.42875018440077
 97
        0
 97
        0
 75
     0
 76
     1
 98
        0
  0
HATCH
  5
6B
330
1F
100
AcDbEntity
  8
0
 62
    18
420
        0
440
 33554687
100
AcDbHatch
 10
0.0
 20
0.0
 30
0.0
210
0.0
220
0.0
230
1.0
  2
SOLID
 70
     1
 71
     1
 91
        1
 92
        0
 93
        1
 72
     4
 94
        3
 73
     0
 74
     1
 95
       59
 96
       55
 40
0.0
 40
0.0
 40
0.0
 40
0.0
 40
1.0
 40
1.0
 40
1.0
 40
2.0
 40
2.0
 40
2.0
 40
3.0
 40
3.0
 40
3.0
 40
4.0
 40
4.0
 40
4.0
 40
5.0
 40
5.0
 40
5.0
 40
6.0
 40
6.0
 40
6.0
 40
7.0
 40
7.0
 40
7.0
 40
8.0
 40
8.0
 40
8.0
 40
9.0
 40
9.0
 40
9.0
 40
10.0
 40
10.0
 40
10.0
 40
11.0
 40
11.0
 40
11.0
 40
12.0
 40
12.0
 40
12.0
 40
13.0
 40
13.0
 40
13.0
 40
14.0
 40
14.0
 40
14.0
 40
15.0
 40
15.0
 40
15.0
 40
16.0
 40
16.0
 40
16.0
 40
17.0
 40
17.0
 40
17.0
 40
18.0
 40
18.0
 40
18.0
 40
18.0
 10
2031.352725805086
 20
58.19409496138155
 10
2031.046454742011
 20
58.19409496138155
 10
2030.756135296805
 20
58.28023369787138
 10
2030.481767469468
 20
58.45251117085081
 10
2030.20739964213
 20
58.62478864383024
 10
2029.985672153759
 20
58.8608725882832
 10
2029.816585004353
 20
59.16076300421059
 10
2029.647497854947
 20
59.46065342013753
 10
2029.562954280244
 20
59.7892567482279
 10
2029.562954280244
 20
60.14657298848147
 10
2029.562954280244
 20
60.14657298848147
 10
2029.562954280244
 20
63.391132062927
 10
2029.562954280244
 20
63.391132062927
 10
2029.562954280244
 20
63.391132062927
 10
2030.922032122637
 20
63.391132062927
 10
2030.922032122637
 20
63.391132062927
 10
2030.922032122637
 20
63.391132062927
 10
2030.922032122637
 20
60.48155696371919
 10
2030.922032122637
 20
60.48155696371919
 10
2030.922032122637
 20
60.1433826649079
 10
2031.011361182701
 20
59.87539548471773
 10
2031.190019302827
 20
59.67759542314866
 10
2031.368677422954
 20
59.47979536157982
 10
2031.604761367407
 20
59.38089533079528
 10
2031.898271136187
 20
59.38089533079528
 10
2032.185400257819
 20
59.38089533079528
 10
2032.415103555125
 20
59.47979536157982
 10
2032.587381028105
 20
59.67759542314866
 10
2032.759658501084
 20
59.87539548471773
 10
2032.845797237574
 20
60.1433826649079
 10
2032.845797237574
 20
60.48155696371919
 10
2032.845797237574
 20
60.48155696371919
 10
2032.845797237574
 20
63.391132062927
 10
2032.845797237574
 20
63.391132062927
 10
2032.845797237574
 20
63.391132062927
 10
2034.195304109246
 20
63.391132062927
 10
2034.195304109246
 20
63.391132062927
 10
2034.195304109246
 20
63.391132062927
 10
2034.195304109246
 20
58.31851758075572
 10
2034.195304109246
 20
58.31851758075572
 10
2034.195304109246
 20
58.31851758075572
 10
2032.884081120458
 20
58.31851758075572
 10
2032.884081120458
 20
58.31851758075572
 10
2032.884081120458
 20
58.31851758075572
 10
2032.884081120458
 20
58.9693435897891
 10
2032.884081120458
 20
58.9693435897891
 10
2032.884081120458
 20
58.9693435897891
 10
2032.817084325411
 20
58.9693435897891
 10
2032.817084325411
 20
58.9693435897891
 10
2032.683090735316
 20
58.75878223392533
 10
2032.490076159107
 20
58.57693379022476
 10
2032.238040596786
 20
58.42379825868761
 10
2031.986005034464
 20
58.27066272715024
 10
2031.690900103897
 20
58.19409496138155
 10
2031.352725805086
 20
58.19409496138155
 97
        0
 97
        0
 75
     0
 76
     1
 98
        0
  0
HATCH
  5
6C
330
1F
100
AcDbEntity
  8
0
 62
    18
420
        0
440
 33554687
100
AcDbHatch
 10
0.0
 20
0.0
 30
0.0
210
0.0
220
0.0
230
1.0
  2
SOLID
 70
     1
 71
     1
 91
        1
 92
        0
 93
        1
 72
     4
 94
        3
 73
     0
 74
     1
 95
       92
 96
       88
 40
0.0
 40
0.0
 40
0.0
 40
0.0
 40
1.0
 40
1.0
 40
1.0
 40
2.0
 40
2.0
 40
2.0
 40
3.0
 40
3.0
 40
3.0
 40
4.0
 40
4.0
 40
4.0
 40
5.0
 40
5.0
 40
5.0
 40
6.0
 40
6.0
 40
6.0
 40
7.0
 40
7.0
 40
7.0
 40
8.0
 40
8.0
 40
8.0
 40
9.0
 40
9.0
 40
9.0
 40
10.0
 40
10.0
 40
10.0
 40
11.0
 40
11.0
 40
11.0
 40
12.0
 40
12.0
 40
12.0
 40
13.0
 40
13.0
 40
13.0
 40
14.0
 40
14.0
 40
14.0
 40
15.0
 40
15.0
 40
15.0
 40
16.0
 40
16.0
 40
16.0
 40
17.0
 40
17.0
 40
17.0
 40
18.0
 40
18.0
 40
18.0
 40
19.0
 40
19.0
 40
19.0
 40
20.0
 40
20.0
 40
20.0
 40
21.0
 40
21.0
 40
21.0
 40
22.0
 40
22.0
 40
22.0
 40
23.0
 40
23.0
 40
23.0
 40
24.0
 40
24.0
 40
24.0
 40
25.0
 40
25.0
 40
25.0
 40
26.0
 40
26.0
 40
26.0
 40
27.0
 40
27.0
 40
27.0
 40
28.0
 40
28.0
 40
28.0
 40
29.0
 40
29.0
 40
29.0
 40
29.0
 10
2037.028311442685
 20
58.18452399066064
 10
2036.562524200926
 20
58.18452399066064
 10
2036.157353107067
 20
58.25630627106852
 10
2035.812798161108
 20
58.39987083188475
 10
2035.46824321515
 20
58.54343539270099
 10
2035.139639887059
 20
58.76835320464625
 10
2034.826988176837
 20
59.07462426772076
 10
2034.826988176837
 20
59.07462426772076
 10
2035.678804571013
 20
59.95515357405998
 10
2035.678804571013
 20
59.95515357405998
 10
2035.889365926877
 20
59.73821157104885
 10
2036.096736959167
 20
59.57550506879056
 10
2036.300917667883
 20
59.46703406728511
 10
2036.5050983766
 20
59.35856306577944
 10
2036.731611350332
 20
59.30432756502682
 10
2036.98045658908
 20
59.30432756502682
 10
2037.203779239238
 20
59.30432756502682
 10
2037.379247035791
 20
59.34420660969795
 10
2037.506859978739
 20
59.4239646990402
 10
2037.634472921687
 20
59.50372278838245
 10
2037.698279393161
 20
59.61378895167491
 10
2037.698279393161
 20
59.75416318891735
 10
2037.698279393161
 20
59.89453742615979
 10
2037.6328777599
 20
60.00300842766546
 10
2037.502074493379
 20
60.07957619343392
 10
2037.371271226857
 20
60.15614395920261
 10
2037.139972767764
 20
60.22952140139751
 10
2036.808179116101
 20
60.29970852001884
 10
2036.233920872836
 20
60.40817952152429
 10
2035.806417513961
 20
60.59002796522486
 10
2035.525669039476
 20
60.84525385112033
 10
2035.244920564991
 20
61.1004797370158
 10
2035.104546327748
 20
61.46098630084293
 10
2035.104546327748
 20
61.92677354260195
 10
2035.104546327748
 20
62.20752201708706
 10
2035.182709255304
 20
62.47072371191666
 10
2035.339035110415
 20
62.71637862709099
 10
2035.495360965526
 20
62.96203354226532
 10
2035.721873939258
 20
63.15823844204738
 10
2036.018574031612
 20
63.30499332643717
 10
2036.315274123965
 20
63.45174821082719
 10
2036.667804878858
 20
63.52512565302209
 10
2037.076166296291
 20
63.52512565302209
 10
2037.554714832344
 20
63.52512565302209
 10
2037.932768175827
 20
63.45015304904041
 10
2038.210326326738
 20
63.30020784107683
 10
2038.48788447765
 20
63.15026263311324
 10
2038.757466819627
 20
62.91577385044684
 10
2039.019073352669
 20
62.59674149307739
 10
2039.019073352669
 20
62.59674149307739
 10
2038.04283433912
 20
61.84063480611235
 10
2038.04283433912
 20
61.84063480611235
 10
2037.902460101877
 20
62.05119616197612
 10
2037.757300379274
 20
62.20114136993971
 10
2037.60735517131
 20
62.29047043000287
 10
2037.457409963347
 20
62.37979949006649
 10
2037.280347005007
 20
62.42446402009796
 10
2037.076166296291
 20
62.42446402009796
 10
2036.884746881869
 20
62.42446402009796
 10
2036.730016188545
 20
62.37979949006649
 10
2036.611974216318
 20
62.29047043000287
 10
2036.493932244092
 20
62.20114136993971
 10
2036.434911257978
 20
62.09586069200782
 10
2036.434911257978
 20
61.97462839620744
 10
2036.434911257978
 20
61.85339610040705
 10
2036.493932244092
 20
61.75609123140953
 10
2036.611974216318
 20
61.68271378921463
 10
2036.730016188545
 20
61.60933634701973
 10
2036.91984044118
 20
61.54074439018518
 10
2037.181446974222
 20
61.47693791871143
 10
2037.634472921687
 20
61.3748475643531
 10
2037.993384323727
 20
61.2599959157003
 10
2038.258181180344
 20
61.13238297275257
 10
2038.52297803696
 20
61.00477002980483
 10
2038.719182936742
 20
60.84046836575976
 10
2038.84679587969
 20
60.6394779806169
 10
2038.974408822638
 20
60.43848759547427
 10
2039.038215294112
 20
60.17847622421846
 10
2039.038215294112
 20
59.85944386684923
 10
2039.038215294112
 20
59.52765021518508
 10
2038.953671719409
 20
59.23573560819227
 10
2038.784584570003
 20
58.98370004587059
 10
2038.615497420597
 20
58.73166448354891
 10
2038.377818314357
 20
58.53545958376662
 10
2038.071547251283
 20
58.39508534652418
 10
2037.765276188208
 20
58.25471110928174
 10
2037.417530918676
 20
58.18452399066064
 10
2037.028311442685
 20
58.18452399066064
 97
        0
 97
        0
 75
     0
 76
     1
 98
        0
  0
HATCH
  5
6D
330
1F
100
AcDbEntity
  8
0
 62
    18
420
        0
440
 33554687
100
AcDbHatch
 10
0.0
 20
0.0
 30
0.0
210
0.0
220
0.0
230
1.0
  2
SOLID
 70
     1
 71
     1
 91
        5
 92
        0
 93
        1
 72
     4
 94
        3
 73
     0
 74
     1
 95
       14
 96
       10
 40
0.0
 40
0.0
 40
0.0
 40
0.0
 40
1.0
 40
1.0
 40
1.0
 40
2.0
 40
2.0
 40
2.0
 40
3.0
 40
3.0
 40
3.0
 40
3.0
 10
2018.05595020373
 20
87.6821979458814
 10
2020.206107409679
 20
86.81292586453833
 10
2021.724733800391
 20
84.70466278350068
 10
2021.724733800391
 20
82.24450427824354
 10
2021.724733800391
 20
79.7843457729864
 10
2020.206107409679
 20
77.67608269194898
 10
2018.05595020373
 20
76.80681061060591
 10
2018.05595020373
 20
76.80681061060591
 10
2018.05595020373
 20
87.6821979458814
 10
2018.05595020373
 20
87.6821979458814
 97
        0
 97
        0
 92
        0
 93
        1
 72
     4
 94
        3
 73
     0
 74
     1
 95
       14
 96
       10
 40
0.0
 40
0.0
 40
0.0
 40
0.0
 40
1.0
 40
1.0
 40
1.0
 40
2.0
 40
2.0
 40
2.0
 40
3.0
 40
3.0
 40
3.0
 40
3.0
 10
2018.05595020373
 20
99.40742279083543
 10
2020.206107409679
 20
98.53815070949236
 10
2021.724733800392
 20
96.42988762845494
 10
2021.724733800391
 20
93.9697291231978
 10
2021.724733800391
 20
91.50957061794065
 10
2020.206107409679
 20
89.40130753690323
 10
2018.05595020373
 20
88.53203545556016
 10
2018.05595020373
 20
88.53203545556016
 10
2018.05595020373
 20
99.40742279083543
 10
2018.05595020373
 20
99.40742279083543
 97
        0
 97
        0
 92
        0
 93
        1
 72
     4
 94
        3
 73
     0
 74
     1
 95
       26
 96
       22
 40
0.0
 40
0.0
 40
0.0
 40
0.0
 40
1.0
 40
1.0
 40
1.0
 40
2.0
 40
2.0
 40
2.0
 40
3.0
 40
3.0
 40
3.0
 40
4.0
 40
4.0
 40
4.0
 40
5.0
 40
5.0
 40
5.0
 40
6.0
 40
6.0
 40
6.0
 40
7.0
 40
7.0
 40
7.0
 40
7.0
 10
2005.606285246602
 20
76.38189185576653
 10
2005.606285246602
 20
76.38189185576653
 10
1985.717932866275
 20
76.38189185576653
 10
1985.717932866275
 20
76.38189185576653
 10
1985.717932866275
 20
76.38189185576653
 10
1985.717932866275
 20
99.83234154567504
 10
1985.717932866275
 20
99.83234154567504
 10
1985.717932866275
 20
99.83234154567504
 10
2005.606285246602
 20
99.83234154567504
 10
2005.606285246602
 20
99.83234154567504
 10
2008.841949125352
 20
99.83234154567504
 10
2011.468897669079
 20
97.2053930019481
 10
2011.468897669079
 20
93.96972912319802
 10
2011.468897669079
 20
90.73406524444749
 10
2008.841949125352
 20
88.10711670072078
 10
2005.606285246602
 20
88.10711670072078
 10
2008.841949125352
 20
88.10711670072078
 10
2011.468897669079
 20
85.48016815699384
 10
2011.468897669079
 20
82.24450427824354
 10
2011.468897669079
 20
79.00884039949347
 10
2008.841949125352
 20
76.38189185576653
 10
2005.606285246602
 20
76.38189185576653
 97
        0
 97
        0
 92
        0
 93
        1
 72
     4
 94
        3
 73
     0
 74
     1
 95
       14
 96
       10
 40
0.0
 40
0.0
 40
0.0
 40
0.0
 40
1.0
 40
1.0
 40
1.0
 40
2.0
 40
2.0
 40
2.0
 40
3.0
 40
3.0
 40
3.0
 40
3.0
 10
2011.769279040092
 20
88.10711670072078
 10
2011.769279040092
 20
88.10711670072078
 10
2011.769279040092
 20
99.83234154567504
 10
2011.769279040092
 20
99.83234154567504
 10
2015.004942918842
 20
99.83234154567504
 10
2017.631891462569
 20
97.2053930019481
 10
2017.631891462569
 20
93.96972912319802
 10
2017.631891462569
 20
90.73406524444749
 10
2015.004942918842
 20
88.10711670072078
 10
2011.769279040092
 20
88.10711670072078
 97
        0
 97
        0
 92
        0
 93
        1
 72
     4
 94
        3
 73
     0
 74
     1
 95
       14
 96
       10
 40
0.0
 40
0.0
 40
0.0
 40
0.0
 40
1.0
 40
1.0
 40
1.0
 40
2.0
 40
2.0
 40
2.0
 40
3.0
 40
3.0
 40
3.0
 40
3.0
 10
2011.769279040092
 20
88.10711670072078
 10
2015.004942918842
 20
88.10711670072078
 10
2017.631891462569
 20
85.48016815699384
 10
2017.631891462569
 20
82.24450427824354
 10
2017.631891462569
 20
79.00884039949347
 10
2015.004942918842
 20
76.38189185576653
 10
2011.769279040092
 20
76.38189185576653
 10
2011.769279040092
 20
76.38189185576653
 10
2011.769279040092
 20
88.10711670072078
 10
2011.769279040092
 20
88.10711670072078
 97
        0
 97
        0
 75
     0
 76
     1
 98
        0
  0
SPLINE
  5
6E
330
1F
100
AcDbEntity
  8
0
  6
Continuous
 62
    18
420
        0
370
     5
100
AcDbSpline
210
0.0
220
0.0
230
1.0
 70
    11
 71
     3
 72
    26
 73
    22
 74
     0
 42
0.000000001
 43
0.0
 40
0.0
 40
0.0
 40
0.0
 40
0.0
 40
1.0
 40
1.0
 40
1.0
 40
2.0
 40
2.0
 40
2.0
 40
3.0
 40
3.0
 40
3.0
 40
4.0
 40
4.0
 40
4.0
 40
5.0
 40
5.0
 40
5.0
 40
6.0
 40
6.0
 40
6.0
 40
7.0
 40
7.0
 40
7.0
 40
7.0
 10
2005.606285246602
 20
76.38189185576653
 30
0.0
 10
2005.606285246602
 20
76.38189185576653
 30
0.0
 10
1985.717932866275
 20
76.38189185576653
 30
0.0
 10
1985.717932866275
 20
76.38189185576653
 30
0.0
 10
1985.717932866275
 20
76.38189185576653
 30
0.0
 10
1985.717932866275
 20
99.83234154567504
 30
0.0
 10
1985.717932866275
 20
99.83234154567504
 30
0.0
 10
1985.717932866275
 20
99.83234154567504
 30
0.0
 10
2005.606285246602
 20
99.83234154567504
 30
0.0
 10
2005.606285246602
 20
99.83234154567504
 30
0.0
 10
2008.841949125352
 20
99.83234154567504
 30
0.0
 10
2011.468897669079
 20
97.2053930019481
 30
0.0
 10
2011.468897669079
 20
93.96972912319802
 30
0.0
 10
2011.468897669079
 20
90.73406524444749
 30
0.0
 10
2008.841949125352
 20
88.10711670072078
 30
0.0
 10
2005.606285246602
 20
88.10711670072078
 30
0.0
 10
2008.841949125352
 20
88.10711670072078
 30
0.0
 10
2011.468897669079
 20
85.48016815699384
 30
0.0
 10
2011.468897669079
 20
82.24450427824354
 30
0.0
 10
2011.468897669079
 20
79.00884039949347
 30
0.0
 10
2008.841949125352
 20
76.38189185576653
 30
0.0
 10
2005.606285246602
 20
76.38189185576653
 30
0.0
  0
SPLINE
  5
6F
330
1F
100
AcDbEntity
  8
0
  6
Continuous
 62
    18
420
        0
370
     5
100
AcDbSpline
210
0.0
220
0.0
230
1.0
 70
    11
 71
     3
 72
    14
 73
    10
 74
     0
 42
0.000000001
 43
0.0
 40
0.0
 40
0.0
 40
0.0
 40
0.0
 40
1.0
 40
1.0
 40
1.0
 40
2.0
 40
2.0
 40
2.0
 40
3.0
 40
3.0
 40
3.0
 40
3.0
 10
2018.05595020373
 20
87.6821979458814
 30
0.0
 10
2020.206107409679
 20
86.81292586453833
 30
0.0
 10
2021.724733800391
 20
84.70466278350068
 30
0.0
 10
2021.724733800391
 20
82.24450427824354
 30
0.0
 10
2021.724733800391
 20
79.7843457729864
 30
0.0
 10
2020.206107409679
 20
77.67608269194898
 30
0.0
 10
2018.05595020373
 20
76.80681061060591
 30
0.0
 10
2018.05595020373
 20
76.80681061060591
 30
0.0
 10
2018.05595020373
 20
87.6821979458814
 30
0.0
 10
2018.05595020373
 20
87.6821979458814
 30
0.0
  0
SPLINE
  5
70
330
1F
100
AcDbEntity
  8
0
  6
Continuous
 62
    18
420
        0
370
     5
100
AcDbSpline
210
0.0
220
0.0
230
1.0
 70
    11
 71
     3
 72
    14
 73
    10
 74
     0
 42
0.000000001
 43
0.0
 40
0.0
 40
0.0
 40
0.0
 40
0.0
 40
1.0
 40
1.0
 40
1.0
 40
2.0
 40
2.0
 40
2.0
 40
3.0
 40
3.0
 40
3.0
 40
3.0
 10
2018.05595020373
 20
99.40742279083543
 30
0.0
 10
2020.206107409679
 20
98.53815070949236
 30
0.0
 10
2021.724733800392
 20
96.42988762845494
 30
0.0
 10
2021.724733800391
 20
93.9697291231978
 30
0.0
 10
2021.724733800391
 20
91.50957061794065
 30
0.0
 10
2020.206107409679
 20
89.40130753690323
 30
0.0
 10
2018.05595020373
 20
88.53203545556016
 30
0.0
 10
2018.05595020373
 20
88.53203545556016
 30
0.0
 10
2018.05595020373
 20
99.40742279083543
 30
0.0
 10
2018.05595020373
 20
99.40742279083543
 30
0.0
  0
SPLINE
  5
71
330
1F
100
AcDbEntity
  8
0
  6
Continuous
 62
    18
420
        0
370
     5
100
AcDbSpline
210
0.0
220
0.0
230
1.0
 70
    11
 71
     3
 72
    14
 73
    10
 74
     0
 42
0.000000001
 43
0.0
 40
0.0
 40
0.0
 40
0.0
 40
0.0
 40
1.0
 40
1.0
 40
1.0
 40
2.0
 40
2.0
 40
2.0
 40
3.0
 40
3.0
 40
3.0
 40
3.0
 10
2011.769279040092
 20
88.10711670072078
 30
0.0
 10
2011.769279040092
 20
88.10711670072078
 30
0.0
 10
2011.769279040092
 20
99.83234154567504
 30
0.0
 10
2011.769279040092
 20
99.83234154567504
 30
0.0
 10
2015.004942918842
 20
99.83234154567504
 30
0.0
 10
2017.631891462569
 20
97.2053930019481
 30
0.0
 10
2017.631891462569
 20
93.96972912319802
 30
0.0
 10
2017.631891462569
 20
90.73406524444749
 30
0.0
 10
2015.004942918842
 20
88.10711670072078
 30
0.0
 10
2011.769279040092
 20
88.10711670072078
 30
0.0
  0
SPLINE
  5
72
330
1F
100
AcDbEntity
  8
0
  6
Continuous
 62
    18
420
        0
370
     5
100
AcDbSpline
210
0.0
220
0.0
230
1.0
 70
    11
 71
     3
 72
    14
 73
    10
 74
     0
 42
0.000000001
 43
0.0
 40
0.0
 40
0.0
 40
0.0
 40
0.0
 40
1.0
 40
1.0
 40
1.0
 40
2.0
 40
2.0
 40
2.0
 40
3.0
 40
3.0
 40
3.0
 40
3.0
 10
2011.769279040092
 20
88.10711670072078
 30
0.0
 10
2015.004942918842
 20
88.10711670072078
 30
0.0
 10
2017.631891462569
 20
85.48016815699384
 30
0.0
 10
2017.631891462569
 20
82.24450427824354
 30
0.0
 10
2017.631891462569
 20
79.00884039949347
 30
0.0
 10
2015.004942918842
 20
76.38189185576653
 30
0.0
 10
2011.769279040092
 20
76.38189185576653
 30
0.0
 10
2011.769279040092
 20
76.38189185576653
 30
0.0
 10
2011.769279040092
 20
88.10711670072078
 30
0.0
 10
2011.769279040092
 20
88.10711670072078
 30
0.0
  0
VIEWPORT
  5
77
330
73
100
AcDbEntity
 67
     1
  8
0
100
AcDbViewport
 10
128.5
 20
97.5
 30
0.0
 40
314.226
 41
222.18
 68
     1
 69
     1
 12
84.709
 22
127.0
 13
0.0
 23
0.0
 14
10.0
 24
10.0
 15
10.0
 25
10.0
 16
0.0
 26
0.0
 36
1.0
 17
0.0
 27
0.0
 37
0.0
 42
50.0
 43
0.0
 44
0.0
 45
222.18
 50
0.0
 51
0.0
 72
   100
 90
   557152
  1

281
     0
 71
     1
 74
     0
110
0.0
120
0.0
130
0.0
111
1.0
121
0.0
131
0.0
112
0.0
122
1.0
132
0.0
 79
     0
146
0.0
170
     0
 61
     5
348
2F
292
     1
282
     1
141
0.0
142
0.0
 63
   256
361
78
  0
VIEWPORT
  5
79
330
73
100
AcDbEntity
 67
     1
  8
0
100
AcDbViewport
 10
127.0
 20
84.709
 30
0.0
 40
254.0
 41
169.418
 68
     2
 69
     2
 12
2003.721333333333
 22
84.66462669000953
 13
0.0
 23
0.0
 14
10.0
 24
10.0
 15
10.0
 25
10.0
 16
0.0
 26
0.0
 36
1.0
 17
0.0
 27
0.0
 37
0.0
 42
50.0
 43
0.0
 44
0.0
 45
169.418
 50
0.0
 51
0.0
 72
   100
 90
   557152
  1

281
     0
 71
     1
 74
     0
110
0.0
120
0.0
130
0.0
111
1.0
121
0.0
131
0.0
112
0.0
122
1.0
132
0.0
 79
     0
146
0.0
170
     0
 61
     5
348
2F
292
     1
282
     1
141
0.0
142
0.0
 63
   256
361
7A
  0
ENDSEC
  0
SECTION
  2
OBJECTS
  0
DICTIONARY
  5
C
330
0
100
AcDbDictionary
281
     1
  3
ACAD_DETAILVIEWSTYLE
350
82
  3
ACAD_GROUP
350
D
  3
ACAD_LAYOUT
350
1A
  3
ACAD_MATERIAL
350
43
  3
ACAD_MLEADERSTYLE
350
5B
  3
ACAD_MLINESTYLE
350
17
  3
ACAD_PLOTSETTINGS
350
19
  3
ACAD_PLOTSTYLENAME
350
E
  3
ACAD_SCALELIST
350
47
  3
ACAD_SECTIONVIEWSTYLE
350
83
  3
ACAD_TABLESTYLE
350
59
  3
ACAD_VISUALSTYLE
350
2A
  3
ACDB_RECOMPOSE_DATA
350
7F
  3
AcDbVariableDictionary
350
7B
  0
SUN
  5
5D
330
29
100
AcDbSun
 90
        1
290
     0
 63
     7
421
 16777215
 40
1.0
291
     1
 91
  2455826
 92
 54000000
292
     0
 70
     2
 71
   256
280
     1
  0
SUN
  5
78
330
77
100
AcDbSun
 90
        1
290
     0
 63
     7
421
 16777215
 40
1.0
291
     1
 91
  2455826
 92
 54000000
292
     0
 70
     2
 71
   256
280
     1
  0
SUN
  5
7A
330
79
100
AcDbSun
 90
        1
290
     0
 63
     7
421
 16777215
 40
1.0
291
     1
 91
  2455826
 92
 54000000
292
     0
 70
     2
 71
   256
280
     1
  0
DICTIONARY
  5
82
102
{ACAD_REACTORS
330
C
102
}
330
C
100
AcDbDictionary
281
     1
  0
DICTIONARY
  5
D
102
{ACAD_REACTORS
330
C
102
}
330
C
100
AcDbDictionary
281
     1
  0
DICTIONARY
  5
1A
102
{ACAD_REACTORS
330
C
102
}
330
C
100
AcDbDictionary
281
     1
  3
Layout1
350
74
  3
Model
350
22
  0
DICTIONARY
  5
43
102
{ACAD_REACTORS
330
C
102
}
330
C
100
AcDbDictionary
281
     1
  3
ByBlock
350
45
  3
ByLayer
350
44
  3
Global
350
46
  0
DICTIONARY
  5
5B
102
{ACAD_REACTORS
330
C
102
}
330
C
100
AcDbDictionary
281
     1
  3
Standard
350
5C
  0
DICTIONARY
  5
17
102
{ACAD_REACTORS
330
C
102
}
330
C
100
AcDbDictionary
281
     1
  3
Standard
350
18
  0
DICTIONARY
  5
19
102
{ACAD_REACTORS
330
C
102
}
330
C
100
AcDbDictionary
281
     1
  0
ACDBDICTIONARYWDFLT
  5
E
102
{ACAD_REACTORS
330
C
102
}
330
C
100
AcDbDictionary
281
     1
  3
Normal
350
F
100
AcDbDictionaryWithDefault
340
F
  0
DICTIONARY
  5
47
102
{ACAD_REACTORS
330
C
102
}
330
C
100
AcDbDictionary
281
     1
  3
A0
350
48
  3
A1
350
49
  3
A2
350
4A
  3
A3
350
4B
  3
A4
350
4C
  3
A5
350
4D
  3
A6
350
4E
  3
A7
350
4F
  3
A8
350
50
  3
A9
350
51
  3
B0
350
52
  3
B1
350
53
  3
B2
350
54
  3
B3
350
55
  3
B4
350
56
  3
B5
350
57
  3
B6
350
58
  0
DICTIONARY
  5
83
102
{ACAD_REACTORS
330
C
102
}
330
C
100
AcDbDictionary
281
     1
  0
DICTIONARY
  5
59
102
{ACAD_REACTORS
330
C
102
}
330
C
100
AcDbDictionary
281
     1
  3
Standard
350
5A
  0
DICTIONARY
  5
2A
102
{ACAD_REACTORS
330
C
102
}
330
C
100
AcDbDictionary
281
     1
  3
2dWireframe
350
2F
  3
Basic
350
32
  3
Brighten
350
36
  3
ColorChange
350
3A
  3
Conceptual
350
34
  3
Dim
350
35
  3
EdgeColorOff
350
3D
  3
Facepattern
350
39
  3
Flat
350
2B
  3
FlatWithEdges
350
2C
  3
Gouraud
350
2D
  3
GouraudWithEdges
350
2E
  3
Hidden
350
31
  3
JitterOff
350
3B
  3
Linepattern
350
38
  3
OverhangOff
350
3C
  3
Realistic
350
33
  3
Shaded
350
42
  3
Shaded with edges
350
41
  3
Shades of Gray
350
3E
  3
Sketchy
350
3F
  3
Thicken
350
37
  3
Wireframe
350
30
  3
X-Ray
350
40
  0
XRECORD
  5
7F
102
{ACAD_REACTORS
330
C
102
}
330
C
100
AcDbXrecord
280
     1
 90
        1
330
5A
  0
DICTIONARY
  5
7B
102
{ACAD_REACTORS
330
C
102
}
330
C
100
AcDbDictionary
281
     1
  3
CANNOSCALE
350
7C
  3
CENTEREXE
350
84
  3
CENTERLTYPEFILE
350
85
  3
CMLEADERSTYLE
350
81
  3
CTABLESTYLE
350
80
  0
LAYOUT
  5
74
102
{ACAD_REACTORS
330
1A
102
}
330
1A
100
AcDbPlotSettings
  1

  2
none_device
  4
ISO_A4_(210.00_x_297.00_MM)
  6

 40
0.0
 41
0.0
 42
0.0
 43
0.0
 44
169.418
 45
254.0
 46
0.0
 47
0.0
 48
0.0
 49
0.0
140
0.0
141
0.0
142
1.0
143
1.0
 70
   688
 72
     1
 73
     3
 74
     5
  7

 75
    16
 76
     0
 77
     2
 78
   300
147
1.0
148
0.0
149
0.0
100
AcDbLayout
  1
Layout1
 70
     1
 71
     1
 10
-20.0
 20
-7.5
 11
277.0
 21
202.5
 12
0.0
 22
0.0
 32
0.0
 14
169.418
 24
254.0
 34
0.0
 15
0.0
 25
0.0
 35
0.0
146
0.0
 13
0.0
 23
0.0
 33
0.0
 16
1.0
 26
0.0
 36
0.0
 17
0.0
 27
1.0
 37
0.0
 76
     0
330
73
331
77
  0
LAYOUT
  5
22
102
{ACAD_REACTORS
330
1A
102
}
330
1A
100
AcDbPlotSettings
  1

  2
none_device
  4
Letter_(8.50_x_11.00_Inches)
  6

 40
6.35
 41
6.35
 42
6.35000508
 43
6.35000508
 44
215.9
 45
279.4
 46
0.0
 47
0.0
 48
0.0
 49
0.0
140
0.0
141
0.0
142
1.0
143
1.0
 70
  1712
 72
     1
 73
     0
 74
     0
  7

 75
     0
 76
     0
 77
     2
 78
   300
147
1.0
148
0.0
149
0.0
100
AcDbLayout
  1
Model
 70
     1
 71
     0
 10
0.0
 20
0.0
 11
420.0
 21
297.0
 12
0.0
 22
0.0
 32
0.0
 14
1.000000000000000E+20
 24
1.000000000000000E+20
 34
1.000000000000000E+20
 15
-1.000000000000000E+20
 25
-1.000000000000000E+20
 35
-1.000000000000000E+20
146
0.0
 13
0.0
 23
0.0
 33
0.0
 16
1.0
 26
0.0
 36
0.0
 17
0.0
 27
1.0
 37
0.0
 76
     0
330
1F
331
29
  0
MATERIAL
  5
45
102
{ACAD_REACTORS
330
43
102
}
330
43
100
AcDbMaterial
  1
ByBlock
 72
     1
 94
      127
  0
MATERIAL
  5
44
102
{ACAD_REACTORS
330
43
102
}
330
43
100
AcDbMaterial
  1
ByLayer
 72
     1
 94
      127
  0
MATERIAL
  5
46
102
{ACAD_REACTORS
330
43
102
}
330
43
100
AcDbMaterial
  1
Global
 72
     1
 94
      127
  0
MLEADERSTYLE
  5
5C
102
{ACAD_REACTORS
330
5B
102
}
330
5B
100
AcDbMLeaderStyle
179
     2
170
     2
171
     1
172
     0
 90
        2
 40
0.0
 41
0.0
173
     1
 91
-1056964608
340
14
 92
       -2
290
     1
 42
2.0
291
     1
 43
8.0
  3
Standard
341
0
 44
4.0
300

342
11
174
     1
178
     6
175
     1
176
     0
 93
-1056964608
 45
4.0
292
     0
297
     0
 46
4.0
343
0
 94
-1056964608
 47
1.0
 49
1.0
140
1.0
293
     1
141
0.0
294
     1
177
     0
142
1.0
295
     0
296
     0
143
3.75
271
     0
272
     9
273
     9
298
     0
  0
MLINESTYLE
  5
18
102
{ACAD_REACTORS
330
17
102
}
330
17
100
AcDbMlineStyle
  2
Standard
 70
     0
  3

 62
   256
 51
90.0
 52
90.0
 71
     2
 49
0.5
 62
   256
  6
BYLAYER
 49
-0.5
 62
   256
  6
BYLAYER
  0
ACDBPLACEHOLDER
  5
F
102
{ACAD_REACTORS
330
E
102
}
330
E
  0
SCALE
  5
48
102
{ACAD_REACTORS
330
47
102
}
330
47
100
AcDbScale
 70
     0
300
1:1
140
1.0
141
1.0
290
     1
  0
SCALE
  5
49
102
{ACAD_REACTORS
330
47
102
}
330
47
100
AcDbScale
 70
     0
300
1:2
140
1.0
141
2.0
290
     0
  0
SCALE
  5
4A
102
{ACAD_REACTORS
330
47
102
}
330
47
100
AcDbScale
 70
     0
300
1:4
140
1.0
141
4.0
290
     0
  0
SCALE
  5
4B
102
{ACAD_REACTORS
330
47
102
}
330
47
100
AcDbScale
 70
     0
300
1:5
140
1.0
141
5.0
290
     0
  0
SCALE
  5
4C
102
{ACAD_REACTORS
330
47
102
}
330
47
100
AcDbScale
 70
     0
300
1:8
140
1.0
141
8.0
290
     0
  0
SCALE
  5
4D
102
{ACAD_REACTORS
330
47
102
}
330
47
100
AcDbScale
 70
     0
300
1:10
140
1.0
141
10.0
290
     0
  0
SCALE
  5
4E
102
{ACAD_REACTORS
330
47
102
}
330
47
100
AcDbScale
 70
     0
300
1:16
140
1.0
141
16.0
290
     0
  0
SCALE
  5
4F
102
{ACAD_REACTORS
330
47
102
}
330
47
100
AcDbScale
 70
     0
300
1:20
140
1.0
141
20.0
290
     0
  0
SCALE
  5
50
102
{ACAD_REACTORS
330
47
102
}
330
47
100
AcDbScale
 70
     0
300
1:30
140
1.0
141
30.0
290
     0
  0
SCALE
  5
51
102
{ACAD_REACTORS
330
47
102
}
330
47
100
AcDbScale
 70
     0
300
1:40
140
1.0
141
40.0
290
     0
  0
SCALE
  5
52
102
{ACAD_REACTORS
330
47
102
}
330
47
100
AcDbScale
 70
     0
300
1:50
140
1.0
141
50.0
290
     0
  0
SCALE
  5
53
102
{ACAD_REACTORS
330
47
102
}
330
47
100
AcDbScale
 70
     0
300
1:100
140
1.0
141
100.0
290
     0
  0
SCALE
  5
54
102
{ACAD_REACTORS
330
47
102
}
330
47
100
AcDbScale
 70
     0
300
2:1
140
2.0
141
1.0
290
     0
  0
SCALE
  5
55
102
{ACAD_REACTORS
330
47
102
}
330
47
100
AcDbScale
 70
     0
300
4:1
140
4.0
141
1.0
290
     0
  0
SCALE
  5
56
102
{ACAD_REACTORS
330
47
102
}
330
47
100
AcDbScale
 70
     0
300
8:1
140
8.0
141
1.0
290
     0
  0
SCALE
  5
57
102
{ACAD_REACTORS
330
47
102
}
330
47
100
AcDbScale
 70
     0
300
10:1
140
10.0
141
1.0
290
     0
  0
SCALE
  5
58
102
{ACAD_REACTORS
330
47
102
}
330
47
100
AcDbScale
 70
     0
300
100:1
140
100.0
141
1.0
290
     0
  0
TABLESTYLE
  5
5A
102
{ACAD_REACTORS
330
59
102
}
102
{ACAD_XDICTIONARY
360
7D
102
}
330
59
100
AcDbTableStyle
  3
Standard
 70
     0
 71
     0
 40
0.06
 41
0.06
280
     0
281
     0
  7
Standard
140
4.5
170
     2
 62
     0
 63
   257
283
     0
 90
        4
 91
        0
  1

274
    -2
284
     1
 64
     0
275
    -2
285
     1
 65
     0
276
    -2
286
     1
 66
     0
277
    -2
287
     1
 67
     0
278
    -2
288
     1
 68
     0
279
    -2
289
     1
 69
     0
  7
Standard
140
6.0
170
     5
 62
     0
 63
   257
283
     0
 90
        4
 91
        0
  1

274
    -2
284
     1
 64
     0
275
    -2
285
     1
 65
     0
276
    -2
286
     1
 66
     0
277
    -2
287
     1
 67
     0
278
    -2
288
     1
 68
     0
279
    -2
289
     1
 69
     0
  7
Standard
140
4.5
170
     5
 62
     0
 63
   257
283
     0
 90
        4
 91
        0
  1

274
    -2
284
     1
 64
     0
275
    -2
285
     1
 65
     0
276
    -2
286
     1
 66
     0
277
    -2
287
     1
 67
     0
278
    -2
288
     1
 68
     0
279
    -2
289
     1
 69
     0
  0
VISUALSTYLE
  5
2F
102
{ACAD_REACTORS
330
2A
102
}
330
2A
100
AcDbVisualStyle
  2
2dWireframe
 70
     4
177
     3
291
     0
 70
    58
 90
        0
176
     1
 90
        2
176
     1
 90
        0
176
     1
 90
        0
176
     1
 40
0.6
176
     1
 40
30.0
176
     1
 62
     7
420
 16777215
176
     1
 90
        1
176
     1
 90
        4
176
     1
 62
     7
176
     1
 62
   257
176
     1
 90
        1
176
     1
 90
        1
176
     1
 40
1.0
176
     1
 90
        0
176
     1
 62
   257
176
     1
 40
1.0
176
     1
 90
        1
176
     1
 90
        6
176
     1
 90
        2
176
     1
 62
     7
176
     1
 90
        5
176
     1
 90
        0
176
     1
 90
        0
176
     1
290
     0
176
     1
 90
        1
176
     1
 40
0.0
176
     1
 90
        0
176
     1
290
     1
176
     1
290
     1
176
     1
290
     0
176
     1
290
     0
176
     1
290
     0
176
     1
290
     0
176
     1
290
     0
176
     1
290
     0
176
     1
290
     0
176
     1
 90
       50
176
     1
 40
0.0
176
     1
 40
1.0
176
     1
 90
        0
176
     1
 62
    18
420
        0
176
     1
 90
       50
176
     1
 90
        3
176
     1
 62
     5
420
      255
176
     1
290
     0
176
     1
 90
       50
176
     1
 90
       50
176
     1
 90
       50
176
     1
290
     0
176
     1
 90
       50
176
     1
 62
   256
176
     0
 40
1.0
176
     0
 90
        2
176
     1
  1
strokes_ogs.tif
176
     1
290
     0
176
     1
 40
1.0
176
     1
 40
1.0
176
     1
  0
VISUALSTYLE
  5
32
102
{ACAD_REACTORS
330
2A
102
}
330
2A
100
AcDbVisualStyle
  2
Basic
 70
     7
177
     3
291
     1
 70
    58
 90
        1
176
     1
 90
        0
176
     1
 90
        1
176
     1
 90
        0
176
     1
 40
0.6
176
     1
 40
30.0
176
     1
 62
     7
420
 16777215
176
     1
 90
        0
176
     1
 90
        4
176
     1
 62
     7
176
     1
 62
   257
176
     1
 90
        1
176
     1
 90
        1
176
     1
 40
1.0
176
     1
 90
        8
176
     1
 62
     7
176
     1
 40
1.0
176
     1
 90
        1
176
     1
 90
        6
176
     1
 90
        2
176
     1
 62
     7
176
     1
 90
        5
176
     1
 90
        0
176
     1
 90
        0
176
     1
290
     0
176
     1
 90
        1
176
     1
 40
0.0
176
     1
 90
        0
176
     1
290
     0
176
     1
290
     1
176
     1
290
     1
176
     1
290
     0
176
     1
290
     0
176
     1
290
     0
176
     1
290
     0
176
     1
290
     0
176
     1
290
     0
176
     1
 90
       50
176
     1
 40
0.0
176
     1
 40
1.0
176
     1
 90
        0
176
     1
 62
    18
420
        0
176
     1
 90
       50
176
     1
 90
        3
176
     1
 62
     5
420
      255
176
     1
290
     0
176
     1
 90
       50
176
     1
 90
       50
176
     1
 90
       50
176
     1
290
     0
176
     1
 90
       50
176
     1
 62
   256
176
     0
 40
1.0
176
     0
 90
        2
176
     1
  1
strokes_ogs.tif
176
     1
290
     0
176
     1
 40
1.0
176
     1
 40
1.0
176
     1
  0
VISUALSTYLE
  5
36
102
{ACAD_REACTORS
330
2A
102
}
330
2A
100
AcDbVisualStyle
  2
Brighten
 70
    12
177
     3
291
     1
 70
    58
 90
        2
176
     1
 90
        2
176
     1
 90
        0
176
     1
 90
        0
176
     1
 40
0.6
176
     1
 40
30.0
176
     1
 62
     7
420
 16777215
176
     1
 90
        1
176
     1
 90
        4
176
     1
 62
     7
176
     1
 62
   257
176
     1
 90
        1
176
     1
 90
        1
176
     1
 40
1.0
176
     1
 90
        8
176
     1
 62
     7
176
     1
 40
1.0
176
     1
 90
        1
176
     1
 90
        6
176
     1
 90
        2
176
     1
 62
     7
176
     1
 90
        5
176
     1
 90
        0
176
     1
 90
        0
176
     1
290
     0
176
     1
 90
        1
176
     1
 40
50.0
176
     1
 90
        0
176
     1
290
     0
176
     1
290
     1
176
     1
290
     1
176
     1
290
     0
176
     1
290
     0
176
     1
290
     0
176
     1
290
     0
176
     1
290
     0
176
     1
290
     0
176
     1
 90
       50
176
     1
 40
0.0
176
     1
 40
1.0
176
     1
 90
        0
176
     1
 62
    18
420
        0
176
     1
 90
       50
176
     1
 90
        3
176
     1
 62
     5
420
      255
176
     1
290
     0
176
     1
 90
       50
176
     1
 90
       50
176
     1
 90
       50
176
     1
290
     0
176
     1
 90
       50
176
     1
 62
   256
176
     0
 40
1.0
176
     0
 90
        2
176
     1
  1
strokes_ogs.tif
176
     1
290
     0
176
     1
 40
1.0
176
     1
 40
1.0
176
     1
  0
VISUALSTYLE
  5
3A
102
{ACAD_REACTORS
330
2A
102
}
330
2A
100
AcDbVisualStyle
  2
ColorChange
 70
    16
177
     3
291
     1
 70
    58
 90
        2
176
     1
 90
        2
176
     1
 90
        3
176
     1
 90
        0
176
     1
 40
0.6
176
     1
 40
30.0
176
     1
 62
     8
420
  8421504
176
     1
 90
        1
176
     1
 90
        4
176
     1
 62
     7
176
     1
 62
   257
176
     1
 90
        1
176
     1
 90
        1
176
     1
 40
1.0
176
     1
 90
        8
176
     1
 62
     8
420
  8421504
176
     1
 40
1.0
176
     1
 90
        1
176
     1
 90
        6
176
     1
 90
        2
176
     1
 62
     7
176
     1
 90
        5
176
     1
 90
        0
176
     1
 90
        0
176
     1
290
     0
176
     1
 90
        1
176
     1
 40
0.0
176
     1
 90
        0
176
     1
290
     0
176
     1
290
     1
176
     1
290
     1
176
     1
290
     0
176
     1
290
     0
176
     1
290
     0
176
     1
290
     0
176
     1
290
     0
176
     1
290
     0
176
     1
 90
       50
176
     1
 40
0.0
176
     1
 40
1.0
176
     1
 90
        0
176
     1
 62
    18
420
        0
176
     1
 90
       50
176
     1
 90
        3
176
     1
 62
     5
420
      255
176
     1
290
     0
176
     1
 90
       50
176
     1
 90
       50
176
     1
 90
       50
176
     1
290
     0
176
     1
 90
       50
176
     1
 62
   256
176
     0
 40
1.0
176
     0
 90
        2
176
     1
  1
strokes_ogs.tif
176
     1
290
     0
176
     1
 40
1.0
176
     1
 40
1.0
176
     1
  0
VISUALSTYLE
  5
34
102
{ACAD_REACTORS
330
2A
102
}
330
2A
100
AcDbVisualStyle
  2
Conceptual
 70
     9
177
     3
291
     0
 70
    58
 90
        3
176
     1
 90
        2
176
     1
 90
        0
176
     1
 90
        0
176
     1
 40
0.6
176
     1
 40
30.0
176
     1
 62
     7
420
 16777215
176
     1
 90
        2
176
     1
 90
        2
176
     1
 62
     7
176
     1
 62
   257
176
     1
 90
        1
176
     1
 90
        1
176
     1
 40
179.0
176
     1
 90
        8
176
     1
 62
     7
176
     1
 40
1.0
176
     1
 90
        1
176
     1
 90
        6
176
     1
 90
        2
176
     1
 62
     7
176
     1
 90
        3
176
     1
 90
        0
176
     1
 90
        0
176
     1
290
     0
176
     1
 90
        1
176
     1
 40
0.0
176
     1
 90
        0
176
     1
290
     0
176
     1
290
     1
176
     1
290
     1
176
     1
290
     0
176
     1
290
     0
176
     1
290
     0
176
     1
290
     0
176
     1
290
     0
176
     1
290
     0
176
     1
 90
       50
176
     1
 40
0.0
176
     1
 40
1.0
176
     1
 90
        0
176
     1
 62
    18
420
        0
176
     1
 90
       50
176
     1
 90
        3
176
     1
 62
     5
420
      255
176
     1
290
     0
176
     1
 90
       50
176
     1
 90
       50
176
     1
 90
       50
176
     1
290
     0
176
     1
 90
       50
176
     1
 62
   256
176
     0
 40
1.0
176
     0
 90
        2
176
     1
  1
strokes_ogs.tif
176
     1
290
     0
176
     1
 40
1.0
176
     1
 40
1.0
176
     1
  0
VISUALSTYLE
  5
35
102
{ACAD_REACTORS
330
2A
102
}
330
2A
100
AcDbVisualStyle
  2
Dim
 70
    11
177
     3
291
     1
 70
    58
 90
        2
176
     1
 90
        2
176
     1
 90
        0
176
     1
 90
        0
176
     1
 40
0.6
176
     1
 40
30.0
176
     1
 62
     7
420
 16777215
176
     1
 90
        1
176
     1
 90
        4
176
     1
 62
     7
176
     1
 62
   257
176
     1
 90
        1
176
     1
 90
        1
176
     1
 40
1.0
176
     1
 90
        8
176
     1
 62
     7
176
     1
 40
1.0
176
     1
 90
        1
176
     1
 90
        6
176
     1
 90
        2
176
     1
 62
     7
176
     1
 90
        5
176
     1
 90
        0
176
     1
 90
        0
176
     1
290
     0
176
     1
 90
        1
176
     1
 40
-50.0
176
     1
 90
        0
176
     1
290
     0
176
     1
290
     1
176
     1
290
     1
176
     1
290
     0
176
     1
290
     0
176
     1
290
     0
176
     1
290
     0
176
     1
290
     0
176
     1
290
     0
176
     1
 90
       50
176
     1
 40
0.0
176
     1
 40
1.0
176
     1
 90
        0
176
     1
 62
    18
420
        0
176
     1
 90
       50
176
     1
 90
        3
176
     1
 62
     5
420
      255
176
     1
290
     0
176
     1
 90
       50
176
     1
 90
       50
176
     1
 90
       50
176
     1
290
     0
176
     1
 90
       50
176
     1
 62
   256
176
     0
 40
1.0
176
     0
 90
        2
176
     1
  1
strokes_ogs.tif
176
     1
290
     0
176
     1
 40
1.0
176
     1
 40
1.0
176
     1
  0
VISUALSTYLE
  5
3D
102
{ACAD_REACTORS
330
2A
102
}
330
2A
100
AcDbVisualStyle
  2
EdgeColorOff
 70
    22
177
     3
291
     1
 70
    58
 90
        2
176
     0
 90
        2
176
     0
 90
        0
176
     0
 90
        0
176
     0
 40
0.6
176
     0
 40
30.0
176
     0
 62
     7
420
 16777215
176
     0
 90
        1
176
     0
 90
        4
176
     0
 62
     7
176
     0
 62
   257
176
     0
 90
        1
176
     0
 90
        1
176
     0
 40
1.0
176
     0
 90
        8
176
     2
 62
     7
176
     0
 40
1.0
176
     0
 90
        1
176
     0
 90
        6
176
     0
 90
        2
176
     0
 62
     7
176
     0
 90
        5
176
     0
 90
        0
176
     0
 90
        0
176
     0
290
     0
176
     0
 90
        1
176
     0
 40
0.0
176
     0
 90
        0
176
     0
290
     0
176
     0
290
     1
176
     0
290
     1
176
     0
290
     0
176
     0
290
     0
176
     0
290
     0
176
     0
290
     0
176
     0
290
     0
176
     0
290
     0
176
     0
 90
       50
176
     0
 40
0.0
176
     0
 40
1.0
176
     0
 90
        0
176
     0
 62
    18
420
        0
176
     0
 90
       50
176
     0
 90
        3
176
     0
 62
     5
420
      255
176
     0
290
     0
176
     0
 90
       50
176
     0
 90
       50
176
     0
 90
       50
176
     0
290
     0
176
     0
 90
       50
176
     0
 62
   256
176
     0
 40
1.0
176
     0
 90
        2
176
     0
  1
strokes_ogs.tif
176
     0
290
     0
176
     0
 40
1.0
176
     0
 40
1.0
176
     0
  0
VISUALSTYLE
  5
39
102
{ACAD_REACTORS
330
2A
102
}
330
2A
100
AcDbVisualStyle
  2
Facepattern
 70
    15
177
     3
291
     1
 70
    58
 90
        2
176
     1
 90
        2
176
     1
 90
        0
176
     1
 90
        0
176
     1
 40
0.6
176
     1
 40
30.0
176
     1
 62
     7
420
 16777215
176
     1
 90
        1
176
     1
 90
        4
176
     1
 62
     7
176
     1
 62
   257
176
     1
 90
        1
176
     1
 90
        1
176
     1
 40
1.0
176
     1
 90
        8
176
     1
 62
     7
176
     1
 40
1.0
176
     1
 90
        1
176
     1
 90
        6
176
     1
 90
        2
176
     1
 62
     7
176
     1
 90
        5
176
     1
 90
        0
176
     1
 90
        0
176
     1
290
     0
176
     1
 90
        1
176
     1
 40
0.0
176
     1
 90
        0
176
     1
290
     0
176
     1
290
     1
176
     1
290
     1
176
     1
290
     0
176
     1
290
     0
176
     1
290
     0
176
     1
290
     0
176
     1
290
     0
176
     1
290
     0
176
     1
 90
       50
176
     1
 40
0.0
176
     1
 40
1.0
176
     1
 90
        0
176
     1
 62
    18
420
        0
176
     1
 90
       50
176
     1
 90
        3
176
     1
 62
     5
420
      255
176
     1
290
     0
176
     1
 90
       50
176
     1
 90
       50
176
     1
 90
       50
176
     1
290
     0
176
     1
 90
       50
176
     1
 62
   256
176
     0
 40
1.0
176
     0
 90
        2
176
     1
  1
strokes_ogs.tif
176
     1
290
     0
176
     1
 40
1.0
176
     1
 40
1.0
176
     1
  0
VISUALSTYLE
  5
2B
102
{ACAD_REACTORS
330
2A
102
}
330
2A
100
AcDbVisualStyle
  2
Flat
 70
     0
177
     3
291
     1
 70
    58
 90
        2
176
     1
 90
        1
176
     1
 90
        1
176
     1
 90
        2
176
     1
 40
0.6
176
     1
 40
30.0
176
     1
 62
     7
420
 16777215
176
     1
 90
        0
176
     1
 90
        0
176
     1
 62
     7
176
     1
 62
   257
176
     1
 90
        1
176
     1
 90
        1
176
     1
 40
1.0
176
     1
 90
        8
176
     1
 62
     7
176
     1
 40
1.0
176
     1
 90
        1
176
     1
 90
        6
176
     1
 90
        2
176
     1
 62
     7
176
     1
 90
        5
176
     1
 90
        0
176
     1
 90
        0
176
     1
290
     0
176
     1
 90
       13
176
     1
 40
0.0
176
     1
 90
        0
176
     1
290
     0
176
     1
290
     1
176
     1
290
     1
176
     1
290
     0
176
     1
290
     0
176
     1
290
     0
176
     1
290
     0
176
     1
290
     0
176
     1
290
     0
176
     1
 90
       50
176
     1
 40
0.0
176
     1
 40
1.0
176
     1
 90
        0
176
     1
 62
    18
420
        0
176
     1
 90
       50
176
     1
 90
        3
176
     1
 62
     5
420
      255
176
     1
290
     0
176
     1
 90
       50
176
     1
 90
       50
176
     1
 90
       50
176
     1
290
     0
176
     1
 90
       50
176
     1
 62
   256
176
     0
 40
1.0
176
     0
 90
        2
176
     1
  1
strokes_ogs.tif
176
     1
290
     0
176
     1
 40
1.0
176
     1
 40
1.0
176
     1
  0
VISUALSTYLE
  5
2C
102
{ACAD_REACTORS
330
2A
102
}
330
2A
100
AcDbVisualStyle
  2
FlatWithEdges
 70
     1
177
     3
291
     1
 70
    58
 90
        2
176
     1
 90
        1
176
     1
 90
        1
176
     1
 90
        2
176
     1
 40
0.6
176
     1
 40
30.0
176
     1
 62
     7
420
 16777215
176
     1
 90
        1
176
     1
 90
        0
176
     1
 62
     7
176
     1
 62
   257
176
     1
 90
        1
176
     1
 90
        1
176
     1
 40
1.0
176
     1
 90
        0
176
     1
 62
   257
176
     1
 40
1.0
176
     1
 90
        1
176
     1
 90
        6
176
     1
 90
        2
176
     1
 62
     7
176
     1
 90
        5
176
     1
 90
        0
176
     1
 90
        0
176
     1
290
     0
176
     1
 90
       13
176
     1
 40
0.0
176
     1
 90
        0
176
     1
290
     0
176
     1
290
     1
176
     1
290
     1
176
     1
290
     0
176
     1
290
     0
176
     1
290
     0
176
     1
290
     0
176
     1
290
     0
176
     1
290
     0
176
     1
 90
       50
176
     1
 40
0.0
176
     1
 40
1.0
176
     1
 90
        0
176
     1
 62
    18
420
        0
176
     1
 90
       50
176
     1
 90
        3
176
     1
 62
     5
420
      255
176
     1
290
     0
176
     1
 90
       50
176
     1
 90
       50
176
     1
 90
       50
176
     1
290
     0
176
     1
 90
       50
176
     1
 62
   256
176
     0
 40
1.0
176
     0
 90
        2
176
     1
  1
strokes_ogs.tif
176
     1
290
     0
176
     1
 40
1.0
176
     1
 40
1.0
176
     1
  0
VISUALSTYLE
  5
2D
102
{ACAD_REACTORS
330
2A
102
}
330
2A
100
AcDbVisualStyle
  2
Gouraud
 70
     2
177
     3
291
     1
 70
    58
 90
        2
176
     1
 90
        2
176
     1
 90
        1
176
     1
 90
        2
176
     1
 40
0.6
176
     1
 40
30.0
176
     1
 62
     7
420
 16777215
176
     1
 90
        0
176
     1
 90
        0
176
     1
 62
     7
176
     1
 62
   257
176
     1
 90
        1
176
     1
 90
        1
176
     1
 40
1.0
176
     1
 90
        0
176
     1
 62
     7
176
     1
 40
1.0
176
     1
 90
        1
176
     1
 90
        6
176
     1
 90
        2
176
     1
 62
     7
176
     1
 90
        5
176
     1
 90
        0
176
     1
 90
        0
176
     1
290
     0
176
     1
 90
       13
176
     1
 40
0.0
176
     1
 90
        0
176
     1
290
     0
176
     1
290
     1
176
     1
290
     1
176
     1
290
     0
176
     1
290
     0
176
     1
290
     0
176
     1
290
     0
176
     1
290
     0
176
     1
290
     0
176
     1
 90
       50
176
     1
 40
0.0
176
     1
 40
1.0
176
     1
 90
        0
176
     1
 62
    18
420
        0
176
     1
 90
       50
176
     1
 90
        3
176
     1
 62
     5
420
      255
176
     1
290
     0
176
     1
 90
       50
176
     1
 90
       50
176
     1
 90
       50
176
     1
290
     0
176
     1
 90
       50
176
     1
 62
   256
176
     0
 40
1.0
176
     0
 90
        2
176
     1
  1
strokes_ogs.tif
176
     1
290
     0
176
     1
 40
1.0
176
     1
 40
1.0
176
     1
  0
VISUALSTYLE
  5
2E
102
{ACAD_REACTORS
330
2A
102
}
330
2A
100
AcDbVisualStyle
  2
GouraudWithEdges
 70
     3
177
     3
291
     1
 70
    58
 90
        2
176
     1
 90
        2
176
     1
 90
        1
176
     1
 90
        2
176
     1
 40
0.6
176
     1
 40
30.0
176
     1
 62
     7
420
 16777215
176
     1
 90
        1
176
     1
 90
        0
176
     1
 62
     7
176
     1
 62
   257
176
     1
 90
        1
176
     1
 90
        1
176
     1
 40
1.0
176
     1
 90
        0
176
     1
 62
   257
176
     1
 40
1.0
176
     1
 90
        1
176
     1
 90
        6
176
     1
 90
        2
176
     1
 62
     7
176
     1
 90
        5
176
     1
 90
        0
176
     1
 90
        0
176
     1
290
     0
176
     1
 90
       13
176
     1
 40
0.0
176
     1
 90
        0
176
     1
290
     0
176
     1
290
     1
176
     1
290
     1
176
     1
290
     0
176
     1
290
     0
176
     1
290
     0
176
     1
290
     0
176
     1
290
     0
176
     1
290
     0
176
     1
 90
       50
176
     1
 40
0.0
176
     1
 40
1.0
176
     1
 90
        0
176
     1
 62
    18
420
        0
176
     1
 90
       50
176
     1
 90
        3
176
     1
 62
     5
420
      255
176
     1
290
     0
176
     1
 90
       50
176
     1
 90
       50
176
     1
 90
       50
176
     1
290
     0
176
     1
 90
       50
176
     1
 62
   256
176
     0
 40
1.0
176
     0
 90
        2
176
     1
  1
strokes_ogs.tif
176
     1
290
     0
176
     1
 40
1.0
176
     1
 40
1.0
176
     1
  0
VISUALSTYLE
  5
31
102
{ACAD_REACTORS
330
2A
102
}
330
2A
100
AcDbVisualStyle
  2
Hidden
 70
     6
177
     3
291
     0
 70
    58
 90
        1
176
     1
 90
        2
176
     1
 90
        2
176
     1
 90
        0
176
     1
 40
0.6
176
     1
 40
30.0
176
     1
 62
     7
420
 16777215
176
     1
 90
        2
176
     1
 90
        2
176
     1
 62
     7
176
     1
 62
   257
176
     1
 90
        2
176
     1
 90
        1
176
     1
 40
40.0
176
     1
 90
        0
176
     1
 62
   257
176
     1
 40
1.0
176
     1
 90
        1
176
     1
 90
        6
176
     1
 90
        2
176
     1
 62
     7
176
     1
 90
        3
176
     1
 90
        0
176
     1
 90
        0
176
     1
290
     0
176
     1
 90
        1
176
     1
 40
0.0
176
     1
 90
        0
176
     1
290
     0
176
     1
290
     1
176
     1
290
     1
176
     1
290
     0
176
     1
290
     0
176
     1
290
     0
176
     1
290
     0
176
     1
290
     0
176
     1
290
     0
176
     1
 90
       50
176
     1
 40
0.0
176
     1
 40
1.0
176
     1
 90
        0
176
     1
 62
    18
420
        0
176
     1
 90
       50
176
     1
 90
        3
176
     1
 62
     5
420
      255
176
     1
290
     0
176
     1
 90
       50
176
     1
 90
       50
176
     1
 90
       50
176
     1
290
     0
176
     1
 90
       50
176
     1
 62
   256
176
     0
 40
1.0
176
     0
 90
        2
176
     1
  1
strokes_ogs.tif
176
     1
290
     0
176
     1
 40
1.0
176
     1
 40
1.0
176
     1
  0
VISUALSTYLE
  5
3B
102
{ACAD_REACTORS
330
2A
102
}
330
2A
100
AcDbVisualStyle
  2
JitterOff
 70
    20
177
     3
291
     1
 70
    58
 90
        2
176
     0
 90
        2
176
     0
 90
        0
176
     0
 90
        0
176
     0
 40
0.6
176
     0
 40
30.0
176
     0
 62
     7
420
 16777215
176
     0
 90
        1
176
     0
 90
        4
176
     0
 62
     7
176
     0
 62
   257
176
     0
 90
        1
176
     0
 90
        1
176
     0
 40
1.0
176
     0
 90
       10
176
     2
 62
     7
176
     0
 40
1.0
176
     0
 90
        1
176
     0
 90
        6
176
     0
 90
        2
176
     0
 62
     7
176
     0
 90
        5
176
     0
 90
        0
176
     0
 90
        0
176
     0
290
     0
176
     0
 90
        1
176
     0
 40
0.0
176
     0
 90
        0
176
     0
290
     0
176
     0
290
     1
176
     0
290
     1
176
     0
290
     0
176
     0
290
     0
176
     0
290
     0
176
     0
290
     0
176
     0
290
     0
176
     0
290
     0
176
     0
 90
       50
176
     0
 40
0.0
176
     0
 40
1.0
176
     0
 90
        0
176
     0
 62
    18
420
        0
176
     0
 90
       50
176
     0
 90
        3
176
     0
 62
     5
420
      255
176
     0
290
     0
176
     0
 90
       50
176
     0
 90
       50
176
     0
 90
       50
176
     0
290
     0
176
     0
 90
       50
176
     0
 62
   256
176
     0
 40
1.0
176
     0
 90
        2
176
     0
  1
strokes_ogs.tif
176
     0
290
     0
176
     0
 40
1.0
176
     0
 40
1.0
176
     0
  0
VISUALSTYLE
  5
38
102
{ACAD_REACTORS
330
2A
102
}
330
2A
100
AcDbVisualStyle
  2
Linepattern
 70
    14
177
     3
291
     1
 70
    58
 90
        2
176
     1
 90
        2
176
     1
 90
        0
176
     1
 90
        0
176
     1
 40
0.6
176
     1
 40
30.0
176
     1
 62
     7
420
 16777215
176
     1
 90
        1
176
     1
 90
        4
176
     1
 62
     7
176
     1
 62
   257
176
     1
 90
        7
176
     1
 90
        7
176
     1
 40
1.0
176
     1
 90
        8
176
     1
 62
     7
176
     1
 40
1.0
176
     1
 90
        1
176
     1
 90
        6
176
     1
 90
        2
176
     1
 62
     7
176
     1
 90
        5
176
     1
 90
        0
176
     1
 90
        0
176
     1
290
     0
176
     1
 90
        1
176
     1
 40
0.0
176
     1
 90
        0
176
     1
290
     0
176
     1
290
     1
176
     1
290
     1
176
     1
290
     0
176
     1
290
     0
176
     1
290
     0
176
     1
290
     0
176
     1
290
     0
176
     1
290
     0
176
     1
 90
       50
176
     1
 40
0.0
176
     1
 40
1.0
176
     1
 90
        0
176
     1
 62
    18
420
        0
176
     1
 90
       50
176
     1
 90
        3
176
     1
 62
     5
420
      255
176
     1
290
     0
176
     1
 90
       50
176
     1
 90
       50
176
     1
 90
       50
176
     1
290
     0
176
     1
 90
       50
176
     1
 62
   256
176
     0
 40
1.0
176
     0
 90
        2
176
     1
  1
strokes_ogs.tif
176
     1
290
     0
176
     1
 40
1.0
176
     1
 40
1.0
176
     1
  0
VISUALSTYLE
  5
3C
102
{ACAD_REACTORS
330
2A
102
}
330
2A
100
AcDbVisualStyle
  2
OverhangOff
 70
    21
177
     3
291
     1
 70
    58
 90
        2
176
     0
 90
        2
176
     0
 90
        0
176
     0
 90
        0
176
     0
 40
0.6
176
     0
 40
30.0
176
     0
 62
     7
420
 16777215
176
     0
 90
        1
176
     0
 90
        4
176
     0
 62
     7
176
     0
 62
   257
176
     0
 90
        1
176
     0
 90
        1
176
     0
 40
1.0
176
     0
 90
        9
176
     2
 62
     7
176
     0
 40
1.0
176
     0
 90
        1
176
     0
 90
        6
176
     0
 90
        2
176
     0
 62
     7
176
     0
 90
        5
176
     0
 90
        0
176
     0
 90
        0
176
     0
290
     0
176
     0
 90
        1
176
     0
 40
0.0
176
     0
 90
        0
176
     0
290
     0
176
     0
290
     1
176
     0
290
     1
176
     0
290
     0
176
     0
290
     0
176
     0
290
     0
176
     0
290
     0
176
     0
290
     0
176
     0
290
     0
176
     0
 90
       50
176
     0
 40
0.0
176
     0
 40
1.0
176
     0
 90
        0
176
     0
 62
    18
420
        0
176
     0
 90
       50
176
     0
 90
        3
176
     0
 62
     5
420
      255
176
     0
290
     0
176
     0
 90
       50
176
     0
 90
       50
176
     0
 90
       50
176
     0
290
     0
176
     0
 90
       50
176
     0
 62
   256
176
     0
 40
1.0
176
     0
 90
        2
176
     0
  1
strokes_ogs.tif
176
     0
290
     0
176
     0
 40
1.0
176
     0
 40
1.0
176
     0
  0
VISUALSTYLE
  5
33
102
{ACAD_REACTORS
330
2A
102
}
330
2A
100
AcDbVisualStyle
  2
Realistic
 70
     8
177
     3
291
     0
 70
    58
 90
        2
176
     1
 90
        3
176
     1
 90
        0
176
     1
 90
        2
176
     1
 40
0.6
176
     1
 40
30.0
176
     1
 62
     7
420
 16777215
176
     1
 90
        0
176
     1
 90
        0
176
     1
 62
     7
176
     1
 62
   257
176
     1
 90
        1
176
     1
 90
        1
176
     1
 40
1.0
176
     1
 90
        8
176
     1
 62
   257
176
     1
 40
1.0
176
     1
 90
        1
176
     1
 90
        6
176
     1
 90
        2
176
     1
 62
     7
176
     1
 90
        3
176
     1
 90
        0
176
     1
 90
        0
176
     1
290
     0
176
     1
 90
       13
176
     1
 40
0.0
176
     1
 90
        0
176
     1
290
     0
176
     1
290
     1
176
     1
290
     1
176
     1
290
     0
176
     1
290
     0
176
     1
290
     0
176
     1
290
     0
176
     1
290
     0
176
     1
290
     0
176
     1
 90
       50
176
     1
 40
0.0
176
     1
 40
1.0
176
     1
 90
        0
176
     1
 62
    18
420
        0
176
     1
 90
       50
176
     1
 90
        3
176
     1
 62
     5
420
      255
176
     1
290
     0
176
     1
 90
       50
176
     1
 90
       50
176
     1
 90
       50
176
     1
290
     0
176
     1
 90
       50
176
     1
 62
   256
176
     0
 40
1.0
176
     0
 90
        2
176
     1
  1
strokes_ogs.tif
176
     1
290
     0
176
     1
 40
1.0
176
     1
 40
1.0
176
     1
  0
VISUALSTYLE
  5
42
102
{ACAD_REACTORS
330
2A
102
}
330
2A
100
AcDbVisualStyle
  2
Shaded
 70
    27
177
     3
291
     0
 70
    58
 90
        2
176
     1
 90
        2
176
     1
 90
        1
176
     1
 90
        2
176
     1
 40
0.6
176
     1
 40
30.0
176
     1
 62
     7
420
 16777215
176
     1
 90
        0
176
     1
 90
        4
176
     1
 62
     7
176
     1
 62
   257
176
     1
 90
        1
176
     1
 90
        1
176
     1
 40
1.0
176
     1
 90
        8
176
     1
 62
   257
176
     1
 40
1.0
176
     1
 90
        1
176
     1
 90
        6
176
     1
 90
        2
176
     1
 62
     8
420
  7895160
176
     1
 90
        3
176
     1
 90
        0
176
     1
 90
        0
176
     1
290
     0
176
     1
 90
        5
176
     1
 40
0.0
176
     1
 90
        0
176
     1
290
     0
176
     1
290
     1
176
     1
290
     1
176
     1
290
     0
176
     1
290
     0
176
     1
290
     0
176
     1
290
     0
176
     1
290
     0
176
     1
290
     0
176
     1
 90
       50
176
     1
 40
0.0
176
     1
 40
1.0
176
     1
 90
        0
176
     1
 62
    18
420
        0
176
     1
 90
       50
176
     1
 90
        3
176
     1
 62
     5
420
      255
176
     1
290
     0
176
     1
 90
       50
176
     1
 90
       50
176
     1
 90
       50
176
     1
290
     0
176
     1
 90
       50
176
     1
 62
   256
176
     0
 40
1.0
176
     0
 90
        2
176
     1
  1
strokes_ogs.tif
176
     1
290
     0
176
     1
 40
1.0
176
     1
 40
1.0
176
     1
  0
VISUALSTYLE
  5
41
102
{ACAD_REACTORS
330
2A
102
}
330
2A
100
AcDbVisualStyle
  2
Shaded with edges
 70
    26
177
     3
291
     0
 70
    58
 90
        2
176
     1
 90
        2
176
     1
 90
        1
176
     1
 90
        2
176
     1
 40
0.6
176
     1
 40
30.0
176
     1
 62
     7
420
 16777215
176
     1
 90
        1
176
     1
 90
       10
176
     1
 62
     7
176
     1
 62
   257
176
     1
 90
        2
176
     1
 90
        1
176
     1
 40
1.0
176
     1
 90
        8
176
     1
 62
   257
176
     1
 40
1.0
176
     1
 90
        1
176
     1
 90
        6
176
     1
 90
        2
176
     1
 62
     7
176
     1
 90
        3
176
     1
 90
        0
176
     1
 90
        0
176
     1
290
     0
176
     1
 90
        5
176
     1
 40
0.0
176
     1
 90
        0
176
     1
290
     0
176
     1
290
     1
176
     1
290
     1
176
     1
290
     0
176
     1
290
     0
176
     1
290
     0
176
     1
290
     0
176
     1
290
     0
176
     1
290
     0
176
     1
 90
       50
176
     1
 40
0.0
176
     1
 40
1.0
176
     1
 90
        0
176
     1
 62
    18
420
        0
176
     1
 90
       50
176
     1
 90
        3
176
     1
 62
     5
420
      255
176
     1
290
     0
176
     1
 90
       50
176
     1
 90
       50
176
     1
 90
       50
176
     1
290
     0
176
     1
 90
       50
176
     1
 62
   256
176
     0
 40
1.0
176
     0
 90
        2
176
     1
  1
strokes_ogs.tif
176
     1
290
     0
176
     1
 40
1.0
176
     1
 40
1.0
176
     1
  0
VISUALSTYLE
  5
3E
102
{ACAD_REACTORS
330
2A
102
}
330
2A
100
AcDbVisualStyle
  2
Shades of Gray
 70
    23
177
     3
291
     0
 70
    58
 90
        2
176
     1
 90
        2
176
     1
 90
        3
176
     1
 90
        0
176
     1
 40
0.6
176
     1
 40
30.0
176
     1
 62
     7
420
 16777215
176
     1
 90
        2
176
     1
 90
        2
176
     1
 62
     7
176
     1
 62
     7
176
     1
 90
        1
176
     1
 90
        1
176
     1
 40
40.0
176
     1
 90
        8
176
     1
 62
     7
176
     1
 40
1.0
176
     1
 90
        1
176
     1
 90
        6
176
     1
 90
        2
176
     1
 62
     7
176
     1
 90
        3
176
     1
 90
        0
176
     1
 90
        0
176
     1
290
     0
176
     1
 90
        1
176
     1
 40
0.0
176
     1
 90
        0
176
     1
290
     0
176
     1
290
     1
176
     1
290
     1
176
     1
290
     0
176
     1
290
     0
176
     1
290
     0
176
     1
290
     0
176
     1
290
     0
176
     1
290
     0
176
     1
 90
       50
176
     1
 40
0.0
176
     1
 40
1.0
176
     1
 90
        0
176
     1
 62
    18
420
        0
176
     1
 90
       50
176
     1
 90
        3
176
     1
 62
     5
420
      255
176
     1
290
     0
176
     1
 90
       50
176
     1
 90
       50
176
     1
 90
       50
176
     1
290
     0
176
     1
 90
       50
176
     1
 62
   256
176
     0
 40
1.0
176
     0
 90
        2
176
     1
  1
strokes_ogs.tif
176
     1
290
     0
176
     1
 40
1.0
176
     1
 40
1.0
176
     1
  0
VISUALSTYLE
  5
3F
102
{ACAD_REACTORS
330
2A
102
}
330
2A
100
AcDbVisualStyle
  2
Sketchy
 70
    24
177
     3
291
     0
 70
    58
 90
        1
176
     1
 90
        2
176
     1
 90
        2
176
     1
 90
        0
176
     1
 40
0.6
176
     1
 40
30.0
176
     1
 62
     7
420
 16777215
176
     1
 90
        2
176
     1
 90
        2
176
     1
 62
     7
176
     1
 62
     7
176
     1
 90
        1
176
     1
 90
        1
176
     1
 40
40.0
176
     1
 90
       11
176
     1
 62
     7
176
     1
 40
1.0
176
     1
 90
        1
176
     1
 90
        6
176
     1
 90
        2
176
     1
 62
     7
176
     1
 90
        6
176
     1
 90
        0
176
     1
 90
        0
176
     1
290
     0
176
     1
 90
        1
176
     1
 40
0.0
176
     1
 90
        0
176
     1
290
     0
176
     1
290
     1
176
     1
290
     1
176
     1
290
     0
176
     1
290
     0
176
     1
290
     0
176
     1
290
     0
176
     1
290
     0
176
     1
290
     0
176
     1
 90
       50
176
     1
 40
0.0
176
     1
 40
1.0
176
     1
 90
        0
176
     1
 62
    18
420
        0
176
     1
 90
       50
176
     1
 90
        3
176
     1
 62
     5
420
      255
176
     1
290
     0
176
     1
 90
       50
176
     1
 90
       50
176
     1
 90
       50
176
     1
290
     0
176
     1
 90
       50
176
     1
 62
   256
176
     0
 40
1.0
176
     0
 90
        2
176
     1
  1
strokes_ogs.tif
176
     1
290
     0
176
     1
 40
1.0
176
     1
 40
1.0
176
     1
  0
VISUALSTYLE
  5
37
102
{ACAD_REACTORS
330
2A
102
}
330
2A
100
AcDbVisualStyle
  2
Thicken
 70
    13
177
     3
291
     1
 70
    58
 90
        2
176
     1
 90
        2
176
     1
 90
        0
176
     1
 90
        0
176
     1
 40
0.6
176
     1
 40
30.0
176
     1
 62
     7
420
 16777215
176
     1
 90
        1
176
     1
 90
        4
176
     1
 62
     7
176
     1
 62
   257
176
     1
 90
        1
176
     1
 90
        1
176
     1
 40
1.0
176
     1
 90
       12
176
     1
 62
     7
176
     1
 40
1.0
176
     1
 90
        1
176
     1
 90
        6
176
     1
 90
        2
176
     1
 62
     7
176
     1
 90
        5
176
     1
 90
        0
176
     1
 90
        0
176
     1
290
     0
176
     1
 90
        1
176
     1
 40
0.0
176
     1
 90
        0
176
     1
290
     0
176
     1
290
     1
176
     1
290
     1
176
     1
290
     0
176
     1
290
     0
176
     1
290
     0
176
     1
290
     0
176
     1
290
     0
176
     1
290
     0
176
     1
 90
       50
176
     1
 40
0.0
176
     1
 40
1.0
176
     1
 90
        0
176
     1
 62
    18
420
        0
176
     1
 90
       50
176
     1
 90
        3
176
     1
 62
     5
420
      255
176
     1
290
     0
176
     1
 90
       50
176
     1
 90
       50
176
     1
 90
       50
176
     1
290
     0
176
     1
 90
       50
176
     1
 62
   256
176
     0
 40
1.0
176
     0
 90
        2
176
     1
  1
strokes_ogs.tif
176
     1
290
     0
176
     1
 40
1.0
176
     1
 40
1.0
176
     1
  0
VISUALSTYLE
  5
30
102
{ACAD_REACTORS
330
2A
102
}
330
2A
100
AcDbVisualStyle
  2
Wireframe
 70
     5
177
     3
291
     0
 70
    58
 90
        0
176
     1
 90
        2
176
     1
 90
        0
176
     1
 90
        0
176
     1
 40
0.6
176
     1
 40
30.0
176
     1
 62
     7
420
 16777215
176
     1
 90
        1
176
     1
 90
        4
176
     1
 62
     7
176
     1
 62
   257
176
     1
 90
        1
176
     1
 90
        1
176
     1
 40
1.0
176
     1
 90
        0
176
     1
 62
   257
176
     1
 40
1.0
176
     1
 90
        1
176
     1
 90
        6
176
     1
 90
        2
176
     1
 62
     7
176
     1
 90
        3
176
     1
 90
        0
176
     1
 90
        0
176
     1
290
     0
176
     1
 90
        1
176
     1
 40
0.0
176
     1
 90
        0
176
     1
290
     0
176
     1
290
     1
176
     1
290
     1
176
     1
290
     0
176
     1
290
     0
176
     1
290
     0
176
     1
290
     0
176
     1
290
     0
176
     1
290
     0
176
     1
 90
       50
176
     1
 40
0.0
176
     1
 40
1.0
176
     1
 90
        0
176
     1
 62
    18
420
        0
176
     1
 90
       50
176
     1
 90
        3
176
     1
 62
     5
420
      255
176
     1
290
     0
176
     1
 90
       50
176
     1
 90
       50
176
     1
 90
       50
176
     1
290
     0
176
     1
 90
       50
176
     1
 62
   256
176
     0
 40
1.0
176
     0
 90
        2
176
     1
  1
strokes_ogs.tif
176
     1
290
     0
176
     1
 40
1.0
176
     1
 40
1.0
176
     1
  0
VISUALSTYLE
  5
40
102
{ACAD_REACTORS
330
2A
102
}
330
2A
100
AcDbVisualStyle
  2
X-Ray
 70
    25
177
     3
291
     0
 70
    58
 90
        2
176
     1
 90
        2
176
     1
 90
        1
176
     1
 90
        1
176
     1
 40
0.5
176
     1
 40
30.0
176
     1
 62
     7
420
 16777215
176
     1
 90
        1
176
     1
 90
        0
176
     1
 62
     7
176
     1
 62
   257
176
     1
 90
        1
176
     1
 90
        1
176
     1
 40
1.0
176
     1
 90
        8
176
     1
 62
     7
176
     1
 40
1.0
176
     1
 90
        1
176
     1
 90
        6
176
     1
 90
        2
176
     1
 62
     7
176
     1
 90
        3
176
     1
 90
        0
176
     1
 90
        0
176
     1
290
     0
176
     1
 90
       13
176
     1
 40
0.0
176
     1
 90
        0
176
     1
290
     0
176
     1
290
     1
176
     1
290
     1
176
     1
290
     0
176
     1
290
     0
176
     1
290
     0
176
     1
290
     0
176
     1
290
     0
176
     1
290
     0
176
     1
 90
       50
176
     1
 40
0.0
176
     1
 40
1.0
176
     1
 90
        0
176
     1
 62
    18
420
        0
176
     1
 90
       50
176
     1
 90
        3
176
     1
 62
     5
420
      255
176
     1
290
     0
176
     1
 90
       50
176
     1
 90
       50
176
     1
 90
       50
176
     1
290
     0
176
     1
 90
       50
176
     1
 62
   256
176
     0
 40
1.0
176
     0
 90
        2
176
     1
  1
strokes_ogs.tif
176
     1
290
     0
176
     1
 40
1.0
176
     1
 40
1.0
176
     1
  0
DICTIONARYVAR
  5
7C
102
{ACAD_REACTORS
330
7B
102
}
330
7B
100
DictionaryVariables
280
     0
  1
1:1
  0
DICTIONARYVAR
  5
84
102
{ACAD_REACTORS
330
7B
102
}
330
7B
100
DictionaryVariables
280
     0
  1
3.500000
  0
DICTIONARYVAR
  5
85
102
{ACAD_REACTORS
330
7B
102
}
330
7B
100
DictionaryVariables
280
     0
  1
acadiso.lin
  0
DICTIONARYVAR
  5
81
102
{ACAD_REACTORS
330
7B
102
}
330
7B
100
DictionaryVariables
280
     0
  1
Standard
  0
DICTIONARYVAR
  5
80
102
{ACAD_REACTORS
330
7B
102
}
330
7B
100
DictionaryVariables
280
     0
  1
Standard
  0
DICTIONARY
  5
7D
330
5A
100
AcDbDictionary
280
     1
281
     1
  3
ACAD_ROUNDTRIP_2008_TABLESTYLE_CELLSTYLEMAP
360
7E
  0
CELLSTYLEMAP
  5
7E
102
{ACAD_REACTORS
330
7D
102
}
330
7D
100
AcDbCellStyleMap
 90
        3
300
CELLSTYLE
  1
TABLEFORMAT_BEGIN
 90
        5
170
     1
 91
        0
 92
    32768
 62
   257
 93
        1
300
CONTENTFORMAT
  1
CONTENTFORMAT_BEGIN
 90
        0
 91
        0
 92
        4
 93
        0
300

 40
0.0
140
1.0
 94
        5
 62
     0
340
11
144
6.0
309
CONTENTFORMAT_END
171
     1
301
MARGIN
  1
CELLMARGIN_BEGIN
 40
1.5
 40
1.5
 40
1.5
 40
1.5
 40
1.5
 40
1.5
309
CELLMARGIN_END
 94
        6
 95
        1
302
GRIDFORMAT
  1
GRIDFORMAT_BEGIN
 90
        0
 91
        1
 62
     0
 92
       -2
340
14
 93
        0
 40
0.045
309
GRIDFORMAT_END
 95
        2
302
GRIDFORMAT
  1
GRIDFORMAT_BEGIN
 90
        0
 91
        1
 62
     0
 92
       -2
340
14
 93
        0
 40
0.045
309
GRIDFORMAT_END
 95
        4
302
GRIDFORMAT
  1
GRIDFORMAT_BEGIN
 90
        0
 91
        1
 62
     0
 92
       -2
340
14
 93
        0
 40
0.045
309
GRIDFORMAT_END
 95
        8
302
GRIDFORMAT
  1
GRIDFORMAT_BEGIN
 90
        0
 91
        1
 62
     0
 92
       -2
340
14
 93
        0
 40
0.045
309
GRIDFORMAT_END
 95
       16
302
GRIDFORMAT
  1
GRIDFORMAT_BEGIN
 90
        0
 91
        1
 62
     0
 92
       -2
340
14
 93
        0
 40
0.045
309
GRIDFORMAT_END
 95
       32
302
GRIDFORMAT
  1
GRIDFORMAT_BEGIN
 90
        0
 91
        1
 62
     0
 92
       -2
340
14
 93
        0
 40
0.045
309
GRIDFORMAT_END
309
TABLEFORMAT_END
  1
CELLSTYLE_BEGIN
 90
        1
 91
        1
300
_TITLE
309
CELLSTYLE_END
300
CELLSTYLE
  1
TABLEFORMAT_BEGIN
 90
        5
170
     1
 91
        0
 92
        0
 62
   257
 93
        1
300
CONTENTFORMAT
  1
CONTENTFORMAT_BEGIN
 90
        0
 91
        0
 92
        4
 93
        0
300

 40
0.0
140
1.0
 94
        5
 62
     0
340
11
144
4.5
309
CONTENTFORMAT_END
171
     1
301
MARGIN
  1
CELLMARGIN_BEGIN
 40
1.5
 40
1.5
 40
1.5
 40
1.5
 40
1.5
 40
1.5
309
CELLMARGIN_END
 94
        6
 95
        1
302
GRIDFORMAT
  1
GRIDFORMAT_BEGIN
 90
        0
 91
        1
 62
     0
 92
       -2
340
14
 93
        0
 40
0.045
309
GRIDFORMAT_END
 95
        2
302
GRIDFORMAT
  1
GRIDFORMAT_BEGIN
 90
        0
 91
        1
 62
     0
 92
       -2
340
14
 93
        0
 40
0.045
309
GRIDFORMAT_END
 95
        4
302
GRIDFORMAT
  1
GRIDFORMAT_BEGIN
 90
        0
 91
        1
 62
     0
 92
       -2
340
14
 93
        0
 40
0.045
309
GRIDFORMAT_END
 95
        8
302
GRIDFORMAT
  1
GRIDFORMAT_BEGIN
 90
        0
 91
        1
 62
     0
 92
       -2
340
14
 93
        0
 40
0.045
309
GRIDFORMAT_END
 95
       16
302
GRIDFORMAT
  1
GRIDFORMAT_BEGIN
 90
        0
 91
        1
 62
     0
 92
       -2
340
14
 93
        0
 40
0.045
309
GRIDFORMAT_END
 95
       32
302
GRIDFORMAT
  1
GRIDFORMAT_BEGIN
 90
        0
 91
        1
 62
     0
 92
       -2
340
14
 93
        0
 40
0.045
309
GRIDFORMAT_END
309
TABLEFORMAT_END
  1
CELLSTYLE_BEGIN
 90
        2
 91
        1
300
_HEADER
309
CELLSTYLE_END
300
CELLSTYLE
  1
TABLEFORMAT_BEGIN
 90
        5
170
     1
 91
        0
 92
        0
 62
   257
 93
        1
300
CONTENTFORMAT
  1
CONTENTFORMAT_BEGIN
 90
        0
 91
        0
 92
        4
 93
        0
300

 40
0.0
140
1.0
 94
        2
 62
     0
340
11
144
4.5
309
CONTENTFORMAT_END
171
     1
301
MARGIN
  1
CELLMARGIN_BEGIN
 40
1.5
 40
1.5
 40
1.5
 40
1.5
 40
1.5
 40
1.5
309
CELLMARGIN_END
 94
        6
 95
        1
302
GRIDFORMAT
  1
GRIDFORMAT_BEGIN
 90
        0
 91
        1
 62
     0
 92
       -2
340
14
 93
        0
 40
0.045
309
GRIDFORMAT_END
 95
        2
302
GRIDFORMAT
  1
GRIDFORMAT_BEGIN
 90
        0
 91
        1
 62
     0
 92
       -2
340
14
 93
        0
 40
0.045
309
GRIDFORMAT_END
 95
        4
302
GRIDFORMAT
  1
GRIDFORMAT_BEGIN
 90
        0
 91
        1
 62
     0
 92
       -2
340
14
 93
        0
 40
0.045
309
GRIDFORMAT_END
 95
        8
302
GRIDFORMAT
  1
GRIDFORMAT_BEGIN
 90
        0
 91
        1
 62
     0
 92
       -2
340
14
 93
        0
 40
0.045
309
GRIDFORMAT_END
 95
       16
302
GRIDFORMAT
  1
GRIDFORMAT_BEGIN
 90
        0
 91
        1
 62
     0
 92
       -2
340
14
 93
        0
 40
0.045
309
GRIDFORMAT_END
 95
       32
302
GRIDFORMAT
  1
GRIDFORMAT_BEGIN
 90
        0
 91
        1
 62
     0
 92
       -2
340
14
 93
        0
 40
0.045
309
GRIDFORMAT_END
309
TABLEFORMAT_END
  1
CELLSTYLE_BEGIN
 90
        3
 91
        2
300
_DATA
309
CELLSTYLE_END
  0
ENDSEC
  0
EOF
