  0
SECTION
  2
HEADER
  9
$ACADVER
  1
AC1032
  9
$ACADMAINTVER
 90
       55
  9
$DWGCODEPAGE
  3
ISO8859-1
  9
$LASTSAVEDBY
  1
User
  9
$REQUIREDVERSIONS
160
                 0
  9
$INSBASE
 10
0.0
 20
0.0
 30
0.0
  9
$EXTMIN
 10
1.000000000000000E+20
 20
1.000000000000000E+20
 30
1.000000000000000E+20
  9
$EXTMAX
 10
-1.000000000000000E+20
 20
-1.000000000000000E+20
 30
-1.000000000000000E+20
  9
$LIMMIN
 10
0.0
 20
0.0
  9
$LIMMAX
 10
420.0
 20
297.0
  9
$ORTHOMODE
 70
     0
  9
$REGENMODE
 70
     1
  9
$FILLMODE
 70
     1
  9
$QTEXTMODE
 70
     0
  9
$MIRRTEXT
 70
     1
  9
$LTSCALE
 40
1.0
  9
$ATTMODE
 70
     1
  9
$TEXTSIZE
 40
2.5
  9
$TRACEWID
 40
1.0
  9
$TEXTSTYLE
  7
Standard
  9
$CLAYER
  8
0
  9
$CELTYPE
  6
ByLayer
  9
$CECOLOR
 62
   256
  9
$CELTSCALE
 40
1.0
  9
$DISPSILH
 70
     0
  9
$DIMSCALE
 40
1.0
  9
$DIMASZ
 40
2.5
  9
$DIMEXO
 40
0.625
  9
$DIMDLI
 40
3.75
  9
$DIMRND
 40
0.0
  9
$DIMDLE
 40
0.0
  9
$DIMEXE
 40
1.25
  9
$DIMTP
 40
0.0
  9
$DIMTM
 40
0.0
  9
$DIMTXT
 40
2.5
  9
$DIMCEN
 40
2.5
  9
$DIMTSZ
 40
0.0
  9
$DIMTOL
 70
     0
  9
$DIMLIM
 70
     0
  9
$DIMTIH
 70
     0
  9
$DIMTOH
 70
     0
  9
$DIMSE1
 70
     0
  9
$DIMSE2
 70
     0
  9
$DIMTAD
 70
     1
  9
$DIMZIN
 70
     8
  9
$DIMBLK
  1

  9
$DIMASO
 70
     1
  9
$DIMSHO
 70
     1
  9
$DIMPOST
  1

  9
$DIMAPOST
  1

  9
$DIMALT
 70
     0
  9
$DIMALTD
 70
     3
  9
$DIMALTF
 40
0.03937007874016
  9
$DIMLFAC
 40
1.0
  9
$DIMTOFL
 70
     1
  9
$DIMTVP
 40
0.0
  9
$DIMTIX
 70
     0
  9
$DIMSOXD
 70
     0
  9
$DIMSAH
 70
     0
  9
$DIMBLK1
  1

  9
$DIMBLK2
  1

  9
$DIMSTYLE
  2
ISO-25
  9
$DIMCLRD
 70
     0
  9
$DIMCLRE
 70
     0
  9
$DIMCLRT
 70
     0
  9
$DIMTFAC
 40
1.0
  9
$DIMGAP
 40
0.625
  9
$DIMJUST
 70
     0
  9
$DIMSD1
 70
     0
  9
$DIMSD2
 70
     0
  9
$DIMTOLJ
 70
     0
  9
$DIMTZIN
 70
     8
  9
$DIMALTZ
 70
     0
  9
$DIMALTTZ
 70
     0
  9
$DIMUPT
 70
     0
  9
$DIMDEC
 70
     2
  9
$DIMTDEC
 70
     2
  9
$DIMALTU
 70
     2
  9
$DIMALTTD
 70
     3
  9
$DIMTXSTY
  7
Standard
  9
$DIMAUNIT
 70
     0
  9
$DIMADEC
 70
     0
  9
$DIMALTRND
 40
0.0
  9
$DIMAZIN
 70
     0
  9
$DIMDSEP
 70
    44
  9
$DIMATFIT
 70
     3
  9
$DIMFRAC
 70
     0
  9
$DIMLDRBLK
  1

  9
$DIMLUNIT
 70
     2
  9
$DIMLWD
 70
    -2
  9
$DIMLWE
 70
    -2
  9
$DIMTMOVE
 70
     0
  9
$DIMFXL
 40
1.0
  9
$DIMFXLON
 70
     0
  9
$DIMJOGANG
 40
0.7853981633974483
  9
$DIMTFILL
 70
     0
  9
$DIMTFILLCLR
 70
     0
  9
$DIMARCSYM
 70
     0
  9
$DIMLTYPE
  6

  9
$DIMLTEX1
  6

  9
$DIMLTEX2
  6

  9
$DIMTXTDIRECTION
 70
     0
  9
$LUNITS
 70
     2
  9
$LUPREC
 70
     4
  9
$SKETCHINC
 40
1.0
  9
$FILLETRAD
 40
0.0
  9
$AUNITS
 70
     0
  9
$AUPREC
 70
     0
  9
$MENU
  1
.
  9
$ELEVATION
 40
0.0
  9
$PELEVATION
 40
0.0
  9
$THICKNESS
 40
0.0
  9
$LIMCHECK
 70
     0
  9
$CHAMFERA
 40
0.0
  9
$CHAMFERB
 40
0.0
  9
$CHAMFERC
 40
0.0
  9
$CHAMFERD
 40
0.0
  9
$SKPOLY
 70
     0
  9
$TDCREATE
 40
2461207.974931354
  9
$TDUCREATE
 40
2461208.099931354
  9
$TDUPDATE
 40
2461207.974931412
  9
$TDUUPDATE
 40
2461208.099931412
  9
$TDINDWG
 40
0.0000000116
  9
$TDUSRTIMER
 40
0.0000000116
  9
$USRTIMER
 70
     1
  9
$ANGBASE
 50
0.0
  9
$ANGDIR
 70
     0
  9
$PDMODE
 70
     0
  9
$PDSIZE
 40
0.0
  9
$PLINEWID
 40
0.0
  9
$SPLFRAME
 70
     0
  9
$SPLINETYPE
 70
     6
  9
$SPLINESEGS
 70
     8
  9
$HANDSEED
  5
8B
  9
$SURFTAB1
 70
     6
  9
$SURFTAB2
 70
     6
  9
$SURFTYPE
 70
     6
  9
$SURFU
 70
     6
  9
$SURFV
 70
     6
  9
$UCSBASE
  2

  9
$UCSNAME
  2

  9
$UCSORG
 10
0.0
 20
0.0
 30
0.0
  9
$UCSXDIR
 10
1.0
 20
0.0
 30
0.0
  9
$UCSYDIR
 10
0.0
 20
1.0
 30
0.0
  9
$UCSORTHOREF
  2

  9
$UCSORTHOVIEW
 70
     0
  9
$UCSORGTOP
 10
0.0
 20
0.0
 30
0.0
  9
$UCSORGBOTTOM
 10
0.0
 20
0.0
 30
0.0
  9
$UCSORGLEFT
 10
0.0
 20
0.0
 30
0.0
  9
$UCSORGRIGHT
 10
0.0
 20
0.0
 30
0.0
  9
$UCSORGFRONT
 10
0.0
 20
0.0
 30
0.0
  9
$UCSORGBACK
 10
0.0
 20
0.0
 30
0.0
  9
$PUCSBASE
  2

  9
$PUCSNAME
  2

  9
$PUCSORG
 10
0.0
 20
0.0
 30
0.0
  9
$PUCSXDIR
 10
1.0
 20
0.0
 30
0.0
  9
$PUCSYDIR
 10
0.0
 20
1.0
 30
0.0
  9
$PUCSORTHOREF
  2

  9
$PUCSORTHOVIEW
 70
     0
  9
$PUCSORGTOP
 10
0.0
 20
0.0
 30
0.0
  9
$PUCSORGBOTTOM
 10
0.0
 20
0.0
 30
0.0
  9
$PUCSORGLEFT
 10
0.0
 20
0.0
 30
0.0
  9
$PUCSORGRIGHT
 10
0.0
 20
0.0
 30
0.0
  9
$PUCSORGFRONT
 10
0.0
 20
0.0
 30
0.0
  9
$PUCSORGBACK
 10
0.0
 20
0.0
 30
0.0
  9
$USERI1
 70
     0
  9
$USERI2
 70
     0
  9
$USERI3
 70
     0
  9
$USERI4
 70
     0
  9
$USERI5
 70
     0
  9
$USERR1
 40
0.0
  9
$USERR2
 40
0.0
  9
$USERR3
 40
0.0
  9
$USERR4
 40
0.0
  9
$USERR5
 40
0.0
  9
$WORLDVIEW
 70
     1
  9
$SHADEDGE
 70
     3
  9
$SHADEDIF
 70
    70
  9
$TILEMODE
 70
     1
  9
$MAXACTVP
 70
    64
  9
$PINSBASE
 10
0.0
 20
0.0
 30
0.0
  9
$PLIMCHECK
 70
     0
  9
$PEXTMIN
 10
169.418
 20
254.0
 30
0.0
  9
$PEXTMAX
 10
0.0
 20
0.0
 30
0.0
  9
$PLIMMIN
 10
-20.0
 20
-7.5
  9
$PLIMMAX
 10
277.0
 20
202.5
  9
$UNITMODE
 70
     0
  9
$VISRETAIN
 70
     1
  9
$PLINEGEN
 70
     0
  9
$PSLTSCALE
 70
     1
  9
$TREEDEPTH
 70
  3020
  9
$CMLSTYLE
  2
Standard
  9
$CMLJUST
 70
     0
  9
$CMLSCALE
 40
20.0
  9
$PROXYGRAPHICS
 70
     1
  9
$MEASUREMENT
 70
     1
  9
$CELWEIGHT
370
    -1
  9
$ENDCAPS
280
     0
  9
$JOINSTYLE
280
     0
  9
$LWDISPLAY
290
     0
  9
$INSUNITS
 70
     4
  9
$HYPERLINKBASE
  1

  9
$STYLESHEET
  1

  9
$XEDIT
290
     1
  9
$CEPSNTYPE
380
     0
  9
$PSTYLEMODE
290
     1
  9
$FINGERPRINTGUID
  2
{8d9eb05c-c2b4-4ca6-8420-df038b62700f}
  9
$VERSIONGUID
  2
{FAEB1C32-E019-11D5-929B-00C0DF256EC4}
  9
$EXTNAMES
290
     1
  9
$PSVPSCALE
 40
0.0
  9
$OLESTARTUP
290
     0
  9
$SORTENTS
280
   127
  9
$INDEXCTL
280
     0
  9
$HIDETEXT
280
     1
  9
$XCLIPFRAME
280
     2
  9
$HALOGAP
280
     0
  9
$OBSCOLOR
 70
   257
  9
$OBSLTYPE
280
     0
  9
$INTERSECTIONDISPLAY
280
     0
  9
$INTERSECTIONCOLOR
 70
   257
  9
$DIMASSOC
280
     2
  9
$PROJECTNAME
  1

  9
$CAMERADISPLAY
290
     0
  9
$LENSLENGTH
 40
50.0
  9
$CAMERAHEIGHT
 40
0.0
  9
$STEPSPERSEC
 40
2.0
  9
$STEPSIZE
 40
6.0
  9
$3DDWFPREC
 40
2.0
  9
$PSOLWIDTH
 40
5.0
  9
$PSOLHEIGHT
 40
80.0
  9
$LOFTANG1
 40
1.570796326794897
  9
$LOFTANG2
 40
1.570796326794897
  9
$LOFTMAG1
 40
0.0
  9
$LOFTMAG2
 40
0.0
  9
$LOFTPARAM
 70
     7
  9
$LOFTNORMALS
280
     1
  9
$LATITUDE
 40
37.795
  9
$LONGITUDE
 40
-122.394
  9
$NORTHDIRECTION
 40
0.0
  9
$TIMEZONE
 70
 -8000
  9
$LIGHTGLYPHDISPLAY
280
     1
  9
$TILEMODELIGHTSYNCH
280
     1
  9
$CMATERIAL
347
44
  9
$SOLIDHIST
280
     0
  9
$SHOWHIST
280
     1
  9
$DWFFRAME
280
     2
  9
$DGNFRAME
280
     2
  9
$REALWORLDSCALE
290
     1
  9
$INTERFERECOLOR
 62
   256
  9
$CSHADOW
280
     0
  9
$SHADOWPLANELOCATION
 40
0.0
  0
ENDSEC
  0
SECTION
  2
CLASSES
  0
CLASS
  1
ACDBDICTIONARYWDFLT
  2
AcDbDictionaryWithDefault
  3
ObjectDBX Classes
 90
        0
 91
        3
280
     0
281
     0
  0
CLASS
  1
VISUALSTYLE
  2
AcDbVisualStyle
  3
ObjectDBX Classes
 90
     4095
 91
        3
280
     0
281
     0
  0
CLASS
  1
MATERIAL
  2
AcDbMaterial
  3
ObjectDBX Classes
 90
     1153
 91
        3
280
     0
281
     0
  0
CLASS
  1
SCALE
  2
AcDbScale
  3
ObjectDBX Classes
 90
     1153
 91
        3
280
     0
281
     0
  0
CLASS
  1
TABLESTYLE
  2
AcDbTableStyle
  3
ObjectDBX Classes
 90
     4095
 91
        3
280
     0
281
     0
  0
CLASS
  1
MLEADERSTYLE
  2
AcDbMLeaderStyle
  3
ACDB_MLEADERSTYLE_CLASS
 90
     4095
 91
        3
280
     0
281
     0
  0
CLASS
  1
SUN
  2
AcDbSun
  3
SCENEOE
 90
     1153
 91
        3
280
     0
281
     0
  0
CLASS
  1
DICTIONARYVAR
  2
AcDbDictionaryVar
  3
ObjectDBX Classes
 90
        0
 91
        3
280
     0
281
     0
  0
CLASS
  1
CELLSTYLEMAP
  2
AcDbCellStyleMap
  3
ObjectDBX Classes
 90
     1152
 91
        3
280
     0
281
     0
  0
ENDSEC
  0
SECTION
  2
TABLES
  0
TABLE
  2
VPORT
  5
8
330
0
100
AcDbSymbolTable
 70
     1
  0
VPORT
  5
29
330
8
100
AcDbSymbolTableRecord
100
AcDbViewportTableRecord
  2
*Active
 70
     0
 10
0.0
 20
0.0
 11
1.0
 21
1.0
 12
2261.954666666667
 22
84.66666666666674
 13
0.0
 23
0.0
 14
10.0
 24
10.0
 15
10.0
 25
10.0
 16
0.0
 26
0.0
 36
1.0
 17
0.0
 27
0.0
 37
0.0
 40
169.3333333333333
 41
1.972972972850329
 42
50.0
 43
0.0
 44
0.0
 50
0.0
 51
0.0
 71
     0
 72
   100
 73
     1
 74
     3
 75
     0
 76
     0
 77
     0
 78
     0
281
     0
 65
     1
110
0.0
120
0.0
130
0.0
111
1.0
121
0.0
131
0.0
112
0.0
122
1.0
132
0.0
 79
     0
146
0.0
348
2F
 60
     3
 61
     5
292
     1
282
     1
141
0.0
142
0.0
 63
   250
361
5D
  0
ENDTAB
  0
TABLE
  2
LTYPE
  5
5
330
0
100
AcDbSymbolTable
 70
     1
  0
LTYPE
  5
14
330
5
100
AcDbSymbolTableRecord
100
AcDbLinetypeTableRecord
  2
ByBlock
 70
     0
  3

 72
    65
 73
     0
 40
0.0
  0
LTYPE
  5
15
330
5
100
AcDbSymbolTableRecord
100
AcDbLinetypeTableRecord
  2
ByLayer
 70
     0
  3

 72
    65
 73
     0
 40
0.0
  0
LTYPE
  5
16
330
5
100
AcDbSymbolTableRecord
100
AcDbLinetypeTableRecord
  2
Continuous
 70
     0
  3
Solid line
 72
    65
 73
     0
 40
0.0
  0
ENDTAB
  0
TABLE
  2
LAYER
  5
2
330
0
100
AcDbSymbolTable
 70
     1
  0
LAYER
  5
10
330
2
100
AcDbSymbolTableRecord
100
AcDbLayerTableRecord
  2
0
 70
     0
 62
     7
  6
Continuous
370
    -3
390
F
347
46
348
0
  0
ENDTAB
  0
TABLE
  2
STYLE
  5
3
330
0
100
AcDbSymbolTable
 70
     1
  0
STYLE
  5
11
330
3
100
AcDbSymbolTableRecord
100
AcDbTextStyleTableRecord
  2
Standard
 70
     0
 40
0.0
 41
1.0
 50
0.0
 71
     0
 42
2.5
  3
txt
  4

  0
ENDTAB
  0
TABLE
  2
VIEW
  5
6
330
0
100
AcDbSymbolTable
 70
     0
  0
ENDTAB
  0
TABLE
  2
UCS
  5
7
330
0
100
AcDbSymbolTable
 70
     0
  0
ENDTAB
  0
TABLE
  2
APPID
  5
9
330
0
100
AcDbSymbolTable
 70
     1
  0
APPID
  5
12
330
9
100
AcDbSymbolTableRecord
100
AcDbRegAppTableRecord
  2
ACAD
 70
     0
  0
ENDTAB
  0
TABLE
  2
DIMSTYLE
  5
A
330
0
100
AcDbSymbolTable
 70
     1
100
AcDbDimStyleTable
  0
DIMSTYLE
105
27
330
A
100
AcDbSymbolTableRecord
100
AcDbDimStyleTableRecord
  2
ISO-25
 70
     0
 41
2.5
 42
0.625
 43
3.75
 44
1.25
 73
     0
 74
     0
 77
     1
 78
     8
140
2.5
141
2.5
143
0.03937007874016
147
0.625
171
     3
172
     1
178
     0
271
     2
272
     2
274
     3
278
    44
283
     0
284
     8
340
11
  0
ENDTAB
  0
TABLE
  2
BLOCK_RECORD
  5
1
330
0
100
AcDbSymbolTable
 70
     0
  0
BLOCK_RECORD
  5
1F
330
1
100
AcDbSymbolTableRecord
100
AcDbBlockTableRecord
  2
*Model_Space
340
22
 70
     0
280
     1
281
     0
  0
BLOCK_RECORD
  5
78
330
1
100
AcDbSymbolTableRecord
100
AcDbBlockTableRecord
  2
*Paper_Space
340
79
 70
     0
280
     1
281
     0
  0
ENDTAB
  0
ENDSEC
  0
SECTION
  2
BLOCKS
  0
BLOCK
  5
20
330
1F
100
AcDbEntity
  8
0
100
AcDbBlockBegin
  2
*Model_Space
 70
     0
 10
0.0
 20
0.0
 30
0.0
  3
*Model_Space
  1

  0
ENDBLK
  5
21
330
1F
100
AcDbEntity
  8
0
100
AcDbBlockEnd
  0
BLOCK
  5
7A
330
78
100
AcDbEntity
 67
     1
  8
0
100
AcDbBlockBegin
  2
*Paper_Space
 70
     0
 10
0.0
 20
0.0
 30
0.0
  3
*Paper_Space
  1

  0
ENDBLK
  5
7B
330
78
100
AcDbEntity
 67
     1
  8
0
100
AcDbBlockEnd
  0
ENDSEC
  0
SECTION
  2
ENTITIES
  0
HATCH
  5
5E
330
1F
100
AcDbEntity
  8
0
 62
    18
420
        0
440
 33554687
100
AcDbHatch
 10
0.0
 20
0.0
 30
0.0
210
0.0
220
0.0
230
1.0
  2
SOLID
 70
     1
 71
     1
 91
        5
 92
        0
 93
        1
 72
     4
 94
        3
 73
     0
 74
     1
 95
       14
 96
       10
 40
0.0
 40
0.0
 40
0.0
 40
0.0
 40
1.0
 40
1.0
 40
1.0
 40
2.0
 40
2.0
 40
2.0
 40
3.0
 40
3.0
 40
3.0
 40
3.0
 10
2276.289283537064
 20
87.6821979458814
 10
2278.439440743013
 20
86.81292586453833
 10
2279.958067133724
 20
84.70466278350068
 10
2279.958067133724
 20
82.24450427824354
 10
2279.958067133724
 20
79.7843457729864
 10
2278.439440743013
 20
77.67608269194898
 10
2276.289283537064
 20
76.80681061060591
 10
2276.289283537064
 20
76.80681061060591
 10
2276.289283537064
 20
87.6821979458814
 10
2276.289283537064
 20
87.6821979458814
 97
        0
 97
        0
 92
        0
 93
        1
 72
     4
 94
        3
 73
     0
 74
     1
 95
       14
 96
       10
 40
0.0
 40
0.0
 40
0.0
 40
0.0
 40
1.0
 40
1.0
 40
1.0
 40
2.0
 40
2.0
 40
2.0
 40
3.0
 40
3.0
 40
3.0
 40
3.0
 10
2270.002612373425
 20
88.10711670072078
 10
2270.002612373425
 20
88.10711670072078
 10
2270.002612373425
 20
99.83234154567504
 10
2270.002612373425
 20
99.83234154567504
 10
2273.238276252175
 20
99.83234154567504
 10
2275.865224795902
 20
97.2053930019481
 10
2275.865224795902
 20
93.96972912319802
 10
2275.865224795902
 20
90.73406524444749
 10
2273.238276252175
 20
88.10711670072078
 10
2270.002612373425
 20
88.10711670072078
 97
        0
 97
        0
 92
        0
 93
        1
 72
     4
 94
        3
 73
     0
 74
     1
 95
       14
 96
       10
 40
0.0
 40
0.0
 40
0.0
 40
0.0
 40
1.0
 40
1.0
 40
1.0
 40
2.0
 40
2.0
 40
2.0
 40
3.0
 40
3.0
 40
3.0
 40
3.0
 10
2270.002612373425
 20
88.10711670072078
 10
2273.238276252175
 20
88.10711670072078
 10
2275.865224795902
 20
85.48016815699384
 10
2275.865224795902
 20
82.24450427824354
 10
2275.865224795902
 20
79.00884039949347
 10
2273.238276252175
 20
76.38189185576653
 10
2270.002612373425
 20
76.38189185576653
 10
2270.002612373425
 20
76.38189185576653
 10
2270.002612373425
 20
88.10711670072078
 10
2270.002612373425
 20
88.10711670072078
 97
        0
 97
        0
 92
        0
 93
        1
 72
     4
 94
        3
 73
     0
 74
     1
 95
       14
 96
       10
 40
0.0
 40
0.0
 40
0.0
 40
0.0
 40
1.0
 40
1.0
 40
1.0
 40
2.0
 40
2.0
 40
2.0
 40
3.0
 40
3.0
 40
3.0
 40
3.0
 10
2276.289283537064
 20
99.40742279083543
 10
2278.439440743013
 20
98.53815070949236
 10
2279.958067133725
 20
96.42988762845494
 10
2279.958067133724
 20
93.9697291231978
 10
2279.958067133724
 20
91.50957061794065
 10
2278.439440743013
 20
89.40130753690323
 10
2276.289283537064
 20
88.53203545556016
 10
2276.289283537064
 20
88.53203545556016
 10
2276.289283537064
 20
99.40742279083543
 10
2276.289283537064
 20
99.40742279083543
 97
        0
 97
        0
 92
        0
 93
        1
 72
     4
 94
        3
 73
     0
 74
     1
 95
       26
 96
       22
 40
0.0
 40
0.0
 40
0.0
 40
0.0
 40
1.0
 40
1.0
 40
1.0
 40
2.0
 40
2.0
 40
2.0
 40
3.0
 40
3.0
 40
3.0
 40
4.0
 40
4.0
 40
4.0
 40
5.0
 40
5.0
 40
5.0
 40
6.0
 40
6.0
 40
6.0
 40
7.0
 40
7.0
 40
7.0
 40
7.0
 10
2263.839618579936
 20
76.38189185576653
 10
2263.839618579936
 20
76.38189185576653
 10
2243.951266199609
 20
76.38189185576653
 10
2243.951266199609
 20
76.38189185576653
 10
2243.951266199609
 20
76.38189185576653
 10
2243.951266199609
 20
99.83234154567504
 10
2243.951266199609
 20
99.83234154567504
 10
2243.951266199609
 20
99.83234154567504
 10
2263.839618579936
 20
99.83234154567504
 10
2263.839618579936
 20
99.83234154567504
 10
2267.075282458686
 20
99.83234154567504
 10
2269.702231002413
 20
97.2053930019481
 10
2269.702231002413
 20
93.96972912319802
 10
2269.702231002413
 20
90.73406524444749
 10
2267.075282458686
 20
88.10711670072078
 10
2263.839618579936
 20
88.10711670072078
 10
2267.075282458686
 20
88.10711670072078
 10
2269.702231002413
 20
85.48016815699384
 10
2269.702231002413
 20
82.24450427824354
 10
2269.702231002413
 20
79.00884039949347
 10
2267.075282458686
 20
76.38189185576653
 10
2263.839618579936
 20
76.38189185576653
 97
        0
 97
        0
 75
     0
 76
     1
 98
        0
  0
SPLINE
  5
5F
330
1F
100
AcDbEntity
  8
0
  6
Continuous
 62
    18
420
        0
370
     5
100
AcDbSpline
210
0.0
220
0.0
230
1.0
 70
    11
 71
     3
 72
    26
 73
    22
 74
     0
 42
0.000000001
 43
0.0
 40
0.0
 40
0.0
 40
0.0
 40
0.0
 40
1.0
 40
1.0
 40
1.0
 40
2.0
 40
2.0
 40
2.0
 40
3.0
 40
3.0
 40
3.0
 40
4.0
 40
4.0
 40
4.0
 40
5.0
 40
5.0
 40
5.0
 40
6.0
 40
6.0
 40
6.0
 40
7.0
 40
7.0
 40
7.0
 40
7.0
 10
2263.839618579936
 20
76.38189185576653
 30
0.0
 10
2263.839618579936
 20
76.38189185576653
 30
0.0
 10
2243.951266199609
 20
76.38189185576653
 30
0.0
 10
2243.951266199609
 20
76.38189185576653
 30
0.0
 10
2243.951266199609
 20
76.38189185576653
 30
0.0
 10
2243.951266199609
 20
99.83234154567504
 30
0.0
 10
2243.951266199609
 20
99.83234154567504
 30
0.0
 10
2243.951266199609
 20
99.83234154567504
 30
0.0
 10
2263.839618579936
 20
99.83234154567504
 30
0.0
 10
2263.839618579936
 20
99.83234154567504
 30
0.0
 10
2267.075282458686
 20
99.83234154567504
 30
0.0
 10
2269.702231002413
 20
97.2053930019481
 30
0.0
 10
2269.702231002413
 20
93.96972912319802
 30
0.0
 10
2269.702231002413
 20
90.73406524444749
 30
0.0
 10
2267.075282458686
 20
88.10711670072078
 30
0.0
 10
2263.839618579936
 20
88.10711670072078
 30
0.0
 10
2267.075282458686
 20
88.10711670072078
 30
0.0
 10
2269.702231002413
 20
85.48016815699384
 30
0.0
 10
2269.702231002413
 20
82.24450427824354
 30
0.0
 10
2269.702231002413
 20
79.00884039949347
 30
0.0
 10
2267.075282458686
 20
76.38189185576653
 30
0.0
 10
2263.839618579936
 20
76.38189185576653
 30
0.0
  0
SPLINE
  5
60
330
1F
100
AcDbEntity
  8
0
  6
Continuous
 62
    18
420
        0
370
     5
100
AcDbSpline
210
0.0
220
0.0
230
1.0
 70
    11
 71
     3
 72
    14
 73
    10
 74
     0
 42
0.000000001
 43
0.0
 40
0.0
 40
0.0
 40
0.0
 40
0.0
 40
1.0
 40
1.0
 40
1.0
 40
2.0
 40
2.0
 40
2.0
 40
3.0
 40
3.0
 40
3.0
 40
3.0
 10
2270.002612373425
 20
88.10711670072078
 30
0.0
 10
2273.238276252175
 20
88.10711670072078
 30
0.0
 10
2275.865224795902
 20
85.48016815699384
 30
0.0
 10
2275.865224795902
 20
82.24450427824354
 30
0.0
 10
2275.865224795902
 20
79.00884039949347
 30
0.0
 10
2273.238276252175
 20
76.38189185576653
 30
0.0
 10
2270.002612373425
 20
76.38189185576653
 30
0.0
 10
2270.002612373425
 20
76.38189185576653
 30
0.0
 10
2270.002612373425
 20
88.10711670072078
 30
0.0
 10
2270.002612373425
 20
88.10711670072078
 30
0.0
  0
SPLINE
  5
61
330
1F
100
AcDbEntity
  8
0
  6
Continuous
 62
    18
420
        0
370
     5
100
AcDbSpline
210
0.0
220
0.0
230
1.0
 70
    11
 71
     3
 72
    14
 73
    10
 74
     0
 42
0.000000001
 43
0.0
 40
0.0
 40
0.0
 40
0.0
 40
0.0
 40
1.0
 40
1.0
 40
1.0
 40
2.0
 40
2.0
 40
2.0
 40
3.0
 40
3.0
 40
3.0
 40
3.0
 10
2270.002612373425
 20
88.10711670072078
 30
0.0
 10
2270.002612373425
 20
88.10711670072078
 30
0.0
 10
2270.002612373425
 20
99.83234154567504
 30
0.0
 10
2270.002612373425
 20
99.83234154567504
 30
0.0
 10
2273.238276252175
 20
99.83234154567504
 30
0.0
 10
2275.865224795902
 20
97.2053930019481
 30
0.0
 10
2275.865224795902
 20
93.96972912319802
 30
0.0
 10
2275.865224795902
 20
90.73406524444749
 30
0.0
 10
2273.238276252175
 20
88.10711670072078
 30
0.0
 10
2270.002612373425
 20
88.10711670072078
 30
0.0
  0
SPLINE
  5
62
330
1F
100
AcDbEntity
  8
0
  6
Continuous
 62
    18
420
        0
370
     5
100
AcDbSpline
210
0.0
220
0.0
230
1.0
 70
    11
 71
     3
 72
    14
 73
    10
 74
     0
 42
0.000000001
 43
0.0
 40
0.0
 40
0.0
 40
0.0
 40
0.0
 40
1.0
 40
1.0
 40
1.0
 40
2.0
 40
2.0
 40
2.0
 40
3.0
 40
3.0
 40
3.0
 40
3.0
 10
2276.289283537064
 20
87.6821979458814
 30
0.0
 10
2278.439440743013
 20
86.81292586453833
 30
0.0
 10
2279.958067133724
 20
84.70466278350068
 30
0.0
 10
2279.958067133724
 20
82.24450427824354
 30
0.0
 10
2279.958067133724
 20
79.7843457729864
 30
0.0
 10
2278.439440743013
 20
77.67608269194898
 30
0.0
 10
2276.289283537064
 20
76.80681061060591
 30
0.0
 10
2276.289283537064
 20
76.80681061060591
 30
0.0
 10
2276.289283537064
 20
87.6821979458814
 30
0.0
 10
2276.289283537064
 20
87.6821979458814
 30
0.0
  0
SPLINE
  5
63
330
1F
100
AcDbEntity
  8
0
  6
Continuous
 62
    18
420
        0
370
     5
100
AcDbSpline
210
0.0
220
0.0
230
1.0
 70
    11
 71
     3
 72
    14
 73
    10
 74
     0
 42
0.000000001
 43
0.0
 40
0.0
 40
0.0
 40
0.0
 40
0.0
 40
1.0
 40
1.0
 40
1.0
 40
2.0
 40
2.0
 40
2.0
 40
3.0
 40
3.0
 40
3.0
 40
3.0
 10
2276.289283537064
 20
99.40742279083543
 30
0.0
 10
2278.439440743013
 20
98.53815070949236
 30
0.0
 10
2279.958067133725
 20
96.42988762845494
 30
0.0
 10
2279.958067133724
 20
93.9697291231978
 30
0.0
 10
2279.958067133724
 20
91.50957061794065
 30
0.0
 10
2278.439440743013
 20
89.40130753690323
 30
0.0
 10
2276.289283537064
 20
88.53203545556016
 30
0.0
 10
2276.289283537064
 20
88.53203545556016
 30
0.0
 10
2276.289283537064
 20
99.40742279083543
 30
0.0
 10
2276.289283537064
 20
99.40742279083543
 30
0.0
  0
HATCH
  5
64
330
1F
100
AcDbEntity
  8
0
 62
    18
420
        0
440
 33554687
100
AcDbHatch
 10
0.0
 20
0.0
 30
0.0
210
0.0
220
0.0
230
1.0
  2
SOLID
 70
     1
 71
     1
 91
        1
 92
        0
 93
        1
 72
     4
 94
        3
 73
     0
 74
     1
 95
       80
 96
       76
 40
0.0
 40
0.0
 40
0.0
 40
0.0
 40
1.0
 40
1.0
 40
1.0
 40
2.0
 40
2.0
 40
2.0
 40
3.0
 40
3.0
 40
3.0
 40
4.0
 40
4.0
 40
4.0
 40
5.0
 40
5.0
 40
5.0
 40
6.0
 40
6.0
 40
6.0
 40
7.0
 40
7.0
 40
7.0
 40
8.0
 40
8.0
 40
8.0
 40
9.0
 40
9.0
 40
9.0
 40
10.0
 40
10.0
 40
10.0
 40
11.0
 40
11.0
 40
11.0
 40
12.0
 40
12.0
 40
12.0
 40
13.0
 40
13.0
 40
13.0
 40
14.0
 40
14.0
 40
14.0
 40
15.0
 40
15.0
 40
15.0
 40
16.0
 40
16.0
 40
16.0
 40
17.0
 40
17.0
 40
17.0
 40
18.0
 40
18.0
 40
18.0
 40
19.0
 40
19.0
 40
19.0
 40
20.0
 40
20.0
 40
20.0
 40
21.0
 40
21.0
 40
21.0
 40
22.0
 40
22.0
 40
22.0
 40
23.0
 40
23.0
 40
23.0
 40
24.0
 40
24.0
 40
24.0
 40
25.0
 40
25.0
 40
25.0
 40
25.0
 10
2196.802501755277
 20
63.14234648614797
 10
2196.802501755277
 20
63.14234648614797
 10
2198.252681498907
 20
63.14234648614797
 10
2198.252681498907
 20
63.14234648614797
 10
2198.252681498907
 20
63.14234648614797
 10
2198.83799500989
 20
60.68416946262869
 10
2198.83799500989
 20
60.68416946262869
 10
2198.83799500989
 20
60.68416946262869
 10
2198.88167512265
 20
60.47788887324259
 10
2198.88167512265
 20
60.47788887324259
 10
2198.945739288031
 20
60.19711807102226
 10
2198.992331408308
 20
59.96218739977689
 10
2199.021451483482
 20
59.77309685950627
 10
2199.021451483482
 20
59.77309685950627
 10
2199.091339663898
 20
59.77309685950627
 10
2199.091339663898
 20
59.77309685950627
 10
2199.114635724036
 20
59.93353731791785
 10
2199.142299795451
 20
60.08968026405023
 10
2199.174331878141
 20
60.24152569790408
 10
2199.206363960832
 20
60.3933711317577
 10
2199.242764054798
 20
60.54378406151864
 10
2199.283532160041
 20
60.69276448718642
 10
2199.283532160041
 20
60.69276448718642
 10
2199.999886009304
 20
63.14234648614797
 10
2199.999886009304
 20
63.14234648614797
 10
2199.999886009304
 20
63.14234648614797
 10
2201.423857685277
 20
63.14234648614797
 10
2201.423857685277
 20
63.14234648614797
 10
2201.423857685277
 20
63.14234648614797
 10
2202.14021153454
 20
60.69276448718642
 10
2202.14021153454
 20
60.69276448718642
 10
2202.239219790129
 20
60.33177345576064
 10
2202.303283955511
 20
60.0252175798671
 10
2202.332404030684
 20
59.77309685950627
 10
2202.332404030684
 20
59.77309685950627
 10
2202.4022922111
 20
59.77309685950627
 10
2202.4022922111
 20
59.77309685950627
 10
2202.419764256204
 20
59.91061725243026
 10
2202.447428327619
 20
60.06103018219119
 10
2202.485284425344
 20
60.22433564878861
 10
2202.523140523069
 20
60.38764111538603
 10
2202.559540617036
 20
60.5409190533328
 10
2202.594484707243
 20
60.68416946262869
 10
2202.594484707243
 20
60.68416946262869
 10
2203.214742308434
 20
63.14234648614797
 10
2203.214742308434
 20
63.14234648614797
 10
2203.214742308434
 20
63.14234648614797
 10
2204.56008978144
 20
63.14234648614797
 10
2204.56008978144
 20
63.14234648614797
 10
2204.56008978144
 20
63.14234648614797
 10
2203.040021857395
 20
58.58698347053542
 10
2203.040021857395
 20
58.58698347053542
 10
2203.040021857395
 20
58.58698347053542
 10
2201.694674384389
 20
58.58698347053542
 10
2201.694674384389
 20
58.58698347053542
 10
2201.694674384389
 20
58.58698347053542
 10
2200.943376444918
 20
61.06235054317017
 10
2200.943376444918
 20
61.06235054317017
 10
2200.867664249467
 20
61.314471263531
 10
2200.800688076569
 20
61.61529712305264
 10
2200.742447926223
 20
61.96482812173508
 10
2200.742447926223
 20
61.96482812173508
 10
2200.672559745807
 20
61.96482812173508
 10
2200.672559745807
 20
61.96482812173508
 10
2200.631791640564
 20
61.65540723765548
 10
2200.5706394827
 20
61.35458137813407
 10
2200.489103272215
 20
61.06235054317017
 10
2200.489103272215
 20
61.06235054317017
 10
2199.755277377848
 20
58.58698347053542
 10
2199.755277377848
 20
58.58698347053542
 10
2199.755277377848
 20
58.58698347053542
 10
2198.331305701874
 20
58.58698347053542
 10
2198.331305701874
 20
58.58698347053542
 10
2198.331305701874
 20
58.58698347053542
 10
2196.802501755277
 20
63.14234648614797
 10
2196.802501755277
 20
63.14234648614797
 97
        0
 97
        0
 75
     0
 76
     1
 98
        0
  0
HATCH
  5
65
330
1F
100
AcDbEntity
  8
0
 62
    18
420
        0
440
 33554687
100
AcDbHatch
 10
0.0
 20
0.0
 30
0.0
210
0.0
220
0.0
230
1.0
  2
SOLID
 70
     1
 71
     1
 91
        1
 92
        0
 93
        1
 72
     4
 94
        3
 73
     0
 74
     1
 95
       59
 96
       55
 40
0.0
 40
0.0
 40
0.0
 40
0.0
 40
1.0
 40
1.0
 40
1.0
 40
2.0
 40
2.0
 40
2.0
 40
3.0
 40
3.0
 40
3.0
 40
4.0
 40
4.0
 40
4.0
 40
5.0
 40
5.0
 40
5.0
 40
6.0
 40
6.0
 40
6.0
 40
7.0
 40
7.0
 40
7.0
 40
8.0
 40
8.0
 40
8.0
 40
9.0
 40
9.0
 40
9.0
 40
10.0
 40
10.0
 40
10.0
 40
11.0
 40
11.0
 40
11.0
 40
12.0
 40
12.0
 40
12.0
 40
13.0
 40
13.0
 40
13.0
 40
14.0
 40
14.0
 40
14.0
 40
15.0
 40
15.0
 40
15.0
 40
16.0
 40
16.0
 40
16.0
 40
17.0
 40
17.0
 40
17.0
 40
18.0
 40
18.0
 40
18.0
 40
18.0
 10
2204.953210796279
 20
64.78399617668015
 10
2204.953210796279
 20
64.78399617668015
 10
2206.184989976109
 20
64.78399617668015
 10
2206.184989976109
 20
64.78399617668015
 10
2206.184989976109
 20
64.78399617668015
 10
2206.184989976109
 20
62.56647984077813
 10
2206.184989976109
 20
62.56647984077813
 10
2206.184989976109
 20
62.56647984077813
 10
2206.246142133973
 20
62.56647984077813
 10
2206.246142133973
 20
62.56647984077813
 10
2206.368446449701
 20
62.75557038104876
 10
2206.544622904499
 20
62.9188758476464
 10
2206.774671498368
 20
63.05639624057039
 10
2207.004720092237
 20
63.19391663349461
 10
2207.274080787589
 20
63.26267682995672
 10
2207.582753584426
 20
63.26267682995672
 10
2207.879778351194
 20
63.26267682995672
 10
2208.15641906534
 20
63.18532160893687
 10
2208.412675726865
 20
63.03061116689719
 10
2208.66893238839
 20
62.87590072485727
 10
2208.874228918361
 20
62.6653226231922
 10
2209.02856531678
 20
62.39887686190173
 10
2209.182901715198
 20
62.13243110061126
 10
2209.260069914408
 20
61.8359027533686
 10
2209.260069914408
 20
61.50929182017376
 10
2209.260069914408
 20
61.50929182017376
 10
2209.260069914408
 20
58.58698347053542
 10
2209.260069914408
 20
58.58698347053542
 10
2209.260069914408
 20
58.58698347053542
 10
2208.019554712026
 20
58.58698347053542
 10
2208.019554712026
 20
58.58698347053542
 10
2208.019554712026
 20
58.58698347053542
 10
2208.019554712026
 20
61.21706098520986
 10
2208.019554712026
 20
61.21706098520986
 10
2208.019554712026
 20
61.52075185291733
 10
2207.935106494023
 20
61.75998003644168
 10
2207.766210058018
 20
61.93474553578289
 10
2207.597313622013
 20
62.10951103512389
 10
2207.370177035662
 20
62.19689378479438
 10
2207.084800298963
 20
62.19689378479438
 10
2206.811071592334
 20
62.19689378479438
 10
2206.592671028535
 20
62.10807853103097
 10
2206.429598607564
 20
61.93044802350391
 10
2206.266526186594
 20
61.75281751597686
 10
2206.184989976109
 20
61.51502183654543
 10
2206.184989976109
 20
61.21706098520986
 10
2206.184989976109
 20
61.21706098520986
 10
2206.184989976109
 20
58.58698347053542
 10
2206.184989976109
 20
58.58698347053542
 10
2206.184989976109
 20
58.58698347053542
 10
2204.953210796279
 20
58.58698347053542
 10
2204.953210796279
 20
58.58698347053542
 10
2204.953210796279
 20
58.58698347053542
 10
2204.953210796279
 20
64.78399617668015
 10
2204.953210796279
 20
64.78399617668015
 97
        0
 97
        0
 75
     0
 76
     1
 98
        0
  0
HATCH
  5
66
330
1F
100
AcDbEntity
  8
0
 62
    18
420
        0
440
 33554687
100
AcDbHatch
 10
0.0
 20
0.0
 30
0.0
210
0.0
220
0.0
230
1.0
  2
SOLID
 70
     1
 71
     1
 91
        2
 92
        0
 93
        1
 72
     4
 94
        3
 73
     0
 74
     1
 95
       62
 96
       58
 40
0.0
 40
0.0
 40
0.0
 40
0.0
 40
1.0
 40
1.0
 40
1.0
 40
2.0
 40
2.0
 40
2.0
 40
3.0
 40
3.0
 40
3.0
 40
4.0
 40
4.0
 40
4.0
 40
5.0
 40
5.0
 40
5.0
 40
6.0
 40
6.0
 40
6.0
 40
7.0
 40
7.0
 40
7.0
 40
8.0
 40
8.0
 40
8.0
 40
9.0
 40
9.0
 40
9.0
 40
10.0
 40
10.0
 40
10.0
 40
11.0
 40
11.0
 40
11.0
 40
12.0
 40
12.0
 40
12.0
 40
13.0
 40
13.0
 40
13.0
 40
14.0
 40
14.0
 40
14.0
 40
15.0
 40
15.0
 40
15.0
 40
16.0
 40
16.0
 40
16.0
 40
17.0
 40
17.0
 40
17.0
 40
18.0
 40
18.0
 40
18.0
 40
19.0
 40
19.0
 40
19.0
 40
19.0
 10
2211.125534745131
 20
60.44350877501165
 10
2211.154622180984
 20
60.34719670855225
 10
2211.193826277176
 20
60.25408394250985
 10
2211.243147033708
 20
60.16417047688424
 10
2211.342155289297
 20
59.98367496117135
 10
2211.481931650129
 20
59.83612703959648
 10
2211.662476116203
 20
59.72152671215963
 10
2211.843020582277
 20
59.60692638472278
 10
2212.061421146077
 20
59.54962622100447
 10
2212.317677807602
 20
59.54962622100447
 10
2212.544814393954
 20
59.54962622100447
 10
2212.760302950236
 20
59.59689885607213
 10
2212.964143476449
 20
59.69144412620744
 10
2213.167984002662
 20
59.78598939634276
 10
2213.331056423632
 20
59.91348226061632
 10
2213.45336073936
 20
60.07392271902791
 10
2213.45336073936
 20
60.07392271902791
 10
2214.265810836695
 20
59.26599041059831
 10
2214.265810836695
 20
59.26599041059831
 10
2214.056146295447
 20
59.03105973935294
 10
2213.776593573784
 20
58.83910419089625
 10
2213.427152671704
 20
58.69012376522846
 10
2213.077711769625
 20
58.54114333956068
 10
2212.696238784855
 20
58.46665312672667
 10
2212.282733717394
 20
58.46665312672667
 10
2211.799340469518
 20
58.46665312672667
 10
2211.37127536447
 20
58.56836091732703
 10
2210.998538402253
 20
58.77177649852729
 10
2210.625801440035
 20
58.97519207972755
 10
2210.337512695819
 20
59.25739538604057
 10
2210.133672169606
 20
59.61838641746658
 10
2209.929831643393
 20
59.97937744889236
 10
2209.827911380286
 20
60.38334360310705
 10
2209.827911380286
 20
60.83028488011064
 10
2209.827911380286
 20
61.32879630446064
 10
2209.931287647152
 20
61.76141254053459
 10
2210.138040180882
 20
62.12813358833228
 10
2210.344792714612
 20
62.49485463612996
 10
2210.63016945131
 20
62.77562543835029
 10
2210.994170390977
 20
62.97044599499282
 10
2211.358171330643
 20
63.16526655163534
 10
2211.767308386827
 20
63.26267682995672
 10
2212.22158155953
 20
63.26267682995672
 10
2212.670030717199
 20
63.26267682995672
 10
2213.064607735797
 20
63.16669905572826
 10
2213.405312615324
 20
62.9747435072718
 10
2213.746017494852
 20
62.78278795881511
 10
2214.00955417517
 20
62.51204468524566
 10
2214.195922656279
 20
62.16251368656344
 10
2214.382291137388
 20
61.81298268788123
 10
2214.475475377943
 20
61.40901653366655
 10
2214.475475377943
 20
60.95061522391939
 10
2214.475475377943
 20
60.7959047818797
 10
2214.463827347873
 20
60.62686929891015
 10
2214.440531287734
 20
60.44350877501142
 10
2214.440531287734
 20
60.44350877501142
 10
2211.125534745131
 20
60.44350877501165
 10
2211.125534745131
 20
60.44350877501165
 97
        0
 97
        0
 92
        0
 93
        1
 72
     4
 94
        3
 73
     0
 74
     1
 95
       20
 96
       16
 40
0.0
 40
0.0
 40
0.0
 40
0.0
 40
1.0
 40
1.0
 40
1.0
 40
2.0
 40
2.0
 40
2.0
 40
3.0
 40
3.0
 40
3.0
 40
4.0
 40
4.0
 40
4.0
 40
5.0
 40
5.0
 40
5.0
 40
5.0
 10
2211.104044456808
 20
61.3389119677272
 10
2211.104044456808
 20
61.3389119677272
 10
2213.222747951777
 20
61.31575076814374
 10
2213.222747951777
 20
61.31575076814374
 10
2213.194156416193
 20
61.57673168282736
 10
2213.119602954486
 20
61.78592828022624
 10
2212.999087566657
 20
61.9433405603404
 10
2212.830191130652
 20
62.16394619065636
 10
2212.565198446575
 20
62.27424900581423
 10
2212.204109514426
 20
62.27424900581423
 10
2211.854668612347
 20
62.27424900581423
 10
2211.578027898201
 20
62.15821617428446
 10
2211.374187371988
 20
61.92615051122493
 10
2211.239918708897
 20
61.77329010163317
 10
2211.149871070504
 20
61.57754392046718
 10
2211.104044456808
 20
61.3389119677272
 97
        0
 97
        0
 75
     0
 76
     1
 98
        0
  0
HATCH
  5
67
330
1F
100
AcDbEntity
  8
0
 62
    18
420
        0
440
 33554687
100
AcDbHatch
 10
0.0
 20
0.0
 30
0.0
210
0.0
220
0.0
230
1.0
  2
SOLID
 70
     1
 71
     1
 91
        1
 92
        0
 93
        1
 72
     4
 94
        3
 73
     0
 74
     1
 95
       59
 96
       55
 40
0.0
 40
0.0
 40
0.0
 40
0.0
 40
1.0
 40
1.0
 40
1.0
 40
2.0
 40
2.0
 40
2.0
 40
3.0
 40
3.0
 40
3.0
 40
4.0
 40
4.0
 40
4.0
 40
5.0
 40
5.0
 40
5.0
 40
6.0
 40
6.0
 40
6.0
 40
7.0
 40
7.0
 40
7.0
 40
8.0
 40
8.0
 40
8.0
 40
9.0
 40
9.0
 40
9.0
 40
10.0
 40
10.0
 40
10.0
 40
11.0
 40
11.0
 40
11.0
 40
12.0
 40
12.0
 40
12.0
 40
13.0
 40
13.0
 40
13.0
 40
14.0
 40
14.0
 40
14.0
 40
15.0
 40
15.0
 40
15.0
 40
16.0
 40
16.0
 40
16.0
 40
17.0
 40
17.0
 40
17.0
 40
18.0
 40
18.0
 40
18.0
 40
18.0
 10
2215.104469001686
 20
63.14234648614797
 10
2215.104469001686
 20
63.14234648614797
 10
2216.301304091307
 20
63.14234648614797
 10
2216.301304091307
 20
63.14234648614797
 10
2216.301304091307
 20
63.14234648614797
 10
2216.301304091307
 20
62.55788481622017
 10
2216.301304091307
 20
62.55788481622017
 10
2216.301304091307
 20
62.55788481622017
 10
2216.353720226619
 20
62.55788481622017
 10
2216.353720226619
 20
62.55788481622017
 10
2216.481848557381
 20
62.75270537286292
 10
2216.663849027215
 20
62.91744334355326
 10
2216.899721636118
 20
63.05209872829164
 10
2217.135594245022
 20
63.18675411302979
 10
2217.413690962927
 20
63.25408180539876
 10
2217.734011789832
 20
63.25408180539876
 10
2218.0310365566
 20
63.25408180539876
 10
2218.307677270746
 20
63.17672658437891
 10
2218.563933932272
 20
63.02201614233945
 10
2218.820190593796
 20
62.86730570029977
 10
2219.025487123768
 20
62.65672759863469
 10
2219.179823522186
 20
62.39028183734399
 10
2219.334159920605
 20
62.12383607605352
 10
2219.411328119814
 20
61.82730772881087
 10
2219.411328119814
 20
61.5006967956158
 10
2219.411328119814
 20
61.5006967956158
 10
2219.411328119814
 20
58.58698347053542
 10
2219.411328119814
 20
58.58698347053542
 10
2219.411328119814
 20
58.58698347053542
 10
2218.170812917432
 20
58.58698347053542
 10
2218.170812917432
 20
58.58698347053542
 10
2218.170812917432
 20
58.58698347053542
 10
2218.170812917432
 20
61.20846596065212
 10
2218.170812917432
 20
61.20846596065212
 10
2218.170812917432
 20
61.51215682835959
 10
2218.086364699429
 20
61.75138501188371
 10
2217.917468263424
 20
61.92615051122493
 10
2217.748571827419
 20
62.10091601056615
 10
2217.521435241068
 20
62.18829876023665
 10
2217.23605850437
 20
62.18829876023665
 10
2216.962329797741
 20
62.18829876023665
 10
2216.743929233941
 20
62.09948350647301
 10
2216.580856812971
 20
61.92185299894595
 10
2216.417784392001
 20
61.74422249141912
 10
2216.336248181515
 20
61.50642681198769
 10
2216.336248181515
 20
61.20846596065212
 10
2216.336248181515
 20
61.20846596065212
 10
2216.336248181515
 20
58.58698347053542
 10
2216.336248181515
 20
58.58698347053542
 10
2216.336248181515
 20
58.58698347053542
 10
2215.104469001686
 20
58.58698347053542
 10
2215.104469001686
 20
58.58698347053542
 10
2215.104469001686
 20
58.58698347053542
 10
2215.104469001686
 20
63.14234648614797
 10
2215.104469001686
 20
63.14234648614797
 97
        0
 97
        0
 75
     0
 76
     1
 98
        0
  0
HATCH
  5
68
330
1F
100
AcDbEntity
  8
0
 62
    18
420
        0
440
 33554687
100
AcDbHatch
 10
0.0
 20
0.0
 30
0.0
210
0.0
220
0.0
230
1.0
  2
SOLID
 70
     1
 71
     1
 91
        1
 92
        0
 93
        1
 72
     4
 94
        3
 73
     0
 74
     1
 95
       62
 96
       58
 40
0.0
 40
0.0
 40
0.0
 40
0.0
 40
1.0
 40
1.0
 40
1.0
 40
2.0
 40
2.0
 40
2.0
 40
3.0
 40
3.0
 40
3.0
 40
4.0
 40
4.0
 40
4.0
 40
5.0
 40
5.0
 40
5.0
 40
6.0
 40
6.0
 40
6.0
 40
7.0
 40
7.0
 40
7.0
 40
8.0
 40
8.0
 40
8.0
 40
9.0
 40
9.0
 40
9.0
 40
10.0
 40
10.0
 40
10.0
 40
11.0
 40
11.0
 40
11.0
 40
12.0
 40
12.0
 40
12.0
 40
13.0
 40
13.0
 40
13.0
 40
14.0
 40
14.0
 40
14.0
 40
15.0
 40
15.0
 40
15.0
 40
16.0
 40
16.0
 40
16.0
 40
17.0
 40
17.0
 40
17.0
 40
18.0
 40
18.0
 40
18.0
 40
19.0
 40
19.0
 40
19.0
 40
19.0
 10
2222.084551020721
 20
62.05937339187017
 10
2222.084551020721
 20
62.05937339187017
 10
2221.228420810626
 20
62.05937339187017
 10
2221.228420810626
 20
62.05937339187017
 10
2221.228420810626
 20
62.05937339187017
 10
2221.228420810626
 20
63.14234648614797
 10
2221.228420810626
 20
63.14234648614797
 10
2221.228420810626
 20
63.14234648614797
 10
2222.084551020721
 20
63.14234648614797
 10
2222.084551020721
 20
63.14234648614797
 10
2222.084551020721
 20
63.14234648614797
 10
2222.084551020721
 20
64.15655938396367
 10
2222.084551020721
 20
64.15655938396367
 10
2222.084551020721
 20
64.15655938396367
 10
2223.316330200551
 20
64.39722007158093
 10
2223.316330200551
 20
64.39722007158093
 10
2223.316330200551
 20
64.39722007158093
 10
2223.316330200551
 20
63.14234648614797
 10
2223.316330200551
 20
63.14234648614797
 10
2223.316330200551
 20
63.14234648614797
 10
2224.644205628452
 20
63.14234648614797
 10
2224.644205628452
 20
63.14234648614797
 10
2224.644205628452
 20
63.14234648614797
 10
2224.644205628452
 20
62.05937339187017
 10
2224.644205628452
 20
62.05937339187017
 10
2224.644205628452
 20
62.05937339187017
 10
2223.316330200551
 20
62.05937339187017
 10
2223.316330200551
 20
62.05937339187017
 10
2223.316330200551
 20
62.05937339187017
 10
2223.316330200551
 20
60.19425306283642
 10
2223.316330200551
 20
60.19425306283642
 10
2223.316330200551
 20
59.97651244070653
 10
2223.383306373449
 20
59.81320697410911
 10
2223.517258719246
 20
59.70433666304416
 10
2223.651211065043
 20
59.59546635197921
 10
2223.811371478496
 20
59.54103119644674
 10
2223.997739959605
 20
59.54103119644674
 10
2224.2656446512
 20
59.54103119644674
 10
2224.481133207482
 20
59.56681627011994
 10
2224.644205628452
 20
59.61838641746658
 10
2224.644205628452
 20
59.61838641746658
 10
2224.644205628452
 20
58.58698347053542
 10
2224.644205628452
 20
58.58698347053542
 10
2224.492781237551
 20
58.55833338867615
 10
2224.360284895513
 20
58.53827833137484
 10
2224.246716602337
 20
58.52681829863104
 10
2224.133148309161
 20
58.51535826588724
 10
2223.986091929536
 20
58.50962824951557
 10
2223.805547463462
 20
58.50962824951557
 10
2223.298858155447
 20
58.50962824951557
 10
2222.885353087986
 20
58.65001365062562
 10
2222.56503226108
 20
58.93078445284573
 10
2222.244711434174
 20
59.21155525506583
 10
2222.084551020721
 20
59.58687132742125
 10
2222.084551020721
 20
60.05673266991221
 10
2222.084551020721
 20
60.05673266991221
 10
2222.084551020721
 20
62.05937339187017
 10
2222.084551020721
 20
62.05937339187017
 97
        0
 97
        0
 75
     0
 76
     1
 98
        0
  0
HATCH
  5
69
330
1F
100
AcDbEntity
  8
0
 62
    18
420
        0
440
 33554687
100
AcDbHatch
 10
0.0
 20
0.0
 30
0.0
210
0.0
220
0.0
230
1.0
  2
SOLID
 70
     1
 71
     1
 91
        1
 92
        0
 93
        1
 72
     4
 94
        3
 73
     0
 74
     1
 95
       59
 96
       55
 40
0.0
 40
0.0
 40
0.0
 40
0.0
 40
1.0
 40
1.0
 40
1.0
 40
2.0
 40
2.0
 40
2.0
 40
3.0
 40
3.0
 40
3.0
 40
4.0
 40
4.0
 40
4.0
 40
5.0
 40
5.0
 40
5.0
 40
6.0
 40
6.0
 40
6.0
 40
7.0
 40
7.0
 40
7.0
 40
8.0
 40
8.0
 40
8.0
 40
9.0
 40
9.0
 40
9.0
 40
10.0
 40
10.0
 40
10.0
 40
11.0
 40
11.0
 40
11.0
 40
12.0
 40
12.0
 40
12.0
 40
13.0
 40
13.0
 40
13.0
 40
14.0
 40
14.0
 40
14.0
 40
15.0
 40
15.0
 40
15.0
 40
16.0
 40
16.0
 40
16.0
 40
17.0
 40
17.0
 40
17.0
 40
18.0
 40
18.0
 40
18.0
 40
18.0
 10
2225.081006756052
 20
64.78399617668015
 10
2225.081006756052
 20
64.78399617668015
 10
2226.312785935881
 20
64.78399617668015
 10
2226.312785935881
 20
64.78399617668015
 10
2226.312785935881
 20
64.78399617668015
 10
2226.312785935881
 20
62.56647984077813
 10
2226.312785935881
 20
62.56647984077813
 10
2226.312785935881
 20
62.56647984077813
 10
2226.373938093745
 20
62.56647984077813
 10
2226.373938093745
 20
62.56647984077813
 10
2226.496242409473
 20
62.75557038104876
 10
2226.672418864272
 20
62.9188758476464
 10
2226.902467458141
 20
63.05639624057039
 10
2227.13251605201
 20
63.19391663349461
 10
2227.401876747362
 20
63.26267682995672
 10
2227.710549544199
 20
63.26267682995672
 10
2228.007574310966
 20
63.26267682995672
 10
2228.284215025113
 20
63.18532160893687
 10
2228.540471686638
 20
63.03061116689719
 10
2228.796728348162
 20
62.87590072485727
 10
2229.002024878134
 20
62.6653226231922
 10
2229.156361276552
 20
62.39887686190173
 10
2229.310697674971
 20
62.13243110061126
 10
2229.38786587418
 20
61.8359027533686
 10
2229.38786587418
 20
61.50929182017376
 10
2229.38786587418
 20
61.50929182017376
 10
2229.38786587418
 20
58.58698347053542
 10
2229.38786587418
 20
58.58698347053542
 10
2229.38786587418
 20
58.58698347053542
 10
2228.147350671798
 20
58.58698347053542
 10
2228.147350671798
 20
58.58698347053542
 10
2228.147350671798
 20
58.58698347053542
 10
2228.147350671798
 20
61.21706098520986
 10
2228.147350671798
 20
61.21706098520986
 10
2228.147350671798
 20
61.52075185291733
 10
2228.062902453796
 20
61.75998003644168
 10
2227.894006017791
 20
61.93474553578289
 10
2227.725109581786
 20
62.10951103512389
 10
2227.497972995434
 20
62.19689378479438
 10
2227.212596258736
 20
62.19689378479438
 10
2226.938867552107
 20
62.19689378479438
 10
2226.720466988308
 20
62.10807853103097
 10
2226.557394567337
 20
61.93044802350391
 10
2226.394322146367
 20
61.75281751597686
 10
2226.312785935881
 20
61.51502183654543
 10
2226.312785935881
 20
61.21706098520986
 10
2226.312785935881
 20
61.21706098520986
 10
2226.312785935881
 20
58.58698347053542
 10
2226.312785935881
 20
58.58698347053542
 10
2226.312785935881
 20
58.58698347053542
 10
2225.081006756052
 20
58.58698347053542
 10
2225.081006756052
 20
58.58698347053542
 10
2225.081006756052
 20
58.58698347053542
 10
2225.081006756052
 20
64.78399617668015
 10
2225.081006756052
 20
64.78399617668015
 97
        0
 97
        0
 75
     0
 76
     1
 98
        0
  0
HATCH
  5
6A
330
1F
100
AcDbEntity
  8
0
 62
    18
420
        0
440
 33554687
100
AcDbHatch
 10
0.0
 20
0.0
 30
0.0
210
0.0
220
0.0
230
1.0
  2
SOLID
 70
     1
 71
     1
 91
        2
 92
        0
 93
        1
 72
     4
 94
        3
 73
     0
 74
     1
 95
       62
 96
       58
 40
0.0
 40
0.0
 40
0.0
 40
0.0
 40
1.0
 40
1.0
 40
1.0
 40
2.0
 40
2.0
 40
2.0
 40
3.0
 40
3.0
 40
3.0
 40
4.0
 40
4.0
 40
4.0
 40
5.0
 40
5.0
 40
5.0
 40
6.0
 40
6.0
 40
6.0
 40
7.0
 40
7.0
 40
7.0
 40
8.0
 40
8.0
 40
8.0
 40
9.0
 40
9.0
 40
9.0
 40
10.0
 40
10.0
 40
10.0
 40
11.0
 40
11.0
 40
11.0
 40
12.0
 40
12.0
 40
12.0
 40
13.0
 40
13.0
 40
13.0
 40
14.0
 40
14.0
 40
14.0
 40
15.0
 40
15.0
 40
15.0
 40
16.0
 40
16.0
 40
16.0
 40
17.0
 40
17.0
 40
17.0
 40
18.0
 40
18.0
 40
18.0
 40
19.0
 40
19.0
 40
19.0
 40
19.0
 10
2231.253330704903
 20
60.44350877501165
 10
2231.282418140757
 20
60.34719670855225
 10
2231.321622236949
 20
60.25408394250985
 10
2231.370942993481
 20
60.16417047688424
 10
2231.46995124907
 20
59.98367496117135
 10
2231.609727609902
 20
59.83612703959648
 10
2231.790272075976
 20
59.72152671215963
 10
2231.97081654205
 20
59.60692638472278
 10
2232.18921710585
 20
59.54962622100447
 10
2232.445473767375
 20
59.54962622100447
 10
2232.672610353726
 20
59.54962622100447
 10
2232.888098910009
 20
59.59689885607213
 10
2233.091939436222
 20
59.69144412620744
 10
2233.295779962435
 20
59.78598939634276
 10
2233.458852383405
 20
59.91348226061632
 10
2233.581156699133
 20
60.07392271902791
 10
2233.581156699133
 20
60.07392271902791
 10
2234.393606796467
 20
59.26599041059831
 10
2234.393606796467
 20
59.26599041059831
 10
2234.18394225522
 20
59.03105973935294
 10
2233.904389533556
 20
58.83910419089625
 10
2233.554948631477
 20
58.69012376522846
 10
2233.205507729398
 20
58.54114333956068
 10
2232.824034744628
 20
58.46665312672667
 10
2232.410529677167
 20
58.46665312672667
 10
2231.92713642929
 20
58.46665312672667
 10
2231.499071324243
 20
58.56836091732703
 10
2231.126334362025
 20
58.77177649852729
 10
2230.753597399807
 20
58.97519207972755
 10
2230.465308655592
 20
59.25739538604057
 10
2230.261468129378
 20
59.61838641746658
 10
2230.057627603166
 20
59.97937744889236
 10
2229.955707340059
 20
60.38334360310705
 10
2229.955707340059
 20
60.83028488011064
 10
2229.955707340059
 20
61.32879630446064
 10
2230.059083606925
 20
61.76141254053459
 10
2230.265836140654
 20
62.12813358833228
 10
2230.472588674385
 20
62.49485463612996
 10
2230.757965411083
 20
62.77562543835029
 10
2231.121966350749
 20
62.97044599499282
 10
2231.485967290415
 20
63.16526655163534
 10
2231.8951043466
 20
63.26267682995672
 10
2232.349377519303
 20
63.26267682995672
 10
2232.797826676971
 20
63.26267682995672
 10
2233.19240369557
 20
63.16669905572826
 10
2233.533108575097
 20
62.9747435072718
 10
2233.873813454624
 20
62.78278795881511
 10
2234.137350134943
 20
62.51204468524566
 10
2234.323718616051
 20
62.16251368656344
 10
2234.510087097161
 20
61.81298268788123
 10
2234.603271337715
 20
61.40901653366655
 10
2234.603271337715
 20
60.95061522391939
 10
2234.603271337715
 20
60.7959047818797
 10
2234.591623307646
 20
60.62686929891015
 10
2234.568327247507
 20
60.44350877501142
 10
2234.568327247507
 20
60.44350877501142
 10
2231.253330704903
 20
60.44350877501165
 10
2231.253330704903
 20
60.44350877501165
 97
        0
 97
        0
 92
        0
 93
        1
 72
     4
 94
        3
 73
     0
 74
     1
 95
       20
 96
       16
 40
0.0
 40
0.0
 40
0.0
 40
0.0
 40
1.0
 40
1.0
 40
1.0
 40
2.0
 40
2.0
 40
2.0
 40
3.0
 40
3.0
 40
3.0
 40
4.0
 40
4.0
 40
4.0
 40
5.0
 40
5.0
 40
5.0
 40
5.0
 10
2231.231840416581
 20
61.3389119677272
 10
2231.231840416581
 20
61.3389119677272
 10
2233.350543911549
 20
61.31575076814374
 10
2233.350543911549
 20
61.31575076814374
 10
2233.321952375965
 20
61.57673168282736
 10
2233.247398914259
 20
61.78592828022624
 10
2233.12688352643
 20
61.9433405603404
 10
2232.957987090424
 20
62.16394619065636
 10
2232.692994406348
 20
62.27424900581423
 10
2232.331905474199
 20
62.27424900581423
 10
2231.98246457212
 20
62.27424900581423
 10
2231.705823857973
 20
62.15821617428446
 10
2231.501983331761
 20
61.92615051122493
 10
2231.36771466867
 20
61.77329010163317
 10
2231.277667030276
 20
61.57754392046718
 10
2231.231840416581
 20
61.3389119677272
 97
        0
 97
        0
 75
     0
 76
     1
 98
        0
  0
HATCH
  5
6B
330
1F
100
AcDbEntity
  8
0
 62
    18
420
        0
440
 33554687
100
AcDbHatch
 10
0.0
 20
0.0
 30
0.0
210
0.0
220
0.0
230
1.0
  2
SOLID
 70
     1
 71
     1
 91
        2
 92
        0
 93
        4
 72
     1
 10
2238.875186365637
 20
62.37738930050728
 11
2238.875186365637
 21
64.7066409556603
 72
     1
 10
2238.875186365637
 20
64.7066409556603
 11
2239.923509071875
 21
64.7066409556603
 72
     1
 10
2239.923509071875
 20
64.7066409556603
 11
2239.923509071875
 21
62.37738930050728
 72
     1
 10
2239.923509071875
 20
62.37738930050728
 11
2238.875186365637
 21
62.37738930050728
 97
        0
 92
        0
 93
        4
 72
     1
 10
2240.47387849265
 20
62.37738930050728
 11
2240.47387849265
 21
64.7066409556603
 72
     1
 10
2240.47387849265
 20
64.7066409556603
 11
2241.522201198889
 21
64.7066409556603
 72
     1
 10
2241.522201198889
 20
64.7066409556603
 11
2241.522201198889
 21
62.37738930050728
 72
     1
 10
2241.522201198889
 20
62.37738930050728
 11
2240.47387849265
 21
62.37738930050728
 97
        0
 75
     0
 76
     1
 98
        0
  0
HATCH
  5
6C
330
1F
100
AcDbEntity
  8
0
 62
    18
420
        0
440
 33554687
100
AcDbHatch
 10
0.0
 20
0.0
 30
0.0
210
0.0
220
0.0
230
1.0
  2
SOLID
 70
     1
 71
     1
 91
        2
 92
        0
 93
        4
 72
     1
 10
2252.529589614389
 20
62.37738930050728
 11
2252.529589614389
 21
64.7066409556603
 72
     1
 10
2252.529589614389
 20
64.7066409556603
 11
2253.577912320628
 21
64.7066409556603
 72
     1
 10
2253.577912320628
 20
64.7066409556603
 11
2253.577912320628
 21
62.37738930050728
 72
     1
 10
2253.577912320628
 20
62.37738930050728
 11
2252.529589614389
 21
62.37738930050728
 97
        0
 92
        0
 93
        4
 72
     1
 10
2254.128281741403
 20
62.37738930050728
 11
2254.128281741403
 21
64.7066409556603
 72
     1
 10
2254.128281741403
 20
64.7066409556603
 11
2255.176604447641
 21
64.7066409556603
 72
     1
 10
2255.176604447641
 20
64.7066409556603
 11
2255.176604447641
 21
62.37738930050728
 72
     1
 10
2255.176604447641
 20
62.37738930050728
 11
2254.128281741403
 21
62.37738930050728
 97
        0
 75
     0
 76
     1
 98
        0
  0
HATCH
  5
6D
330
1F
100
AcDbEntity
  8
0
 62
    18
420
        0
440
 33554687
100
AcDbHatch
 10
0.0
 20
0.0
 30
0.0
210
0.0
220
0.0
230
1.0
  2
SOLID
 70
     1
 71
     1
 91
        2
 92
        0
 93
        1
 72
     4
 94
        3
 73
     0
 74
     1
 95
       89
 96
       85
 40
0.0
 40
0.0
 40
0.0
 40
0.0
 40
1.0
 40
1.0
 40
1.0
 40
2.0
 40
2.0
 40
2.0
 40
3.0
 40
3.0
 40
3.0
 40
4.0
 40
4.0
 40
4.0
 40
5.0
 40
5.0
 40
5.0
 40
6.0
 40
6.0
 40
6.0
 40
7.0
 40
7.0
 40
7.0
 40
8.0
 40
8.0
 40
8.0
 40
9.0
 40
9.0
 40
9.0
 40
10.0
 40
10.0
 40
10.0
 40
11.0
 40
11.0
 40
11.0
 40
12.0
 40
12.0
 40
12.0
 40
13.0
 40
13.0
 40
13.0
 40
14.0
 40
14.0
 40
14.0
 40
15.0
 40
15.0
 40
15.0
 40
16.0
 40
16.0
 40
16.0
 40
17.0
 40
17.0
 40
17.0
 40
18.0
 40
18.0
 40
18.0
 40
19.0
 40
19.0
 40
19.0
 40
20.0
 40
20.0
 40
20.0
 40
21.0
 40
21.0
 40
21.0
 40
22.0
 40
22.0
 40
22.0
 40
23.0
 40
23.0
 40
23.0
 40
24.0
 40
24.0
 40
24.0
 40
25.0
 40
25.0
 40
25.0
 40
26.0
 40
26.0
 40
26.0
 40
27.0
 40
27.0
 40
27.0
 40
28.0
 40
28.0
 40
28.0
 40
28.0
 10
2261.99943806074
 20
56.49839250299965
 10
2261.632525113557
 20
56.49839250299965
 10
2261.312204286651
 20
56.52990759304498
 10
2261.038475580022
 20
56.59293777313519
 10
2260.764746873393
 20
56.6559679532254
 10
2260.508490211868
 20
56.77629829703392
 10
2260.269705595448
 20
56.95392880456097
 10
2260.030920979027
 20
57.13155931208803
 10
2259.806696400192
 20
57.38654504063493
 10
2259.597031858945
 20
57.71888599020144
 10
2259.597031858945
 20
57.71888599020144
 10
2260.619146497527
 20
58.41508297938003
 10
2260.619146497527
 20
58.41508297938003
 10
2260.758922858358
 20
58.14577220990373
 10
2260.93218730564
 20
57.94808664507514
 10
2261.13893983937
 20
57.82202628489472
 10
2261.3456923731
 20
57.6959659247143
 10
2261.61796507597
 20
57.63293574462409
 10
2261.955757947981
 20
57.63293574462409
 10
2262.177070519298
 20
57.63293574462409
 10
2262.382367049269
 20
57.68164088378467
 10
2262.571647537895
 20
57.77905116210582
 10
2262.760928026522
 20
57.87646144042719
 10
2262.912352417423
 20
58.01541433744433
 10
2263.025920710599
 20
58.19590985315722
 10
2263.139489003775
 20
58.37640536887034
 10
2263.196273150362
 20
58.58984847872125
 10
2263.196273150362
 20
58.83623918271041
 10
2263.196273150362
 20
58.83623918271041
 10
2263.196273150362
 20
59.25739538604057
 10
2263.196273150362
 20
59.25739538604057
 10
2263.196273150362
 20
59.25739538604057
 10
2263.14385701505
 20
59.25739538604057
 10
2263.14385701505
 20
59.25739538604057
 10
2263.056496789531
 20
59.02246471479521
 10
2262.880320334732
 20
58.83194167043143
 10
2262.615327650655
 20
58.68582625294948
 10
2262.350334966578
 20
58.53971083546776
 10
2262.060590218604
 20
58.46665312672667
 10
2261.746093406733
 20
58.46665312672667
 10
2261.303468264099
 20
58.46665312672667
 10
2260.907435241742
 20
58.57695594188453
 10
2260.557994339663
 20
58.79756157220049
 10
2260.208553437584
 20
59.01816720251622
 10
2259.936280734713
 20
59.31183054157304
 10
2259.741176231052
 20
59.67855158937095
 10
2259.546071727391
 20
60.04527263716864
 10
2259.448519475561
 20
60.44064376682559
 10
2259.448519475561
 20
60.86466497834158
 10
2259.448519475561
 20
61.2886861898578
 10
2259.546071727391
 20
61.68405731951475
 10
2259.741176231052
 20
62.05077836731243
 10
2259.936280734713
 20
62.41749941511011
 10
2260.208553437584
 20
62.71116275416716
 10
2260.557994339663
 20
62.93176838448289
 10
2260.907435241742
 20
63.15237401479885
 10
2261.303468264099
 20
63.26267682995672
 10
2261.746093406733
 20
63.26267682995672
 10
2262.078062263708
 20
63.26267682995672
 10
2262.377999037993
 20
63.18961912121563
 10
2262.645903729587
 20
63.04350370373368
 10
2262.913808421181
 20
62.89738828625195
 10
2263.091440879738
 20
62.70113522551628
 10
2263.178801105258
 20
62.45474452152712
 10
2263.178801105258
 20
62.45474452152712
 10
2263.239953263122
 20
62.45474452152712
 10
2263.239953263122
 20
62.45474452152712
 10
2263.239953263122
 20
62.45474452152712
 10
2263.239953263122
 20
63.14234648614797
 10
2263.239953263122
 20
63.14234648614797
 10
2263.239953263122
 20
63.14234648614797
 10
2264.436788352744
 20
63.14234648614797
 10
2264.436788352744
 20
63.14234648614797
 10
2264.436788352744
 20
63.14234648614797
 10
2264.436788352744
 20
58.76747898624831
 10
2264.436788352744
 20
58.76747898624831
 10
2264.436788352744
 20
58.30334766012925
 10
2264.324676063327
 20
57.89938150591456
 10
2264.100451484493
 20
57.55558052360425
 10
2263.876226905658
 20
57.21177954129371
 10
2263.577746135133
 20
56.94963129228199
 10
2263.205009172914
 20
56.7691357765691
 10
2262.832272210696
 20
56.58864026085621
 10
2262.430415173305
 20
56.49839250299965
 10
2261.99943806074
 20
56.49839250299965
 97
        0
 97
        0
 92
        0
 93
        1
 72
     4
 94
        3
 73
     0
 74
     1
 95
       38
 96
       34
 40
0.0
 40
0.0
 40
0.0
 40
0.0
 40
1.0
 40
1.0
 40
1.0
 40
2.0
 40
2.0
 40
2.0
 40
3.0
 40
3.0
 40
3.0
 40
4.0
 40
4.0
 40
4.0
 40
5.0
 40
5.0
 40
5.0
 40
6.0
 40
6.0
 40
6.0
 40
7.0
 40
7.0
 40
7.0
 40
8.0
 40
8.0
 40
8.0
 40
9.0
 40
9.0
 40
9.0
 40
10.0
 40
10.0
 40
10.0
 40
11.0
 40
11.0
 40
11.0
 40
11.0
 10
2261.947021925429
 20
59.58400631923541
 10
2262.308110857577
 20
59.58400631923541
 10
2262.606591628103
 20
59.70576916713708
 10
2262.842464237007
 20
59.94929486294018
 10
2263.078336845911
 20
60.19282055874351
 10
2263.196273150362
 20
60.4979439305439
 10
2263.196273150362
 20
60.86466497834158
 10
2263.196273150362
 20
61.11105568233074
 10
2263.142401011292
 20
61.3316613126467
 10
2263.03465673315
 20
61.52648186928923
 10
2262.92691245501
 20
61.72130242593175
 10
2262.778400071626
 20
61.87458036387852
 10
2262.589119583
 20
61.98631568312931
 10
2262.399839094373
 20
62.09805100238032
 10
2262.18580654185
 20
62.15391866200571
 10
2261.947021925429
 20
62.15391866200571
 10
2261.708237309007
 20
62.15391866200571
 10
2261.492748752725
 20
62.09805100238032
 10
2261.300556256582
 20
61.98631568312931
 10
2261.108363760438
 20
61.87458036387852
 10
2260.958395373296
 20
61.72130242593175
 10
2260.850651095154
 20
61.52648186928923
 10
2260.742906817013
 20
61.3316613126467
 10
2260.689034677943
 20
61.11392069051681
 10
2260.689034677943
 20
60.87326000289954
 10
2260.689034677943
 20
60.63259931528228
 10
2260.742906817013
 20
60.41342618905924
 10
2260.850651095154
 20
60.21574062423088
 10
2260.958395373296
 20
60.01805505940229
 10
2261.108363760438
 20
59.86334461736283
 10
2261.300556256582
 20
59.75160929811182
 10
2261.492748752725
 20
59.63987397886081
 10
2261.708237309007
 20
59.58400631923541
 10
2261.947021925429
 20
59.58400631923541
 97
        0
 97
        0
 75
     0
 76
     1
 98
        0
  0
HATCH
  5
6E
330
1F
100
AcDbEntity
  8
0
 62
    18
420
        0
440
 33554687
100
AcDbHatch
 10
0.0
 20
0.0
 30
0.0
210
0.0
220
0.0
230
1.0
  2
SOLID
 70
     1
 71
     1
 91
        2
 92
        0
 93
        1
 72
     4
 94
        3
 73
     0
 74
     1
 95
       41
 96
       37
 40
0.0
 40
0.0
 40
0.0
 40
0.0
 40
1.0
 40
1.0
 40
1.0
 40
2.0
 40
2.0
 40
2.0
 40
3.0
 40
3.0
 40
3.0
 40
4.0
 40
4.0
 40
4.0
 40
5.0
 40
5.0
 40
5.0
 40
6.0
 40
6.0
 40
6.0
 40
7.0
 40
7.0
 40
7.0
 40
8.0
 40
8.0
 40
8.0
 40
9.0
 40
9.0
 40
9.0
 40
10.0
 40
10.0
 40
10.0
 40
11.0
 40
11.0
 40
11.0
 40
12.0
 40
12.0
 40
12.0
 40
12.0
 10
2267.511868291044
 20
58.46665312672667
 10
2267.051771103306
 20
58.46665312672667
 10
2266.635354028328
 20
58.57122592551286
 10
2266.26261706611
 20
58.7803715230848
 10
2265.889880103892
 20
58.98951712065718
 10
2265.5972233484
 20
59.2774504433421
 10
2265.384646799635
 20
59.64417149113979
 10
2265.172070250871
 20
60.01089253893747
 10
2265.065781976488
 20
60.41772370133822
 10
2265.065781976488
 20
60.86466497834158
 10
2265.065781976488
 20
61.31160625534517
 10
2265.172070250871
 20
61.71843741774569
 10
2265.384646799635
 20
62.0851584655436
 10
2265.5972233484
 20
62.45187951334128
 10
2265.889880103892
 20
62.7398128360262
 10
2266.26261706611
 20
62.94895843359836
 10
2266.635354028328
 20
63.15810403117052
 10
2267.051771103306
 20
63.26267682995672
 10
2267.511868291044
 20
63.26267682995672
 10
2267.971965478782
 20
63.26267682995672
 10
2268.389838557518
 20
63.15810403117052
 10
2268.765487527253
 20
62.94895843359836
 10
2269.141136496989
 20
62.7398128360262
 10
2269.435249256239
 20
62.45187951334128
 10
2269.647825805004
 20
62.0851584655436
 10
2269.860402353769
 20
61.71843741774569
 10
2269.966690628151
 20
61.31160625534517
 10
2269.966690628151
 20
60.86466497834158
 10
2269.966690628151
 20
60.41772370133822
 10
2269.860402353769
 20
60.01089253893747
 10
2269.647825805004
 20
59.64417149113979
 10
2269.435249256239
 20
59.2774504433421
 10
2269.141136496989
 20
58.98951712065718
 10
2268.765487527253
 20
58.7803715230848
 10
2268.389838557518
 20
58.57122592551286
 10
2267.971965478782
 20
58.46665312672667
 10
2267.511868291044
 20
58.46665312672667
 97
        0
 97
        0
 92
        0
 93
        1
 72
     4
 94
        3
 73
     0
 74
     1
 95
       38
 96
       34
 40
0.0
 40
0.0
 40
0.0
 40
0.0
 40
1.0
 40
1.0
 40
1.0
 40
2.0
 40
2.0
 40
2.0
 40
3.0
 40
3.0
 40
3.0
 40
4.0
 40
4.0
 40
4.0
 40
5.0
 40
5.0
 40
5.0
 40
6.0
 40
6.0
 40
6.0
 40
7.0
 40
7.0
 40
7.0
 40
8.0
 40
8.0
 40
8.0
 40
9.0
 40
9.0
 40
9.0
 40
10.0
 40
10.0
 40
10.0
 40
11.0
 40
11.0
 40
11.0
 40
11.0
 10
2267.511868291044
 20
59.58400631923541
 10
2267.74482889243
 20
59.58400631923541
 10
2267.953037429919
 20
59.63557646658205
 10
2268.136493903511
 20
59.7387167612751
 10
2268.319950377102
 20
59.84185705596815
 10
2268.46409474921
 20
59.99083748163594
 10
2268.568927019834
 20
60.18565803827869
 10
2268.673759290458
 20
60.38047859492121
 10
2268.72617542577
 20
60.60681424160884
 10
2268.72617542577
 20
60.86466497834158
 10
2268.72617542577
 20
61.12251571507431
 10
2268.673759290458
 20
61.34885136176217
 10
2268.568927019834
 20
61.5436719184047
 10
2268.46409474921
 20
61.73849247504722
 10
2268.319950377102
 20
61.88890540480793
 10
2268.136493903511
 20
61.99491070768704
 10
2267.953037429919
 20
62.10091601056615
 10
2267.74482889243
 20
62.15391866200571
 10
2267.511868291044
 20
62.15391866200571
 10
2267.162427388964
 20
62.15391866200571
 10
2266.874138644749
 20
62.0364533263828
 10
2266.647002058397
 20
61.80152265513743
 10
2266.419865472046
 20
61.56659198389207
 10
2266.30629717887
 20
61.25430609162686
 10
2266.30629717887
 20
60.86466497834158
 10
2266.30629717887
 20
60.60681424160884
 10
2266.358713314181
 20
60.38047859492121
 10
2266.463545584806
 20
60.18565803827869
 10
2266.568377855429
 20
59.99083748163594
 10
2266.711066223778
 20
59.84185705596815
 10
2266.891610689853
 20
59.7387167612751
 10
2267.072155155927
 20
59.63557646658205
 10
2267.278907689657
 20
59.58400631923541
 10
2267.511868291044
 20
59.58400631923541
 97
        0
 97
        0
 75
     0
 76
     1
 98
        0
  0
HATCH
  5
6F
330
1F
100
AcDbEntity
  8
0
 62
    18
420
        0
440
 33554687
100
AcDbHatch
 10
0.0
 20
0.0
 30
0.0
210
0.0
220
0.0
230
1.0
  2
SOLID
 70
     1
 71
     1
 91
        2
 92
        0
 93
        1
 72
     4
 94
        3
 73
     0
 74
     1
 95
       62
 96
       58
 40
0.0
 40
0.0
 40
0.0
 40
0.0
 40
1.0
 40
1.0
 40
1.0
 40
2.0
 40
2.0
 40
2.0
 40
3.0
 40
3.0
 40
3.0
 40
4.0
 40
4.0
 40
4.0
 40
5.0
 40
5.0
 40
5.0
 40
6.0
 40
6.0
 40
6.0
 40
7.0
 40
7.0
 40
7.0
 40
8.0
 40
8.0
 40
8.0
 40
9.0
 40
9.0
 40
9.0
 40
10.0
 40
10.0
 40
10.0
 40
11.0
 40
11.0
 40
11.0
 40
12.0
 40
12.0
 40
12.0
 40
13.0
 40
13.0
 40
13.0
 40
14.0
 40
14.0
 40
14.0
 40
15.0
 40
15.0
 40
15.0
 40
16.0
 40
16.0
 40
16.0
 40
17.0
 40
17.0
 40
17.0
 40
18.0
 40
18.0
 40
18.0
 40
19.0
 40
19.0
 40
19.0
 40
19.0
 10
2271.552602737211
 20
60.44350877501165
 10
2271.581690173064
 20
60.34719670855225
 10
2271.620894269256
 20
60.25408394250985
 10
2271.670215025788
 20
60.16417047688424
 10
2271.769223281377
 20
59.98367496117135
 10
2271.908999642209
 20
59.83612703959648
 10
2272.089544108283
 20
59.72152671215963
 10
2272.270088574357
 20
59.60692638472278
 10
2272.488489138158
 20
59.54962622100447
 10
2272.744745799682
 20
59.54962622100447
 10
2272.971882386034
 20
59.54962622100447
 10
2273.187370942316
 20
59.59689885607213
 10
2273.391211468529
 20
59.69144412620744
 10
2273.595051994742
 20
59.78598939634276
 10
2273.758124415713
 20
59.91348226061632
 10
2273.880428731441
 20
60.07392271902791
 10
2273.880428731441
 20
60.07392271902791
 10
2274.692878828775
 20
59.26599041059831
 10
2274.692878828775
 20
59.26599041059831
 10
2274.483214287528
 20
59.03105973935294
 10
2274.203661565864
 20
58.83910419089625
 10
2273.854220663784
 20
58.69012376522846
 10
2273.504779761705
 20
58.54114333956068
 10
2273.123306776935
 20
58.46665312672667
 10
2272.709801709475
 20
58.46665312672667
 10
2272.226408461598
 20
58.46665312672667
 10
2271.798343356551
 20
58.56836091732703
 10
2271.425606394333
 20
58.77177649852729
 10
2271.052869432115
 20
58.97519207972755
 10
2270.764580687899
 20
59.25739538604057
 10
2270.560740161686
 20
59.61838641746658
 10
2270.356899635473
 20
59.97937744889236
 10
2270.254979372367
 20
60.38334360310705
 10
2270.254979372367
 20
60.83028488011064
 10
2270.254979372367
 20
61.32879630446064
 10
2270.358355639232
 20
61.76141254053459
 10
2270.565108172962
 20
62.12813358833228
 10
2270.771860706693
 20
62.49485463612996
 10
2271.05723744339
 20
62.77562543835029
 10
2271.421238383057
 20
62.97044599499282
 10
2271.785239322723
 20
63.16526655163534
 10
2272.194376378907
 20
63.26267682995672
 10
2272.648649551611
 20
63.26267682995672
 10
2273.097098709279
 20
63.26267682995672
 10
2273.491675727877
 20
63.16669905572826
 10
2273.832380607405
 20
62.9747435072718
 10
2274.173085486932
 20
62.78278795881511
 10
2274.43662216725
 20
62.51204468524566
 10
2274.622990648359
 20
62.16251368656344
 10
2274.809359129468
 20
61.81298268788123
 10
2274.902543370023
 20
61.40901653366655
 10
2274.902543370023
 20
60.95061522391939
 10
2274.902543370023
 20
60.7959047818797
 10
2274.890895339954
 20
60.62686929891015
 10
2274.867599279815
 20
60.44350877501142
 10
2274.867599279815
 20
60.44350877501142
 10
2271.552602737211
 20
60.44350877501165
 10
2271.552602737211
 20
60.44350877501165
 97
        0
 97
        0
 92
        0
 93
        1
 72
     4
 94
        3
 73
     0
 74
     1
 95
       20
 96
       16
 40
0.0
 40
0.0
 40
0.0
 40
0.0
 40
1.0
 40
1.0
 40
1.0
 40
2.0
 40
2.0
 40
2.0
 40
3.0
 40
3.0
 40
3.0
 40
4.0
 40
4.0
 40
4.0
 40
5.0
 40
5.0
 40
5.0
 40
5.0
 10
2271.531112448889
 20
61.3389119677272
 10
2271.531112448889
 20
61.3389119677272
 10
2273.649815943857
 20
61.31575076814374
 10
2273.649815943857
 20
61.31575076814374
 10
2273.621224408273
 20
61.57673168282736
 10
2273.546670946566
 20
61.78592828022624
 10
2273.426155558737
 20
61.9433405603404
 10
2273.257259122732
 20
62.16394619065636
 10
2272.992266438655
 20
62.27424900581423
 10
2272.631177506507
 20
62.27424900581423
 10
2272.281736604427
 20
62.27424900581423
 10
2272.005095890281
 20
62.15821617428446
 10
2271.801255364068
 20
61.92615051122493
 10
2271.666986700977
 20
61.77329010163317
 10
2271.576939062584
 20
61.57754392046718
 10
2271.531112448889
 20
61.3389119677272
 97
        0
 97
        0
 75
     0
 76
     1
 98
        0
  0
HATCH
  5
70
330
1F
100
AcDbEntity
  8
0
 62
    18
420
        0
440
 33554687
100
AcDbHatch
 10
0.0
 20
0.0
 30
0.0
210
0.0
220
0.0
230
1.0
  2
SOLID
 70
     1
 71
     1
 91
        1
 92
        0
 93
        1
 72
     4
 94
        3
 73
     0
 74
     1
 95
       92
 96
       88
 40
0.0
 40
0.0
 40
0.0
 40
0.0
 40
1.0
 40
1.0
 40
1.0
 40
2.0
 40
2.0
 40
2.0
 40
3.0
 40
3.0
 40
3.0
 40
4.0
 40
4.0
 40
4.0
 40
5.0
 40
5.0
 40
5.0
 40
6.0
 40
6.0
 40
6.0
 40
7.0
 40
7.0
 40
7.0
 40
8.0
 40
8.0
 40
8.0
 40
9.0
 40
9.0
 40
9.0
 40
10.0
 40
10.0
 40
10.0
 40
11.0
 40
11.0
 40
11.0
 40
12.0
 40
12.0
 40
12.0
 40
13.0
 40
13.0
 40
13.0
 40
14.0
 40
14.0
 40
14.0
 40
15.0
 40
15.0
 40
15.0
 40
16.0
 40
16.0
 40
16.0
 40
17.0
 40
17.0
 40
17.0
 40
18.0
 40
18.0
 40
18.0
 40
19.0
 40
19.0
 40
19.0
 40
20.0
 40
20.0
 40
20.0
 40
21.0
 40
21.0
 40
21.0
 40
22.0
 40
22.0
 40
22.0
 40
23.0
 40
23.0
 40
23.0
 40
24.0
 40
24.0
 40
24.0
 40
25.0
 40
25.0
 40
25.0
 40
26.0
 40
26.0
 40
26.0
 40
27.0
 40
27.0
 40
27.0
 40
28.0
 40
28.0
 40
28.0
 40
29.0
 40
29.0
 40
29.0
 40
29.0
 10
2277.051604917811
 20
58.46665312672667
 10
2276.626451820281
 20
58.46665312672667
 10
2276.25662686558
 20
58.53111581091002
 10
2275.942130053709
 20
58.66004117927628
 10
2275.627633241837
 20
58.78896654764276
 10
2275.327696467553
 20
58.9909496247501
 10
2275.042319730855
 20
59.26599041059831
 10
2275.042319730855
 20
59.26599041059831
 10
2275.819825737981
 20
60.05673266991221
 10
2275.819825737981
 20
60.05673266991221
 10
2276.012018234125
 20
59.86191211326968
 10
2276.201298722751
 20
59.71579669578773
 10
2276.38766720386
 20
59.61838641746658
 10
2276.574035684969
 20
59.5209761391452
 10
2276.780788218699
 20
59.47227099998463
 10
2277.007924805051
 20
59.47227099998463
 10
2277.211765331264
 20
59.47227099998463
 10
2277.371925744717
 20
59.50808360230872
 10
2277.488406045411
 20
59.57970880695643
 10
2277.604886346103
 20
59.6513340116046
 10
2277.66312649645
 20
59.75017679401867
 10
2277.66312649645
 20
59.87623715419932
 10
2277.66312649645
 20
60.00229751437973
 10
2277.603430342345
 20
60.09970779270111
 10
2277.484038034134
 20
60.16846798916299
 10
2277.364645725924
 20
60.23722818562533
 10
2277.153525180917
 20
60.30312337390137
 10
2276.850676399115
 20
60.36615355399158
 10
2276.326515045997
 20
60.46356383231296
 10
2275.936306038675
 20
60.62686929891015
 10
2275.680049377149
 20
60.85606995378384
 10
2275.423792715625
 20
61.08527060865754
 10
2275.295664384862
 20
61.40901653366655
 10
2275.295664384862
 20
61.82730772881087
 10
2275.295664384862
 20
62.0794284491717
 10
2275.367008569036
 20
62.31579162451021
 10
2275.509696937386
 20
62.53639725482594
 10
2275.652385305735
 20
62.75700288514167
 10
2275.859137839465
 20
62.93320088857581
 10
2276.129954538577
 20
63.06499126512813
 10
2276.400771237688
 20
63.19678164168045
 10
2276.722548068353
 20
63.26267682995672
 10
2277.095285030571
 20
63.26267682995672
 10
2277.53208615817
 20
63.26267682995672
 10
2277.877159048974
 20
63.19534913758753
 10
2278.130503702981
 20
63.06069375284915
 10
2278.383848356988
 20
62.92603836811099
 10
2278.629912992203
 20
62.71546026644592
 10
2278.868697608624
 20
62.42895944785391
 10
2278.868697608624
 20
62.42895944785391
 10
2277.977623308321
 20
61.74995250779102
 10
2277.977623308321
 20
61.74995250779102
 10
2277.849494977559
 20
61.93904304806165
 10
2277.716998635521
 20
62.0736984327998
 10
2277.580134282206
 20
62.15391866200571
 10
2277.443269928892
 20
62.23413889121139
 10
2277.28165351168
 20
62.27424900581423
 10
2277.095285030571
 20
62.27424900581423
 10
2276.920564579531
 20
62.27424900581423
 10
2276.77933221494
 20
62.23413889121139
 10
2276.6715879368
 20
62.15391866200571
 10
2276.563843658659
 20
62.0736984327998
 10
2276.509971519588
 20
61.97915316266449
 10
2276.509971519588
 20
61.87028285159954
 10
2276.509971519588
 20
61.76141254053459
 10
2276.563843658659
 20
61.6740297908641
 10
2276.6715879368
 20
61.60813460258782
 10
2276.77933221494
 20
61.54223941431178
 10
2276.952596662222
 20
61.48064173831449
 10
2277.191381278642
 20
61.42334157459595
 10
2277.604886346103
 20
61.3316613126467
 10
2277.932487191803
 20
61.22852101795365
 10
2278.174183815741
 20
61.11392069051681
 10
2278.415880439679
 20
60.99932036307996
 10
2278.594968901995
 20
60.85177244150509
 10
2278.711449202688
 20
60.67127692579197
 10
2278.827929503381
 20
60.49078141007908
 10
2278.886169653728
 20
60.25728324292663
 10
2278.886169653728
 20
59.97078242433463
 10
2278.886169653728
 20
59.67282157299906
 10
2278.809001454519
 20
59.41067332398734
 10
2278.6546650561
 20
59.18433767729948
 10
2278.500328657682
 20
58.95800203061185
 10
2278.283384097641
 20
58.78180402717794
 10
2278.003831375977
 20
58.6557436669973
 10
2277.724278654314
 20
58.52968330681688
 10
2277.406869834925
 20
58.46665312672667
 10
2277.051604917811
 20
58.46665312672667
 97
        0
 97
        0
 75
     0
 76
     1
 98
        0
  0
HATCH
  5
71
330
1F
100
AcDbEntity
  8
0
 62
    18
420
        0
440
 33554687
100
AcDbHatch
 10
0.0
 20
0.0
 30
0.0
210
0.0
220
0.0
230
1.0
  2
SOLID
 70
     1
 71
     1
 91
        2
 92
        0
 93
        1
 72
     4
 94
        3
 73
     0
 74
     1
 95
       56
 96
       52
 40
0.0
 40
0.0
 40
0.0
 40
0.0
 40
1.0
 40
1.0
 40
1.0
 40
2.0
 40
2.0
 40
2.0
 40
3.0
 40
3.0
 40
3.0
 40
4.0
 40
4.0
 40
4.0
 40
5.0
 40
5.0
 40
5.0
 40
6.0
 40
6.0
 40
6.0
 40
7.0
 40
7.0
 40
7.0
 40
8.0
 40
8.0
 40
8.0
 40
9.0
 40
9.0
 40
9.0
 40
10.0
 40
10.0
 40
10.0
 40
11.0
 40
11.0
 40
11.0
 40
12.0
 40
12.0
 40
12.0
 40
13.0
 40
13.0
 40
13.0
 40
14.0
 40
14.0
 40
14.0
 40
15.0
 40
15.0
 40
15.0
 40
16.0
 40
16.0
 40
16.0
 40
17.0
 40
17.0
 40
17.0
 40
17.0
 10
2287.831856746959
 20
58.46665312672667
 10
2287.499887889984
 20
58.46665312672667
 10
2287.19849511194
 20
58.53971083546776
 10
2286.927678412829
 20
58.68582625294948
 10
2286.656861713717
 20
58.83194167043143
 10
2286.477773251402
 20
59.02246471479521
 10
2286.390413025882
 20
59.25739538604057
 10
2286.390413025882
 20
59.25739538604057
 10
2286.33799689057
 20
59.25739538604057
 10
2286.33799689057
 20
59.25739538604057
 10
2286.33799689057
 20
59.25739538604057
 10
2286.33799689057
 20
58.58698347053542
 10
2286.33799689057
 20
58.58698347053542
 10
2286.33799689057
 20
58.58698347053542
 10
2285.141161800948
 20
58.58698347053542
 10
2285.141161800948
 20
58.58698347053542
 10
2285.141161800948
 20
58.58698347053542
 10
2285.141161800948
 20
64.78399617668015
 10
2285.141161800948
 20
64.78399617668015
 10
2285.141161800948
 20
64.78399617668015
 10
2286.372940980778
 20
64.78399617668015
 10
2286.372940980778
 20
64.78399617668015
 10
2286.372940980778
 20
64.78399617668015
 10
2286.372940980778
 20
62.45474452152712
 10
2286.372940980778
 20
62.45474452152712
 10
2286.372940980778
 20
62.45474452152712
 10
2286.434093138642
 20
62.45474452152712
 10
2286.434093138642
 20
62.45474452152712
 10
2286.521453364162
 20
62.70113522551628
 10
2286.696173815201
 20
62.89738828625195
 10
2286.958254491761
 20
63.04350370373368
 10
2287.220335168321
 20
63.18961912121563
 10
2287.511535920053
 20
63.26267682995672
 10
2287.831856746959
 20
63.26267682995672
 10
2288.274481889593
 20
63.26267682995672
 10
2288.67051491195
 20
63.15237401479885
 10
2289.019955814029
 20
62.93176838448289
 10
2289.369396716108
 20
62.71116275416716
 10
2289.641669418979
 20
62.41749941511011
 10
2289.83677392264
 20
62.05077836731243
 10
2290.031878426301
 20
61.68405731951475
 10
2290.129430678131
 20
61.2886861898578
 10
2290.129430678131
 20
60.86466497834158
 10
2290.129430678131
 20
60.44064376682559
 10
2290.031878426301
 20
60.04527263716864
 10
2289.83677392264
 20
59.67855158937095
 10
2289.641669418979
 20
59.31183054157304
 10
2289.369396716108
 20
59.01816720251622
 10
2289.019955814029
 20
58.79756157220049
 10
2288.67051491195
 20
58.57695594188453
 10
2288.274481889593
 20
58.46665312672667
 10
2287.831856746959
 20
58.46665312672667
 97
        0
 97
        0
 92
        0
 93
        1
 72
     4
 94
        3
 73
     0
 74
     1
 95
       32
 96
       28
 40
0.0
 40
0.0
 40
0.0
 40
0.0
 40
1.0
 40
1.0
 40
1.0
 40
2.0
 40
2.0
 40
2.0
 40
3.0
 40
3.0
 40
3.0
 40
4.0
 40
4.0
 40
4.0
 40
5.0
 40
5.0
 40
5.0
 40
6.0
 40
6.0
 40
6.0
 40
7.0
 40
7.0
 40
7.0
 40
8.0
 40
8.0
 40
8.0
 40
9.0
 40
9.0
 40
9.0
 40
9.0
 10
2287.630928228264
 20
59.58400631923541
 10
2287.992017160413
 20
59.58400631923541
 10
2288.291953934697
 20
59.70576916713708
 10
2288.530738551118
 20
59.94929486294018
 10
2288.769523167539
 20
60.19282055874351
 10
2288.888915475749
 20
60.50080893872973
 10
2288.888915475749
 20
60.87326000289954
 10
2288.888915475749
 20
61.23998105069722
 10
2288.769523167539
 20
61.54510442249762
 10
2288.530738551118
 20
61.78863011830072
 10
2288.291953934697
 20
62.03215581410404
 10
2287.992017160413
 20
62.15391866200571
 10
2287.630928228264
 20
62.15391866200571
 10
2287.269839296115
 20
62.15391866200571
 10
2286.96990252183
 20
62.03215581410404
 10
2286.731117905409
 20
61.78863011830072
 10
2286.492333288988
 20
61.54510442249762
 10
2286.372940980778
 20
61.23711604251116
 10
2286.372940980778
 20
60.86466497834158
 10
2286.372940980778
 20
60.62400429072432
 10
2286.426813119848
 20
60.40626366859442
 10
2286.534557397989
 20
60.21144311195189
 10
2286.642301676131
 20
60.01662255530937
 10
2286.792270063273
 20
59.86334461736283
 10
2286.984462559416
 20
59.75160929811182
 10
2287.17665505556
 20
59.63987397886081
 10
2287.392143611843
 20
59.58400631923541
 10
2287.630928228264
 20
59.58400631923541
 97
        0
 97
        0
 75
     0
 76
     1
 98
        0
  0
HATCH
  5
72
330
1F
100
AcDbEntity
  8
0
 62
    18
420
        0
440
 33554687
100
AcDbHatch
 10
0.0
 20
0.0
 30
0.0
210
0.0
220
0.0
230
1.0
  2
SOLID
 70
     1
 71
     1
 91
        2
 92
        0
 93
        1
 72
     4
 94
        3
 73
     0
 74
     1
 95
       41
 96
       37
 40
0.0
 40
0.0
 40
0.0
 40
0.0
 40
1.0
 40
1.0
 40
1.0
 40
2.0
 40
2.0
 40
2.0
 40
3.0
 40
3.0
 40
3.0
 40
4.0
 40
4.0
 40
4.0
 40
5.0
 40
5.0
 40
5.0
 40
6.0
 40
6.0
 40
6.0
 40
7.0
 40
7.0
 40
7.0
 40
8.0
 40
8.0
 40
8.0
 40
9.0
 40
9.0
 40
9.0
 40
10.0
 40
10.0
 40
10.0
 40
11.0
 40
11.0
 40
11.0
 40
12.0
 40
12.0
 40
12.0
 40
12.0
 10
2294.305249457981
 20
58.46665312672667
 10
2293.845152270243
 20
58.46665312672667
 10
2293.428735195264
 20
58.57122592551286
 10
2293.055998233047
 20
58.7803715230848
 10
2292.683261270829
 20
58.98951712065718
 10
2292.390604515337
 20
59.2774504433421
 10
2292.178027966572
 20
59.64417149113979
 10
2291.965451417807
 20
60.01089253893747
 10
2291.859163143425
 20
60.41772370133822
 10
2291.859163143425
 20
60.86466497834158
 10
2291.859163143425
 20
61.31160625534517
 10
2291.965451417807
 20
61.71843741774569
 10
2292.178027966572
 20
62.0851584655436
 10
2292.390604515337
 20
62.45187951334128
 10
2292.683261270829
 20
62.7398128360262
 10
2293.055998233047
 20
62.94895843359836
 10
2293.428735195264
 20
63.15810403117052
 10
2293.845152270243
 20
63.26267682995672
 10
2294.305249457981
 20
63.26267682995672
 10
2294.765346645718
 20
63.26267682995672
 10
2295.183219724455
 20
63.15810403117052
 10
2295.55886869419
 20
62.94895843359836
 10
2295.934517663925
 20
62.7398128360262
 10
2296.228630423176
 20
62.45187951334128
 10
2296.441206971941
 20
62.0851584655436
 10
2296.653783520705
 20
61.71843741774569
 10
2296.760071795088
 20
61.31160625534517
 10
2296.760071795088
 20
60.86466497834158
 10
2296.760071795088
 20
60.41772370133822
 10
2296.653783520705
 20
60.01089253893747
 10
2296.441206971941
 20
59.64417149113979
 10
2296.228630423176
 20
59.2774504433421
 10
2295.934517663925
 20
58.98951712065718
 10
2295.55886869419
 20
58.7803715230848
 10
2295.183219724455
 20
58.57122592551286
 10
2294.765346645718
 20
58.46665312672667
 10
2294.305249457981
 20
58.46665312672667
 97
        0
 97
        0
 92
        0
 93
        1
 72
     4
 94
        3
 73
     0
 74
     1
 95
       38
 96
       34
 40
0.0
 40
0.0
 40
0.0
 40
0.0
 40
1.0
 40
1.0
 40
1.0
 40
2.0
 40
2.0
 40
2.0
 40
3.0
 40
3.0
 40
3.0
 40
4.0
 40
4.0
 40
4.0
 40
5.0
 40
5.0
 40
5.0
 40
6.0
 40
6.0
 40
6.0
 40
7.0
 40
7.0
 40
7.0
 40
8.0
 40
8.0
 40
8.0
 40
9.0
 40
9.0
 40
9.0
 40
10.0
 40
10.0
 40
10.0
 40
11.0
 40
11.0
 40
11.0
 40
11.0
 10
2294.305249457981
 20
59.58400631923541
 10
2294.538210059367
 20
59.58400631923541
 10
2294.746418596856
 20
59.63557646658205
 10
2294.929875070447
 20
59.7387167612751
 10
2295.113331544039
 20
59.84185705596815
 10
2295.257475916147
 20
59.99083748163594
 10
2295.36230818677
 20
60.18565803827869
 10
2295.467140457395
 20
60.38047859492121
 10
2295.519556592707
 20
60.60681424160884
 10
2295.519556592707
 20
60.86466497834158
 10
2295.519556592707
 20
61.12251571507431
 10
2295.467140457395
 20
61.34885136176217
 10
2295.36230818677
 20
61.5436719184047
 10
2295.257475916147
 20
61.73849247504722
 10
2295.113331544039
 20
61.88890540480793
 10
2294.929875070447
 20
61.99491070768704
 10
2294.746418596856
 20
62.10091601056615
 10
2294.538210059367
 20
62.15391866200571
 10
2294.305249457981
 20
62.15391866200571
 10
2293.955808555901
 20
62.15391866200571
 10
2293.667519811685
 20
62.0364533263828
 10
2293.440383225334
 20
61.80152265513743
 10
2293.213246638982
 20
61.56659198389207
 10
2293.099678345806
 20
61.25430609162686
 10
2293.099678345806
 20
60.86466497834158
 10
2293.099678345806
 20
60.60681424160884
 10
2293.152094481118
 20
60.38047859492121
 10
2293.256926751742
 20
60.18565803827869
 10
2293.361759022366
 20
59.99083748163594
 10
2293.504447390715
 20
59.84185705596815
 10
2293.68499185679
 20
59.7387167612751
 10
2293.865536322864
 20
59.63557646658205
 10
2294.072288856594
 20
59.58400631923541
 10
2294.305249457981
 20
59.58400631923541
 97
        0
 97
        0
 75
     0
 76
     1
 98
        0
  0
HATCH
  5
73
330
1F
100
AcDbEntity
  8
0
 62
    18
420
        0
440
 33554687
100
AcDbHatch
 10
0.0
 20
0.0
 30
0.0
210
0.0
220
0.0
230
1.0
  2
SOLID
 70
     1
 71
     1
 91
        2
 92
        0
 93
        1
 72
     4
 94
        3
 73
     0
 74
     1
 95
       41
 96
       37
 40
0.0
 40
0.0
 40
0.0
 40
0.0
 40
1.0
 40
1.0
 40
1.0
 40
2.0
 40
2.0
 40
2.0
 40
3.0
 40
3.0
 40
3.0
 40
4.0
 40
4.0
 40
4.0
 40
5.0
 40
5.0
 40
5.0
 40
6.0
 40
6.0
 40
6.0
 40
7.0
 40
7.0
 40
7.0
 40
8.0
 40
8.0
 40
8.0
 40
9.0
 40
9.0
 40
9.0
 40
10.0
 40
10.0
 40
10.0
 40
11.0
 40
11.0
 40
11.0
 40
12.0
 40
12.0
 40
12.0
 40
12.0
 10
2300.935890574937
 20
58.46665312672667
 10
2300.4757933872
 20
58.46665312672667
 10
2300.059376312222
 20
58.57122592551286
 10
2299.686639350004
 20
58.7803715230848
 10
2299.313902387786
 20
58.98951712065718
 10
2299.021245632294
 20
59.2774504433421
 10
2298.808669083529
 20
59.64417149113979
 10
2298.596092534764
 20
60.01089253893747
 10
2298.489804260381
 20
60.41772370133822
 10
2298.489804260381
 20
60.86466497834158
 10
2298.489804260381
 20
61.31160625534517
 10
2298.596092534764
 20
61.71843741774569
 10
2298.808669083529
 20
62.0851584655436
 10
2299.021245632294
 20
62.45187951334128
 10
2299.313902387786
 20
62.7398128360262
 10
2299.686639350004
 20
62.94895843359836
 10
2300.059376312222
 20
63.15810403117052
 10
2300.4757933872
 20
63.26267682995672
 10
2300.935890574937
 20
63.26267682995672
 10
2301.395987762675
 20
63.26267682995672
 10
2301.813860841411
 20
63.15810403117052
 10
2302.189509811147
 20
62.94895843359836
 10
2302.565158780882
 20
62.7398128360262
 10
2302.859271540132
 20
62.45187951334128
 10
2303.071848088898
 20
62.0851584655436
 10
2303.284424637663
 20
61.71843741774569
 10
2303.390712912045
 20
61.31160625534517
 10
2303.390712912045
 20
60.86466497834158
 10
2303.390712912045
 20
60.41772370133822
 10
2303.284424637663
 20
60.01089253893747
 10
2303.071848088898
 20
59.64417149113979
 10
2302.859271540132
 20
59.2774504433421
 10
2302.565158780882
 20
58.98951712065718
 10
2302.189509811147
 20
58.7803715230848
 10
2301.813860841411
 20
58.57122592551286
 10
2301.395987762675
 20
58.46665312672667
 10
2300.935890574937
 20
58.46665312672667
 97
        0
 97
        0
 92
        0
 93
        1
 72
     4
 94
        3
 73
     0
 74
     1
 95
       38
 96
       34
 40
0.0
 40
0.0
 40
0.0
 40
0.0
 40
1.0
 40
1.0
 40
1.0
 40
2.0
 40
2.0
 40
2.0
 40
3.0
 40
3.0
 40
3.0
 40
4.0
 40
4.0
 40
4.0
 40
5.0
 40
5.0
 40
5.0
 40
6.0
 40
6.0
 40
6.0
 40
7.0
 40
7.0
 40
7.0
 40
8.0
 40
8.0
 40
8.0
 40
9.0
 40
9.0
 40
9.0
 40
10.0
 40
10.0
 40
10.0
 40
11.0
 40
11.0
 40
11.0
 40
11.0
 10
2300.935890574937
 20
59.58400631923541
 10
2301.168851176324
 20
59.58400631923541
 10
2301.377059713813
 20
59.63557646658205
 10
2301.560516187404
 20
59.7387167612751
 10
2301.743972660996
 20
59.84185705596815
 10
2301.888117033104
 20
59.99083748163594
 10
2301.992949303728
 20
60.18565803827869
 10
2302.097781574351
 20
60.38047859492121
 10
2302.150197709663
 20
60.60681424160884
 10
2302.150197709663
 20
60.86466497834158
 10
2302.150197709663
 20
61.12251571507431
 10
2302.097781574351
 20
61.34885136176217
 10
2301.992949303728
 20
61.5436719184047
 10
2301.888117033104
 20
61.73849247504722
 10
2301.743972660996
 20
61.88890540480793
 10
2301.560516187404
 20
61.99491070768704
 10
2301.377059713813
 20
62.10091601056615
 10
2301.168851176324
 20
62.15391866200571
 10
2300.935890574937
 20
62.15391866200571
 10
2300.586449672858
 20
62.15391866200571
 10
2300.298160928643
 20
62.0364533263828
 10
2300.071024342291
 20
61.80152265513743
 10
2299.843887755939
 20
61.56659198389207
 10
2299.730319462763
 20
61.25430609162686
 10
2299.730319462763
 20
60.86466497834158
 10
2299.730319462763
 20
60.60681424160884
 10
2299.782735598075
 20
60.38047859492121
 10
2299.887567868699
 20
60.18565803827869
 10
2299.992400139323
 20
59.99083748163594
 10
2300.135088507672
 20
59.84185705596815
 10
2300.315632973746
 20
59.7387167612751
 10
2300.496177439821
 20
59.63557646658205
 10
2300.702929973551
 20
59.58400631923541
 10
2300.935890574937
 20
59.58400631923541
 97
        0
 97
        0
 75
     0
 76
     1
 98
        0
  0
HATCH
  5
74
330
1F
100
AcDbEntity
  8
0
 62
    18
420
        0
440
 33554687
100
AcDbHatch
 10
0.0
 20
0.0
 30
0.0
210
0.0
220
0.0
230
1.0
  2
SOLID
 70
     1
 71
     1
 91
        2
 92
        0
 93
        1
 72
     4
 94
        3
 73
     0
 74
     1
 95
       41
 96
       37
 40
0.0
 40
0.0
 40
0.0
 40
0.0
 40
1.0
 40
1.0
 40
1.0
 40
2.0
 40
2.0
 40
2.0
 40
3.0
 40
3.0
 40
3.0
 40
4.0
 40
4.0
 40
4.0
 40
5.0
 40
5.0
 40
5.0
 40
6.0
 40
6.0
 40
6.0
 40
7.0
 40
7.0
 40
7.0
 40
8.0
 40
8.0
 40
8.0
 40
9.0
 40
9.0
 40
9.0
 40
10.0
 40
10.0
 40
10.0
 40
11.0
 40
11.0
 40
11.0
 40
12.0
 40
12.0
 40
12.0
 40
12.0
 10
2307.566531691894
 20
58.46665312672667
 10
2307.106434504156
 20
58.46665312672667
 10
2306.690017429178
 20
58.57122592551286
 10
2306.31728046696
 20
58.7803715230848
 10
2305.944543504742
 20
58.98951712065718
 10
2305.651886749251
 20
59.2774504433421
 10
2305.439310200486
 20
59.64417149113979
 10
2305.226733651721
 20
60.01089253893747
 10
2305.120445377338
 20
60.41772370133822
 10
2305.120445377338
 20
60.86466497834158
 10
2305.120445377338
 20
61.31160625534517
 10
2305.226733651721
 20
61.71843741774569
 10
2305.439310200486
 20
62.0851584655436
 10
2305.651886749251
 20
62.45187951334128
 10
2305.944543504742
 20
62.7398128360262
 10
2306.31728046696
 20
62.94895843359836
 10
2306.690017429178
 20
63.15810403117052
 10
2307.106434504156
 20
63.26267682995672
 10
2307.566531691894
 20
63.26267682995672
 10
2308.026628879632
 20
63.26267682995672
 10
2308.444501958369
 20
63.15810403117052
 10
2308.820150928104
 20
62.94895843359836
 10
2309.195799897839
 20
62.7398128360262
 10
2309.489912657089
 20
62.45187951334128
 10
2309.702489205854
 20
62.0851584655436
 10
2309.915065754619
 20
61.71843741774569
 10
2310.021354029002
 20
61.31160625534517
 10
2310.021354029002
 20
60.86466497834158
 10
2310.021354029002
 20
60.41772370133822
 10
2309.915065754619
 20
60.01089253893747
 10
2309.702489205854
 20
59.64417149113979
 10
2309.489912657089
 20
59.2774504433421
 10
2309.195799897839
 20
58.98951712065718
 10
2308.820150928104
 20
58.7803715230848
 10
2308.444501958369
 20
58.57122592551286
 10
2308.026628879632
 20
58.46665312672667
 10
2307.566531691894
 20
58.46665312672667
 97
        0
 97
        0
 92
        0
 93
        1
 72
     4
 94
        3
 73
     0
 74
     1
 95
       38
 96
       34
 40
0.0
 40
0.0
 40
0.0
 40
0.0
 40
1.0
 40
1.0
 40
1.0
 40
2.0
 40
2.0
 40
2.0
 40
3.0
 40
3.0
 40
3.0
 40
4.0
 40
4.0
 40
4.0
 40
5.0
 40
5.0
 40
5.0
 40
6.0
 40
6.0
 40
6.0
 40
7.0
 40
7.0
 40
7.0
 40
8.0
 40
8.0
 40
8.0
 40
9.0
 40
9.0
 40
9.0
 40
10.0
 40
10.0
 40
10.0
 40
11.0
 40
11.0
 40
11.0
 40
11.0
 10
2307.566531691894
 20
59.58400631923541
 10
2307.79949229328
 20
59.58400631923541
 10
2308.007700830769
 20
59.63557646658205
 10
2308.191157304361
 20
59.7387167612751
 10
2308.374613777953
 20
59.84185705596815
 10
2308.51875815006
 20
59.99083748163594
 10
2308.623590420684
 20
60.18565803827869
 10
2308.728422691308
 20
60.38047859492121
 10
2308.78083882662
 20
60.60681424160884
 10
2308.78083882662
 20
60.86466497834158
 10
2308.78083882662
 20
61.12251571507431
 10
2308.728422691308
 20
61.34885136176217
 10
2308.623590420684
 20
61.5436719184047
 10
2308.51875815006
 20
61.73849247504722
 10
2308.374613777953
 20
61.88890540480793
 10
2308.191157304361
 20
61.99491070768704
 10
2308.007700830769
 20
62.10091601056615
 10
2307.79949229328
 20
62.15391866200571
 10
2307.566531691894
 20
62.15391866200571
 10
2307.217090789814
 20
62.15391866200571
 10
2306.928802045599
 20
62.0364533263828
 10
2306.701665459248
 20
61.80152265513743
 10
2306.474528872896
 20
61.56659198389207
 10
2306.36096057972
 20
61.25430609162686
 10
2306.36096057972
 20
60.86466497834158
 10
2306.36096057972
 20
60.60681424160884
 10
2306.413376715032
 20
60.38047859492121
 10
2306.518208985656
 20
60.18565803827869
 10
2306.62304125628
 20
59.99083748163594
 10
2306.765729624629
 20
59.84185705596815
 10
2306.946274090703
 20
59.7387167612751
 10
2307.126818556777
 20
59.63557646658205
 10
2307.333571090508
 20
59.58400631923541
 10
2307.566531691894
 20
59.58400631923541
 97
        0
 97
        0
 75
     0
 76
     1
 98
        0
  0
HATCH
  5
75
330
1F
100
AcDbEntity
  8
0
 62
    18
420
        0
440
 33554687
100
AcDbHatch
 10
0.0
 20
0.0
 30
0.0
210
0.0
220
0.0
230
1.0
  2
SOLID
 70
     1
 71
     1
 91
        2
 92
        0
 93
        1
 72
     4
 94
        3
 73
     0
 74
     1
 95
       41
 96
       37
 40
0.0
 40
0.0
 40
0.0
 40
0.0
 40
1.0
 40
1.0
 40
1.0
 40
2.0
 40
2.0
 40
2.0
 40
3.0
 40
3.0
 40
3.0
 40
4.0
 40
4.0
 40
4.0
 40
5.0
 40
5.0
 40
5.0
 40
6.0
 40
6.0
 40
6.0
 40
7.0
 40
7.0
 40
7.0
 40
8.0
 40
8.0
 40
8.0
 40
9.0
 40
9.0
 40
9.0
 40
10.0
 40
10.0
 40
10.0
 40
11.0
 40
11.0
 40
11.0
 40
12.0
 40
12.0
 40
12.0
 40
12.0
 10
2314.197172808851
 20
58.46665312672667
 10
2313.737075621113
 20
58.46665312672667
 10
2313.320658546135
 20
58.57122592551286
 10
2312.947921583917
 20
58.7803715230848
 10
2312.575184621699
 20
58.98951712065718
 10
2312.282527866208
 20
59.2774504433421
 10
2312.069951317443
 20
59.64417149113979
 10
2311.857374768678
 20
60.01089253893747
 10
2311.751086494295
 20
60.41772370133822
 10
2311.751086494295
 20
60.86466497834158
 10
2311.751086494295
 20
61.31160625534517
 10
2311.857374768678
 20
61.71843741774569
 10
2312.069951317443
 20
62.0851584655436
 10
2312.282527866208
 20
62.45187951334128
 10
2312.575184621699
 20
62.7398128360262
 10
2312.947921583917
 20
62.94895843359836
 10
2313.320658546135
 20
63.15810403117052
 10
2313.737075621113
 20
63.26267682995672
 10
2314.197172808851
 20
63.26267682995672
 10
2314.657269996589
 20
63.26267682995672
 10
2315.075143075325
 20
63.15810403117052
 10
2315.450792045061
 20
62.94895843359836
 10
2315.826441014796
 20
62.7398128360262
 10
2316.120553774046
 20
62.45187951334128
 10
2316.333130322811
 20
62.0851584655436
 10
2316.545706871576
 20
61.71843741774569
 10
2316.651995145959
 20
61.31160625534517
 10
2316.651995145959
 20
60.86466497834158
 10
2316.651995145959
 20
60.41772370133822
 10
2316.545706871576
 20
60.01089253893747
 10
2316.333130322811
 20
59.64417149113979
 10
2316.120553774046
 20
59.2774504433421
 10
2315.826441014796
 20
58.98951712065718
 10
2315.450792045061
 20
58.7803715230848
 10
2315.075143075325
 20
58.57122592551286
 10
2314.657269996589
 20
58.46665312672667
 10
2314.197172808851
 20
58.46665312672667
 97
        0
 97
        0
 92
        0
 93
        1
 72
     4
 94
        3
 73
     0
 74
     1
 95
       38
 96
       34
 40
0.0
 40
0.0
 40
0.0
 40
0.0
 40
1.0
 40
1.0
 40
1.0
 40
2.0
 40
2.0
 40
2.0
 40
3.0
 40
3.0
 40
3.0
 40
4.0
 40
4.0
 40
4.0
 40
5.0
 40
5.0
 40
5.0
 40
6.0
 40
6.0
 40
6.0
 40
7.0
 40
7.0
 40
7.0
 40
8.0
 40
8.0
 40
8.0
 40
9.0
 40
9.0
 40
9.0
 40
10.0
 40
10.0
 40
10.0
 40
11.0
 40
11.0
 40
11.0
 40
11.0
 10
2314.197172808851
 20
59.58400631923541
 10
2314.430133410237
 20
59.58400631923541
 10
2314.638341947726
 20
59.63557646658205
 10
2314.821798421318
 20
59.7387167612751
 10
2315.005254894909
 20
59.84185705596815
 10
2315.149399267017
 20
59.99083748163594
 10
2315.254231537641
 20
60.18565803827869
 10
2315.359063808265
 20
60.38047859492121
 10
2315.411479943577
 20
60.60681424160884
 10
2315.411479943577
 20
60.86466497834158
 10
2315.411479943577
 20
61.12251571507431
 10
2315.359063808265
 20
61.34885136176217
 10
2315.254231537641
 20
61.5436719184047
 10
2315.149399267017
 20
61.73849247504722
 10
2315.005254894909
 20
61.88890540480793
 10
2314.821798421318
 20
61.99491070768704
 10
2314.638341947726
 20
62.10091601056615
 10
2314.430133410237
 20
62.15391866200571
 10
2314.197172808851
 20
62.15391866200571
 10
2313.847731906772
 20
62.15391866200571
 10
2313.559443162556
 20
62.0364533263828
 10
2313.332306576204
 20
61.80152265513743
 10
2313.105169989853
 20
61.56659198389207
 10
2312.991601696677
 20
61.25430609162686
 10
2312.991601696677
 20
60.86466497834158
 10
2312.991601696677
 20
60.60681424160884
 10
2313.044017831989
 20
60.38047859492121
 10
2313.148850102613
 20
60.18565803827869
 10
2313.253682373237
 20
59.99083748163594
 10
2313.396370741586
 20
59.84185705596815
 10
2313.57691520766
 20
59.7387167612751
 10
2313.757459673735
 20
59.63557646658205
 10
2313.964212207465
 20
59.58400631923541
 10
2314.197172808851
 20
59.58400631923541
 97
        0
 97
        0
 75
     0
 76
     1
 98
        0
  0
HATCH
  5
76
330
1F
100
AcDbEntity
  8
0
 62
    18
420
        0
440
 33554687
100
AcDbHatch
 10
0.0
 20
0.0
 30
0.0
210
0.0
220
0.0
230
1.0
  2
SOLID
 70
     1
 71
     1
 91
        1
 92
        0
 93
        1
 72
     4
 94
        3
 73
     0
 74
     1
 95
       95
 96
       91
 40
0.0
 40
0.0
 40
0.0
 40
0.0
 40
1.0
 40
1.0
 40
1.0
 40
2.0
 40
2.0
 40
2.0
 40
3.0
 40
3.0
 40
3.0
 40
4.0
 40
4.0
 40
4.0
 40
5.0
 40
5.0
 40
5.0
 40
6.0
 40
6.0
 40
6.0
 40
7.0
 40
7.0
 40
7.0
 40
8.0
 40
8.0
 40
8.0
 40
9.0
 40
9.0
 40
9.0
 40
10.0
 40
10.0
 40
10.0
 40
11.0
 40
11.0
 40
11.0
 40
12.0
 40
12.0
 40
12.0
 40
13.0
 40
13.0
 40
13.0
 40
14.0
 40
14.0
 40
14.0
 40
15.0
 40
15.0
 40
15.0
 40
16.0
 40
16.0
 40
16.0
 40
17.0
 40
17.0
 40
17.0
 40
18.0
 40
18.0
 40
18.0
 40
19.0
 40
19.0
 40
19.0
 40
20.0
 40
20.0
 40
20.0
 40
21.0
 40
21.0
 40
21.0
 40
22.0
 40
22.0
 40
22.0
 40
23.0
 40
23.0
 40
23.0
 40
24.0
 40
24.0
 40
24.0
 40
25.0
 40
25.0
 40
25.0
 40
26.0
 40
26.0
 40
26.0
 40
27.0
 40
27.0
 40
27.0
 40
28.0
 40
28.0
 40
28.0
 40
29.0
 40
29.0
 40
29.0
 40
30.0
 40
30.0
 40
30.0
 40
30.0
 10
2318.678752378019
 20
63.14234648614797
 10
2318.678752378019
 20
63.14234648614797
 10
2319.87558746764
 20
63.14234648614797
 10
2319.87558746764
 20
63.14234648614797
 10
2319.87558746764
 20
63.14234648614797
 10
2319.87558746764
 20
62.53209974254696
 10
2319.87558746764
 20
62.53209974254696
 10
2319.87558746764
 20
62.53209974254696
 10
2319.928003602952
 20
62.53209974254696
 10
2319.928003602952
 20
62.53209974254696
 10
2320.061955948749
 20
62.75557038104876
 10
2320.249780433617
 20
62.93320088857581
 10
2320.491477057555
 20
63.06499126512813
 10
2320.733173681493
 20
63.19678164168045
 10
2320.990886346777
 20
63.26267682995672
 10
2321.264615053406
 20
63.26267682995672
 10
2321.555815805139
 20
63.26267682995672
 10
2321.825176500492
 20
63.19391663349461
 10
2322.072697139464
 20
63.05639624057039
 10
2322.320217778437
 20
62.9188758476464
 10
2322.508042263305
 20
62.73265031556139
 10
2322.636170594067
 20
62.49771964431602
 10
2322.636170594067
 20
62.49771964431602
 10
2322.688586729379
 20
62.49771964431602
 10
2322.688586729379
 20
62.49771964431602
 10
2322.84001112028
 20
62.73265031556139
 10
2323.055499676563
 20
62.9188758476464
 10
2323.335052398226
 20
63.05639624057039
 10
2323.61460511989
 20
63.19391663349461
 10
2323.917453901692
 20
63.26267682995672
 10
2324.243598743632
 20
63.26267682995672
 10
2324.563919570538
 20
63.26267682995672
 10
2324.855120322271
 20
63.18532160893687
 10
2325.117200998831
 20
63.03061116689719
 10
2325.379281675391
 20
62.87590072485727
 10
2325.586034209121
 20
62.6653226231922
 10
2325.737458600022
 20
62.39887686190173
 10
2325.888882990923
 20
62.13243110061126
 10
2325.964595186374
 20
61.83303774518254
 10
2325.964595186374
 20
61.5006967956158
 10
2325.964595186374
 20
61.5006967956158
 10
2325.964595186374
 20
58.58698347053542
 10
2325.964595186374
 20
58.58698347053542
 10
2325.964595186374
 20
58.58698347053542
 10
2324.732816006544
 20
58.58698347053542
 10
2324.732816006544
 20
58.58698347053542
 10
2324.732816006544
 20
58.58698347053542
 10
2324.732816006544
 20
61.20846596065212
 10
2324.732816006544
 20
61.20846596065212
 10
2324.732816006544
 20
61.51215682835959
 10
2324.655647807335
 20
61.75138501188371
 10
2324.501311408916
 20
61.92615051122493
 10
2324.346975010498
 20
62.10091601056615
 10
2324.135854465491
 20
62.18829876023665
 10
2323.867949773897
 20
62.18829876023665
 10
2323.594221067268
 20
62.18829876023665
 10
2323.378732510986
 20
62.09948350647301
 10
2323.22148410505
 20
61.92185299894595
 10
2323.064235699114
 20
61.74422249141912
 10
2322.985611496147
 20
61.50642681198769
 10
2322.985611496147
 20
61.20846596065212
 10
2322.985611496147
 20
61.20846596065212
 10
2322.985611496147
 20
58.58698347053542
 10
2322.985611496147
 20
58.58698347053542
 10
2322.985611496147
 20
58.58698347053542
 10
2321.745096293765
 20
58.58698347053542
 10
2321.745096293765
 20
58.58698347053542
 10
2321.745096293765
 20
58.58698347053542
 10
2321.745096293765
 20
61.20846596065212
 10
2321.745096293765
 20
61.20846596065212
 10
2321.745096293765
 20
61.51215682835959
 10
2321.660648075762
 20
61.75138501188371
 10
2321.491751639757
 20
61.92615051122493
 10
2321.322855203752
 20
62.10091601056615
 10
2321.095718617401
 20
62.18829876023665
 10
2320.810341880703
 20
62.18829876023665
 10
2320.536613174074
 20
62.18829876023665
 10
2320.318212610274
 20
62.09948350647301
 10
2320.155140189304
 20
61.92185299894595
 10
2319.992067768334
 20
61.74422249141912
 10
2319.910531557848
 20
61.50642681198769
 10
2319.910531557848
 20
61.20846596065212
 10
2319.910531557848
 20
61.20846596065212
 10
2319.910531557848
 20
58.58698347053542
 10
2319.910531557848
 20
58.58698347053542
 10
2319.910531557848
 20
58.58698347053542
 10
2318.678752378019
 20
58.58698347053542
 10
2318.678752378019
 20
58.58698347053542
 10
2318.678752378019
 20
58.58698347053542
 10
2318.678752378019
 20
63.14234648614797
 10
2318.678752378019
 20
63.14234648614797
 97
        0
 97
        0
 75
     0
 76
     1
 98
        0
  0
HATCH
  5
77
330
1F
100
AcDbEntity
  8
0
 62
    18
420
        0
440
 33554687
100
AcDbHatch
 10
0.0
 20
0.0
 30
0.0
210
0.0
220
0.0
230
1.0
  2
SOLID
 70
     1
 71
     1
 91
        3
 92
        0
 93
        1
 72
     4
 94
        3
 73
     0
 74
     1
 95
       47
 96
       43
 40
0.0
 40
0.0
 40
0.0
 40
0.0
 40
1.0
 40
1.0
 40
1.0
 40
2.0
 40
2.0
 40
2.0
 40
3.0
 40
3.0
 40
3.0
 40
4.0
 40
4.0
 40
4.0
 40
5.0
 40
5.0
 40
5.0
 40
6.0
 40
6.0
 40
6.0
 40
7.0
 40
7.0
 40
7.0
 40
8.0
 40
8.0
 40
8.0
 40
9.0
 40
9.0
 40
9.0
 40
10.0
 40
10.0
 40
10.0
 40
11.0
 40
11.0
 40
11.0
 40
12.0
 40
12.0
 40
12.0
 40
13.0
 40
13.0
 40
13.0
 40
14.0
 40
14.0
 40
14.0
 40
14.0
 10
2243.831419206601
 20
64.70507612350684
 10
2243.831419206601
 20
64.70507612350684
 10
2248.325105409942
 20
64.70507612350684
 10
2248.325105409942
 20
64.70507612350684
 10
2248.994867138928
 20
64.70507612350684
 10
2249.514660480771
 20
64.55609569783951
 10
2249.884485435473
 20
64.25813484650371
 10
2250.254310390173
 20
63.96017399516791
 10
2250.439222867523
 20
63.56480286551118
 10
2250.439222867523
 20
63.0720214575324
 10
2250.439222867523
 20
62.7568705570809
 10
2250.340214611931
 20
62.49185729988358
 10
2250.142198100755
 20
62.27698168593929
 10
2249.944181589576
 20
62.06210607199614
 10
2249.673364890465
 20
61.91742315860688
 10
2249.329748003419
 20
61.84293294577265
 10
2249.329748003419
 20
61.84293294577265
 10
2249.32974800342
 20
61.79136279842623
 10
2249.32974800342
 20
61.79136279842623
 10
2249.59182867998
 20
61.76271271656697
 10
2249.830613296403
 20
61.67532996689624
 10
2250.046101852683
 20
61.52921454941452
 10
2250.261590408968
 20
61.38309913193234
 10
2250.430486844972
 20
61.19544109575509
 10
2250.552791160699
 20
60.96624044088094
 10
2250.675095476428
 20
60.7370397860077
 10
2250.73624763429
 20
60.4877840738327
 10
2250.73624763429
 20
60.21847330435617
 10
2250.73624763429
 20
59.87467232204585
 10
2250.644519397495
 20
59.57384646252444
 10
2250.461062923903
 20
59.31599572579148
 10
2250.27760645031
 20
59.05814498905852
 10
2250.018437781269
 20
58.85902692013701
 10
2249.683556916777
 20
58.71864151902696
 10
2249.348676052285
 20
58.57825611791691
 10
2248.954099033685
 20
58.50806341736188
 10
2248.499825860982
 20
58.50806341736188
 10
2248.499825860982
 20
58.50806341736188
 10
2243.831419206601
 20
58.50806341736188
 10
2243.831419206601
 20
58.50806341736188
 10
2243.831419206601
 20
58.50806341736188
 10
2243.831419206601
 20
64.70507612350684
 10
2243.831419206601
 20
64.70507612350684
 97
        0
 97
        0
 92
        0
 93
        1
 72
     4
 94
        3
 73
     0
 74
     1
 95
       26
 96
       22
 40
0.0
 40
0.0
 40
0.0
 40
0.0
 40
1.0
 40
1.0
 40
1.0
 40
2.0
 40
2.0
 40
2.0
 40
3.0
 40
3.0
 40
3.0
 40
4.0
 40
4.0
 40
4.0
 40
5.0
 40
5.0
 40
5.0
 40
6.0
 40
6.0
 40
6.0
 40
7.0
 40
7.0
 40
7.0
 40
7.0
 10
2248.473617793326
 20
59.70277183089024
 10
2248.782290590162
 20
59.70277183089024
 10
2249.022531210343
 20
59.76293700279507
 10
2249.194339653866
 20
59.88326734660382
 10
2249.366148097386
 20
60.00359769041188
 10
2249.45205231915
 20
60.16976816519536
 10
2249.45205231915
 20
60.38177877095336
 10
2249.45205231915
 20
60.59951939308348
 10
2249.366148097386
 20
60.7685548760528
 10
2249.194339653866
 20
60.88888521986155
 10
2249.022531210343
 20
61.00921556367007
 10
2248.782290590162
 20
61.06938073557444
 10
2248.473617793326
 20
61.06938073557444
 10
2248.473617793326
 20
61.06938073557444
 10
2245.09814247664
 20
61.06938073557444
 10
2245.09814247664
 20
61.06938073557444
 10
2245.09814247664
 20
61.06938073557444
 10
2245.09814247664
 20
59.70277183089024
 10
2245.09814247664
 20
59.70277183089024
 10
2245.09814247664
 20
59.70277183089024
 10
2248.473617793326
 20
59.70277183089024
 10
2248.473617793326
 20
59.70277183089024
 97
        0
 97
        0
 92
        0
 93
        1
 72
     4
 94
        3
 73
     0
 74
     1
 95
       26
 96
       22
 40
0.0
 40
0.0
 40
0.0
 40
0.0
 40
1.0
 40
1.0
 40
1.0
 40
2.0
 40
2.0
 40
2.0
 40
3.0
 40
3.0
 40
3.0
 40
4.0
 40
4.0
 40
4.0
 40
5.0
 40
5.0
 40
5.0
 40
6.0
 40
6.0
 40
6.0
 40
7.0
 40
7.0
 40
7.0
 40
7.0
 10
2248.221616789356
 20
62.22111402631413
 10
2248.489521480952
 20
62.22111402631413
 10
2248.69773001844
 20
62.27841419003289
 10
2248.846242401823
 20
62.39301451746928
 10
2248.994754785208
 20
62.5076148449059
 10
2249.146291529828
 20
62.67092031150378
 10
2249.146291529828
 20
62.88293091726177
 10
2249.146291529828
 20
63.07775147390453
 10
2249.072035338137
 20
63.23102941185107
 10
2248.923522954753
 20
63.34276473110185
 10
2248.77501057137
 20
63.45450005035264
 10
2248.566802033881
 20
63.51036770997848
 10
2248.298897342286
 20
63.51036770997848
 10
2248.298897342286
 20
63.51036770997848
 10
2245.09814247664
 20
63.51036770997848
 10
2245.09814247664
 20
63.51036770997848
 10
2245.09814247664
 20
63.51036770997848
 10
2245.09814247664
 20
62.22111402631413
 10
2245.09814247664
 20
62.22111402631413
 10
2245.09814247664
 20
62.22111402631413
 10
2248.221616789356
 20
62.22111402631413
 10
2248.221616789356
 20
62.22111402631413
 97
        0
 97
        0
 75
     0
 76
     1
 98
        0
  0
VIEWPORT
  5
7C
330
78
100
AcDbEntity
 67
     1
  8
0
100
AcDbViewport
 10
128.5
 20
97.5
 30
0.0
 40
314.226
 41
222.18
 68
     1
 69
     1
 12
84.709
 22
127.0
 13
0.0
 23
0.0
 14
10.0
 24
10.0
 15
10.0
 25
10.0
 16
0.0
 26
0.0
 36
1.0
 17
0.0
 27
0.0
 37
0.0
 42
50.0
 43
0.0
 44
0.0
 45
222.18
 50
0.0
 51
0.0
 72
   100
 90
   557152
  1

281
     0
 71
     1
 74
     0
110
0.0
120
0.0
130
0.0
111
1.0
121
0.0
131
0.0
112
0.0
122
1.0
132
0.0
 79
     0
146
0.0
170
     0
 61
     5
348
2F
292
     1
282
     1
141
0.0
142
0.0
 63
   256
361
7D
  0
VIEWPORT
  5
7E
330
78
100
AcDbEntity
 67
     1
  8
0
100
AcDbViewport
 10
127.0
 20
84.709
 30
0.0
 40
254.0
 41
169.418
 68
     2
 69
     2
 12
2261.954666666667
 22
84.66462669000953
 13
0.0
 23
0.0
 14
10.0
 24
10.0
 15
10.0
 25
10.0
 16
0.0
 26
0.0
 36
1.0
 17
0.0
 27
0.0
 37
0.0
 42
50.0
 43
0.0
 44
0.0
 45
169.418
 50
0.0
 51
0.0
 72
   100
 90
   557152
  1

281
     0
 71
     1
 74
     0
110
0.0
120
0.0
130
0.0
111
1.0
121
0.0
131
0.0
112
0.0
122
1.0
132
0.0
 79
     0
146
0.0
170
     0
 61
     5
348
2F
292
     1
282
     1
141
0.0
142
0.0
 63
   256
361
7F
  0
ENDSEC
  0
SECTION
  2
OBJECTS
  0
DICTIONARY
  5
C
330
0
100
AcDbDictionary
281
     1
  3
ACAD_DETAILVIEWSTYLE
350
87
  3
ACAD_GROUP
350
D
  3
ACAD_LAYOUT
350
1A
  3
ACAD_MATERIAL
350
43
  3
ACAD_MLEADERSTYLE
350
5B
  3
ACAD_MLINESTYLE
350
17
  3
ACAD_PLOTSETTINGS
350
19
  3
ACAD_PLOTSTYLENAME
350
E
  3
ACAD_SCALELIST
350
47
  3
ACAD_SECTIONVIEWSTYLE
350
88
  3
ACAD_TABLESTYLE
350
59
  3
ACAD_VISUALSTYLE
350
2A
  3
ACDB_RECOMPOSE_DATA
350
84
  3
AcDbVariableDictionary
350
80
  0
SUN
  5
5D
330
29
100
AcDbSun
 90
        1
290
     0
 63
     7
421
 16777215
 40
1.0
291
     1
 91
  2455826
 92
 54000000
292
     0
 70
     2
 71
   256
280
     1
  0
SUN
  5
7D
330
7C
100
AcDbSun
 90
        1
290
     0
 63
     7
421
 16777215
 40
1.0
291
     1
 91
  2455826
 92
 54000000
292
     0
 70
     2
 71
   256
280
     1
  0
SUN
  5
7F
330
7E
100
AcDbSun
 90
        1
290
     0
 63
     7
421
 16777215
 40
1.0
291
     1
 91
  2455826
 92
 54000000
292
     0
 70
     2
 71
   256
280
     1
  0
DICTIONARY
  5
87
102
{ACAD_REACTORS
330
C
102
}
330
C
100
AcDbDictionary
281
     1
  0
DICTIONARY
  5
D
102
{ACAD_REACTORS
330
C
102
}
330
C
100
AcDbDictionary
281
     1
  0
DICTIONARY
  5
1A
102
{ACAD_REACTORS
330
C
102
}
330
C
100
AcDbDictionary
281
     1
  3
Layout1
350
79
  3
Model
350
22
  0
DICTIONARY
  5
43
102
{ACAD_REACTORS
330
C
102
}
330
C
100
AcDbDictionary
281
     1
  3
ByBlock
350
45
  3
ByLayer
350
44
  3
Global
350
46
  0
DICTIONARY
  5
5B
102
{ACAD_REACTORS
330
C
102
}
330
C
100
AcDbDictionary
281
     1
  3
Standard
350
5C
  0
DICTIONARY
  5
17
102
{ACAD_REACTORS
330
C
102
}
330
C
100
AcDbDictionary
281
     1
  3
Standard
350
18
  0
DICTIONARY
  5
19
102
{ACAD_REACTORS
330
C
102
}
330
C
100
AcDbDictionary
281
     1
  0
ACDBDICTIONARYWDFLT
  5
E
102
{ACAD_REACTORS
330
C
102
}
330
C
100
AcDbDictionary
281
     1
  3
Normal
350
F
100
AcDbDictionaryWithDefault
340
F
  0
DICTIONARY
  5
47
102
{ACAD_REACTORS
330
C
102
}
330
C
100
AcDbDictionary
281
     1
  3
A0
350
48
  3
A1
350
49
  3
A2
350
4A
  3
A3
350
4B
  3
A4
350
4C
  3
A5
350
4D
  3
A6
350
4E
  3
A7
350
4F
  3
A8
350
50
  3
A9
350
51
  3
B0
350
52
  3
B1
350
53
  3
B2
350
54
  3
B3
350
55
  3
B4
350
56
  3
B5
350
57
  3
B6
350
58
  0
DICTIONARY
  5
88
102
{ACAD_REACTORS
330
C
102
}
330
C
100
AcDbDictionary
281
     1
  0
DICTIONARY
  5
59
102
{ACAD_REACTORS
330
C
102
}
330
C
100
AcDbDictionary
281
     1
  3
Standard
350
5A
  0
DICTIONARY
  5
2A
102
{ACAD_REACTORS
330
C
102
}
330
C
100
AcDbDictionary
281
     1
  3
2dWireframe
350
2F
  3
Basic
350
32
  3
Brighten
350
36
  3
ColorChange
350
3A
  3
Conceptual
350
34
  3
Dim
350
35
  3
EdgeColorOff
350
3D
  3
Facepattern
350
39
  3
Flat
350
2B
  3
FlatWithEdges
350
2C
  3
Gouraud
350
2D
  3
GouraudWithEdges
350
2E
  3
Hidden
350
31
  3
JitterOff
350
3B
  3
Linepattern
350
38
  3
OverhangOff
350
3C
  3
Realistic
350
33
  3
Shaded
350
42
  3
Shaded with edges
350
41
  3
Shades of Gray
350
3E
  3
Sketchy
350
3F
  3
Thicken
350
37
  3
Wireframe
350
30
  3
X-Ray
350
40
  0
XRECORD
  5
84
102
{ACAD_REACTORS
330
C
102
}
330
C
100
AcDbXrecord
280
     1
 90
        1
330
5A
  0
DICTIONARY
  5
80
102
{ACAD_REACTORS
330
C
102
}
330
C
100
AcDbDictionary
281
     1
  3
CANNOSCALE
350
81
  3
CENTEREXE
350
89
  3
CENTERLTYPEFILE
350
8A
  3
CMLEADERSTYLE
350
86
  3
CTABLESTYLE
350
85
  0
LAYOUT
  5
79
102
{ACAD_REACTORS
330
1A
102
}
330
1A
100
AcDbPlotSettings
  1

  2
none_device
  4
ISO_A4_(210.00_x_297.00_MM)
  6

 40
0.0
 41
0.0
 42
0.0
 43
0.0
 44
169.418
 45
254.0
 46
0.0
 47
0.0
 48
0.0
 49
0.0
140
0.0
141
0.0
142
1.0
143
1.0
 70
   688
 72
     1
 73
     3
 74
     5
  7

 75
    16
 76
     0
 77
     2
 78
   300
147
1.0
148
0.0
149
0.0
100
AcDbLayout
  1
Layout1
 70
     1
 71
     1
 10
-20.0
 20
-7.5
 11
277.0
 21
202.5
 12
0.0
 22
0.0
 32
0.0
 14
169.418
 24
254.0
 34
0.0
 15
0.0
 25
0.0
 35
0.0
146
0.0
 13
0.0
 23
0.0
 33
0.0
 16
1.0
 26
0.0
 36
0.0
 17
0.0
 27
1.0
 37
0.0
 76
     0
330
78
331
7C
  0
LAYOUT
  5
22
102
{ACAD_REACTORS
330
1A
102
}
330
1A
100
AcDbPlotSettings
  1

  2
none_device
  4
Letter_(8.50_x_11.00_Inches)
  6

 40
6.35
 41
6.35
 42
6.35000508
 43
6.35000508
 44
215.9
 45
279.4
 46
0.0
 47
0.0
 48
0.0
 49
0.0
140
0.0
141
0.0
142
1.0
143
1.0
 70
  1712
 72
     1
 73
     0
 74
     0
  7

 75
     0
 76
     0
 77
     2
 78
   300
147
1.0
148
0.0
149
0.0
100
AcDbLayout
  1
Model
 70
     1
 71
     0
 10
0.0
 20
0.0
 11
420.0
 21
297.0
 12
0.0
 22
0.0
 32
0.0
 14
1.000000000000000E+20
 24
1.000000000000000E+20
 34
1.000000000000000E+20
 15
-1.000000000000000E+20
 25
-1.000000000000000E+20
 35
-1.000000000000000E+20
146
0.0
 13
0.0
 23
0.0
 33
0.0
 16
1.0
 26
0.0
 36
0.0
 17
0.0
 27
1.0
 37
0.0
 76
     0
330
1F
331
29
  0
MATERIAL
  5
45
102
{ACAD_REACTORS
330
43
102
}
330
43
100
AcDbMaterial
  1
ByBlock
 72
     1
 94
      127
  0
MATERIAL
  5
44
102
{ACAD_REACTORS
330
43
102
}
330
43
100
AcDbMaterial
  1
ByLayer
 72
     1
 94
      127
  0
MATERIAL
  5
46
102
{ACAD_REACTORS
330
43
102
}
330
43
100
AcDbMaterial
  1
Global
 72
     1
 94
      127
  0
MLEADERSTYLE
  5
5C
102
{ACAD_REACTORS
330
5B
102
}
330
5B
100
AcDbMLeaderStyle
179
     2
170
     2
171
     1
172
     0
 90
        2
 40
0.0
 41
0.0
173
     1
 91
-1056964608
340
14
 92
       -2
290
     1
 42
2.0
291
     1
 43
8.0
  3
Standard
341
0
 44
4.0
300

342
11
174
     1
178
     6
175
     1
176
     0
 93
-1056964608
 45
4.0
292
     0
297
     0
 46
4.0
343
0
 94
-1056964608
 47
1.0
 49
1.0
140
1.0
293
     1
141
0.0
294
     1
177
     0
142
1.0
295
     0
296
     0
143
3.75
271
     0
272
     9
273
     9
298
     0
  0
MLINESTYLE
  5
18
102
{ACAD_REACTORS
330
17
102
}
330
17
100
AcDbMlineStyle
  2
Standard
 70
     0
  3

 62
   256
 51
90.0
 52
90.0
 71
     2
 49
0.5
 62
   256
  6
BYLAYER
 49
-0.5
 62
   256
  6
BYLAYER
  0
ACDBPLACEHOLDER
  5
F
102
{ACAD_REACTORS
330
E
102
}
330
E
  0
SCALE
  5
48
102
{ACAD_REACTORS
330
47
102
}
330
47
100
AcDbScale
 70
     0
300
1:1
140
1.0
141
1.0
290
     1
  0
SCALE
  5
49
102
{ACAD_REACTORS
330
47
102
}
330
47
100
AcDbScale
 70
     0
300
1:2
140
1.0
141
2.0
290
     0
  0
SCALE
  5
4A
102
{ACAD_REACTORS
330
47
102
}
330
47
100
AcDbScale
 70
     0
300
1:4
140
1.0
141
4.0
290
     0
  0
SCALE
  5
4B
102
{ACAD_REACTORS
330
47
102
}
330
47
100
AcDbScale
 70
     0
300
1:5
140
1.0
141
5.0
290
     0
  0
SCALE
  5
4C
102
{ACAD_REACTORS
330
47
102
}
330
47
100
AcDbScale
 70
     0
300
1:8
140
1.0
141
8.0
290
     0
  0
SCALE
  5
4D
102
{ACAD_REACTORS
330
47
102
}
330
47
100
AcDbScale
 70
     0
300
1:10
140
1.0
141
10.0
290
     0
  0
SCALE
  5
4E
102
{ACAD_REACTORS
330
47
102
}
330
47
100
AcDbScale
 70
     0
300
1:16
140
1.0
141
16.0
290
     0
  0
SCALE
  5
4F
102
{ACAD_REACTORS
330
47
102
}
330
47
100
AcDbScale
 70
     0
300
1:20
140
1.0
141
20.0
290
     0
  0
SCALE
  5
50
102
{ACAD_REACTORS
330
47
102
}
330
47
100
AcDbScale
 70
     0
300
1:30
140
1.0
141
30.0
290
     0
  0
SCALE
  5
51
102
{ACAD_REACTORS
330
47
102
}
330
47
100
AcDbScale
 70
     0
300
1:40
140
1.0
141
40.0
290
     0
  0
SCALE
  5
52
102
{ACAD_REACTORS
330
47
102
}
330
47
100
AcDbScale
 70
     0
300
1:50
140
1.0
141
50.0
290
     0
  0
SCALE
  5
53
102
{ACAD_REACTORS
330
47
102
}
330
47
100
AcDbScale
 70
     0
300
1:100
140
1.0
141
100.0
290
     0
  0
SCALE
  5
54
102
{ACAD_REACTORS
330
47
102
}
330
47
100
AcDbScale
 70
     0
300
2:1
140
2.0
141
1.0
290
     0
  0
SCALE
  5
55
102
{ACAD_REACTORS
330
47
102
}
330
47
100
AcDbScale
 70
     0
300
4:1
140
4.0
141
1.0
290
     0
  0
SCALE
  5
56
102
{ACAD_REACTORS
330
47
102
}
330
47
100
AcDbScale
 70
     0
300
8:1
140
8.0
141
1.0
290
     0
  0
SCALE
  5
57
102
{ACAD_REACTORS
330
47
102
}
330
47
100
AcDbScale
 70
     0
300
10:1
140
10.0
141
1.0
290
     0
  0
SCALE
  5
58
102
{ACAD_REACTORS
330
47
102
}
330
47
100
AcDbScale
 70
     0
300
100:1
140
100.0
141
1.0
290
     0
  0
TABLESTYLE
  5
5A
102
{ACAD_REACTORS
330
59
102
}
102
{ACAD_XDICTIONARY
360
82
102
}
330
59
100
AcDbTableStyle
  3
Standard
 70
     0
 71
     0
 40
0.06
 41
0.06
280
     0
281
     0
  7
Standard
140
4.5
170
     2
 62
     0
 63
   257
283
     0
 90
        4
 91
        0
  1

274
    -2
284
     1
 64
     0
275
    -2
285
     1
 65
     0
276
    -2
286
     1
 66
     0
277
    -2
287
     1
 67
     0
278
    -2
288
     1
 68
     0
279
    -2
289
     1
 69
     0
  7
Standard
140
6.0
170
     5
 62
     0
 63
   257
283
     0
 90
        4
 91
        0
  1

274
    -2
284
     1
 64
     0
275
    -2
285
     1
 65
     0
276
    -2
286
     1
 66
     0
277
    -2
287
     1
 67
     0
278
    -2
288
     1
 68
     0
279
    -2
289
     1
 69
     0
  7
Standard
140
4.5
170
     5
 62
     0
 63
   257
283
     0
 90
        4
 91
        0
  1

274
    -2
284
     1
 64
     0
275
    -2
285
     1
 65
     0
276
    -2
286
     1
 66
     0
277
    -2
287
     1
 67
     0
278
    -2
288
     1
 68
     0
279
    -2
289
     1
 69
     0
  0
VISUALSTYLE
  5
2F
102
{ACAD_REACTORS
330
2A
102
}
330
2A
100
AcDbVisualStyle
  2
2dWireframe
 70
     4
177
     3
291
     0
 70
    58
 90
        0
176
     1
 90
        2
176
     1
 90
        0
176
     1
 90
        0
176
     1
 40
0.6
176
     1
 40
30.0
176
     1
 62
     7
420
 16777215
176
     1
 90
        1
176
     1
 90
        4
176
     1
 62
     7
176
     1
 62
   257
176
     1
 90
        1
176
     1
 90
        1
176
     1
 40
1.0
176
     1
 90
        0
176
     1
 62
   257
176
     1
 40
1.0
176
     1
 90
        1
176
     1
 90
        6
176
     1
 90
        2
176
     1
 62
     7
176
     1
 90
        5
176
     1
 90
        0
176
     1
 90
        0
176
     1
290
     0
176
     1
 90
        1
176
     1
 40
0.0
176
     1
 90
        0
176
     1
290
     1
176
     1
290
     1
176
     1
290
     0
176
     1
290
     0
176
     1
290
     0
176
     1
290
     0
176
     1
290
     0
176
     1
290
     0
176
     1
290
     0
176
     1
 90
       50
176
     1
 40
0.0
176
     1
 40
1.0
176
     1
 90
        0
176
     1
 62
    18
420
        0
176
     1
 90
       50
176
     1
 90
        3
176
     1
 62
     5
420
      255
176
     1
290
     0
176
     1
 90
       50
176
     1
 90
       50
176
     1
 90
       50
176
     1
290
     0
176
     1
 90
       50
176
     1
 62
   256
176
     0
 40
1.0
176
     0
 90
        2
176
     1
  1
strokes_ogs.tif
176
     1
290
     0
176
     1
 40
1.0
176
     1
 40
1.0
176
     1
  0
VISUALSTYLE
  5
32
102
{ACAD_REACTORS
330
2A
102
}
330
2A
100
AcDbVisualStyle
  2
Basic
 70
     7
177
     3
291
     1
 70
    58
 90
        1
176
     1
 90
        0
176
     1
 90
        1
176
     1
 90
        0
176
     1
 40
0.6
176
     1
 40
30.0
176
     1
 62
     7
420
 16777215
176
     1
 90
        0
176
     1
 90
        4
176
     1
 62
     7
176
     1
 62
   257
176
     1
 90
        1
176
     1
 90
        1
176
     1
 40
1.0
176
     1
 90
        8
176
     1
 62
     7
176
     1
 40
1.0
176
     1
 90
        1
176
     1
 90
        6
176
     1
 90
        2
176
     1
 62
     7
176
     1
 90
        5
176
     1
 90
        0
176
     1
 90
        0
176
     1
290
     0
176
     1
 90
        1
176
     1
 40
0.0
176
     1
 90
        0
176
     1
290
     0
176
     1
290
     1
176
     1
290
     1
176
     1
290
     0
176
     1
290
     0
176
     1
290
     0
176
     1
290
     0
176
     1
290
     0
176
     1
290
     0
176
     1
 90
       50
176
     1
 40
0.0
176
     1
 40
1.0
176
     1
 90
        0
176
     1
 62
    18
420
        0
176
     1
 90
       50
176
     1
 90
        3
176
     1
 62
     5
420
      255
176
     1
290
     0
176
     1
 90
       50
176
     1
 90
       50
176
     1
 90
       50
176
     1
290
     0
176
     1
 90
       50
176
     1
 62
   256
176
     0
 40
1.0
176
     0
 90
        2
176
     1
  1
strokes_ogs.tif
176
     1
290
     0
176
     1
 40
1.0
176
     1
 40
1.0
176
     1
  0
VISUALSTYLE
  5
36
102
{ACAD_REACTORS
330
2A
102
}
330
2A
100
AcDbVisualStyle
  2
Brighten
 70
    12
177
     3
291
     1
 70
    58
 90
        2
176
     1
 90
        2
176
     1
 90
        0
176
     1
 90
        0
176
     1
 40
0.6
176
     1
 40
30.0
176
     1
 62
     7
420
 16777215
176
     1
 90
        1
176
     1
 90
        4
176
     1
 62
     7
176
     1
 62
   257
176
     1
 90
        1
176
     1
 90
        1
176
     1
 40
1.0
176
     1
 90
        8
176
     1
 62
     7
176
     1
 40
1.0
176
     1
 90
        1
176
     1
 90
        6
176
     1
 90
        2
176
     1
 62
     7
176
     1
 90
        5
176
     1
 90
        0
176
     1
 90
        0
176
     1
290
     0
176
     1
 90
        1
176
     1
 40
50.0
176
     1
 90
        0
176
     1
290
     0
176
     1
290
     1
176
     1
290
     1
176
     1
290
     0
176
     1
290
     0
176
     1
290
     0
176
     1
290
     0
176
     1
290
     0
176
     1
290
     0
176
     1
 90
       50
176
     1
 40
0.0
176
     1
 40
1.0
176
     1
 90
        0
176
     1
 62
    18
420
        0
176
     1
 90
       50
176
     1
 90
        3
176
     1
 62
     5
420
      255
176
     1
290
     0
176
     1
 90
       50
176
     1
 90
       50
176
     1
 90
       50
176
     1
290
     0
176
     1
 90
       50
176
     1
 62
   256
176
     0
 40
1.0
176
     0
 90
        2
176
     1
  1
strokes_ogs.tif
176
     1
290
     0
176
     1
 40
1.0
176
     1
 40
1.0
176
     1
  0
VISUALSTYLE
  5
3A
102
{ACAD_REACTORS
330
2A
102
}
330
2A
100
AcDbVisualStyle
  2
ColorChange
 70
    16
177
     3
291
     1
 70
    58
 90
        2
176
     1
 90
        2
176
     1
 90
        3
176
     1
 90
        0
176
     1
 40
0.6
176
     1
 40
30.0
176
     1
 62
     8
420
  8421504
176
     1
 90
        1
176
     1
 90
        4
176
     1
 62
     7
176
     1
 62
   257
176
     1
 90
        1
176
     1
 90
        1
176
     1
 40
1.0
176
     1
 90
        8
176
     1
 62
     8
420
  8421504
176
     1
 40
1.0
176
     1
 90
        1
176
     1
 90
        6
176
     1
 90
        2
176
     1
 62
     7
176
     1
 90
        5
176
     1
 90
        0
176
     1
 90
        0
176
     1
290
     0
176
     1
 90
        1
176
     1
 40
0.0
176
     1
 90
        0
176
     1
290
     0
176
     1
290
     1
176
     1
290
     1
176
     1
290
     0
176
     1
290
     0
176
     1
290
     0
176
     1
290
     0
176
     1
290
     0
176
     1
290
     0
176
     1
 90
       50
176
     1
 40
0.0
176
     1
 40
1.0
176
     1
 90
        0
176
     1
 62
    18
420
        0
176
     1
 90
       50
176
     1
 90
        3
176
     1
 62
     5
420
      255
176
     1
290
     0
176
     1
 90
       50
176
     1
 90
       50
176
     1
 90
       50
176
     1
290
     0
176
     1
 90
       50
176
     1
 62
   256
176
     0
 40
1.0
176
     0
 90
        2
176
     1
  1
strokes_ogs.tif
176
     1
290
     0
176
     1
 40
1.0
176
     1
 40
1.0
176
     1
  0
VISUALSTYLE
  5
34
102
{ACAD_REACTORS
330
2A
102
}
330
2A
100
AcDbVisualStyle
  2
Conceptual
 70
     9
177
     3
291
     0
 70
    58
 90
        3
176
     1
 90
        2
176
     1
 90
        0
176
     1
 90
        0
176
     1
 40
0.6
176
     1
 40
30.0
176
     1
 62
     7
420
 16777215
176
     1
 90
        2
176
     1
 90
        2
176
     1
 62
     7
176
     1
 62
   257
176
     1
 90
        1
176
     1
 90
        1
176
     1
 40
179.0
176
     1
 90
        8
176
     1
 62
     7
176
     1
 40
1.0
176
     1
 90
        1
176
     1
 90
        6
176
     1
 90
        2
176
     1
 62
     7
176
     1
 90
        3
176
     1
 90
        0
176
     1
 90
        0
176
     1
290
     0
176
     1
 90
        1
176
     1
 40
0.0
176
     1
 90
        0
176
     1
290
     0
176
     1
290
     1
176
     1
290
     1
176
     1
290
     0
176
     1
290
     0
176
     1
290
     0
176
     1
290
     0
176
     1
290
     0
176
     1
290
     0
176
     1
 90
       50
176
     1
 40
0.0
176
     1
 40
1.0
176
     1
 90
        0
176
     1
 62
    18
420
        0
176
     1
 90
       50
176
     1
 90
        3
176
     1
 62
     5
420
      255
176
     1
290
     0
176
     1
 90
       50
176
     1
 90
       50
176
     1
 90
       50
176
     1
290
     0
176
     1
 90
       50
176
     1
 62
   256
176
     0
 40
1.0
176
     0
 90
        2
176
     1
  1
strokes_ogs.tif
176
     1
290
     0
176
     1
 40
1.0
176
     1
 40
1.0
176
     1
  0
VISUALSTYLE
  5
35
102
{ACAD_REACTORS
330
2A
102
}
330
2A
100
AcDbVisualStyle
  2
Dim
 70
    11
177
     3
291
     1
 70
    58
 90
        2
176
     1
 90
        2
176
     1
 90
        0
176
     1
 90
        0
176
     1
 40
0.6
176
     1
 40
30.0
176
     1
 62
     7
420
 16777215
176
     1
 90
        1
176
     1
 90
        4
176
     1
 62
     7
176
     1
 62
   257
176
     1
 90
        1
176
     1
 90
        1
176
     1
 40
1.0
176
     1
 90
        8
176
     1
 62
     7
176
     1
 40
1.0
176
     1
 90
        1
176
     1
 90
        6
176
     1
 90
        2
176
     1
 62
     7
176
     1
 90
        5
176
     1
 90
        0
176
     1
 90
        0
176
     1
290
     0
176
     1
 90
        1
176
     1
 40
-50.0
176
     1
 90
        0
176
     1
290
     0
176
     1
290
     1
176
     1
290
     1
176
     1
290
     0
176
     1
290
     0
176
     1
290
     0
176
     1
290
     0
176
     1
290
     0
176
     1
290
     0
176
     1
 90
       50
176
     1
 40
0.0
176
     1
 40
1.0
176
     1
 90
        0
176
     1
 62
    18
420
        0
176
     1
 90
       50
176
     1
 90
        3
176
     1
 62
     5
420
      255
176
     1
290
     0
176
     1
 90
       50
176
     1
 90
       50
176
     1
 90
       50
176
     1
290
     0
176
     1
 90
       50
176
     1
 62
   256
176
     0
 40
1.0
176
     0
 90
        2
176
     1
  1
strokes_ogs.tif
176
     1
290
     0
176
     1
 40
1.0
176
     1
 40
1.0
176
     1
  0
VISUALSTYLE
  5
3D
102
{ACAD_REACTORS
330
2A
102
}
330
2A
100
AcDbVisualStyle
  2
EdgeColorOff
 70
    22
177
     3
291
     1
 70
    58
 90
        2
176
     0
 90
        2
176
     0
 90
        0
176
     0
 90
        0
176
     0
 40
0.6
176
     0
 40
30.0
176
     0
 62
     7
420
 16777215
176
     0
 90
        1
176
     0
 90
        4
176
     0
 62
     7
176
     0
 62
   257
176
     0
 90
        1
176
     0
 90
        1
176
     0
 40
1.0
176
     0
 90
        8
176
     2
 62
     7
176
     0
 40
1.0
176
     0
 90
        1
176
     0
 90
        6
176
     0
 90
        2
176
     0
 62
     7
176
     0
 90
        5
176
     0
 90
        0
176
     0
 90
        0
176
     0
290
     0
176
     0
 90
        1
176
     0
 40
0.0
176
     0
 90
        0
176
     0
290
     0
176
     0
290
     1
176
     0
290
     1
176
     0
290
     0
176
     0
290
     0
176
     0
290
     0
176
     0
290
     0
176
     0
290
     0
176
     0
290
     0
176
     0
 90
       50
176
     0
 40
0.0
176
     0
 40
1.0
176
     0
 90
        0
176
     0
 62
    18
420
        0
176
     0
 90
       50
176
     0
 90
        3
176
     0
 62
     5
420
      255
176
     0
290
     0
176
     0
 90
       50
176
     0
 90
       50
176
     0
 90
       50
176
     0
290
     0
176
     0
 90
       50
176
     0
 62
   256
176
     0
 40
1.0
176
     0
 90
        2
176
     0
  1
strokes_ogs.tif
176
     0
290
     0
176
     0
 40
1.0
176
     0
 40
1.0
176
     0
  0
VISUALSTYLE
  5
39
102
{ACAD_REACTORS
330
2A
102
}
330
2A
100
AcDbVisualStyle
  2
Facepattern
 70
    15
177
     3
291
     1
 70
    58
 90
        2
176
     1
 90
        2
176
     1
 90
        0
176
     1
 90
        0
176
     1
 40
0.6
176
     1
 40
30.0
176
     1
 62
     7
420
 16777215
176
     1
 90
        1
176
     1
 90
        4
176
     1
 62
     7
176
     1
 62
   257
176
     1
 90
        1
176
     1
 90
        1
176
     1
 40
1.0
176
     1
 90
        8
176
     1
 62
     7
176
     1
 40
1.0
176
     1
 90
        1
176
     1
 90
        6
176
     1
 90
        2
176
     1
 62
     7
176
     1
 90
        5
176
     1
 90
        0
176
     1
 90
        0
176
     1
290
     0
176
     1
 90
        1
176
     1
 40
0.0
176
     1
 90
        0
176
     1
290
     0
176
     1
290
     1
176
     1
290
     1
176
     1
290
     0
176
     1
290
     0
176
     1
290
     0
176
     1
290
     0
176
     1
290
     0
176
     1
290
     0
176
     1
 90
       50
176
     1
 40
0.0
176
     1
 40
1.0
176
     1
 90
        0
176
     1
 62
    18
420
        0
176
     1
 90
       50
176
     1
 90
        3
176
     1
 62
     5
420
      255
176
     1
290
     0
176
     1
 90
       50
176
     1
 90
       50
176
     1
 90
       50
176
     1
290
     0
176
     1
 90
       50
176
     1
 62
   256
176
     0
 40
1.0
176
     0
 90
        2
176
     1
  1
strokes_ogs.tif
176
     1
290
     0
176
     1
 40
1.0
176
     1
 40
1.0
176
     1
  0
VISUALSTYLE
  5
2B
102
{ACAD_REACTORS
330
2A
102
}
330
2A
100
AcDbVisualStyle
  2
Flat
 70
     0
177
     3
291
     1
 70
    58
 90
        2
176
     1
 90
        1
176
     1
 90
        1
176
     1
 90
        2
176
     1
 40
0.6
176
     1
 40
30.0
176
     1
 62
     7
420
 16777215
176
     1
 90
        0
176
     1
 90
        0
176
     1
 62
     7
176
     1
 62
   257
176
     1
 90
        1
176
     1
 90
        1
176
     1
 40
1.0
176
     1
 90
        8
176
     1
 62
     7
176
     1
 40
1.0
176
     1
 90
        1
176
     1
 90
        6
176
     1
 90
        2
176
     1
 62
     7
176
     1
 90
        5
176
     1
 90
        0
176
     1
 90
        0
176
     1
290
     0
176
     1
 90
       13
176
     1
 40
0.0
176
     1
 90
        0
176
     1
290
     0
176
     1
290
     1
176
     1
290
     1
176
     1
290
     0
176
     1
290
     0
176
     1
290
     0
176
     1
290
     0
176
     1
290
     0
176
     1
290
     0
176
     1
 90
       50
176
     1
 40
0.0
176
     1
 40
1.0
176
     1
 90
        0
176
     1
 62
    18
420
        0
176
     1
 90
       50
176
     1
 90
        3
176
     1
 62
     5
420
      255
176
     1
290
     0
176
     1
 90
       50
176
     1
 90
       50
176
     1
 90
       50
176
     1
290
     0
176
     1
 90
       50
176
     1
 62
   256
176
     0
 40
1.0
176
     0
 90
        2
176
     1
  1
strokes_ogs.tif
176
     1
290
     0
176
     1
 40
1.0
176
     1
 40
1.0
176
     1
  0
VISUALSTYLE
  5
2C
102
{ACAD_REACTORS
330
2A
102
}
330
2A
100
AcDbVisualStyle
  2
FlatWithEdges
 70
     1
177
     3
291
     1
 70
    58
 90
        2
176
     1
 90
        1
176
     1
 90
        1
176
     1
 90
        2
176
     1
 40
0.6
176
     1
 40
30.0
176
     1
 62
     7
420
 16777215
176
     1
 90
        1
176
     1
 90
        0
176
     1
 62
     7
176
     1
 62
   257
176
     1
 90
        1
176
     1
 90
        1
176
     1
 40
1.0
176
     1
 90
        0
176
     1
 62
   257
176
     1
 40
1.0
176
     1
 90
        1
176
     1
 90
        6
176
     1
 90
        2
176
     1
 62
     7
176
     1
 90
        5
176
     1
 90
        0
176
     1
 90
        0
176
     1
290
     0
176
     1
 90
       13
176
     1
 40
0.0
176
     1
 90
        0
176
     1
290
     0
176
     1
290
     1
176
     1
290
     1
176
     1
290
     0
176
     1
290
     0
176
     1
290
     0
176
     1
290
     0
176
     1
290
     0
176
     1
290
     0
176
     1
 90
       50
176
     1
 40
0.0
176
     1
 40
1.0
176
     1
 90
        0
176
     1
 62
    18
420
        0
176
     1
 90
       50
176
     1
 90
        3
176
     1
 62
     5
420
      255
176
     1
290
     0
176
     1
 90
       50
176
     1
 90
       50
176
     1
 90
       50
176
     1
290
     0
176
     1
 90
       50
176
     1
 62
   256
176
     0
 40
1.0
176
     0
 90
        2
176
     1
  1
strokes_ogs.tif
176
     1
290
     0
176
     1
 40
1.0
176
     1
 40
1.0
176
     1
  0
VISUALSTYLE
  5
2D
102
{ACAD_REACTORS
330
2A
102
}
330
2A
100
AcDbVisualStyle
  2
Gouraud
 70
     2
177
     3
291
     1
 70
    58
 90
        2
176
     1
 90
        2
176
     1
 90
        1
176
     1
 90
        2
176
     1
 40
0.6
176
     1
 40
30.0
176
     1
 62
     7
420
 16777215
176
     1
 90
        0
176
     1
 90
        0
176
     1
 62
     7
176
     1
 62
   257
176
     1
 90
        1
176
     1
 90
        1
176
     1
 40
1.0
176
     1
 90
        0
176
     1
 62
     7
176
     1
 40
1.0
176
     1
 90
        1
176
     1
 90
        6
176
     1
 90
        2
176
     1
 62
     7
176
     1
 90
        5
176
     1
 90
        0
176
     1
 90
        0
176
     1
290
     0
176
     1
 90
       13
176
     1
 40
0.0
176
     1
 90
        0
176
     1
290
     0
176
     1
290
     1
176
     1
290
     1
176
     1
290
     0
176
     1
290
     0
176
     1
290
     0
176
     1
290
     0
176
     1
290
     0
176
     1
290
     0
176
     1
 90
       50
176
     1
 40
0.0
176
     1
 40
1.0
176
     1
 90
        0
176
     1
 62
    18
420
        0
176
     1
 90
       50
176
     1
 90
        3
176
     1
 62
     5
420
      255
176
     1
290
     0
176
     1
 90
       50
176
     1
 90
       50
176
     1
 90
       50
176
     1
290
     0
176
     1
 90
       50
176
     1
 62
   256
176
     0
 40
1.0
176
     0
 90
        2
176
     1
  1
strokes_ogs.tif
176
     1
290
     0
176
     1
 40
1.0
176
     1
 40
1.0
176
     1
  0
VISUALSTYLE
  5
2E
102
{ACAD_REACTORS
330
2A
102
}
330
2A
100
AcDbVisualStyle
  2
GouraudWithEdges
 70
     3
177
     3
291
     1
 70
    58
 90
        2
176
     1
 90
        2
176
     1
 90
        1
176
     1
 90
        2
176
     1
 40
0.6
176
     1
 40
30.0
176
     1
 62
     7
420
 16777215
176
     1
 90
        1
176
     1
 90
        0
176
     1
 62
     7
176
     1
 62
   257
176
     1
 90
        1
176
     1
 90
        1
176
     1
 40
1.0
176
     1
 90
        0
176
     1
 62
   257
176
     1
 40
1.0
176
     1
 90
        1
176
     1
 90
        6
176
     1
 90
        2
176
     1
 62
     7
176
     1
 90
        5
176
     1
 90
        0
176
     1
 90
        0
176
     1
290
     0
176
     1
 90
       13
176
     1
 40
0.0
176
     1
 90
        0
176
     1
290
     0
176
     1
290
     1
176
     1
290
     1
176
     1
290
     0
176
     1
290
     0
176
     1
290
     0
176
     1
290
     0
176
     1
290
     0
176
     1
290
     0
176
     1
 90
       50
176
     1
 40
0.0
176
     1
 40
1.0
176
     1
 90
        0
176
     1
 62
    18
420
        0
176
     1
 90
       50
176
     1
 90
        3
176
     1
 62
     5
420
      255
176
     1
290
     0
176
     1
 90
       50
176
     1
 90
       50
176
     1
 90
       50
176
     1
290
     0
176
     1
 90
       50
176
     1
 62
   256
176
     0
 40
1.0
176
     0
 90
        2
176
     1
  1
strokes_ogs.tif
176
     1
290
     0
176
     1
 40
1.0
176
     1
 40
1.0
176
     1
  0
VISUALSTYLE
  5
31
102
{ACAD_REACTORS
330
2A
102
}
330
2A
100
AcDbVisualStyle
  2
Hidden
 70
     6
177
     3
291
     0
 70
    58
 90
        1
176
     1
 90
        2
176
     1
 90
        2
176
     1
 90
        0
176
     1
 40
0.6
176
     1
 40
30.0
176
     1
 62
     7
420
 16777215
176
     1
 90
        2
176
     1
 90
        2
176
     1
 62
     7
176
     1
 62
   257
176
     1
 90
        2
176
     1
 90
        1
176
     1
 40
40.0
176
     1
 90
        0
176
     1
 62
   257
176
     1
 40
1.0
176
     1
 90
        1
176
     1
 90
        6
176
     1
 90
        2
176
     1
 62
     7
176
     1
 90
        3
176
     1
 90
        0
176
     1
 90
        0
176
     1
290
     0
176
     1
 90
        1
176
     1
 40
0.0
176
     1
 90
        0
176
     1
290
     0
176
     1
290
     1
176
     1
290
     1
176
     1
290
     0
176
     1
290
     0
176
     1
290
     0
176
     1
290
     0
176
     1
290
     0
176
     1
290
     0
176
     1
 90
       50
176
     1
 40
0.0
176
     1
 40
1.0
176
     1
 90
        0
176
     1
 62
    18
420
        0
176
     1
 90
       50
176
     1
 90
        3
176
     1
 62
     5
420
      255
176
     1
290
     0
176
     1
 90
       50
176
     1
 90
       50
176
     1
 90
       50
176
     1
290
     0
176
     1
 90
       50
176
     1
 62
   256
176
     0
 40
1.0
176
     0
 90
        2
176
     1
  1
strokes_ogs.tif
176
     1
290
     0
176
     1
 40
1.0
176
     1
 40
1.0
176
     1
  0
VISUALSTYLE
  5
3B
102
{ACAD_REACTORS
330
2A
102
}
330
2A
100
AcDbVisualStyle
  2
JitterOff
 70
    20
177
     3
291
     1
 70
    58
 90
        2
176
     0
 90
        2
176
     0
 90
        0
176
     0
 90
        0
176
     0
 40
0.6
176
     0
 40
30.0
176
     0
 62
     7
420
 16777215
176
     0
 90
        1
176
     0
 90
        4
176
     0
 62
     7
176
     0
 62
   257
176
     0
 90
        1
176
     0
 90
        1
176
     0
 40
1.0
176
     0
 90
       10
176
     2
 62
     7
176
     0
 40
1.0
176
     0
 90
        1
176
     0
 90
        6
176
     0
 90
        2
176
     0
 62
     7
176
     0
 90
        5
176
     0
 90
        0
176
     0
 90
        0
176
     0
290
     0
176
     0
 90
        1
176
     0
 40
0.0
176
     0
 90
        0
176
     0
290
     0
176
     0
290
     1
176
     0
290
     1
176
     0
290
     0
176
     0
290
     0
176
     0
290
     0
176
     0
290
     0
176
     0
290
     0
176
     0
290
     0
176
     0
 90
       50
176
     0
 40
0.0
176
     0
 40
1.0
176
     0
 90
        0
176
     0
 62
    18
420
        0
176
     0
 90
       50
176
     0
 90
        3
176
     0
 62
     5
420
      255
176
     0
290
     0
176
     0
 90
       50
176
     0
 90
       50
176
     0
 90
       50
176
     0
290
     0
176
     0
 90
       50
176
     0
 62
   256
176
     0
 40
1.0
176
     0
 90
        2
176
     0
  1
strokes_ogs.tif
176
     0
290
     0
176
     0
 40
1.0
176
     0
 40
1.0
176
     0
  0
VISUALSTYLE
  5
38
102
{ACAD_REACTORS
330
2A
102
}
330
2A
100
AcDbVisualStyle
  2
Linepattern
 70
    14
177
     3
291
     1
 70
    58
 90
        2
176
     1
 90
        2
176
     1
 90
        0
176
     1
 90
        0
176
     1
 40
0.6
176
     1
 40
30.0
176
     1
 62
     7
420
 16777215
176
     1
 90
        1
176
     1
 90
        4
176
     1
 62
     7
176
     1
 62
   257
176
     1
 90
        7
176
     1
 90
        7
176
     1
 40
1.0
176
     1
 90
        8
176
     1
 62
     7
176
     1
 40
1.0
176
     1
 90
        1
176
     1
 90
        6
176
     1
 90
        2
176
     1
 62
     7
176
     1
 90
        5
176
     1
 90
        0
176
     1
 90
        0
176
     1
290
     0
176
     1
 90
        1
176
     1
 40
0.0
176
     1
 90
        0
176
     1
290
     0
176
     1
290
     1
176
     1
290
     1
176
     1
290
     0
176
     1
290
     0
176
     1
290
     0
176
     1
290
     0
176
     1
290
     0
176
     1
290
     0
176
     1
 90
       50
176
     1
 40
0.0
176
     1
 40
1.0
176
     1
 90
        0
176
     1
 62
    18
420
        0
176
     1
 90
       50
176
     1
 90
        3
176
     1
 62
     5
420
      255
176
     1
290
     0
176
     1
 90
       50
176
     1
 90
       50
176
     1
 90
       50
176
     1
290
     0
176
     1
 90
       50
176
     1
 62
   256
176
     0
 40
1.0
176
     0
 90
        2
176
     1
  1
strokes_ogs.tif
176
     1
290
     0
176
     1
 40
1.0
176
     1
 40
1.0
176
     1
  0
VISUALSTYLE
  5
3C
102
{ACAD_REACTORS
330
2A
102
}
330
2A
100
AcDbVisualStyle
  2
OverhangOff
 70
    21
177
     3
291
     1
 70
    58
 90
        2
176
     0
 90
        2
176
     0
 90
        0
176
     0
 90
        0
176
     0
 40
0.6
176
     0
 40
30.0
176
     0
 62
     7
420
 16777215
176
     0
 90
        1
176
     0
 90
        4
176
     0
 62
     7
176
     0
 62
   257
176
     0
 90
        1
176
     0
 90
        1
176
     0
 40
1.0
176
     0
 90
        9
176
     2
 62
     7
176
     0
 40
1.0
176
     0
 90
        1
176
     0
 90
        6
176
     0
 90
        2
176
     0
 62
     7
176
     0
 90
        5
176
     0
 90
        0
176
     0
 90
        0
176
     0
290
     0
176
     0
 90
        1
176
     0
 40
0.0
176
     0
 90
        0
176
     0
290
     0
176
     0
290
     1
176
     0
290
     1
176
     0
290
     0
176
     0
290
     0
176
     0
290
     0
176
     0
290
     0
176
     0
290
     0
176
     0
290
     0
176
     0
 90
       50
176
     0
 40
0.0
176
     0
 40
1.0
176
     0
 90
        0
176
     0
 62
    18
420
        0
176
     0
 90
       50
176
     0
 90
        3
176
     0
 62
     5
420
      255
176
     0
290
     0
176
     0
 90
       50
176
     0
 90
       50
176
     0
 90
       50
176
     0
290
     0
176
     0
 90
       50
176
     0
 62
   256
176
     0
 40
1.0
176
     0
 90
        2
176
     0
  1
strokes_ogs.tif
176
     0
290
     0
176
     0
 40
1.0
176
     0
 40
1.0
176
     0
  0
VISUALSTYLE
  5
33
102
{ACAD_REACTORS
330
2A
102
}
330
2A
100
AcDbVisualStyle
  2
Realistic
 70
     8
177
     3
291
     0
 70
    58
 90
        2
176
     1
 90
        3
176
     1
 90
        0
176
     1
 90
        2
176
     1
 40
0.6
176
     1
 40
30.0
176
     1
 62
     7
420
 16777215
176
     1
 90
        0
176
     1
 90
        0
176
     1
 62
     7
176
     1
 62
   257
176
     1
 90
        1
176
     1
 90
        1
176
     1
 40
1.0
176
     1
 90
        8
176
     1
 62
   257
176
     1
 40
1.0
176
     1
 90
        1
176
     1
 90
        6
176
     1
 90
        2
176
     1
 62
     7
176
     1
 90
        3
176
     1
 90
        0
176
     1
 90
        0
176
     1
290
     0
176
     1
 90
       13
176
     1
 40
0.0
176
     1
 90
        0
176
     1
290
     0
176
     1
290
     1
176
     1
290
     1
176
     1
290
     0
176
     1
290
     0
176
     1
290
     0
176
     1
290
     0
176
     1
290
     0
176
     1
290
     0
176
     1
 90
       50
176
     1
 40
0.0
176
     1
 40
1.0
176
     1
 90
        0
176
     1
 62
    18
420
        0
176
     1
 90
       50
176
     1
 90
        3
176
     1
 62
     5
420
      255
176
     1
290
     0
176
     1
 90
       50
176
     1
 90
       50
176
     1
 90
       50
176
     1
290
     0
176
     1
 90
       50
176
     1
 62
   256
176
     0
 40
1.0
176
     0
 90
        2
176
     1
  1
strokes_ogs.tif
176
     1
290
     0
176
     1
 40
1.0
176
     1
 40
1.0
176
     1
  0
VISUALSTYLE
  5
42
102
{ACAD_REACTORS
330
2A
102
}
330
2A
100
AcDbVisualStyle
  2
Shaded
 70
    27
177
     3
291
     0
 70
    58
 90
        2
176
     1
 90
        2
176
     1
 90
        1
176
     1
 90
        2
176
     1
 40
0.6
176
     1
 40
30.0
176
     1
 62
     7
420
 16777215
176
     1
 90
        0
176
     1
 90
        4
176
     1
 62
     7
176
     1
 62
   257
176
     1
 90
        1
176
     1
 90
        1
176
     1
 40
1.0
176
     1
 90
        8
176
     1
 62
   257
176
     1
 40
1.0
176
     1
 90
        1
176
     1
 90
        6
176
     1
 90
        2
176
     1
 62
     8
420
  7895160
176
     1
 90
        3
176
     1
 90
        0
176
     1
 90
        0
176
     1
290
     0
176
     1
 90
        5
176
     1
 40
0.0
176
     1
 90
        0
176
     1
290
     0
176
     1
290
     1
176
     1
290
     1
176
     1
290
     0
176
     1
290
     0
176
     1
290
     0
176
     1
290
     0
176
     1
290
     0
176
     1
290
     0
176
     1
 90
       50
176
     1
 40
0.0
176
     1
 40
1.0
176
     1
 90
        0
176
     1
 62
    18
420
        0
176
     1
 90
       50
176
     1
 90
        3
176
     1
 62
     5
420
      255
176
     1
290
     0
176
     1
 90
       50
176
     1
 90
       50
176
     1
 90
       50
176
     1
290
     0
176
     1
 90
       50
176
     1
 62
   256
176
     0
 40
1.0
176
     0
 90
        2
176
     1
  1
strokes_ogs.tif
176
     1
290
     0
176
     1
 40
1.0
176
     1
 40
1.0
176
     1
  0
VISUALSTYLE
  5
41
102
{ACAD_REACTORS
330
2A
102
}
330
2A
100
AcDbVisualStyle
  2
Shaded with edges
 70
    26
177
     3
291
     0
 70
    58
 90
        2
176
     1
 90
        2
176
     1
 90
        1
176
     1
 90
        2
176
     1
 40
0.6
176
     1
 40
30.0
176
     1
 62
     7
420
 16777215
176
     1
 90
        1
176
     1
 90
       10
176
     1
 62
     7
176
     1
 62
   257
176
     1
 90
        2
176
     1
 90
        1
176
     1
 40
1.0
176
     1
 90
        8
176
     1
 62
   257
176
     1
 40
1.0
176
     1
 90
        1
176
     1
 90
        6
176
     1
 90
        2
176
     1
 62
     7
176
     1
 90
        3
176
     1
 90
        0
176
     1
 90
        0
176
     1
290
     0
176
     1
 90
        5
176
     1
 40
0.0
176
     1
 90
        0
176
     1
290
     0
176
     1
290
     1
176
     1
290
     1
176
     1
290
     0
176
     1
290
     0
176
     1
290
     0
176
     1
290
     0
176
     1
290
     0
176
     1
290
     0
176
     1
 90
       50
176
     1
 40
0.0
176
     1
 40
1.0
176
     1
 90
        0
176
     1
 62
    18
420
        0
176
     1
 90
       50
176
     1
 90
        3
176
     1
 62
     5
420
      255
176
     1
290
     0
176
     1
 90
       50
176
     1
 90
       50
176
     1
 90
       50
176
     1
290
     0
176
     1
 90
       50
176
     1
 62
   256
176
     0
 40
1.0
176
     0
 90
        2
176
     1
  1
strokes_ogs.tif
176
     1
290
     0
176
     1
 40
1.0
176
     1
 40
1.0
176
     1
  0
VISUALSTYLE
  5
3E
102
{ACAD_REACTORS
330
2A
102
}
330
2A
100
AcDbVisualStyle
  2
Shades of Gray
 70
    23
177
     3
291
     0
 70
    58
 90
        2
176
     1
 90
        2
176
     1
 90
        3
176
     1
 90
        0
176
     1
 40
0.6
176
     1
 40
30.0
176
     1
 62
     7
420
 16777215
176
     1
 90
        2
176
     1
 90
        2
176
     1
 62
     7
176
     1
 62
     7
176
     1
 90
        1
176
     1
 90
        1
176
     1
 40
40.0
176
     1
 90
        8
176
     1
 62
     7
176
     1
 40
1.0
176
     1
 90
        1
176
     1
 90
        6
176
     1
 90
        2
176
     1
 62
     7
176
     1
 90
        3
176
     1
 90
        0
176
     1
 90
        0
176
     1
290
     0
176
     1
 90
        1
176
     1
 40
0.0
176
     1
 90
        0
176
     1
290
     0
176
     1
290
     1
176
     1
290
     1
176
     1
290
     0
176
     1
290
     0
176
     1
290
     0
176
     1
290
     0
176
     1
290
     0
176
     1
290
     0
176
     1
 90
       50
176
     1
 40
0.0
176
     1
 40
1.0
176
     1
 90
        0
176
     1
 62
    18
420
        0
176
     1
 90
       50
176
     1
 90
        3
176
     1
 62
     5
420
      255
176
     1
290
     0
176
     1
 90
       50
176
     1
 90
       50
176
     1
 90
       50
176
     1
290
     0
176
     1
 90
       50
176
     1
 62
   256
176
     0
 40
1.0
176
     0
 90
        2
176
     1
  1
strokes_ogs.tif
176
     1
290
     0
176
     1
 40
1.0
176
     1
 40
1.0
176
     1
  0
VISUALSTYLE
  5
3F
102
{ACAD_REACTORS
330
2A
102
}
330
2A
100
AcDbVisualStyle
  2
Sketchy
 70
    24
177
     3
291
     0
 70
    58
 90
        1
176
     1
 90
        2
176
     1
 90
        2
176
     1
 90
        0
176
     1
 40
0.6
176
     1
 40
30.0
176
     1
 62
     7
420
 16777215
176
     1
 90
        2
176
     1
 90
        2
176
     1
 62
     7
176
     1
 62
     7
176
     1
 90
        1
176
     1
 90
        1
176
     1
 40
40.0
176
     1
 90
       11
176
     1
 62
     7
176
     1
 40
1.0
176
     1
 90
        1
176
     1
 90
        6
176
     1
 90
        2
176
     1
 62
     7
176
     1
 90
        6
176
     1
 90
        0
176
     1
 90
        0
176
     1
290
     0
176
     1
 90
        1
176
     1
 40
0.0
176
     1
 90
        0
176
     1
290
     0
176
     1
290
     1
176
     1
290
     1
176
     1
290
     0
176
     1
290
     0
176
     1
290
     0
176
     1
290
     0
176
     1
290
     0
176
     1
290
     0
176
     1
 90
       50
176
     1
 40
0.0
176
     1
 40
1.0
176
     1
 90
        0
176
     1
 62
    18
420
        0
176
     1
 90
       50
176
     1
 90
        3
176
     1
 62
     5
420
      255
176
     1
290
     0
176
     1
 90
       50
176
     1
 90
       50
176
     1
 90
       50
176
     1
290
     0
176
     1
 90
       50
176
     1
 62
   256
176
     0
 40
1.0
176
     0
 90
        2
176
     1
  1
strokes_ogs.tif
176
     1
290
     0
176
     1
 40
1.0
176
     1
 40
1.0
176
     1
  0
VISUALSTYLE
  5
37
102
{ACAD_REACTORS
330
2A
102
}
330
2A
100
AcDbVisualStyle
  2
Thicken
 70
    13
177
     3
291
     1
 70
    58
 90
        2
176
     1
 90
        2
176
     1
 90
        0
176
     1
 90
        0
176
     1
 40
0.6
176
     1
 40
30.0
176
     1
 62
     7
420
 16777215
176
     1
 90
        1
176
     1
 90
        4
176
     1
 62
     7
176
     1
 62
   257
176
     1
 90
        1
176
     1
 90
        1
176
     1
 40
1.0
176
     1
 90
       12
176
     1
 62
     7
176
     1
 40
1.0
176
     1
 90
        1
176
     1
 90
        6
176
     1
 90
        2
176
     1
 62
     7
176
     1
 90
        5
176
     1
 90
        0
176
     1
 90
        0
176
     1
290
     0
176
     1
 90
        1
176
     1
 40
0.0
176
     1
 90
        0
176
     1
290
     0
176
     1
290
     1
176
     1
290
     1
176
     1
290
     0
176
     1
290
     0
176
     1
290
     0
176
     1
290
     0
176
     1
290
     0
176
     1
290
     0
176
     1
 90
       50
176
     1
 40
0.0
176
     1
 40
1.0
176
     1
 90
        0
176
     1
 62
    18
420
        0
176
     1
 90
       50
176
     1
 90
        3
176
     1
 62
     5
420
      255
176
     1
290
     0
176
     1
 90
       50
176
     1
 90
       50
176
     1
 90
       50
176
     1
290
     0
176
     1
 90
       50
176
     1
 62
   256
176
     0
 40
1.0
176
     0
 90
        2
176
     1
  1
strokes_ogs.tif
176
     1
290
     0
176
     1
 40
1.0
176
     1
 40
1.0
176
     1
  0
VISUALSTYLE
  5
30
102
{ACAD_REACTORS
330
2A
102
}
330
2A
100
AcDbVisualStyle
  2
Wireframe
 70
     5
177
     3
291
     0
 70
    58
 90
        0
176
     1
 90
        2
176
     1
 90
        0
176
     1
 90
        0
176
     1
 40
0.6
176
     1
 40
30.0
176
     1
 62
     7
420
 16777215
176
     1
 90
        1
176
     1
 90
        4
176
     1
 62
     7
176
     1
 62
   257
176
     1
 90
        1
176
     1
 90
        1
176
     1
 40
1.0
176
     1
 90
        0
176
     1
 62
   257
176
     1
 40
1.0
176
     1
 90
        1
176
     1
 90
        6
176
     1
 90
        2
176
     1
 62
     7
176
     1
 90
        3
176
     1
 90
        0
176
     1
 90
        0
176
     1
290
     0
176
     1
 90
        1
176
     1
 40
0.0
176
     1
 90
        0
176
     1
290
     0
176
     1
290
     1
176
     1
290
     1
176
     1
290
     0
176
     1
290
     0
176
     1
290
     0
176
     1
290
     0
176
     1
290
     0
176
     1
290
     0
176
     1
 90
       50
176
     1
 40
0.0
176
     1
 40
1.0
176
     1
 90
        0
176
     1
 62
    18
420
        0
176
     1
 90
       50
176
     1
 90
        3
176
     1
 62
     5
420
      255
176
     1
290
     0
176
     1
 90
       50
176
     1
 90
       50
176
     1
 90
       50
176
     1
290
     0
176
     1
 90
       50
176
     1
 62
   256
176
     0
 40
1.0
176
     0
 90
        2
176
     1
  1
strokes_ogs.tif
176
     1
290
     0
176
     1
 40
1.0
176
     1
 40
1.0
176
     1
  0
VISUALSTYLE
  5
40
102
{ACAD_REACTORS
330
2A
102
}
330
2A
100
AcDbVisualStyle
  2
X-Ray
 70
    25
177
     3
291
     0
 70
    58
 90
        2
176
     1
 90
        2
176
     1
 90
        1
176
     1
 90
        1
176
     1
 40
0.5
176
     1
 40
30.0
176
     1
 62
     7
420
 16777215
176
     1
 90
        1
176
     1
 90
        0
176
     1
 62
     7
176
     1
 62
   257
176
     1
 90
        1
176
     1
 90
        1
176
     1
 40
1.0
176
     1
 90
        8
176
     1
 62
     7
176
     1
 40
1.0
176
     1
 90
        1
176
     1
 90
        6
176
     1
 90
        2
176
     1
 62
     7
176
     1
 90
        3
176
     1
 90
        0
176
     1
 90
        0
176
     1
290
     0
176
     1
 90
       13
176
     1
 40
0.0
176
     1
 90
        0
176
     1
290
     0
176
     1
290
     1
176
     1
290
     1
176
     1
290
     0
176
     1
290
     0
176
     1
290
     0
176
     1
290
     0
176
     1
290
     0
176
     1
290
     0
176
     1
 90
       50
176
     1
 40
0.0
176
     1
 40
1.0
176
     1
 90
        0
176
     1
 62
    18
420
        0
176
     1
 90
       50
176
     1
 90
        3
176
     1
 62
     5
420
      255
176
     1
290
     0
176
     1
 90
       50
176
     1
 90
       50
176
     1
 90
       50
176
     1
290
     0
176
     1
 90
       50
176
     1
 62
   256
176
     0
 40
1.0
176
     0
 90
        2
176
     1
  1
strokes_ogs.tif
176
     1
290
     0
176
     1
 40
1.0
176
     1
 40
1.0
176
     1
  0
DICTIONARYVAR
  5
81
102
{ACAD_REACTORS
330
80
102
}
330
80
100
DictionaryVariables
280
     0
  1
1:1
  0
DICTIONARYVAR
  5
89
102
{ACAD_REACTORS
330
80
102
}
330
80
100
DictionaryVariables
280
     0
  1
3.500000
  0
DICTIONARYVAR
  5
8A
102
{ACAD_REACTORS
330
80
102
}
330
80
100
DictionaryVariables
280
     0
  1
acadiso.lin
  0
DICTIONARYVAR
  5
86
102
{ACAD_REACTORS
330
80
102
}
330
80
100
DictionaryVariables
280
     0
  1
Standard
  0
DICTIONARYVAR
  5
85
102
{ACAD_REACTORS
330
80
102
}
330
80
100
DictionaryVariables
280
     0
  1
Standard
  0
DICTIONARY
  5
82
330
5A
100
AcDbDictionary
280
     1
281
     1
  3
ACAD_ROUNDTRIP_2008_TABLESTYLE_CELLSTYLEMAP
360
83
  0
CELLSTYLEMAP
  5
83
102
{ACAD_REACTORS
330
82
102
}
330
82
100
AcDbCellStyleMap
 90
        3
300
CELLSTYLE
  1
TABLEFORMAT_BEGIN
 90
        5
170
     1
 91
        0
 92
    32768
 62
   257
 93
        1
300
CONTENTFORMAT
  1
CONTENTFORMAT_BEGIN
 90
        0
 91
        0
 92
        4
 93
        0
300

 40
0.0
140
1.0
 94
        5
 62
     0
340
11
144
6.0
309
CONTENTFORMAT_END
171
     1
301
MARGIN
  1
CELLMARGIN_BEGIN
 40
1.5
 40
1.5
 40
1.5
 40
1.5
 40
1.5
 40
1.5
309
CELLMARGIN_END
 94
        6
 95
        1
302
GRIDFORMAT
  1
GRIDFORMAT_BEGIN
 90
        0
 91
        1
 62
     0
 92
       -2
340
14
 93
        0
 40
0.045
309
GRIDFORMAT_END
 95
        2
302
GRIDFORMAT
  1
GRIDFORMAT_BEGIN
 90
        0
 91
        1
 62
     0
 92
       -2
340
14
 93
        0
 40
0.045
309
GRIDFORMAT_END
 95
        4
302
GRIDFORMAT
  1
GRIDFORMAT_BEGIN
 90
        0
 91
        1
 62
     0
 92
       -2
340
14
 93
        0
 40
0.045
309
GRIDFORMAT_END
 95
        8
302
GRIDFORMAT
  1
GRIDFORMAT_BEGIN
 90
        0
 91
        1
 62
     0
 92
       -2
340
14
 93
        0
 40
0.045
309
GRIDFORMAT_END
 95
       16
302
GRIDFORMAT
  1
GRIDFORMAT_BEGIN
 90
        0
 91
        1
 62
     0
 92
       -2
340
14
 93
        0
 40
0.045
309
GRIDFORMAT_END
 95
       32
302
GRIDFORMAT
  1
GRIDFORMAT_BEGIN
 90
        0
 91
        1
 62
     0
 92
       -2
340
14
 93
        0
 40
0.045
309
GRIDFORMAT_END
309
TABLEFORMAT_END
  1
CELLSTYLE_BEGIN
 90
        1
 91
        1
300
_TITLE
309
CELLSTYLE_END
300
CELLSTYLE
  1
TABLEFORMAT_BEGIN
 90
        5
170
     1
 91
        0
 92
        0
 62
   257
 93
        1
300
CONTENTFORMAT
  1
CONTENTFORMAT_BEGIN
 90
        0
 91
        0
 92
        4
 93
        0
300

 40
0.0
140
1.0
 94
        5
 62
     0
340
11
144
4.5
309
CONTENTFORMAT_END
171
     1
301
MARGIN
  1
CELLMARGIN_BEGIN
 40
1.5
 40
1.5
 40
1.5
 40
1.5
 40
1.5
 40
1.5
309
CELLMARGIN_END
 94
        6
 95
        1
302
GRIDFORMAT
  1
GRIDFORMAT_BEGIN
 90
        0
 91
        1
 62
     0
 92
       -2
340
14
 93
        0
 40
0.045
309
GRIDFORMAT_END
 95
        2
302
GRIDFORMAT
  1
GRIDFORMAT_BEGIN
 90
        0
 91
        1
 62
     0
 92
       -2
340
14
 93
        0
 40
0.045
309
GRIDFORMAT_END
 95
        4
302
GRIDFORMAT
  1
GRIDFORMAT_BEGIN
 90
        0
 91
        1
 62
     0
 92
       -2
340
14
 93
        0
 40
0.045
309
GRIDFORMAT_END
 95
        8
302
GRIDFORMAT
  1
GRIDFORMAT_BEGIN
 90
        0
 91
        1
 62
     0
 92
       -2
340
14
 93
        0
 40
0.045
309
GRIDFORMAT_END
 95
       16
302
GRIDFORMAT
  1
GRIDFORMAT_BEGIN
 90
        0
 91
        1
 62
     0
 92
       -2
340
14
 93
        0
 40
0.045
309
GRIDFORMAT_END
 95
       32
302
GRIDFORMAT
  1
GRIDFORMAT_BEGIN
 90
        0
 91
        1
 62
     0
 92
       -2
340
14
 93
        0
 40
0.045
309
GRIDFORMAT_END
309
TABLEFORMAT_END
  1
CELLSTYLE_BEGIN
 90
        2
 91
        1
300
_HEADER
309
CELLSTYLE_END
300
CELLSTYLE
  1
TABLEFORMAT_BEGIN
 90
        5
170
     1
 91
        0
 92
        0
 62
   257
 93
        1
300
CONTENTFORMAT
  1
CONTENTFORMAT_BEGIN
 90
        0
 91
        0
 92
        4
 93
        0
300

 40
0.0
140
1.0
 94
        2
 62
     0
340
11
144
4.5
309
CONTENTFORMAT_END
171
     1
301
MARGIN
  1
CELLMARGIN_BEGIN
 40
1.5
 40
1.5
 40
1.5
 40
1.5
 40
1.5
 40
1.5
309
CELLMARGIN_END
 94
        6
 95
        1
302
GRIDFORMAT
  1
GRIDFORMAT_BEGIN
 90
        0
 91
        1
 62
     0
 92
       -2
340
14
 93
        0
 40
0.045
309
GRIDFORMAT_END
 95
        2
302
GRIDFORMAT
  1
GRIDFORMAT_BEGIN
 90
        0
 91
        1
 62
     0
 92
       -2
340
14
 93
        0
 40
0.045
309
GRIDFORMAT_END
 95
        4
302
GRIDFORMAT
  1
GRIDFORMAT_BEGIN
 90
        0
 91
        1
 62
     0
 92
       -2
340
14
 93
        0
 40
0.045
309
GRIDFORMAT_END
 95
        8
302
GRIDFORMAT
  1
GRIDFORMAT_BEGIN
 90
        0
 91
        1
 62
     0
 92
       -2
340
14
 93
        0
 40
0.045
309
GRIDFORMAT_END
 95
       16
302
GRIDFORMAT
  1
GRIDFORMAT_BEGIN
 90
        0
 91
        1
 62
     0
 92
       -2
340
14
 93
        0
 40
0.045
309
GRIDFORMAT_END
 95
       32
302
GRIDFORMAT
  1
GRIDFORMAT_BEGIN
 90
        0
 91
        1
 62
     0
 92
       -2
340
14
 93
        0
 40
0.045
309
GRIDFORMAT_END
309
TABLEFORMAT_END
  1
CELLSTYLE_BEGIN
 90
        3
 91
        2
300
_DATA
309
CELLSTYLE_END
  0
ENDSEC
  0
EOF
