  0
SECTION
  2
HEADER
  9
$ACADVER
  1
AC1032
  9
$ACADMAINTVER
 90
       55
  9
$DWGCODEPAGE
  3
ISO8859-1
  9
$LASTSAVEDBY
  1
User
  9
$REQUIREDVERSIONS
160
                 0
  9
$INSBASE
 10
0.0
 20
0.0
 30
0.0
  9
$EXTMIN
 10
1.000000000000000E+20
 20
1.000000000000000E+20
 30
1.000000000000000E+20
  9
$EXTMAX
 10
-1.000000000000000E+20
 20
-1.000000000000000E+20
 30
-1.000000000000000E+20
  9
$LIMMIN
 10
0.0
 20
0.0
  9
$LIMMAX
 10
420.0
 20
297.0
  9
$ORTHOMODE
 70
     0
  9
$REGENMODE
 70
     1
  9
$FILLMODE
 70
     1
  9
$QTEXTMODE
 70
     0
  9
$MIRRTEXT
 70
     1
  9
$LTSCALE
 40
1.0
  9
$ATTMODE
 70
     1
  9
$TEXTSIZE
 40
2.5
  9
$TRACEWID
 40
1.0
  9
$TEXTSTYLE
  7
Standard
  9
$CLAYER
  8
0
  9
$CELTYPE
  6
ByLayer
  9
$CECOLOR
 62
   256
  9
$CELTSCALE
 40
1.0
  9
$DISPSILH
 70
     0
  9
$DIMSCALE
 40
1.0
  9
$DIMASZ
 40
2.5
  9
$DIMEXO
 40
0.625
  9
$DIMDLI
 40
3.75
  9
$DIMRND
 40
0.0
  9
$DIMDLE
 40
0.0
  9
$DIMEXE
 40
1.25
  9
$DIMTP
 40
0.0
  9
$DIMTM
 40
0.0
  9
$DIMTXT
 40
2.5
  9
$DIMCEN
 40
2.5
  9
$DIMTSZ
 40
0.0
  9
$DIMTOL
 70
     0
  9
$DIMLIM
 70
     0
  9
$DIMTIH
 70
     0
  9
$DIMTOH
 70
     0
  9
$DIMSE1
 70
     0
  9
$DIMSE2
 70
     0
  9
$DIMTAD
 70
     1
  9
$DIMZIN
 70
     8
  9
$DIMBLK
  1

  9
$DIMASO
 70
     1
  9
$DIMSHO
 70
     1
  9
$DIMPOST
  1

  9
$DIMAPOST
  1

  9
$DIMALT
 70
     0
  9
$DIMALTD
 70
     3
  9
$DIMALTF
 40
0.03937007874016
  9
$DIMLFAC
 40
1.0
  9
$DIMTOFL
 70
     1
  9
$DIMTVP
 40
0.0
  9
$DIMTIX
 70
     0
  9
$DIMSOXD
 70
     0
  9
$DIMSAH
 70
     0
  9
$DIMBLK1
  1

  9
$DIMBLK2
  1

  9
$DIMSTYLE
  2
ISO-25
  9
$DIMCLRD
 70
     0
  9
$DIMCLRE
 70
     0
  9
$DIMCLRT
 70
     0
  9
$DIMTFAC
 40
1.0
  9
$DIMGAP
 40
0.625
  9
$DIMJUST
 70
     0
  9
$DIMSD1
 70
     0
  9
$DIMSD2
 70
     0
  9
$DIMTOLJ
 70
     0
  9
$DIMTZIN
 70
     8
  9
$DIMALTZ
 70
     0
  9
$DIMALTTZ
 70
     0
  9
$DIMUPT
 70
     0
  9
$DIMDEC
 70
     2
  9
$DIMTDEC
 70
     2
  9
$DIMALTU
 70
     2
  9
$DIMALTTD
 70
     3
  9
$DIMTXSTY
  7
Standard
  9
$DIMAUNIT
 70
     0
  9
$DIMADEC
 70
     0
  9
$DIMALTRND
 40
0.0
  9
$DIMAZIN
 70
     0
  9
$DIMDSEP
 70
    44
  9
$DIMATFIT
 70
     3
  9
$DIMFRAC
 70
     0
  9
$DIMLDRBLK
  1

  9
$DIMLUNIT
 70
     2
  9
$DIMLWD
 70
    -2
  9
$DIMLWE
 70
    -2
  9
$DIMTMOVE
 70
     0
  9
$DIMFXL
 40
1.0
  9
$DIMFXLON
 70
     0
  9
$DIMJOGANG
 40
0.7853981633974483
  9
$DIMTFILL
 70
     0
  9
$DIMTFILLCLR
 70
     0
  9
$DIMARCSYM
 70
     0
  9
$DIMLTYPE
  6

  9
$DIMLTEX1
  6

  9
$DIMLTEX2
  6

  9
$DIMTXTDIRECTION
 70
     0
  9
$LUNITS
 70
     2
  9
$LUPREC
 70
     4
  9
$SKETCHINC
 40
1.0
  9
$FILLETRAD
 40
0.0
  9
$AUNITS
 70
     0
  9
$AUPREC
 70
     0
  9
$MENU
  1
.
  9
$ELEVATION
 40
0.0
  9
$PELEVATION
 40
0.0
  9
$THICKNESS
 40
0.0
  9
$LIMCHECK
 70
     0
  9
$CHAMFERA
 40
0.0
  9
$CHAMFERB
 40
0.0
  9
$CHAMFERC
 40
0.0
  9
$CHAMFERD
 40
0.0
  9
$SKPOLY
 70
     0
  9
$TDCREATE
 40
2461208.005688692
  9
$TDUCREATE
 40
2461208.130688692
  9
$TDUPDATE
 40
2461208.005688773
  9
$TDUUPDATE
 40
2461208.130688773
  9
$TDINDWG
 40
0.0000000116
  9
$TDUSRTIMER
 40
0.0000000116
  9
$USRTIMER
 70
     1
  9
$ANGBASE
 50
0.0
  9
$ANGDIR
 70
     0
  9
$PDMODE
 70
     0
  9
$PDSIZE
 40
0.0
  9
$PLINEWID
 40
0.0
  9
$SPLFRAME
 70
     0
  9
$SPLINETYPE
 70
     6
  9
$SPLINESEGS
 70
     8
  9
$HANDSEED
  5
8B
  9
$SURFTAB1
 70
     6
  9
$SURFTAB2
 70
     6
  9
$SURFTYPE
 70
     6
  9
$SURFU
 70
     6
  9
$SURFV
 70
     6
  9
$UCSBASE
  2

  9
$UCSNAME
  2

  9
$UCSORG
 10
0.0
 20
0.0
 30
0.0
  9
$UCSXDIR
 10
1.0
 20
0.0
 30
0.0
  9
$UCSYDIR
 10
0.0
 20
1.0
 30
0.0
  9
$UCSORTHOREF
  2

  9
$UCSORTHOVIEW
 70
     0
  9
$UCSORGTOP
 10
0.0
 20
0.0
 30
0.0
  9
$UCSORGBOTTOM
 10
0.0
 20
0.0
 30
0.0
  9
$UCSORGLEFT
 10
0.0
 20
0.0
 30
0.0
  9
$UCSORGRIGHT
 10
0.0
 20
0.0
 30
0.0
  9
$UCSORGFRONT
 10
0.0
 20
0.0
 30
0.0
  9
$UCSORGBACK
 10
0.0
 20
0.0
 30
0.0
  9
$PUCSBASE
  2

  9
$PUCSNAME
  2

  9
$PUCSORG
 10
0.0
 20
0.0
 30
0.0
  9
$PUCSXDIR
 10
1.0
 20
0.0
 30
0.0
  9
$PUCSYDIR
 10
0.0
 20
1.0
 30
0.0
  9
$PUCSORTHOREF
  2

  9
$PUCSORTHOVIEW
 70
     0
  9
$PUCSORGTOP
 10
0.0
 20
0.0
 30
0.0
  9
$PUCSORGBOTTOM
 10
0.0
 20
0.0
 30
0.0
  9
$PUCSORGLEFT
 10
0.0
 20
0.0
 30
0.0
  9
$PUCSORGRIGHT
 10
0.0
 20
0.0
 30
0.0
  9
$PUCSORGFRONT
 10
0.0
 20
0.0
 30
0.0
  9
$PUCSORGBACK
 10
0.0
 20
0.0
 30
0.0
  9
$USERI1
 70
     0
  9
$USERI2
 70
     0
  9
$USERI3
 70
     0
  9
$USERI4
 70
     0
  9
$USERI5
 70
     0
  9
$USERR1
 40
0.0
  9
$USERR2
 40
0.0
  9
$USERR3
 40
0.0
  9
$USERR4
 40
0.0
  9
$USERR5
 40
0.0
  9
$WORLDVIEW
 70
     1
  9
$SHADEDGE
 70
     3
  9
$SHADEDIF
 70
    70
  9
$TILEMODE
 70
     1
  9
$MAXACTVP
 70
    64
  9
$PINSBASE
 10
0.0
 20
0.0
 30
0.0
  9
$PLIMCHECK
 70
     0
  9
$PEXTMIN
 10
169.418
 20
254.0
 30
0.0
  9
$PEXTMAX
 10
0.0
 20
0.0
 30
0.0
  9
$PLIMMIN
 10
-20.0
 20
-7.5
  9
$PLIMMAX
 10
277.0
 20
202.5
  9
$UNITMODE
 70
     0
  9
$VISRETAIN
 70
     1
  9
$PLINEGEN
 70
     0
  9
$PSLTSCALE
 70
     1
  9
$TREEDEPTH
 70
  3020
  9
$CMLSTYLE
  2
Standard
  9
$CMLJUST
 70
     0
  9
$CMLSCALE
 40
20.0
  9
$PROXYGRAPHICS
 70
     1
  9
$MEASUREMENT
 70
     1
  9
$CELWEIGHT
370
    -1
  9
$ENDCAPS
280
     0
  9
$JOINSTYLE
280
     0
  9
$LWDISPLAY
290
     0
  9
$INSUNITS
 70
     4
  9
$HYPERLINKBASE
  1

  9
$STYLESHEET
  1

  9
$XEDIT
290
     1
  9
$CEPSNTYPE
380
     0
  9
$PSTYLEMODE
290
     1
  9
$FINGERPRINTGUID
  2
{a8c2c293-6721-4989-928b-54f84055a843}
  9
$VERSIONGUID
  2
{FAEB1C32-E019-11D5-929B-00C0DF256EC4}
  9
$EXTNAMES
290
     1
  9
$PSVPSCALE
 40
0.0
  9
$OLESTARTUP
290
     0
  9
$SORTENTS
280
   127
  9
$INDEXCTL
280
     0
  9
$HIDETEXT
280
     1
  9
$XCLIPFRAME
280
     2
  9
$HALOGAP
280
     0
  9
$OBSCOLOR
 70
   257
  9
$OBSLTYPE
280
     0
  9
$INTERSECTIONDISPLAY
280
     0
  9
$INTERSECTIONCOLOR
 70
   257
  9
$DIMASSOC
280
     2
  9
$PROJECTNAME
  1

  9
$CAMERADISPLAY
290
     0
  9
$LENSLENGTH
 40
50.0
  9
$CAMERAHEIGHT
 40
0.0
  9
$STEPSPERSEC
 40
2.0
  9
$STEPSIZE
 40
6.0
  9
$3DDWFPREC
 40
2.0
  9
$PSOLWIDTH
 40
5.0
  9
$PSOLHEIGHT
 40
80.0
  9
$LOFTANG1
 40
1.570796326794897
  9
$LOFTANG2
 40
1.570796326794897
  9
$LOFTMAG1
 40
0.0
  9
$LOFTMAG2
 40
0.0
  9
$LOFTPARAM
 70
     7
  9
$LOFTNORMALS
280
     1
  9
$LATITUDE
 40
37.795
  9
$LONGITUDE
 40
-122.394
  9
$NORTHDIRECTION
 40
0.0
  9
$TIMEZONE
 70
 -8000
  9
$LIGHTGLYPHDISPLAY
280
     1
  9
$TILEMODELIGHTSYNCH
280
     1
  9
$CMATERIAL
347
44
  9
$SOLIDHIST
280
     0
  9
$SHOWHIST
280
     1
  9
$DWFFRAME
280
     2
  9
$DGNFRAME
280
     2
  9
$REALWORLDSCALE
290
     1
  9
$INTERFERECOLOR
 62
   256
  9
$CSHADOW
280
     0
  9
$SHADOWPLANELOCATION
 40
0.0
  0
ENDSEC
  0
SECTION
  2
CLASSES
  0
CLASS
  1
ACDBDICTIONARYWDFLT
  2
AcDbDictionaryWithDefault
  3
ObjectDBX Classes
 90
        0
 91
        3
280
     0
281
     0
  0
CLASS
  1
VISUALSTYLE
  2
AcDbVisualStyle
  3
ObjectDBX Classes
 90
     4095
 91
        3
280
     0
281
     0
  0
CLASS
  1
MATERIAL
  2
AcDbMaterial
  3
ObjectDBX Classes
 90
     1153
 91
        3
280
     0
281
     0
  0
CLASS
  1
SCALE
  2
AcDbScale
  3
ObjectDBX Classes
 90
     1153
 91
        3
280
     0
281
     0
  0
CLASS
  1
TABLESTYLE
  2
AcDbTableStyle
  3
ObjectDBX Classes
 90
     4095
 91
        3
280
     0
281
     0
  0
CLASS
  1
MLEADERSTYLE
  2
AcDbMLeaderStyle
  3
ACDB_MLEADERSTYLE_CLASS
 90
     4095
 91
        3
280
     0
281
     0
  0
CLASS
  1
SUN
  2
AcDbSun
  3
SCENEOE
 90
     1153
 91
        3
280
     0
281
     0
  0
CLASS
  1
DICTIONARYVAR
  2
AcDbDictionaryVar
  3
ObjectDBX Classes
 90
        0
 91
        3
280
     0
281
     0
  0
CLASS
  1
CELLSTYLEMAP
  2
AcDbCellStyleMap
  3
ObjectDBX Classes
 90
     1152
 91
        3
280
     0
281
     0
  0
ENDSEC
  0
SECTION
  2
TABLES
  0
TABLE
  2
VPORT
  5
8
330
0
100
AcDbSymbolTable
 70
     1
  0
VPORT
  5
29
330
8
100
AcDbSymbolTableRecord
100
AcDbViewportTableRecord
  2
*Active
 70
     0
 10
0.0
 20
0.0
 11
1.0
 21
1.0
 12
1418.166666666667
 22
84.66666666666674
 13
0.0
 23
0.0
 14
10.0
 24
10.0
 15
10.0
 25
10.0
 16
0.0
 26
0.0
 36
1.0
 17
0.0
 27
0.0
 37
0.0
 40
169.3333333333333
 41
1.972972972850329
 42
50.0
 43
0.0
 44
0.0
 50
0.0
 51
0.0
 71
     0
 72
   100
 73
     1
 74
     3
 75
     0
 76
     0
 77
     0
 78
     0
281
     0
 65
     1
110
0.0
120
0.0
130
0.0
111
1.0
121
0.0
131
0.0
112
0.0
122
1.0
132
0.0
 79
     0
146
0.0
348
2F
 60
     3
 61
     5
292
     1
282
     1
141
0.0
142
0.0
 63
   250
361
5D
  0
ENDTAB
  0
TABLE
  2
LTYPE
  5
5
330
0
100
AcDbSymbolTable
 70
     1
  0
LTYPE
  5
14
330
5
100
AcDbSymbolTableRecord
100
AcDbLinetypeTableRecord
  2
ByBlock
 70
     0
  3

 72
    65
 73
     0
 40
0.0
  0
LTYPE
  5
15
330
5
100
AcDbSymbolTableRecord
100
AcDbLinetypeTableRecord
  2
ByLayer
 70
     0
  3

 72
    65
 73
     0
 40
0.0
  0
LTYPE
  5
16
330
5
100
AcDbSymbolTableRecord
100
AcDbLinetypeTableRecord
  2
Continuous
 70
     0
  3
Solid line
 72
    65
 73
     0
 40
0.0
  0
ENDTAB
  0
TABLE
  2
LAYER
  5
2
330
0
100
AcDbSymbolTable
 70
     1
  0
LAYER
  5
10
330
2
100
AcDbSymbolTableRecord
100
AcDbLayerTableRecord
  2
0
 70
     0
 62
     7
  6
Continuous
370
    -3
390
F
347
46
348
0
  0
ENDTAB
  0
TABLE
  2
STYLE
  5
3
330
0
100
AcDbSymbolTable
 70
     1
  0
STYLE
  5
11
330
3
100
AcDbSymbolTableRecord
100
AcDbTextStyleTableRecord
  2
Standard
 70
     0
 40
0.0
 41
1.0
 50
0.0
 71
     0
 42
2.5
  3
txt
  4

  0
ENDTAB
  0
TABLE
  2
VIEW
  5
6
330
0
100
AcDbSymbolTable
 70
     0
  0
ENDTAB
  0
TABLE
  2
UCS
  5
7
330
0
100
AcDbSymbolTable
 70
     0
  0
ENDTAB
  0
TABLE
  2
APPID
  5
9
330
0
100
AcDbSymbolTable
 70
     1
  0
APPID
  5
12
330
9
100
AcDbSymbolTableRecord
100
AcDbRegAppTableRecord
  2
ACAD
 70
     0
  0
ENDTAB
  0
TABLE
  2
DIMSTYLE
  5
A
330
0
100
AcDbSymbolTable
 70
     1
100
AcDbDimStyleTable
  0
DIMSTYLE
105
27
330
A
100
AcDbSymbolTableRecord
100
AcDbDimStyleTableRecord
  2
ISO-25
 70
     0
 41
2.5
 42
0.625
 43
3.75
 44
1.25
 73
     0
 74
     0
 77
     1
 78
     8
140
2.5
141
2.5
143
0.03937007874016
147
0.625
171
     3
172
     1
178
     0
271
     2
272
     2
274
     3
278
    44
283
     0
284
     8
340
11
  0
ENDTAB
  0
TABLE
  2
BLOCK_RECORD
  5
1
330
0
100
AcDbSymbolTable
 70
     0
  0
BLOCK_RECORD
  5
1F
330
1
100
AcDbSymbolTableRecord
100
AcDbBlockTableRecord
  2
*Model_Space
340
22
 70
     0
280
     1
281
     0
  0
BLOCK_RECORD
  5
78
330
1
100
AcDbSymbolTableRecord
100
AcDbBlockTableRecord
  2
*Paper_Space
340
79
 70
     0
280
     1
281
     0
  0
ENDTAB
  0
ENDSEC
  0
SECTION
  2
BLOCKS
  0
BLOCK
  5
20
330
1F
100
AcDbEntity
  8
0
100
AcDbBlockBegin
  2
*Model_Space
 70
     0
 10
0.0
 20
0.0
 30
0.0
  3
*Model_Space
  1

  0
ENDBLK
  5
21
330
1F
100
AcDbEntity
  8
0
100
AcDbBlockEnd
  0
BLOCK
  5
7A
330
78
100
AcDbEntity
 67
     1
  8
0
100
AcDbBlockBegin
  2
*Paper_Space
 70
     0
 10
0.0
 20
0.0
 30
0.0
  3
*Paper_Space
  1

  0
ENDBLK
  5
7B
330
78
100
AcDbEntity
 67
     1
  8
0
100
AcDbBlockEnd
  0
ENDSEC
  0
SECTION
  2
ENTITIES
  0
HATCH
  5
5E
330
1F
100
AcDbEntity
  8
0
 62
    18
420
        0
440
 33554687
100
AcDbHatch
 10
0.0
 20
0.0
 30
0.0
210
0.0
220
0.0
230
1.0
  2
SOLID
 70
     1
 71
     1
 91
        5
 92
        0
 93
        1
 72
     4
 94
        3
 73
     0
 74
     1
 95
       14
 96
       10
 40
0.0
 40
0.0
 40
0.0
 40
0.0
 40
1.0
 40
1.0
 40
1.0
 40
2.0
 40
2.0
 40
2.0
 40
3.0
 40
3.0
 40
3.0
 40
3.0
 10
1439.364337833716
 20
144.3637219401182
 10
1442.600001712467
 20
144.3637219401182
 10
1445.226950256194
 20
141.7367733963913
 10
1445.226950256194
 20
138.501109517641
 10
1445.226950256194
 20
135.2654456388909
 10
1442.600001712467
 20
132.638497095164
 10
1439.364337833716
 20
132.638497095164
 10
1439.364337833716
 20
132.638497095164
 10
1439.364337833716
 20
144.3637219401182
 10
1439.364337833716
 20
144.3637219401182
 97
        0
 97
        0
 92
        0
 93
        1
 72
     4
 94
        3
 73
     0
 74
     1
 95
       14
 96
       10
 40
0.0
 40
0.0
 40
0.0
 40
0.0
 40
1.0
 40
1.0
 40
1.0
 40
2.0
 40
2.0
 40
2.0
 40
3.0
 40
3.0
 40
3.0
 40
3.0
 10
1439.364337833716
 20
144.3637219401182
 10
1439.364337833716
 20
144.3637219401182
 10
1439.364337833716
 20
156.0889467850725
 10
1439.364337833716
 20
156.0889467850725
 10
1442.600001712467
 20
156.0889467850725
 10
1445.226950256194
 20
153.4619982413456
 10
1445.226950256194
 20
150.2263343625955
 10
1445.226950256194
 20
146.990670483845
 10
1442.600001712467
 20
144.3637219401182
 10
1439.364337833716
 20
144.3637219401182
 97
        0
 97
        0
 92
        0
 93
        1
 72
     4
 94
        3
 73
     0
 74
     1
 95
       14
 96
       10
 40
0.0
 40
0.0
 40
0.0
 40
0.0
 40
1.0
 40
1.0
 40
1.0
 40
2.0
 40
2.0
 40
2.0
 40
3.0
 40
3.0
 40
3.0
 40
3.0
 10
1445.651008997355
 20
155.6640280302329
 10
1447.801166203304
 20
154.7947559488898
 10
1449.319792594016
 20
152.6864928678524
 10
1449.319792594016
 20
150.2263343625953
 10
1449.319792594016
 20
147.7661758573381
 10
1447.801166203304
 20
145.6579127763007
 10
1445.651008997355
 20
144.7886406949576
 10
1445.651008997355
 20
144.7886406949576
 10
1445.651008997355
 20
155.6640280302329
 10
1445.651008997355
 20
155.6640280302329
 97
        0
 97
        0
 92
        0
 93
        1
 72
     4
 94
        3
 73
     0
 74
     1
 95
       26
 96
       22
 40
0.0
 40
0.0
 40
0.0
 40
0.0
 40
1.0
 40
1.0
 40
1.0
 40
2.0
 40
2.0
 40
2.0
 40
3.0
 40
3.0
 40
3.0
 40
4.0
 40
4.0
 40
4.0
 40
5.0
 40
5.0
 40
5.0
 40
6.0
 40
6.0
 40
6.0
 40
7.0
 40
7.0
 40
7.0
 40
7.0
 10
1433.201344040227
 20
132.638497095164
 10
1433.201344040227
 20
132.638497095164
 10
1413.3129916599
 20
132.638497095164
 10
1413.3129916599
 20
132.638497095164
 10
1413.3129916599
 20
132.638497095164
 10
1413.3129916599
 20
156.0889467850725
 10
1413.3129916599
 20
156.0889467850725
 10
1413.3129916599
 20
156.0889467850725
 10
1433.201344040227
 20
156.0889467850725
 10
1433.201344040227
 20
156.0889467850725
 10
1436.437007918977
 20
156.0889467850725
 10
1439.063956462704
 20
153.4619982413456
 10
1439.063956462704
 20
150.2263343625955
 10
1439.063956462704
 20
146.990670483845
 10
1436.437007918977
 20
144.3637219401182
 10
1433.201344040227
 20
144.3637219401182
 10
1436.437007918977
 20
144.3637219401182
 10
1439.063956462704
 20
141.7367733963913
 10
1439.063956462704
 20
138.501109517641
 10
1439.063956462704
 20
135.2654456388909
 10
1436.437007918977
 20
132.638497095164
 10
1433.201344040227
 20
132.638497095164
 97
        0
 97
        0
 92
        0
 93
        1
 72
     4
 94
        3
 73
     0
 74
     1
 95
       14
 96
       10
 40
0.0
 40
0.0
 40
0.0
 40
0.0
 40
1.0
 40
1.0
 40
1.0
 40
2.0
 40
2.0
 40
2.0
 40
3.0
 40
3.0
 40
3.0
 40
3.0
 10
1445.651008997355
 20
143.9388031852786
 10
1447.801166203304
 20
143.0695311039358
 10
1449.319792594016
 20
140.9612680228981
 10
1449.319792594016
 20
138.501109517641
 10
1449.319792594016
 20
136.0409510123841
 10
1447.801166203304
 20
133.9326879313464
 10
1445.651008997355
 20
133.0634158500034
 10
1445.651008997355
 20
133.0634158500034
 10
1445.651008997355
 20
143.9388031852786
 10
1445.651008997355
 20
143.9388031852786
 97
        0
 97
        0
 75
     0
 76
     1
 98
        0
  0
HATCH
  5
5F
330
1F
100
AcDbEntity
  8
0
 62
    18
420
        0
440
 33554687
100
AcDbHatch
 10
0.0
 20
0.0
 30
0.0
210
0.0
220
0.0
230
1.0
  2
SOLID
 70
     1
 71
     1
 91
        2
 92
        0
 93
        1
 72
     4
 94
        3
 73
     0
 74
     1
 95
       32
 96
       28
 40
0.0
 40
0.0
 40
0.0
 40
0.0
 40
1.0
 40
1.0
 40
1.0
 40
2.0
 40
2.0
 40
2.0
 40
3.0
 40
3.0
 40
3.0
 40
4.0
 40
4.0
 40
4.0
 40
5.0
 40
5.0
 40
5.0
 40
6.0
 40
6.0
 40
6.0
 40
7.0
 40
7.0
 40
7.0
 40
8.0
 40
8.0
 40
8.0
 40
9.0
 40
9.0
 40
9.0
 40
9.0
 10
1473.204340800422
 20
139.1351833403871
 10
1473.204340800422
 20
139.1351833403871
 10
1475.151516148246
 20
139.1351833403871
 10
1475.151516148246
 20
139.1351833403871
 10
1475.773754000444
 20
139.1351833403871
 10
1476.322235210678
 20
139.0144906535386
 10
1476.796959778949
 20
138.7731052798413
 10
1477.27168434722
 20
138.5317199061442
 10
1477.640467557035
 20
138.1910983232603
 10
1477.903309408394
 20
137.75124053119
 10
1478.166151259753
 20
137.3113827391194
 10
1478.297572185433
 20
136.8017913946476
 10
1478.297572185433
 20
136.2224664977743
 10
1478.297572185433
 20
135.6538698397321
 10
1478.166151259753
 20
135.1509836445296
 10
1477.903309408394
 20
134.7138079121669
 10
1477.640467557035
 20
134.2766321798042
 10
1477.27168434722
 20
133.9373516267742
 10
1476.796959778949
 20
133.6959662530771
 10
1476.322235210678
 20
133.4545808793798
 10
1475.773754000444
 20
133.3338881925313
 10
1475.151516148246
 20
133.3338881925313
 10
1475.151516148246
 20
133.3338881925313
 10
1473.204340800422
 20
133.3338881925313
 10
1473.204340800422
 20
133.3338881925313
 10
1473.204340800422
 20
133.3338881925313
 10
1473.204340800422
 20
139.1351833403871
 10
1473.204340800422
 20
139.1351833403871
 97
        0
 97
        0
 92
        0
 93
        1
 72
     4
 94
        3
 73
     0
 74
     1
 95
       32
 96
       28
 40
0.0
 40
0.0
 40
0.0
 40
0.0
 40
1.0
 40
1.0
 40
1.0
 40
2.0
 40
2.0
 40
2.0
 40
3.0
 40
3.0
 40
3.0
 40
4.0
 40
4.0
 40
4.0
 40
5.0
 40
5.0
 40
5.0
 40
6.0
 40
6.0
 40
6.0
 40
7.0
 40
7.0
 40
7.0
 40
8.0
 40
8.0
 40
8.0
 40
9.0
 40
9.0
 40
9.0
 40
9.0
 10
1475.119331431753
 20
134.4523070906616
 10
1475.548460984993
 20
134.4523070906616
 10
1475.910539045539
 20
134.5166765236477
 10
1476.205565613391
 20
134.6454153896195
 10
1476.500592181243
 20
134.7741542555912
 10
1476.725885196694
 20
134.9686035844029
 10
1476.881444659743
 20
135.2287633760543
 10
1477.037004122792
 20
135.4889231677057
 10
1477.114783854317
 20
135.8201575416124
 10
1477.114783854317
 20
136.2224664977743
 10
1477.114783854317
 20
136.6301395733519
 10
1477.037004122792
 20
136.9667380666742
 10
1476.881444659743
 20
137.232261977741
 10
1476.725885196694
 20
137.4977858888078
 10
1476.500592181243
 20
137.6949172773272
 10
1476.205565613391
 20
137.8236561432993
 10
1475.910539045539
 20
137.952395009271
 10
1475.548460984993
 20
138.016764442257
 10
1475.119331431753
 20
138.016764442257
 10
1475.119331431753
 20
138.016764442257
 10
1474.371036773292
 20
138.016764442257
 10
1474.371036773292
 20
138.016764442257
 10
1474.371036773292
 20
138.016764442257
 10
1474.371036773292
 20
134.4523070906616
 10
1474.371036773292
 20
134.4523070906616
 10
1474.371036773292
 20
134.4523070906616
 10
1475.119331431753
 20
134.4523070906616
 10
1475.119331431753
 20
134.4523070906616
 97
        0
 97
        0
 75
     0
 76
     1
 98
        0
  0
HATCH
  5
60
330
1F
100
AcDbEntity
  8
0
 62
    18
420
        0
440
 33554687
100
AcDbHatch
 10
0.0
 20
0.0
 30
0.0
210
0.0
220
0.0
230
1.0
  2
SOLID
 70
     1
 71
     1
 91
        2
 92
        0
 93
        1
 72
     4
 94
        3
 73
     0
 74
     1
 95
       41
 96
       37
 40
0.0
 40
0.0
 40
0.0
 40
0.0
 40
1.0
 40
1.0
 40
1.0
 40
2.0
 40
2.0
 40
2.0
 40
3.0
 40
3.0
 40
3.0
 40
4.0
 40
4.0
 40
4.0
 40
5.0
 40
5.0
 40
5.0
 40
6.0
 40
6.0
 40
6.0
 40
7.0
 40
7.0
 40
7.0
 40
8.0
 40
8.0
 40
8.0
 40
9.0
 40
9.0
 40
9.0
 40
10.0
 40
10.0
 40
10.0
 40
11.0
 40
11.0
 40
11.0
 40
12.0
 40
12.0
 40
12.0
 40
12.0
 10
1480.775795355391
 20
133.2212416848058
 10
1480.352029921567
 20
133.2212416848058
 10
1479.968495383359
 20
133.3191368641387
 10
1479.625191740767
 20
133.5149272228043
 10
1479.281888098176
 20
133.7107175814697
 10
1479.012341097548
 20
133.9802645820982
 10
1478.816550738882
 20
134.3235682246898
 10
1478.620760380216
 20
134.6668718672813
 10
1478.522865200884
 20
135.0477243457815
 10
1478.522865200884
 20
135.4661256601898
 10
1478.522865200884
 20
135.8845269745984
 10
1478.620760380216
 20
136.2653794530984
 10
1478.816550738882
 20
136.6086830956899
 10
1479.012341097548
 20
136.9519867382814
 10
1479.281888098176
 20
137.22153373891
 10
1479.625191740767
 20
137.4173240975756
 10
1479.968495383359
 20
137.613114456241
 10
1480.352029921567
 20
137.7110096355739
 10
1480.775795355391
 20
137.7110096355739
 10
1481.199560789215
 20
137.7110096355739
 10
1481.584436357276
 20
137.613114456241
 10
1481.930422059576
 20
137.4173240975756
 10
1482.276407761875
 20
137.22153373891
 10
1482.547295792358
 20
136.9519867382814
 10
1482.743086151023
 20
136.6086830956899
 10
1482.938876509688
 20
136.2653794530984
 10
1483.036771689021
 20
135.8845269745984
 10
1483.036771689021
 20
135.4661256601898
 10
1483.036771689021
 20
135.0477243457815
 10
1482.938876509688
 20
134.6668718672813
 10
1482.743086151023
 20
134.3235682246898
 10
1482.547295792358
 20
133.9802645820982
 10
1482.276407761875
 20
133.7107175814697
 10
1481.930422059576
 20
133.5149272228043
 10
1481.584436357276
 20
133.3191368641387
 10
1481.199560789215
 20
133.2212416848058
 10
1480.775795355391
 20
133.2212416848058
 97
        0
 97
        0
 92
        0
 93
        1
 72
     4
 94
        3
 73
     0
 74
     1
 95
       38
 96
       34
 40
0.0
 40
0.0
 40
0.0
 40
0.0
 40
1.0
 40
1.0
 40
1.0
 40
2.0
 40
2.0
 40
2.0
 40
3.0
 40
3.0
 40
3.0
 40
4.0
 40
4.0
 40
4.0
 40
5.0
 40
5.0
 40
5.0
 40
6.0
 40
6.0
 40
6.0
 40
7.0
 40
7.0
 40
7.0
 40
8.0
 40
8.0
 40
8.0
 40
9.0
 40
9.0
 40
9.0
 40
10.0
 40
10.0
 40
10.0
 40
11.0
 40
11.0
 40
11.0
 40
11.0
 10
1480.775795355391
 20
134.2672449708271
 10
1480.990360132011
 20
134.2672449708271
 10
1481.182127401114
 20
134.3155220455665
 10
1481.351097162702
 20
134.4120761950453
 10
1481.520066924291
 20
134.5086303445244
 10
1481.652828879824
 20
134.6480974493272
 10
1481.749383029303
 20
134.8304775094541
 10
1481.845937178782
 20
135.0128575695805
 10
1481.894214253521
 20
135.2247402864925
 10
1481.894214253521
 20
135.4661256601898
 10
1481.894214253521
 20
135.7075110338869
 10
1481.845937178782
 20
135.9193937507989
 10
1481.749383029303
 20
136.1017738109258
 10
1481.652828879824
 20
136.2841538710525
 10
1481.520066924291
 20
136.4249620057092
 10
1481.351097162702
 20
136.5241982148959
 10
1481.182127401114
 20
136.6234344240825
 10
1480.990360132011
 20
136.673052528676
 10
1480.775795355391
 20
136.673052528676
 10
1480.453948190461
 20
136.673052528676
 10
1480.188424279394
 20
136.5630880806582
 10
1479.97922362219
 20
136.3431591846231
 10
1479.770022964986
 20
136.1232302885878
 10
1479.665422636384
 20
135.8308857804434
 10
1479.665422636384
 20
135.4661256601898
 10
1479.665422636384
 20
135.2247402864925
 10
1479.713699711123
 20
135.0128575695805
 10
1479.810253860602
 20
134.8304775094541
 10
1479.906808010081
 20
134.6480974493272
 10
1480.03822893576
 20
134.5086303445244
 10
1480.204516637641
 20
134.4120761950453
 10
1480.370804339521
 20
134.3155220455665
 10
1480.561230578771
 20
134.2672449708271
 10
1480.775795355391
 20
134.2672449708271
 97
        0
 97
        0
 75
     0
 76
     1
 98
        0
  0
HATCH
  5
61
330
1F
100
AcDbEntity
  8
0
 62
    18
420
        0
440
 33554687
100
AcDbHatch
 10
0.0
 20
0.0
 30
0.0
210
0.0
220
0.0
230
1.0
  2
SOLID
 70
     1
 71
     1
 91
        1
 92
        0
 93
        1
 72
     4
 94
        3
 73
     0
 74
     1
 95
       59
 96
       55
 40
0.0
 40
0.0
 40
0.0
 40
0.0
 40
1.0
 40
1.0
 40
1.0
 40
2.0
 40
2.0
 40
2.0
 40
3.0
 40
3.0
 40
3.0
 40
4.0
 40
4.0
 40
4.0
 40
5.0
 40
5.0
 40
5.0
 40
6.0
 40
6.0
 40
6.0
 40
7.0
 40
7.0
 40
7.0
 40
8.0
 40
8.0
 40
8.0
 40
9.0
 40
9.0
 40
9.0
 40
10.0
 40
10.0
 40
10.0
 40
11.0
 40
11.0
 40
11.0
 40
12.0
 40
12.0
 40
12.0
 40
13.0
 40
13.0
 40
13.0
 40
14.0
 40
14.0
 40
14.0
 40
15.0
 40
15.0
 40
15.0
 40
16.0
 40
16.0
 40
16.0
 40
17.0
 40
17.0
 40
17.0
 40
18.0
 40
18.0
 40
18.0
 40
18.0
 10
1483.616096585896
 20
137.5983631278484
 10
1483.616096585896
 20
137.5983631278484
 10
1484.718423125779
 20
137.5983631278484
 10
1484.718423125779
 20
137.5983631278484
 10
1484.718423125779
 20
137.5983631278484
 10
1484.718423125779
 20
137.0512229474682
 10
1484.718423125779
 20
137.0512229474682
 10
1484.718423125779
 20
137.0512229474682
 10
1484.766700200519
 20
137.0512229474682
 10
1484.766700200519
 20
137.0512229474682
 10
1484.88471082766
 20
137.2336030075949
 10
1485.052339559394
 20
137.3878214407903
 10
1485.269586395721
 20
137.5138782470544
 10
1485.486833232049
 20
137.6399350533186
 10
1485.742969934139
 20
137.7029634564506
 10
1486.037996501991
 20
137.7029634564506
 10
1486.311566592181
 20
137.7029634564506
 10
1486.566362264417
 20
137.6305478443414
 10
1486.802383518698
 20
137.4857166201232
 10
1487.03840477298
 20
137.3408853959047
 10
1487.227489982376
 20
137.1437540073853
 10
1487.369639146887
 20
136.8943224545649
 10
1487.511788311397
 20
136.6448909017445
 10
1487.582862893653
 20
136.3672977219928
 10
1487.582862893653
 20
136.0615429153097
 10
1487.582862893653
 20
136.0615429153097
 10
1487.582862893653
 20
133.3338881925313
 10
1487.582862893653
 20
133.3338881925313
 10
1487.582862893653
 20
133.3338881925313
 10
1486.440305458153
 20
133.3338881925313
 10
1486.440305458153
 20
133.3338881925313
 10
1486.440305458153
 20
133.3338881925313
 10
1486.440305458153
 20
135.7879728251196
 10
1486.440305458153
 20
135.7879728251196
 10
1486.440305458153
 20
136.0722711541407
 10
1486.362525726628
 20
136.2962231397375
 10
1486.206966263579
 20
136.4598287819101
 10
1486.051406800529
 20
136.6234344240825
 10
1485.842206143325
 20
136.7052372451687
 10
1485.579364291966
 20
136.7052372451687
 10
1485.327250679438
 20
136.7052372451687
 10
1485.126096201357
 20
136.6220933942286
 10
1484.975900857723
 20
136.4558056923483
 10
1484.825705514089
 20
136.2895179904681
 10
1484.750607842272
 20
136.0669070347251
 10
1484.750607842272
 20
135.7879728251196
 10
1484.750607842272
 20
135.7879728251196
 10
1484.750607842272
 20
133.3338881925313
 10
1484.750607842272
 20
133.3338881925313
 10
1484.750607842272
 20
133.3338881925313
 10
1483.616096585896
 20
133.3338881925313
 10
1483.616096585896
 20
133.3338881925313
 10
1483.616096585896
 20
133.3338881925313
 10
1483.616096585896
 20
137.5983631278484
 10
1483.616096585896
 20
137.5983631278484
 97
        0
 97
        0
 75
     0
 76
     1
 98
        0
  0
HATCH
  5
62
330
1F
100
AcDbEntity
  8
0
 62
    18
420
        0
440
 33554687
100
AcDbHatch
 10
0.0
 20
0.0
 30
0.0
210
0.0
220
0.0
230
1.0
  2
SOLID
 70
     1
 71
     1
 91
        1
 92
        0
 93
        1
 72
     4
 94
        3
 73
     0
 74
     1
 95
       26
 96
       22
 40
0.0
 40
0.0
 40
0.0
 40
0.0
 40
1.0
 40
1.0
 40
1.0
 40
2.0
 40
2.0
 40
2.0
 40
3.0
 40
3.0
 40
3.0
 40
4.0
 40
4.0
 40
4.0
 40
5.0
 40
5.0
 40
5.0
 40
6.0
 40
6.0
 40
6.0
 40
7.0
 40
7.0
 40
7.0
 40
7.0
 10
1488.105864536663
 20
138.7650591007182
 10
1488.084408059001
 20
138.9313468025985
 10
1488.127321014325
 20
139.0721549372552
 10
1488.234603402635
 20
139.1874835046883
 10
1488.341885790945
 20
139.3028120721215
 10
1488.473306716625
 20
139.360476355838
 10
1488.628866179674
 20
139.360476355838
 10
1488.784425642723
 20
139.360476355838
 10
1488.914505538549
 20
139.3028120721215
 10
1489.019105867151
 20
139.1874835046883
 10
1489.123706195753
 20
139.0721549372552
 10
1489.165278121223
 20
138.9313468025985
 10
1489.143821643561
 20
138.7650591007182
 10
1489.143821643561
 20
138.7650591007182
 10
1488.926574807234
 20
136.9063917232497
 10
1488.926574807234
 20
136.9063917232497
 10
1488.926574807234
 20
136.9063917232497
 10
1488.315065193868
 20
136.9063917232497
 10
1488.315065193868
 20
136.9063917232497
 10
1488.315065193868
 20
136.9063917232497
 10
1488.105864536663
 20
138.7650591007182
 10
1488.105864536663
 20
138.7650591007182
 97
        0
 97
        0
 75
     0
 76
     1
 98
        0
  0
HATCH
  5
63
330
1F
100
AcDbEntity
  8
0
 62
    18
420
        0
440
 33554687
100
AcDbHatch
 10
0.0
 20
0.0
 30
0.0
210
0.0
220
0.0
230
1.0
  2
SOLID
 70
     1
 71
     1
 91
        1
 92
        0
 93
        1
 72
     4
 94
        3
 73
     0
 74
     1
 95
       62
 96
       58
 40
0.0
 40
0.0
 40
0.0
 40
0.0
 40
1.0
 40
1.0
 40
1.0
 40
2.0
 40
2.0
 40
2.0
 40
3.0
 40
3.0
 40
3.0
 40
4.0
 40
4.0
 40
4.0
 40
5.0
 40
5.0
 40
5.0
 40
6.0
 40
6.0
 40
6.0
 40
7.0
 40
7.0
 40
7.0
 40
8.0
 40
8.0
 40
8.0
 40
9.0
 40
9.0
 40
9.0
 40
10.0
 40
10.0
 40
10.0
 40
11.0
 40
11.0
 40
11.0
 40
12.0
 40
12.0
 40
12.0
 40
13.0
 40
13.0
 40
13.0
 40
14.0
 40
14.0
 40
14.0
 40
15.0
 40
15.0
 40
15.0
 40
16.0
 40
16.0
 40
16.0
 40
17.0
 40
17.0
 40
17.0
 40
18.0
 40
18.0
 40
18.0
 40
19.0
 40
19.0
 40
19.0
 40
19.0
 10
1490.270286720815
 20
136.5845445583202
 10
1490.270286720815
 20
136.5845445583202
 10
1489.481761166738
 20
136.5845445583202
 10
1489.481761166738
 20
136.5845445583202
 10
1489.481761166738
 20
136.5845445583202
 10
1489.481761166738
 20
137.5983631278484
 10
1489.481761166738
 20
137.5983631278484
 10
1489.481761166738
 20
137.5983631278484
 10
1490.270286720815
 20
137.5983631278484
 10
1490.270286720815
 20
137.5983631278484
 10
1490.270286720815
 20
137.5983631278484
 10
1490.270286720815
 20
138.5478122643908
 10
1490.270286720815
 20
138.5478122643908
 10
1490.270286720815
 20
138.5478122643908
 10
1491.404797977192
 20
138.7731052798413
 10
1491.404797977192
 20
138.7731052798413
 10
1491.404797977192
 20
138.7731052798413
 10
1491.404797977192
 20
137.5983631278484
 10
1491.404797977192
 20
137.5983631278484
 10
1491.404797977192
 20
137.5983631278484
 10
1492.627817203924
 20
137.5983631278484
 10
1492.627817203924
 20
137.5983631278484
 10
1492.627817203924
 20
137.5983631278484
 10
1492.627817203924
 20
136.5845445583202
 10
1492.627817203924
 20
136.5845445583202
 10
1492.627817203924
 20
136.5845445583202
 10
1491.404797977192
 20
136.5845445583202
 10
1491.404797977192
 20
136.5845445583202
 10
1491.404797977192
 20
136.5845445583202
 10
1491.404797977192
 20
134.8385236885772
 10
1491.404797977192
 20
134.8385236885772
 10
1491.404797977192
 20
134.6346871507885
 10
1491.46648535047
 20
134.4818097474467
 10
1491.589860097026
 20
134.3798914785525
 10
1491.713234843583
 20
134.2779732096581
 10
1491.860748127509
 20
134.2270140752109
 10
1492.032399948805
 20
134.2270140752109
 10
1492.279149441917
 20
134.2270140752109
 10
1492.47762186029
 20
134.2511526125807
 10
1492.627817203924
 20
134.2994296873201
 10
1492.627817203924
 20
134.2994296873201
 10
1492.627817203924
 20
133.3338881925313
 10
1492.627817203924
 20
133.3338881925313
 10
1492.488350099121
 20
133.3070675954539
 10
1492.366316382419
 20
133.2882931774996
 10
1492.261716053817
 20
133.2775649386688
 10
1492.157115725215
 20
133.2668366998375
 10
1492.021671709973
 20
133.2614725804222
 10
1491.855384008093
 20
133.2614725804222
 10
1491.388705618946
 20
133.2614725804222
 10
1491.007853140446
 20
133.3928935061017
 10
1490.712826572593
 20
133.655735357461
 10
1490.417800004741
 20
133.9185772088201
 10
1490.270286720815
 20
134.2699270305347
 10
1490.270286720815
 20
134.7097848226053
 10
1490.270286720815
 20
134.7097848226053
 10
1490.270286720815
 20
136.5845445583202
 10
1490.270286720815
 20
136.5845445583202
 97
        0
 97
        0
 75
     0
 76
     1
 98
        0
  0
HATCH
  5
64
330
1F
100
AcDbEntity
  8
0
 62
    18
420
        0
440
 33554687
100
AcDbHatch
 10
0.0
 20
0.0
 30
0.0
210
0.0
220
0.0
230
1.0
  2
SOLID
 70
     1
 71
     1
 91
        1
 92
        0
 93
        5
 72
     1
 10
1495.452026076181
 20
133.3338881925313
 11
1494.317514819805
 21
133.3338881925313
 72
     1
 10
1494.317514819805
 20
133.3338881925313
 11
1494.317514819805
 21
134.2752911499504
 72
     1
 10
1494.317514819805
 20
134.2752911499504
 11
1494.325560998928
 21
139.1351833403871
 72
     1
 10
1494.325560998928
 20
139.1351833403871
 11
1495.460072255304
 21
139.1351833403871
 72
     1
 10
1495.460072255304
 20
139.1351833403871
 11
1495.452026076181
 21
133.3338881925313
 97
        0
 75
     0
 76
     1
 98
        0
  0
HATCH
  5
65
330
1F
100
AcDbEntity
  8
0
 62
    18
420
        0
440
 33554687
100
AcDbHatch
 10
0.0
 20
0.0
 30
0.0
210
0.0
220
0.0
230
1.0
  2
SOLID
 70
     1
 71
     1
 91
        2
 92
        0
 93
        1
 72
     4
 94
        3
 73
     0
 74
     1
 95
       29
 96
       25
 40
0.0
 40
0.0
 40
0.0
 40
0.0
 40
1.0
 40
1.0
 40
1.0
 40
2.0
 40
2.0
 40
2.0
 40
3.0
 40
3.0
 40
3.0
 40
4.0
 40
4.0
 40
4.0
 40
5.0
 40
5.0
 40
5.0
 40
6.0
 40
6.0
 40
6.0
 40
7.0
 40
7.0
 40
7.0
 40
8.0
 40
8.0
 40
8.0
 40
8.0
 10
1496.892292139241
 20
138.0006720840104
 10
1496.696920852405
 20
138.0006720840104
 10
1496.534069539525
 20
138.0663825468503
 10
1496.403738200602
 20
138.1978034725298
 10
1496.273490676044
 20
138.3292243982094
 10
1496.208366913766
 20
138.4874659209663
 10
1496.208366913766
 20
138.6725280408009
 10
1496.208366913766
 20
138.8575901606355
 10
1496.273490676044
 20
139.0158316833924
 10
1496.403738200602
 20
139.1472526090722
 10
1496.534069539525
 20
139.2786735347518
 10
1496.696920852405
 20
139.3443839975914
 10
1496.892292139241
 20
139.3443839975914
 10
1497.086490024955
 20
139.3443839975914
 10
1497.249006080371
 20
139.2786735347518
 10
1497.37984030549
 20
139.1472526090722
 10
1497.510758344974
 20
139.0158316833924
 10
1497.576217364717
 20
138.8575901606355
 10
1497.576217364717
 20
138.6725280408009
 10
1497.576217364717
 20
138.4874659209663
 10
1497.511847931731
 20
138.3292243982094
 10
1497.383109065759
 20
138.1978034725298
 10
1497.254370199787
 20
138.0663825468503
 10
1497.090764557614
 20
138.0006720840104
 10
1496.892292139241
 20
138.0006720840104
 97
        0
 97
        0
 92
        0
 93
        4
 72
     1
 10
1496.304921063245
 20
137.5983631278484
 11
1497.439432319621
 21
137.5983631278484
 72
     1
 10
1497.439432319621
 20
137.5983631278484
 11
1497.439432319621
 21
133.3338881925313
 72
     1
 10
1497.439432319621
 20
133.3338881925313
 11
1496.304921063245
 21
133.3338881925313
 72
     1
 10
1496.304921063245
 20
133.3338881925313
 11
1496.304921063245
 21
137.5983631278484
 97
        0
 75
     0
 76
     1
 98
        0
  0
HATCH
  5
66
330
1F
100
AcDbEntity
  8
0
 62
    18
420
        0
440
 33554687
100
AcDbHatch
 10
0.0
 20
0.0
 30
0.0
210
0.0
220
0.0
230
1.0
  2
SOLID
 70
     1
 71
     1
 91
        1
 92
        0
 93
        1
 72
     4
 94
        3
 73
     0
 74
     1
 95
       92
 96
       88
 40
0.0
 40
0.0
 40
0.0
 40
0.0
 40
1.0
 40
1.0
 40
1.0
 40
2.0
 40
2.0
 40
2.0
 40
3.0
 40
3.0
 40
3.0
 40
4.0
 40
4.0
 40
4.0
 40
5.0
 40
5.0
 40
5.0
 40
6.0
 40
6.0
 40
6.0
 40
7.0
 40
7.0
 40
7.0
 40
8.0
 40
8.0
 40
8.0
 40
9.0
 40
9.0
 40
9.0
 40
10.0
 40
10.0
 40
10.0
 40
11.0
 40
11.0
 40
11.0
 40
12.0
 40
12.0
 40
12.0
 40
13.0
 40
13.0
 40
13.0
 40
14.0
 40
14.0
 40
14.0
 40
15.0
 40
15.0
 40
15.0
 40
16.0
 40
16.0
 40
16.0
 40
17.0
 40
17.0
 40
17.0
 40
18.0
 40
18.0
 40
18.0
 40
19.0
 40
19.0
 40
19.0
 40
20.0
 40
20.0
 40
20.0
 40
21.0
 40
21.0
 40
21.0
 40
22.0
 40
22.0
 40
22.0
 40
23.0
 40
23.0
 40
23.0
 40
24.0
 40
24.0
 40
24.0
 40
25.0
 40
25.0
 40
25.0
 40
26.0
 40
26.0
 40
26.0
 40
27.0
 40
27.0
 40
27.0
 40
28.0
 40
28.0
 40
28.0
 40
29.0
 40
29.0
 40
29.0
 40
29.0
 10
1499.8211013401
 20
133.2212416848058
 10
1499.429520622769
 20
133.2212416848058
 10
1499.088899039886
 20
133.2815880282303
 10
1498.799236591449
 20
133.4022807150789
 10
1498.509574143012
 20
133.5229734019274
 10
1498.233321993114
 20
133.7120586113235
 10
1497.970480141755
 20
133.9695363432672
 10
1497.970480141755
 20
133.9695363432672
 10
1498.686590083724
 20
134.7097848226053
 10
1498.686590083724
 20
134.7097848226053
 10
1498.863606024435
 20
134.5274047624785
 10
1499.037939905439
 20
134.3906197173835
 10
1499.209591726734
 20
134.2994296873201
 10
1499.38124354803
 20
134.2082396572569
 10
1499.57166978728
 20
134.1626446422251
 10
1499.780870444484
 20
134.1626446422251
 10
1499.968614624027
 20
134.1626446422251
 10
1500.116127907953
 20
134.1961703885718
 10
1500.223410296263
 20
134.2632218812655
 10
1500.330692684572
 20
134.3302733739592
 10
1500.384333878727
 20
134.4228044338765
 10
1500.384333878727
 20
134.5408150610174
 10
1500.384333878727
 20
134.6588256881582
 10
1500.329351654718
 20
134.7500157182214
 10
1500.219387206701
 20
134.8143851512075
 10
1500.109422758683
 20
134.8787545841935
 10
1499.914973429871
 20
134.9404419574714
 10
1499.636039220266
 20
134.9994472710421
 10
1499.153268472872
 20
135.0906373011053
 10
1498.793872472033
 20
135.2435147044469
 10
1498.557851217752
 20
135.4580794810668
 10
1498.32182996347
 20
135.6726442576864
 10
1498.203819336329
 20
135.9757170046616
 10
1498.203819336329
 20
136.3672977219928
 10
1498.203819336329
 20
136.6033189762745
 10
1498.269529799169
 20
136.8245889021634
 10
1498.400950724849
 20
137.03110749966
 10
1498.532371650528
 20
137.2376260971564
 10
1498.722797889778
 20
137.4025727691828
 10
1498.972229442599
 20
137.5259475157393
 10
1499.221660995419
 20
137.6493222622955
 10
1499.518028593125
 20
137.7110096355739
 10
1499.861332235717
 20
137.7110096355739
 10
1500.263641191879
 20
137.7110096355739
 10
1500.581465267247
 20
137.6479812324417
 10
1500.81480446182
 20
137.5219244261775
 10
1501.048143656394
 20
137.3958676199136
 10
1501.274777701699
 20
137.1987362313942
 10
1501.494706597734
 20
136.9305302606194
 10
1501.494706597734
 20
136.9305302606194
 10
1500.673996327164
 20
136.2948821098837
 10
1500.673996327164
 20
136.2948821098837
 10
1500.555985700023
 20
136.4718980505947
 10
1500.43395198332
 20
136.5979548568589
 10
1500.307895177056
 20
136.673052528676
 10
1500.181838370793
 20
136.7481502004928
 10
1500.032984057013
 20
136.7856990364012
 10
1499.861332235717
 20
136.7856990364012
 10
1499.700408653252
 20
136.7856990364012
 10
1499.570328757426
 20
136.7481502004928
 10
1499.471092548239
 20
136.673052528676
 10
1499.371856339053
 20
136.5979548568589
 10
1499.32223823446
 20
136.5094468865034
 10
1499.32223823446
 20
136.4075286176089
 10
1499.32223823446
 20
136.3056103487145
 10
1499.371856339053
 20
136.2238075276284
 10
1499.471092548239
 20
136.1621201543501
 10
1499.570328757426
 20
136.100432781072
 10
1499.729911310037
 20
136.0427684973554
 10
1499.949840206072
 20
135.9891273032003
 10
1500.330692684572
 20
135.9033013925525
 10
1500.632424401694
 20
135.8067472430737
 10
1500.855035357437
 20
135.6994648547638
 10
1501.07764631318
 20
135.592182466454
 10
1501.242592985206
 20
135.454056391505
 10
1501.349875373516
 20
135.285086629917
 10
1501.457157761826
 20
135.1161168683291
 10
1501.510798955981
 20
134.8975290021476
 10
1501.510798955981
 20
134.6293230313729
 10
1501.510798955981
 20
134.3503888217674
 10
1501.439724373726
 20
134.1049803585083
 10
1501.297575209215
 20
133.8930976415966
 10
1501.155426044704
 20
133.6812149246846
 10
1500.955612596477
 20
133.5162682526582
 10
1500.698134864534
 20
133.3982576255173
 10
1500.44065713259
 20
133.2802469983765
 10
1500.148312624446
 20
133.2212416848058
 10
1499.8211013401
 20
133.2212416848058
 97
        0
 97
        0
 75
     0
 76
     1
 98
        0
  0
HATCH
  5
67
330
1F
100
AcDbEntity
  8
0
 62
    18
420
        0
440
 33554687
100
AcDbHatch
 10
0.0
 20
0.0
 30
0.0
210
0.0
220
0.0
230
1.0
  2
SOLID
 70
     1
 71
     1
 91
        1
 92
        0
 93
        1
 72
     4
 94
        3
 73
     0
 74
     1
 95
       62
 96
       58
 40
0.0
 40
0.0
 40
0.0
 40
0.0
 40
1.0
 40
1.0
 40
1.0
 40
2.0
 40
2.0
 40
2.0
 40
3.0
 40
3.0
 40
3.0
 40
4.0
 40
4.0
 40
4.0
 40
5.0
 40
5.0
 40
5.0
 40
6.0
 40
6.0
 40
6.0
 40
7.0
 40
7.0
 40
7.0
 40
8.0
 40
8.0
 40
8.0
 40
9.0
 40
9.0
 40
9.0
 40
10.0
 40
10.0
 40
10.0
 40
11.0
 40
11.0
 40
11.0
 40
12.0
 40
12.0
 40
12.0
 40
13.0
 40
13.0
 40
13.0
 40
14.0
 40
14.0
 40
14.0
 40
15.0
 40
15.0
 40
15.0
 40
16.0
 40
16.0
 40
16.0
 40
17.0
 40
17.0
 40
17.0
 40
18.0
 40
18.0
 40
18.0
 40
19.0
 40
19.0
 40
19.0
 40
19.0
 10
1502.42806337603
 20
136.5845445583202
 10
1502.42806337603
 20
136.5845445583202
 10
1501.639537821952
 20
136.5845445583202
 10
1501.639537821952
 20
136.5845445583202
 10
1501.639537821952
 20
136.5845445583202
 10
1501.639537821952
 20
137.5983631278484
 10
1501.639537821952
 20
137.5983631278484
 10
1501.639537821952
 20
137.5983631278484
 10
1502.42806337603
 20
137.5983631278484
 10
1502.42806337603
 20
137.5983631278484
 10
1502.42806337603
 20
137.5983631278484
 10
1502.42806337603
 20
138.5478122643908
 10
1502.42806337603
 20
138.5478122643908
 10
1502.42806337603
 20
138.5478122643908
 10
1503.562574632406
 20
138.7731052798413
 10
1503.562574632406
 20
138.7731052798413
 10
1503.562574632406
 20
138.7731052798413
 10
1503.562574632406
 20
137.5983631278484
 10
1503.562574632406
 20
137.5983631278484
 10
1503.562574632406
 20
137.5983631278484
 10
1504.785593859139
 20
137.5983631278484
 10
1504.785593859139
 20
137.5983631278484
 10
1504.785593859139
 20
137.5983631278484
 10
1504.785593859139
 20
136.5845445583202
 10
1504.785593859139
 20
136.5845445583202
 10
1504.785593859139
 20
136.5845445583202
 10
1503.562574632406
 20
136.5845445583202
 10
1503.562574632406
 20
136.5845445583202
 10
1503.562574632406
 20
136.5845445583202
 10
1503.562574632406
 20
134.8385236885772
 10
1503.562574632406
 20
134.8385236885772
 10
1503.562574632406
 20
134.6346871507885
 10
1503.624262005684
 20
134.4818097474467
 10
1503.747636752241
 20
134.3798914785525
 10
1503.871011498797
 20
134.2779732096581
 10
1504.018524782723
 20
134.2270140752109
 10
1504.190176604019
 20
134.2270140752109
 10
1504.436926097132
 20
134.2270140752109
 10
1504.635398515505
 20
134.2511526125807
 10
1504.785593859139
 20
134.2994296873201
 10
1504.785593859139
 20
134.2994296873201
 10
1504.785593859139
 20
133.3338881925313
 10
1504.785593859139
 20
133.3338881925313
 10
1504.646126754336
 20
133.3070675954539
 10
1504.524093037634
 20
133.2882931774996
 10
1504.419492709031
 20
133.2775649386688
 10
1504.314892380429
 20
133.2668366998375
 10
1504.179448365188
 20
133.2614725804222
 10
1504.013160663308
 20
133.2614725804222
 10
1503.54648227416
 20
133.2614725804222
 10
1503.16562979566
 20
133.3928935061017
 10
1502.870603227808
 20
133.655735357461
 10
1502.575576659956
 20
133.9185772088201
 10
1502.42806337603
 20
134.2699270305347
 10
1502.42806337603
 20
134.7097848226053
 10
1502.42806337603
 20
134.7097848226053
 10
1502.42806337603
 20
136.5845445583202
 10
1502.42806337603
 20
136.5845445583202
 97
        0
 97
        0
 75
     0
 76
     1
 98
        0
  0
HATCH
  5
68
330
1F
100
AcDbEntity
  8
0
 62
    18
420
        0
440
 33554687
100
AcDbHatch
 10
0.0
 20
0.0
 30
0.0
210
0.0
220
0.0
230
1.0
  2
SOLID
 70
     1
 71
     1
 91
        2
 92
        0
 93
        1
 72
     4
 94
        3
 73
     0
 74
     1
 95
       62
 96
       58
 40
0.0
 40
0.0
 40
0.0
 40
0.0
 40
1.0
 40
1.0
 40
1.0
 40
2.0
 40
2.0
 40
2.0
 40
3.0
 40
3.0
 40
3.0
 40
4.0
 40
4.0
 40
4.0
 40
5.0
 40
5.0
 40
5.0
 40
6.0
 40
6.0
 40
6.0
 40
7.0
 40
7.0
 40
7.0
 40
8.0
 40
8.0
 40
8.0
 40
9.0
 40
9.0
 40
9.0
 40
10.0
 40
10.0
 40
10.0
 40
11.0
 40
11.0
 40
11.0
 40
12.0
 40
12.0
 40
12.0
 40
13.0
 40
13.0
 40
13.0
 40
14.0
 40
14.0
 40
14.0
 40
15.0
 40
15.0
 40
15.0
 40
16.0
 40
16.0
 40
16.0
 40
17.0
 40
17.0
 40
17.0
 40
18.0
 40
18.0
 40
18.0
 40
19.0
 40
19.0
 40
19.0
 40
19.0
 10
1505.988796067898
 20
135.0718628831512
 10
1506.015586603032
 20
134.9817009373355
 10
1506.051694932475
 20
134.8945339968341
 10
1506.097121056228
 20
134.8103620616459
 10
1506.188311086291
 20
134.6413923000578
 10
1506.317049952263
 20
134.5032662251087
 10
1506.483337654143
 20
134.3959838367989
 10
1506.649625356024
 20
134.2887014484891
 10
1506.850779834104
 20
134.2350602543343
 10
1507.086801088386
 20
134.2350602543343
 10
1507.296001745591
 20
134.2350602543343
 10
1507.494474163964
 20
134.2793142395121
 10
1507.682218343506
 20
134.3678222098677
 10
1507.869962523048
 20
134.4563301802232
 10
1508.020157866682
 20
134.5756818372181
 10
1508.132804374407
 20
134.7258771808517
 10
1508.132804374407
 20
134.7258771808517
 10
1508.881099032869
 20
133.9695363432672
 10
1508.881099032869
 20
133.9695363432672
 10
1508.687990733911
 20
133.7496074472319
 10
1508.430513001967
 20
133.569909446813
 10
1508.108665837038
 20
133.4304423420101
 10
1507.786818672108
 20
133.2909752372072
 10
1507.435468850393
 20
133.2212416848058
 10
1507.054616371893
 20
133.2212416848058
 10
1506.609394460407
 20
133.2212416848058
 10
1506.215131683368
 20
133.316454804431
 10
1505.871828040777
 20
133.506881043681
 10
1505.528524398185
 20
133.697307282931
 10
1505.263000487118
 20
133.9614901641439
 10
1505.075256307576
 20
134.2994296873201
 10
1504.887512128034
 20
134.6373692104962
 10
1504.793640038263
 20
135.0155396292885
 10
1504.793640038263
 20
135.4339409436971
 10
1504.793640038263
 20
135.9006193328448
 10
1504.888853157888
 20
136.3056103487145
 10
1505.079279397137
 20
136.6489139913062
 10
1505.269705636387
 20
136.9922176338978
 10
1505.532547487747
 20
137.2550594852569
 10
1505.867804951215
 20
137.4374395453838
 10
1506.203062414684
 20
137.6198196055104
 10
1506.579891803622
 20
137.7110096355739
 10
1506.99829311803
 20
137.7110096355739
 10
1507.411330313023
 20
137.7110096355739
 10
1507.774749403423
 20
137.6211606353643
 10
1508.088550389229
 20
137.4414626349453
 10
1508.402351375036
 20
137.2617646345261
 10
1508.645077778587
 20
137.0083099921442
 10
1508.816729599883
 20
136.681098707799
 10
1508.988381421178
 20
136.3538874234539
 10
1509.074207331826
 20
135.9757170046616
 10
1509.074207331826
 20
135.5465874514223
 10
1509.074207331826
 20
135.401756227204
 10
1509.063479092995
 20
135.2435147044469
 10
1509.042022615333
 20
135.0718628831512
 10
1509.042022615333
 20
135.0718628831512
 10
1505.988796067898
 20
135.0718628831512
 10
1505.988796067898
 20
135.0718628831512
 97
        0
 97
        0
 92
        0
 93
        1
 72
     4
 94
        3
 73
     0
 74
     1
 95
       20
 96
       16
 40
0.0
 40
0.0
 40
0.0
 40
0.0
 40
1.0
 40
1.0
 40
1.0
 40
2.0
 40
2.0
 40
2.0
 40
3.0
 40
3.0
 40
3.0
 40
4.0
 40
4.0
 40
4.0
 40
5.0
 40
5.0
 40
5.0
 40
5.0
 10
1505.969002768577
 20
135.9100890484974
 10
1505.969002768577
 20
135.9100890484974
 10
1507.920402015557
 20
135.8884068346424
 10
1507.920402015557
 20
135.8884068346424
 10
1507.894068221734
 20
136.1327225050841
 10
1507.825401903214
 20
136.3285606069219
 10
1507.714403059999
 20
136.4759211401565
 10
1507.558843596949
 20
136.6824397376529
 10
1507.314776163545
 20
136.7856990364012
 10
1506.982200759784
 20
136.7856990364012
 10
1506.660353594854
 20
136.7856990364012
 10
1506.405557922618
 20
136.6770756182375
 10
1506.217813743076
 20
136.4598287819101
 10
1506.094147657344
 20
136.3167294541345
 10
1506.011210665845
 20
136.1334828763304
 10
1505.969002768577
 20
135.9100890484974
 97
        0
 97
        0
 75
     0
 76
     1
 98
        0
  0
HATCH
  5
69
330
1F
100
AcDbEntity
  8
0
 62
    18
420
        0
440
 33554687
100
AcDbHatch
 10
0.0
 20
0.0
 30
0.0
210
0.0
220
0.0
230
1.0
  2
SOLID
 70
     1
 71
     1
 91
        1
 92
        0
 93
        1
 72
     4
 94
        3
 73
     0
 74
     1
 95
       59
 96
       55
 40
0.0
 40
0.0
 40
0.0
 40
0.0
 40
1.0
 40
1.0
 40
1.0
 40
2.0
 40
2.0
 40
2.0
 40
3.0
 40
3.0
 40
3.0
 40
4.0
 40
4.0
 40
4.0
 40
5.0
 40
5.0
 40
5.0
 40
6.0
 40
6.0
 40
6.0
 40
7.0
 40
7.0
 40
7.0
 40
8.0
 40
8.0
 40
8.0
 40
9.0
 40
9.0
 40
9.0
 40
10.0
 40
10.0
 40
10.0
 40
11.0
 40
11.0
 40
11.0
 40
12.0
 40
12.0
 40
12.0
 40
13.0
 40
13.0
 40
13.0
 40
14.0
 40
14.0
 40
14.0
 40
15.0
 40
15.0
 40
15.0
 40
16.0
 40
16.0
 40
16.0
 40
17.0
 40
17.0
 40
17.0
 40
18.0
 40
18.0
 40
18.0
 40
18.0
 10
1509.6535322287
 20
137.5983631278484
 10
1509.6535322287
 20
137.5983631278484
 10
1510.755858768583
 20
137.5983631278484
 10
1510.755858768583
 20
137.5983631278484
 10
1510.755858768583
 20
137.5983631278484
 10
1510.755858768583
 20
137.0512229474682
 10
1510.755858768583
 20
137.0512229474682
 10
1510.755858768583
 20
137.0512229474682
 10
1510.804135843322
 20
137.0512229474682
 10
1510.804135843322
 20
137.0512229474682
 10
1510.922146470464
 20
137.2336030075949
 10
1511.089775202198
 20
137.3878214407903
 10
1511.307022038525
 20
137.5138782470544
 10
1511.524268874852
 20
137.6399350533186
 10
1511.780405576942
 20
137.7029634564506
 10
1512.075432144795
 20
137.7029634564506
 10
1512.349002234985
 20
137.7029634564506
 10
1512.60379790722
 20
137.6305478443414
 10
1512.839819161502
 20
137.4857166201232
 10
1513.075840415784
 20
137.3408853959047
 10
1513.26492562518
 20
137.1437540073853
 10
1513.407074789691
 20
136.8943224545649
 10
1513.549223954201
 20
136.6448909017445
 10
1513.620298536457
 20
136.3672977219928
 10
1513.620298536457
 20
136.0615429153097
 10
1513.620298536457
 20
136.0615429153097
 10
1513.620298536457
 20
133.3338881925313
 10
1513.620298536457
 20
133.3338881925313
 10
1513.620298536457
 20
133.3338881925313
 10
1512.477741100956
 20
133.3338881925313
 10
1512.477741100956
 20
133.3338881925313
 10
1512.477741100956
 20
133.3338881925313
 10
1512.477741100956
 20
135.7879728251196
 10
1512.477741100956
 20
135.7879728251196
 10
1512.477741100956
 20
136.0722711541407
 10
1512.399961369432
 20
136.2962231397375
 10
1512.244401906382
 20
136.4598287819101
 10
1512.088842443333
 20
136.6234344240825
 10
1511.879641786129
 20
136.7052372451687
 10
1511.61679993477
 20
136.7052372451687
 10
1511.364686322242
 20
136.7052372451687
 10
1511.163531844161
 20
136.6220933942286
 10
1511.013336500527
 20
136.4558056923483
 10
1510.863141156893
 20
136.2895179904681
 10
1510.788043485076
 20
136.0669070347251
 10
1510.788043485076
 20
135.7879728251196
 10
1510.788043485076
 20
135.7879728251196
 10
1510.788043485076
 20
133.3338881925313
 10
1510.788043485076
 20
133.3338881925313
 10
1510.788043485076
 20
133.3338881925313
 10
1509.6535322287
 20
133.3338881925313
 10
1509.6535322287
 20
133.3338881925313
 10
1509.6535322287
 20
133.3338881925313
 10
1509.6535322287
 20
137.5983631278484
 10
1509.6535322287
 20
137.5983631278484
 97
        0
 97
        0
 75
     0
 76
     1
 98
        0
  0
HATCH
  5
6A
330
1F
100
AcDbEntity
  8
0
 62
    18
420
        0
440
 33554687
100
AcDbHatch
 10
0.0
 20
0.0
 30
0.0
210
0.0
220
0.0
230
1.0
  2
SOLID
 70
     1
 71
     1
 91
        1
 92
        0
 93
        1
 72
     4
 94
        3
 73
     0
 74
     1
 95
       62
 96
       58
 40
0.0
 40
0.0
 40
0.0
 40
0.0
 40
1.0
 40
1.0
 40
1.0
 40
2.0
 40
2.0
 40
2.0
 40
3.0
 40
3.0
 40
3.0
 40
4.0
 40
4.0
 40
4.0
 40
5.0
 40
5.0
 40
5.0
 40
6.0
 40
6.0
 40
6.0
 40
7.0
 40
7.0
 40
7.0
 40
8.0
 40
8.0
 40
8.0
 40
9.0
 40
9.0
 40
9.0
 40
10.0
 40
10.0
 40
10.0
 40
11.0
 40
11.0
 40
11.0
 40
12.0
 40
12.0
 40
12.0
 40
13.0
 40
13.0
 40
13.0
 40
14.0
 40
14.0
 40
14.0
 40
15.0
 40
15.0
 40
15.0
 40
16.0
 40
16.0
 40
16.0
 40
17.0
 40
17.0
 40
17.0
 40
18.0
 40
18.0
 40
18.0
 40
19.0
 40
19.0
 40
19.0
 40
19.0
 10
1516.082429348167
 20
136.5845445583202
 10
1516.082429348167
 20
136.5845445583202
 10
1515.29390379409
 20
136.5845445583202
 10
1515.29390379409
 20
136.5845445583202
 10
1515.29390379409
 20
136.5845445583202
 10
1515.29390379409
 20
137.5983631278484
 10
1515.29390379409
 20
137.5983631278484
 10
1515.29390379409
 20
137.5983631278484
 10
1516.082429348167
 20
137.5983631278484
 10
1516.082429348167
 20
137.5983631278484
 10
1516.082429348167
 20
137.5983631278484
 10
1516.082429348167
 20
138.5478122643908
 10
1516.082429348167
 20
138.5478122643908
 10
1516.082429348167
 20
138.5478122643908
 10
1517.216940604544
 20
138.7731052798413
 10
1517.216940604544
 20
138.7731052798413
 10
1517.216940604544
 20
138.7731052798413
 10
1517.216940604544
 20
137.5983631278484
 10
1517.216940604544
 20
137.5983631278484
 10
1517.216940604544
 20
137.5983631278484
 10
1518.439959831276
 20
137.5983631278484
 10
1518.439959831276
 20
137.5983631278484
 10
1518.439959831276
 20
137.5983631278484
 10
1518.439959831276
 20
136.5845445583202
 10
1518.439959831276
 20
136.5845445583202
 10
1518.439959831276
 20
136.5845445583202
 10
1517.216940604544
 20
136.5845445583202
 10
1517.216940604544
 20
136.5845445583202
 10
1517.216940604544
 20
136.5845445583202
 10
1517.216940604544
 20
134.8385236885772
 10
1517.216940604544
 20
134.8385236885772
 10
1517.216940604544
 20
134.6346871507885
 10
1517.278627977822
 20
134.4818097474467
 10
1517.402002724378
 20
134.3798914785525
 10
1517.525377470935
 20
134.2779732096581
 10
1517.672890754861
 20
134.2270140752109
 10
1517.844542576157
 20
134.2270140752109
 10
1518.091292069269
 20
134.2270140752109
 10
1518.289764487643
 20
134.2511526125807
 10
1518.439959831276
 20
134.2994296873201
 10
1518.439959831276
 20
134.2994296873201
 10
1518.439959831276
 20
133.3338881925313
 10
1518.439959831276
 20
133.3338881925313
 10
1518.300492726474
 20
133.3070675954539
 10
1518.178459009771
 20
133.2882931774996
 10
1518.073858681169
 20
133.2775649386688
 10
1517.969258352567
 20
133.2668366998375
 10
1517.833814337326
 20
133.2614725804222
 10
1517.667526635445
 20
133.2614725804222
 10
1517.200848246298
 20
133.2614725804222
 10
1516.819995767798
 20
133.3928935061017
 10
1516.524969199945
 20
133.655735357461
 10
1516.229942632093
 20
133.9185772088201
 10
1516.082429348167
 20
134.2699270305347
 10
1516.082429348167
 20
134.7097848226053
 10
1516.082429348167
 20
134.7097848226053
 10
1516.082429348167
 20
136.5845445583202
 10
1516.082429348167
 20
136.5845445583202
 97
        0
 97
        0
 75
     0
 76
     1
 98
        0
  0
HATCH
  5
6B
330
1F
100
AcDbEntity
  8
0
 62
    18
420
        0
440
 33554687
100
AcDbHatch
 10
0.0
 20
0.0
 30
0.0
210
0.0
220
0.0
230
1.0
  2
SOLID
 70
     1
 71
     1
 91
        2
 92
        0
 93
        1
 72
     4
 94
        3
 73
     0
 74
     1
 95
       41
 96
       37
 40
0.0
 40
0.0
 40
0.0
 40
0.0
 40
1.0
 40
1.0
 40
1.0
 40
2.0
 40
2.0
 40
2.0
 40
3.0
 40
3.0
 40
3.0
 40
4.0
 40
4.0
 40
4.0
 40
5.0
 40
5.0
 40
5.0
 40
6.0
 40
6.0
 40
6.0
 40
7.0
 40
7.0
 40
7.0
 40
8.0
 40
8.0
 40
8.0
 40
9.0
 40
9.0
 40
9.0
 40
10.0
 40
10.0
 40
10.0
 40
11.0
 40
11.0
 40
11.0
 40
12.0
 40
12.0
 40
12.0
 40
12.0
 10
1520.700936164907
 20
133.2212416848058
 10
1520.277170731084
 20
133.2212416848058
 10
1519.893636192876
 20
133.3191368641387
 10
1519.550332550284
 20
133.5149272228043
 10
1519.207028907693
 20
133.7107175814697
 10
1518.937481907064
 20
133.9802645820982
 10
1518.741691548398
 20
134.3235682246898
 10
1518.545901189733
 20
134.6668718672813
 10
1518.4480060104
 20
135.0477243457815
 10
1518.4480060104
 20
135.4661256601898
 10
1518.4480060104
 20
135.8845269745984
 10
1518.545901189733
 20
136.2653794530984
 10
1518.741691548398
 20
136.6086830956899
 10
1518.937481907064
 20
136.9519867382814
 10
1519.207028907693
 20
137.22153373891
 10
1519.550332550284
 20
137.4173240975756
 10
1519.893636192876
 20
137.613114456241
 10
1520.277170731084
 20
137.7110096355739
 10
1520.700936164907
 20
137.7110096355739
 10
1521.124701598731
 20
137.7110096355739
 10
1521.509577166793
 20
137.613114456241
 10
1521.855562869093
 20
137.4173240975756
 10
1522.201548571392
 20
137.22153373891
 10
1522.472436601874
 20
136.9519867382814
 10
1522.66822696054
 20
136.6086830956899
 10
1522.864017319205
 20
136.2653794530984
 10
1522.961912498538
 20
135.8845269745984
 10
1522.961912498538
 20
135.4661256601898
 10
1522.961912498538
 20
135.0477243457815
 10
1522.864017319205
 20
134.6668718672813
 10
1522.66822696054
 20
134.3235682246898
 10
1522.472436601874
 20
133.9802645820982
 10
1522.201548571392
 20
133.7107175814697
 10
1521.855562869093
 20
133.5149272228043
 10
1521.509577166793
 20
133.3191368641387
 10
1521.124701598731
 20
133.2212416848058
 10
1520.700936164907
 20
133.2212416848058
 97
        0
 97
        0
 92
        0
 93
        1
 72
     4
 94
        3
 73
     0
 74
     1
 95
       38
 96
       34
 40
0.0
 40
0.0
 40
0.0
 40
0.0
 40
1.0
 40
1.0
 40
1.0
 40
2.0
 40
2.0
 40
2.0
 40
3.0
 40
3.0
 40
3.0
 40
4.0
 40
4.0
 40
4.0
 40
5.0
 40
5.0
 40
5.0
 40
6.0
 40
6.0
 40
6.0
 40
7.0
 40
7.0
 40
7.0
 40
8.0
 40
8.0
 40
8.0
 40
9.0
 40
9.0
 40
9.0
 40
10.0
 40
10.0
 40
10.0
 40
11.0
 40
11.0
 40
11.0
 40
11.0
 10
1520.700936164907
 20
134.2672449708271
 10
1520.915500941527
 20
134.2672449708271
 10
1521.107268210631
 20
134.3155220455665
 10
1521.276237972219
 20
134.4120761950453
 10
1521.445207733807
 20
134.5086303445244
 10
1521.577969689341
 20
134.6480974493272
 10
1521.674523838819
 20
134.8304775094541
 10
1521.771077988298
 20
135.0128575695805
 10
1521.819355063038
 20
135.2247402864925
 10
1521.819355063038
 20
135.4661256601898
 10
1521.819355063038
 20
135.7075110338869
 10
1521.771077988298
 20
135.9193937507989
 10
1521.674523838819
 20
136.1017738109258
 10
1521.577969689341
 20
136.2841538710525
 10
1521.445207733807
 20
136.4249620057092
 10
1521.276237972219
 20
136.5241982148959
 10
1521.107268210631
 20
136.6234344240825
 10
1520.915500941527
 20
136.673052528676
 10
1520.700936164907
 20
136.673052528676
 10
1520.379088999978
 20
136.673052528676
 10
1520.113565088911
 20
136.5630880806582
 10
1519.904364431707
 20
136.3431591846231
 10
1519.695163774503
 20
136.1232302885878
 10
1519.5905634459
 20
135.8308857804434
 10
1519.5905634459
 20
135.4661256601898
 10
1519.5905634459
 20
135.2247402864925
 10
1519.63884052064
 20
135.0128575695805
 10
1519.735394670119
 20
134.8304775094541
 10
1519.831948819598
 20
134.6480974493272
 10
1519.963369745277
 20
134.5086303445244
 10
1520.129657447158
 20
134.4120761950453
 10
1520.295945149038
 20
134.3155220455665
 10
1520.486371388288
 20
134.2672449708271
 10
1520.700936164907
 20
134.2672449708271
 97
        0
 97
        0
 75
     0
 76
     1
 98
        0
  0
HATCH
  5
6C
330
1F
100
AcDbEntity
  8
0
 62
    18
420
        0
440
 33554687
100
AcDbHatch
 10
0.0
 20
0.0
 30
0.0
210
0.0
220
0.0
230
1.0
  2
SOLID
 70
     1
 71
     1
 91
        1
 92
        0
 93
        1
 72
     4
 94
        3
 73
     0
 74
     1
 95
       59
 96
       55
 40
0.0
 40
0.0
 40
0.0
 40
0.0
 40
1.0
 40
1.0
 40
1.0
 40
2.0
 40
2.0
 40
2.0
 40
3.0
 40
3.0
 40
3.0
 40
4.0
 40
4.0
 40
4.0
 40
5.0
 40
5.0
 40
5.0
 40
6.0
 40
6.0
 40
6.0
 40
7.0
 40
7.0
 40
7.0
 40
8.0
 40
8.0
 40
8.0
 40
9.0
 40
9.0
 40
9.0
 40
10.0
 40
10.0
 40
10.0
 40
11.0
 40
11.0
 40
11.0
 40
12.0
 40
12.0
 40
12.0
 40
13.0
 40
13.0
 40
13.0
 40
14.0
 40
14.0
 40
14.0
 40
15.0
 40
15.0
 40
15.0
 40
16.0
 40
16.0
 40
16.0
 40
17.0
 40
17.0
 40
17.0
 40
18.0
 40
18.0
 40
18.0
 40
18.0
 10
1526.276938297313
 20
133.2292878639291
 10
1526.019460565369
 20
133.2292878639291
 10
1525.775393131964
 20
133.3017034760385
 10
1525.544735997098
 20
133.4465347002567
 10
1525.314078862232
 20
133.591365924475
 10
1525.127675712543
 20
133.7898383428483
 10
1524.985526548032
 20
134.0419519553766
 10
1524.843377383522
 20
134.2940655679045
 10
1524.772302801267
 20
134.5703177178025
 10
1524.772302801267
 20
134.87070840507
 10
1524.772302801267
 20
134.87070840507
 10
1524.772302801267
 20
137.5983631278484
 10
1524.772302801267
 20
137.5983631278484
 10
1524.772302801267
 20
137.5983631278484
 10
1525.914860236767
 20
137.5983631278484
 10
1525.914860236767
 20
137.5983631278484
 10
1525.914860236767
 20
137.5983631278484
 10
1525.914860236767
 20
135.1523246743834
 10
1525.914860236767
 20
135.1523246743834
 10
1525.914860236767
 20
134.8680263453623
 10
1525.989957908584
 20
134.6427333299116
 10
1526.140153252217
 20
134.4764456280313
 10
1526.290348595851
 20
134.3101579261511
 10
1526.488821014224
 20
134.2270140752109
 10
1526.735570507337
 20
134.2270140752109
 10
1526.976955881034
 20
134.2270140752109
 10
1527.170064179992
 20
134.3101579261511
 10
1527.31489540421
 20
134.4764456280313
 10
1527.459726628429
 20
134.6427333299116
 10
1527.532142240538
 20
134.8680263453623
 10
1527.532142240538
 20
135.1523246743834
 10
1527.532142240538
 20
135.1523246743834
 10
1527.532142240538
 20
137.5983631278484
 10
1527.532142240538
 20
137.5983631278484
 10
1527.532142240538
 20
137.5983631278484
 10
1528.666653496915
 20
137.5983631278484
 10
1528.666653496915
 20
137.5983631278484
 10
1528.666653496915
 20
137.5983631278484
 10
1528.666653496915
 20
133.3338881925313
 10
1528.666653496915
 20
133.3338881925313
 10
1528.666653496915
 20
133.3338881925313
 10
1527.564326957031
 20
133.3338881925313
 10
1527.564326957031
 20
133.3338881925313
 10
1527.564326957031
 20
133.3338881925313
 10
1527.564326957031
 20
133.8810283729117
 10
1527.564326957031
 20
133.8810283729117
 10
1527.564326957031
 20
133.8810283729117
 10
1527.508003703168
 20
133.8810283729117
 10
1527.508003703168
 20
133.8810283729117
 10
1527.395357195443
 20
133.7040124322004
 10
1527.233092583124
 20
133.5511350288587
 10
1527.021209866212
 20
133.422396162887
 10
1526.8093271493
 20
133.2936572969152
 10
1526.561236626334
 20
133.2292878639291
 10
1526.276938297313
 20
133.2292878639291
 97
        0
 97
        0
 75
     0
 76
     1
 98
        0
  0
HATCH
  5
6D
330
1F
100
AcDbEntity
  8
0
 62
    18
420
        0
440
 33554687
100
AcDbHatch
 10
0.0
 20
0.0
 30
0.0
210
0.0
220
0.0
230
1.0
  2
SOLID
 70
     1
 71
     1
 91
        1
 92
        0
 93
        1
 72
     4
 94
        3
 73
     0
 74
     1
 95
       92
 96
       88
 40
0.0
 40
0.0
 40
0.0
 40
0.0
 40
1.0
 40
1.0
 40
1.0
 40
2.0
 40
2.0
 40
2.0
 40
3.0
 40
3.0
 40
3.0
 40
4.0
 40
4.0
 40
4.0
 40
5.0
 40
5.0
 40
5.0
 40
6.0
 40
6.0
 40
6.0
 40
7.0
 40
7.0
 40
7.0
 40
8.0
 40
8.0
 40
8.0
 40
9.0
 40
9.0
 40
9.0
 40
10.0
 40
10.0
 40
10.0
 40
11.0
 40
11.0
 40
11.0
 40
12.0
 40
12.0
 40
12.0
 40
13.0
 40
13.0
 40
13.0
 40
14.0
 40
14.0
 40
14.0
 40
15.0
 40
15.0
 40
15.0
 40
16.0
 40
16.0
 40
16.0
 40
17.0
 40
17.0
 40
17.0
 40
18.0
 40
18.0
 40
18.0
 40
19.0
 40
19.0
 40
19.0
 40
20.0
 40
20.0
 40
20.0
 40
21.0
 40
21.0
 40
21.0
 40
22.0
 40
22.0
 40
22.0
 40
23.0
 40
23.0
 40
23.0
 40
24.0
 40
24.0
 40
24.0
 40
25.0
 40
25.0
 40
25.0
 40
26.0
 40
26.0
 40
26.0
 40
27.0
 40
27.0
 40
27.0
 40
28.0
 40
28.0
 40
28.0
 40
29.0
 40
29.0
 40
29.0
 40
29.0
 10
1531.048322517393
 20
133.2212416848058
 10
1530.656741800062
 20
133.2212416848058
 10
1530.316120217178
 20
133.2815880282303
 10
1530.026457768741
 20
133.4022807150789
 10
1529.736795320305
 20
133.5229734019274
 10
1529.460543170407
 20
133.7120586113235
 10
1529.197701319048
 20
133.9695363432672
 10
1529.197701319048
 20
133.9695363432672
 10
1529.913811261016
 20
134.7097848226053
 10
1529.913811261016
 20
134.7097848226053
 10
1530.090827201728
 20
134.5274047624785
 10
1530.265161082731
 20
134.3906197173835
 10
1530.436812904027
 20
134.2994296873201
 10
1530.608464725323
 20
134.2082396572569
 10
1530.798890964573
 20
134.1626446422251
 10
1531.008091621777
 20
134.1626446422251
 10
1531.195835801319
 20
134.1626446422251
 10
1531.343349085245
 20
134.1961703885718
 10
1531.450631473555
 20
134.2632218812655
 10
1531.557913861865
 20
134.3302733739592
 10
1531.61155505602
 20
134.4228044338765
 10
1531.61155505602
 20
134.5408150610174
 10
1531.61155505602
 20
134.6588256881582
 10
1531.556572832011
 20
134.7500157182214
 10
1531.446608383994
 20
134.8143851512075
 10
1531.336643935976
 20
134.8787545841935
 10
1531.142194607164
 20
134.9404419574714
 10
1530.863260397558
 20
134.9994472710421
 10
1530.380489650164
 20
135.0906373011053
 10
1530.021093649326
 20
135.2435147044469
 10
1529.785072395044
 20
135.4580794810668
 10
1529.549051140763
 20
135.6726442576864
 10
1529.431040513622
 20
135.9757170046616
 10
1529.431040513622
 20
136.3672977219928
 10
1529.431040513622
 20
136.6033189762745
 10
1529.496750976462
 20
136.8245889021634
 10
1529.628171902141
 20
137.03110749966
 10
1529.759592827821
 20
137.2376260971564
 10
1529.950019067071
 20
137.4025727691828
 10
1530.199450619891
 20
137.5259475157393
 10
1530.448882172712
 20
137.6493222622955
 10
1530.745249770418
 20
137.7110096355739
 10
1531.088553413009
 20
137.7110096355739
 10
1531.490862369171
 20
137.7110096355739
 10
1531.808686444539
 20
137.6479812324417
 10
1532.042025639113
 20
137.5219244261775
 10
1532.275364833687
 20
137.3958676199136
 10
1532.501998878992
 20
137.1987362313942
 10
1532.721927775027
 20
136.9305302606194
 10
1532.721927775027
 20
136.9305302606194
 10
1531.901217504457
 20
136.2948821098837
 10
1531.901217504457
 20
136.2948821098837
 10
1531.783206877315
 20
136.4718980505947
 10
1531.661173160613
 20
136.5979548568589
 10
1531.535116354349
 20
136.673052528676
 10
1531.409059548085
 20
136.7481502004928
 10
1531.260205234305
 20
136.7856990364012
 10
1531.088553413009
 20
136.7856990364012
 10
1530.927629830544
 20
136.7856990364012
 10
1530.797549934719
 20
136.7481502004928
 10
1530.698313725532
 20
136.673052528676
 10
1530.599077516345
 20
136.5979548568589
 10
1530.549459411752
 20
136.5094468865034
 10
1530.549459411752
 20
136.4075286176089
 10
1530.549459411752
 20
136.3056103487145
 10
1530.599077516345
 20
136.2238075276284
 10
1530.698313725532
 20
136.1621201543501
 10
1530.797549934719
 20
136.100432781072
 10
1530.95713248733
 20
136.0427684973554
 10
1531.177061383365
 20
135.9891273032003
 10
1531.557913861865
 20
135.9033013925525
 10
1531.859645578986
 20
135.8067472430737
 10
1532.082256534729
 20
135.6994648547638
 10
1532.304867490472
 20
135.592182466454
 10
1532.469814162499
 20
135.454056391505
 10
1532.577096550809
 20
135.285086629917
 10
1532.684378939119
 20
135.1161168683291
 10
1532.738020133273
 20
134.8975290021476
 10
1532.738020133273
 20
134.6293230313729
 10
1532.738020133273
 20
134.3503888217674
 10
1532.666945551018
 20
134.1049803585083
 10
1532.524796386508
 20
133.8930976415966
 10
1532.382647221997
 20
133.6812149246846
 10
1532.18283377377
 20
133.5162682526582
 10
1531.925356041826
 20
133.3982576255173
 10
1531.667878309883
 20
133.2802469983765
 10
1531.375533801738
 20
133.2212416848058
 10
1531.048322517393
 20
133.2212416848058
 97
        0
 97
        0
 75
     0
 76
     1
 98
        0
  0
HATCH
  5
6E
330
1F
100
AcDbEntity
  8
0
 62
    18
420
        0
440
 33554687
100
AcDbHatch
 10
0.0
 20
0.0
 30
0.0
210
0.0
220
0.0
230
1.0
  2
SOLID
 70
     1
 71
     1
 91
        1
 92
        0
 93
        1
 72
     4
 94
        3
 73
     0
 74
     1
 95
       29
 96
       25
 40
0.0
 40
0.0
 40
0.0
 40
0.0
 40
1.0
 40
1.0
 40
1.0
 40
2.0
 40
2.0
 40
2.0
 40
3.0
 40
3.0
 40
3.0
 40
4.0
 40
4.0
 40
4.0
 40
5.0
 40
5.0
 40
5.0
 40
6.0
 40
6.0
 40
6.0
 40
7.0
 40
7.0
 40
7.0
 40
8.0
 40
8.0
 40
8.0
 40
8.0
 10
1533.840346673158
 20
133.2212416848058
 10
1533.625781896538
 20
133.2212416848058
 10
1533.446083896119
 20
133.2936572969152
 10
1533.301252671901
 20
133.4384885211334
 10
1533.156421447683
 20
133.5833197453517
 10
1533.084005835574
 20
133.7603356860629
 10
1533.084005835574
 20
133.9695363432672
 10
1533.084005835574
 20
134.1680087616405
 10
1533.156421447683
 20
134.3396605829362
 10
1533.301252671901
 20
134.4844918071547
 10
1533.446083896119
 20
134.6293230313729
 10
1533.625781896538
 20
134.701738643482
 10
1533.840346673158
 20
134.701738643482
 10
1534.060275569193
 20
134.701738643482
 10
1534.241314599466
 20
134.6306640612268
 10
1534.383463763977
 20
134.4885148967162
 10
1534.525612928488
 20
134.3463657322056
 10
1534.596687510743
 20
134.1733728810559
 10
1534.596687510743
 20
133.9695363432672
 10
1534.596687510743
 20
133.7603356860629
 10
1534.525612928488
 20
133.5833197453517
 10
1534.383463763977
 20
133.4384885211334
 10
1534.241314599466
 20
133.2936572969152
 10
1534.060275569193
 20
133.2212416848058
 10
1533.840346673158
 20
133.2212416848058
 97
        0
 97
        0
 75
     0
 76
     1
 98
        0
  0
HATCH
  5
6F
330
1F
100
AcDbEntity
  8
0
 62
    18
420
        0
440
 33554687
100
AcDbHatch
 10
0.0
 20
0.0
 30
0.0
210
0.0
220
0.0
230
1.0
  2
SOLID
 70
     1
 71
     1
 91
        3
 92
        0
 93
        1
 72
     4
 94
        3
 73
     0
 74
     1
 95
       50
 96
       46
 40
0.0
 40
0.0
 40
0.0
 40
0.0
 40
1.0
 40
1.0
 40
1.0
 40
2.0
 40
2.0
 40
2.0
 40
3.0
 40
3.0
 40
3.0
 40
4.0
 40
4.0
 40
4.0
 40
5.0
 40
5.0
 40
5.0
 40
6.0
 40
6.0
 40
6.0
 40
7.0
 40
7.0
 40
7.0
 40
8.0
 40
8.0
 40
8.0
 40
9.0
 40
9.0
 40
9.0
 40
10.0
 40
10.0
 40
10.0
 40
11.0
 40
11.0
 40
11.0
 40
12.0
 40
12.0
 40
12.0
 40
13.0
 40
13.0
 40
13.0
 40
14.0
 40
14.0
 40
14.0
 40
15.0
 40
15.0
 40
15.0
 40
15.0
 10
1465.947463144787
 20
150.0161580909948
 10
1466.063498117883
 20
149.9837200614613
 10
1466.172522812118
 20
149.9460243273543
 10
1466.274537231933
 20
149.9030708874322
 10
1466.639157905473
 20
149.7495463933103
 10
1466.912623410627
 20
149.5368510004123
 10
1467.094933747397
 20
149.2649847087384
 10
1467.277244084167
 20
148.9931184170644
 10
1467.368399252551
 20
148.6684780805358
 10
1467.368399252551
 20
148.2910636991528
 10
1467.368399252551
 20
147.9008556099263
 10
1467.280442511128
 20
147.5490286442305
 10
1467.10452902828
 20
147.2355828020652
 10
1466.928615545432
 20
146.9221369598997
 10
1466.661546894199
 20
146.6758580839128
 10
1466.303323074581
 20
146.4967461741037
 10
1465.945099254963
 20
146.3176342642951
 10
1465.497319480442
 20
146.2280783093906
 10
1464.959983751015
 20
146.2280783093906
 10
1464.959983751015
 20
146.2280783093906
 10
1459.308363311155
 20
146.2280783093906
 10
1459.308363311155
 20
146.2280783093906
 10
1459.308363311155
 20
146.2280783093906
 10
1459.353962187621
 20
149.9222614491973
 10
1459.353962187621
 20
149.9222614491973
 10
1459.353962187621
 20
149.9222614491973
 10
1459.308363311155
 20
153.4245389713519
 10
1459.308363311155
 20
153.4245389713519
 10
1459.308363311155
 20
153.4245389713519
 10
1464.855964099086
 20
153.4245389713519
 10
1464.855964099086
 20
153.4245389713519
 10
1465.521236906947
 20
153.4245389713519
 10
1466.042580501569
 20
153.2694152637498
 10
1466.419994882952
 20
152.9591678485451
 10
1466.797409264335
 20
152.6489204333407
 10
1466.986116455026
 20
152.2187320071034
 10
1466.986116455026
 20
151.6686025698334
 10
1466.986116455026
 20
151.3551567276679
 10
1466.915751061887
 20
151.0609014472677
 10
1466.775020275609
 20
150.7858367286328
 10
1466.63428948933
 20
150.5107720099979
 10
1466.405601961628
 20
150.2788860553346
 10
1466.088957692502
 20
150.0901788646433
 10
1466.045482191224
 20
150.0642692224676
 10
1465.998149134667
 20
150.0395956308373
 10
1465.947463144787
 20
150.0161580909948
 97
        0
 97
        0
 92
        0
 93
        1
 72
     4
 94
        3
 73
     0
 74
     1
 95
       26
 96
       22
 40
0.0
 40
0.0
 40
0.0
 40
0.0
 40
1.0
 40
1.0
 40
1.0
 40
2.0
 40
2.0
 40
2.0
 40
3.0
 40
3.0
 40
3.0
 40
4.0
 40
4.0
 40
4.0
 40
5.0
 40
5.0
 40
5.0
 40
6.0
 40
6.0
 40
6.0
 40
7.0
 40
7.0
 40
7.0
 40
7.0
 10
1461.731924792755
 20
147.8688713403178
 10
1461.731924792755
 20
147.8688713403178
 10
1464.173170718641
 20
147.8688713403178
 10
1464.173170718641
 20
147.8688713403178
 10
1464.384266898058
 20
147.8688713403178
 10
1464.550585100023
 20
147.9248438121331
 10
1464.672125324537
 20
148.0367887557636
 10
1464.79366554905
 20
148.1487336993941
 10
1464.854435661306
 20
148.3006589800355
 10
1464.854435661306
 20
148.4925645976878
 10
1464.854435661306
 20
148.6652796535748
 10
1464.79526476253
 20
148.8124072937749
 10
1464.676922964978
 20
148.9339475182881
 10
1464.558581167426
 20
149.0554877428012
 10
1464.384266898058
 20
149.1162578550577
 10
1464.153980156875
 20
149.1162578550577
 10
1464.153980156875
 20
149.1162578550577
 10
1461.738199496177
 20
149.1162578550577
 10
1461.738199496177
 20
149.1162578550577
 10
1461.738199496177
 20
149.1162578550577
 10
1461.731924792755
 20
147.8688713403178
 10
1461.731924792755
 20
147.8688713403178
 97
        0
 97
        0
 92
        0
 93
        1
 72
     4
 94
        3
 73
     0
 74
     1
 95
       26
 96
       22
 40
0.0
 40
0.0
 40
0.0
 40
0.0
 40
1.0
 40
1.0
 40
1.0
 40
2.0
 40
2.0
 40
2.0
 40
3.0
 40
3.0
 40
3.0
 40
4.0
 40
4.0
 40
4.0
 40
5.0
 40
5.0
 40
5.0
 40
6.0
 40
6.0
 40
6.0
 40
7.0
 40
7.0
 40
7.0
 40
7.0
 10
1461.737937073928
 20
150.7282650433372
 10
1461.737937073928
 20
150.7282650433372
 10
1463.886840729941
 20
150.7282650433372
 10
1463.886840729941
 20
150.7282650433372
 10
1464.053158931907
 20
150.7282650433372
 10
1464.192290504704
 20
150.779439874711
 10
1464.304235448335
 20
150.8817895374591
 10
1464.416180391965
 20
150.9841392002068
 10
1464.472152863781
 20
151.1152747056026
 10
1464.472152863781
 20
151.2751960536461
 10
1464.472152863781
 20
151.4223236938465
 10
1464.420978032407
 20
151.5438639183594
 10
1464.318628369659
 20
151.6398167271855
 10
1464.216278706911
 20
151.7357695360117
 10
1464.072349493672
 20
151.783745940425
 10
1463.886840729941
 20
151.783745940425
 10
1463.886840729941
 20
151.783745940425
 10
1461.732284061311
 20
151.783745940425
 10
1461.732284061311
 20
151.783745940425
 10
1461.732284061311
 20
151.783745940425
 10
1461.737937073928
 20
150.7282650433372
 10
1461.737937073928
 20
150.7282650433372
 97
        0
 97
        0
 75
     0
 76
     1
 98
        0
  0
HATCH
  5
70
330
1F
100
AcDbEntity
  8
0
 62
    18
420
        0
440
 33554687
100
AcDbHatch
 10
0.0
 20
0.0
 30
0.0
210
0.0
220
0.0
230
1.0
  2
SOLID
 70
     1
 71
     1
 91
        2
 92
        0
 93
        8
 72
     1
 10
1470.47770905031
 20
147.4092323403713
 11
1469.98536251521
 21
146.2002269491618
 72
     1
 10
1469.98536251521
 20
146.2002269491618
 11
1467.346660272491
 21
146.2002269491618
 72
     1
 10
1467.346660272491
 20
146.2002269491618
 11
1470.503507682872
 21
153.3966876111231
 72
     1
 10
1470.503507682872
 20
153.3966876111231
 11
1473.804284306491
 21
153.3966876111231
 72
     1
 10
1473.804284306491
 20
153.3966876111231
 11
1476.961131716872
 21
146.2002269491618
 72
     1
 10
1476.961131716872
 20
146.2002269491618
 11
1474.322429474153
 21
146.2002269491618
 72
     1
 10
1474.322429474153
 20
146.2002269491618
 11
1473.830082939053
 21
147.4092323403713
 72
     1
 10
1473.830082939053
 20
147.4092323403713
 11
1470.47770905031
 21
147.4092323403713
 97
        0
 92
        0
 93
        3
 72
     1
 10
1473.029042941471
 20
149.3762649213074
 11
1472.153895994682
 21
151.5252744122645
 72
     1
 10
1472.153895994682
 20
151.5252744122645
 11
1471.278749047892
 21
149.3762649213074
 72
     1
 10
1471.278749047892
 20
149.3762649213074
 11
1473.029042941471
 21
149.3762649213074
 97
        0
 75
     0
 76
     1
 98
        0
  0
HATCH
  5
71
330
1F
100
AcDbEntity
  8
0
 62
    18
420
        0
440
 33554687
100
AcDbHatch
 10
0.0
 20
0.0
 30
0.0
210
0.0
220
0.0
230
1.0
  2
SOLID
 70
     1
 71
     1
 91
        1
 92
        0
 93
        1
 72
     4
 94
        3
 73
     0
 74
     1
 95
      110
 96
      106
 40
0.0
 40
0.0
 40
0.0
 40
0.0
 40
1.0
 40
1.0
 40
1.0
 40
2.0
 40
2.0
 40
2.0
 40
3.0
 40
3.0
 40
3.0
 40
4.0
 40
4.0
 40
4.0
 40
5.0
 40
5.0
 40
5.0
 40
6.0
 40
6.0
 40
6.0
 40
7.0
 40
7.0
 40
7.0
 40
8.0
 40
8.0
 40
8.0
 40
9.0
 40
9.0
 40
9.0
 40
10.0
 40
10.0
 40
10.0
 40
11.0
 40
11.0
 40
11.0
 40
12.0
 40
12.0
 40
12.0
 40
13.0
 40
13.0
 40
13.0
 40
14.0
 40
14.0
 40
14.0
 40
15.0
 40
15.0
 40
15.0
 40
16.0
 40
16.0
 40
16.0
 40
17.0
 40
17.0
 40
17.0
 40
18.0
 40
18.0
 40
18.0
 40
19.0
 40
19.0
 40
19.0
 40
20.0
 40
20.0
 40
20.0
 40
21.0
 40
21.0
 40
21.0
 40
22.0
 40
22.0
 40
22.0
 40
23.0
 40
23.0
 40
23.0
 40
24.0
 40
24.0
 40
24.0
 40
25.0
 40
25.0
 40
25.0
 40
26.0
 40
26.0
 40
26.0
 40
27.0
 40
27.0
 40
27.0
 40
28.0
 40
28.0
 40
28.0
 40
29.0
 40
29.0
 40
29.0
 40
30.0
 40
30.0
 40
30.0
 40
31.0
 40
31.0
 40
31.0
 40
32.0
 40
32.0
 40
32.0
 40
33.0
 40
33.0
 40
33.0
 40
34.0
 40
34.0
 40
34.0
 40
35.0
 40
35.0
 40
35.0
 40
35.0
 10
1476.903560031576
 20
148.5702613271676
 10
1476.903560031576
 20
148.5702613271676
 10
1479.417523622821
 20
148.5702613271676
 10
1479.417523622821
 20
148.5702613271676
 10
1479.443111038509
 20
148.4295305408893
 10
1479.516674858608
 20
148.3095895298568
 10
1479.638215083122
 20
148.2104382940697
 10
1479.759755307635
 20
148.1112870582826
 10
1479.9260735096
 20
148.0345248112217
 10
1480.137169689018
 20
147.9801515528868
 10
1480.348265868435
 20
147.9257782945519
 10
1480.600941598344
 20
147.8985916653846
 10
1480.895196878744
 20
147.8985916653846
 10
1481.279008114049
 20
147.8985916653846
 10
1481.57806103489
 20
147.936972788915
 10
1481.792355641269
 20
148.013735035976
 10
1482.006650247647
 20
148.0904972830369
 10
1482.113797550836
 20
148.2152359345109
 10
1482.113797550836
 20
148.3879509903979
 10
1482.113797550836
 20
148.5030943609893
 10
1482.05302743858
 20
148.6006463832962
 10
1481.931487214066
 20
148.6806070573177
 10
1481.809946989554
 20
148.7605677313397
 10
1481.560469686606
 20
148.813341776194
 10
1481.183055305223
 20
148.8389291918809
 10
1481.183055305223
 20
148.8389291918809
 10
1479.993240475778
 20
148.9156914389418
 10
1479.993240475778
 20
148.9156914389418
 10
1478.912172163004
 20
148.986056832081
 10
1478.131755984551
 20
149.2163435732639
 10
1477.65199194042
 20
149.6065516624901
 10
1477.172227896289
 20
149.9967597517166
 10
1476.932345874224
 20
150.5117064924168
 10
1476.932345874224
 20
151.151391884591
 10
1476.932345874224
 20
151.6887276140176
 10
1477.085870368346
 20
152.1365073885397
 10
1477.392919356589
 20
152.4947312081574
 10
1477.699968344833
 20
152.8529550277749
 10
1478.13015677107
 20
153.1216228924882
 10
1478.683484635301
 20
153.300734802297
 10
1479.236812499532
 20
153.4798467121057
 10
1479.884493959109
 20
153.5694026670103
 10
1480.626529014031
 20
153.5694026670103
 10
1481.349373507188
 20
153.5694026670103
 10
1481.990658112843
 20
153.4686522177428
 10
1482.550382830995
 20
153.2671513192079
 10
1483.110107549148
 20
153.0656504206729
 10
1483.554688896709
 20
152.7825896346358
 10
1483.884126873678
 20
152.4179689610964
 10
1484.213564850648
 20
152.0533482875569
 10
1484.394275973938
 20
151.6279575017611
 10
1484.426260243546
 20
151.1417966037086
 10
1484.426260243546
 20
151.1417966037086
 10
1481.912296652301
 20
151.1417966037086
 10
1481.912296652301
 20
151.1417966037086
 10
1481.893106090536
 20
151.2569399742999
 10
1481.830736764799
 20
151.356091210087
 10
1481.725188675091
 20
151.4392503110696
 10
1481.619640585381
 20
151.5224094120522
 10
1481.470913731701
 20
151.5863779512697
 10
1481.279008114049
 20
151.6311559287219
 10
1481.087102496396
 20
151.6759339061741
 10
1480.853617328253
 20
151.6983228949002
 10
1480.578552609618
 20
151.6983228949002
 10
1480.226725643922
 20
151.6983228949002
 10
1479.950061711806
 20
151.6631401983307
 10
1479.748560813271
 20
151.5927748051915
 10
1479.547059914737
 20
151.5224094120522
 10
1479.446309465469
 20
151.4072660414608
 10
1479.446309465469
 20
151.2473446934173
 10
1479.446309465469
 20
151.1385981767476
 10
1479.505480364245
 20
151.0458437948823
 10
1479.623822161798
 20
150.9690815478216
 10
1479.74216395935
 20
150.8923193007606
 10
1479.970851487052
 20
150.8411444693866
 10
1480.309884744904
 20
150.8155570536996
 10
1480.309884744904
 20
150.8155570536996
 10
1481.653224068471
 20
150.729199525756
 10
1481.653224068471
 20
150.729199525756
 10
1482.356877999863
 20
150.684421548304
 10
1482.926197998898
 20
150.5804726720755
 10
1483.361184065576
 20
150.4173528970712
 10
1483.796170132255
 20
150.2542331220666
 10
1484.114413614862
 20
150.0287440213251
 10
1484.315914513397
 20
149.7408855948468
 10
1484.517415411931
 20
149.4530271683682
 10
1484.618165861199
 20
149.0980017757115
 10
1484.618165861199
 20
148.6758094168765
 10
1484.618165861199
 20
148.1448705413718
 10
1484.461442940116
 20
147.6810986320452
 10
1484.147997097951
 20
147.2844936888973
 10
1483.834551255785
 20
146.8878887457493
 10
1483.394767548665
 20
146.579240544025
 10
1482.828645976591
 20
146.3585490837249
 10
1482.262524404517
 20
146.1378576234247
 10
1481.602049237097
 20
146.0275118932748
 10
1480.847220474331
 20
146.0275118932748
 10
1480.066804295878
 20
146.0275118932748
 10
1479.382340926252
 20
146.1330599829835
 10
1478.793830365451
 20
146.3441561624009
 10
1478.205319804651
 20
146.5552523418185
 10
1477.746345535766
 20
146.8527060491797
 10
1477.416907558796
 20
147.2365172844841
 10
1477.087469581826
 20
147.6203285197887
 10
1476.91635373942
 20
148.06490986735
 10
1476.903560031576
 20
148.5702613271676
 97
        0
 97
        0
 75
     0
 76
     1
 98
        0
  0
HATCH
  5
72
330
1F
100
AcDbEntity
  8
0
 62
    18
420
        0
440
 33554687
100
AcDbHatch
 10
0.0
 20
0.0
 30
0.0
210
0.0
220
0.0
230
1.0
  2
SOLID
 70
     1
 71
     1
 91
        1
 92
        0
 93
        1
 72
     4
 94
        3
 73
     0
 74
     1
 95
      110
 96
      106
 40
0.0
 40
0.0
 40
0.0
 40
0.0
 40
1.0
 40
1.0
 40
1.0
 40
2.0
 40
2.0
 40
2.0
 40
3.0
 40
3.0
 40
3.0
 40
4.0
 40
4.0
 40
4.0
 40
5.0
 40
5.0
 40
5.0
 40
6.0
 40
6.0
 40
6.0
 40
7.0
 40
7.0
 40
7.0
 40
8.0
 40
8.0
 40
8.0
 40
9.0
 40
9.0
 40
9.0
 40
10.0
 40
10.0
 40
10.0
 40
11.0
 40
11.0
 40
11.0
 40
12.0
 40
12.0
 40
12.0
 40
13.0
 40
13.0
 40
13.0
 40
14.0
 40
14.0
 40
14.0
 40
15.0
 40
15.0
 40
15.0
 40
16.0
 40
16.0
 40
16.0
 40
17.0
 40
17.0
 40
17.0
 40
18.0
 40
18.0
 40
18.0
 40
19.0
 40
19.0
 40
19.0
 40
20.0
 40
20.0
 40
20.0
 40
21.0
 40
21.0
 40
21.0
 40
22.0
 40
22.0
 40
22.0
 40
23.0
 40
23.0
 40
23.0
 40
24.0
 40
24.0
 40
24.0
 40
25.0
 40
25.0
 40
25.0
 40
26.0
 40
26.0
 40
26.0
 40
27.0
 40
27.0
 40
27.0
 40
28.0
 40
28.0
 40
28.0
 40
29.0
 40
29.0
 40
29.0
 40
30.0
 40
30.0
 40
30.0
 40
31.0
 40
31.0
 40
31.0
 40
32.0
 40
32.0
 40
32.0
 40
33.0
 40
33.0
 40
33.0
 40
34.0
 40
34.0
 40
34.0
 40
35.0
 40
35.0
 40
35.0
 40
35.0
 10
1485.251454399451
 20
148.5702613271676
 10
1485.251454399451
 20
148.5702613271676
 10
1487.765417990697
 20
148.5702613271676
 10
1487.765417990697
 20
148.5702613271676
 10
1487.791005406383
 20
148.4295305408893
 10
1487.864569226484
 20
148.3095895298568
 10
1487.986109450997
 20
148.2104382940697
 10
1488.10764967551
 20
148.1112870582826
 10
1488.273967877475
 20
148.0345248112217
 10
1488.485064056892
 20
147.9801515528868
 10
1488.69616023631
 20
147.9257782945519
 10
1488.948835966219
 20
147.8985916653846
 10
1489.24309124662
 20
147.8985916653846
 10
1489.626902481924
 20
147.8985916653846
 10
1489.925955402765
 20
147.936972788915
 10
1490.140250009144
 20
148.013735035976
 10
1490.354544615522
 20
148.0904972830369
 10
1490.461691918711
 20
148.2152359345109
 10
1490.461691918711
 20
148.3879509903979
 10
1490.461691918711
 20
148.5030943609893
 10
1490.400921806455
 20
148.6006463832962
 10
1490.279381581942
 20
148.6806070573177
 10
1490.157841357429
 20
148.7605677313397
 10
1489.908364054481
 20
148.813341776194
 10
1489.530949673098
 20
148.8389291918809
 10
1489.530949673098
 20
148.8389291918809
 10
1488.341134843654
 20
148.9156914389418
 10
1488.341134843654
 20
148.9156914389418
 10
1487.260066530879
 20
148.986056832081
 10
1486.479650352426
 20
149.2163435732639
 10
1485.999886308295
 20
149.6065516624901
 10
1485.520122264164
 20
149.9967597517166
 10
1485.280240242099
 20
150.5117064924168
 10
1485.280240242099
 20
151.151391884591
 10
1485.280240242099
 20
151.6887276140176
 10
1485.433764736221
 20
152.1365073885397
 10
1485.740813724465
 20
152.4947312081574
 10
1486.047862712709
 20
152.8529550277749
 10
1486.478051138946
 20
153.1216228924882
 10
1487.031379003176
 20
153.300734802297
 10
1487.584706867407
 20
153.4798467121057
 10
1488.232388326984
 20
153.5694026670103
 10
1488.974423381906
 20
153.5694026670103
 10
1489.697267875063
 20
153.5694026670103
 10
1490.338552480718
 20
153.4686522177428
 10
1490.89827719887
 20
153.2671513192079
 10
1491.458001917023
 20
153.0656504206729
 10
1491.902583264584
 20
152.7825896346358
 10
1492.232021241554
 20
152.4179689610964
 10
1492.561459218524
 20
152.0533482875569
 10
1492.742170341813
 20
151.6279575017611
 10
1492.774154611422
 20
151.1417966037086
 10
1492.774154611422
 20
151.1417966037086
 10
1490.260191020177
 20
151.1417966037086
 10
1490.260191020177
 20
151.1417966037086
 10
1490.241000458411
 20
151.2569399742999
 10
1490.178631132675
 20
151.356091210087
 10
1490.073083042965
 20
151.4392503110696
 10
1489.967534953257
 20
151.5224094120522
 10
1489.818808099576
 20
151.5863779512697
 10
1489.626902481924
 20
151.6311559287219
 10
1489.434996864272
 20
151.6759339061741
 10
1489.201511696128
 20
151.6983228949002
 10
1488.926446977493
 20
151.6983228949002
 10
1488.574620011797
 20
151.6983228949002
 10
1488.297956079682
 20
151.6631401983307
 10
1488.096455181147
 20
151.5927748051915
 10
1487.894954282612
 20
151.5224094120522
 10
1487.794203833344
 20
151.4072660414608
 10
1487.794203833344
 20
151.2473446934173
 10
1487.794203833344
 20
151.1385981767476
 10
1487.853374732121
 20
151.0458437948823
 10
1487.971716529673
 20
150.9690815478216
 10
1488.090058327225
 20
150.8923193007606
 10
1488.318745854927
 20
150.8411444693866
 10
1488.65777911278
 20
150.8155570536996
 10
1488.65777911278
 20
150.8155570536996
 10
1490.001118436346
 20
150.729199525756
 10
1490.001118436346
 20
150.729199525756
 10
1490.704772367738
 20
150.684421548304
 10
1491.274092366773
 20
150.5804726720755
 10
1491.709078433451
 20
150.4173528970712
 10
1492.14406450013
 20
150.2542331220666
 10
1492.462307982737
 20
150.0287440213251
 10
1492.663808881272
 20
149.7408855948468
 10
1492.865309779806
 20
149.4530271683682
 10
1492.966060229074
 20
149.0980017757115
 10
1492.966060229074
 20
148.6758094168765
 10
1492.966060229074
 20
148.1448705413718
 10
1492.809337307991
 20
147.6810986320452
 10
1492.495891465826
 20
147.2844936888973
 10
1492.18244562366
 20
146.8878887457493
 10
1491.742661916541
 20
146.579240544025
 10
1491.176540344466
 20
146.3585490837249
 10
1490.610418772392
 20
146.1378576234247
 10
1489.949943604972
 20
146.0275118932748
 10
1489.195114842206
 20
146.0275118932748
 10
1488.414698663753
 20
146.0275118932748
 10
1487.730235294127
 20
146.1330599829835
 10
1487.141724733327
 20
146.3441561624009
 10
1486.553214172526
 20
146.5552523418185
 10
1486.094239903641
 20
146.8527060491797
 10
1485.764801926671
 20
147.2365172844841
 10
1485.435363949701
 20
147.6203285197887
 10
1485.264248107295
 20
148.06490986735
 10
1485.251454399451
 20
148.5702613271676
 97
        0
 97
        0
 75
     0
 76
     1
 98
        0
  0
HATCH
  5
73
330
1F
100
AcDbEntity
  8
0
 62
    18
420
        0
440
 33554687
100
AcDbHatch
 10
0.0
 20
0.0
 30
0.0
210
0.0
220
0.0
230
1.0
  2
SOLID
 70
     1
 71
     1
 91
        1
 92
        0
 93
        1
 72
     4
 94
        3
 73
     0
 74
     1
 95
       83
 96
       79
 40
0.0
 40
0.0
 40
0.0
 40
0.0
 40
1.0
 40
1.0
 40
1.0
 40
2.0
 40
2.0
 40
2.0
 40
3.0
 40
3.0
 40
3.0
 40
4.0
 40
4.0
 40
4.0
 40
5.0
 40
5.0
 40
5.0
 40
6.0
 40
6.0
 40
6.0
 40
7.0
 40
7.0
 40
7.0
 40
8.0
 40
8.0
 40
8.0
 40
9.0
 40
9.0
 40
9.0
 40
10.0
 40
10.0
 40
10.0
 40
11.0
 40
11.0
 40
11.0
 40
12.0
 40
12.0
 40
12.0
 40
13.0
 40
13.0
 40
13.0
 40
14.0
 40
14.0
 40
14.0
 40
15.0
 40
15.0
 40
15.0
 40
16.0
 40
16.0
 40
16.0
 40
17.0
 40
17.0
 40
17.0
 40
18.0
 40
18.0
 40
18.0
 40
19.0
 40
19.0
 40
19.0
 40
20.0
 40
20.0
 40
20.0
 40
21.0
 40
21.0
 40
21.0
 40
22.0
 40
22.0
 40
22.0
 40
23.0
 40
23.0
 40
23.0
 40
24.0
 40
24.0
 40
24.0
 40
25.0
 40
25.0
 40
25.0
 40
26.0
 40
26.0
 40
26.0
 40
26.0
 10
1502.110362910207
 20
149.3186932360115
 10
1502.033600663145
 20
148.659817282072
 10
1501.808111562404
 20
148.0841004291151
 10
1501.433895607982
 20
147.591542677141
 10
1501.05967965356
 20
147.0989849251666
 10
1500.565522688105
 20
146.715173689862
 10
1499.951424711618
 20
146.4401089712271
 10
1499.337326735131
 20
146.1650442525922
 10
1498.633672803739
 20
146.0275118932748
 10
1497.840462917442
 20
146.0275118932748
 10
1496.983284491929
 20
146.0275118932748
 10
1496.234852583085
 20
146.1842348143573
 10
1495.595167190911
 20
146.4976806565228
 10
1494.955481798736
 20
146.8111264986883
 10
1494.458126406321
 20
147.2509102058079
 10
1494.103101013664
 20
147.8170317778824
 10
1493.748075621007
 20
148.3831533499567
 10
1493.570562924679
 20
149.0436285173766
 10
1493.570562924679
 20
149.7984572801424
 10
1493.570562924679
 20
150.5532860429082
 10
1493.748075621007
 20
151.2137612103281
 10
1494.103101013664
 20
151.7798827824026
 10
1494.458126406321
 20
152.3460043544767
 10
1494.955481798736
 20
152.7857880615966
 10
1495.595167190911
 20
153.0992339037621
 10
1496.234852583085
 20
153.4126797459276
 10
1496.983284491929
 20
153.5694026670103
 10
1497.840462917442
 20
153.5694026670103
 10
1498.633672803739
 20
153.5694026670103
 10
1499.337326735131
 20
153.4318703076929
 10
1499.951424711618
 20
153.1568055890577
 10
1500.565522688105
 20
152.8817408704228
 10
1501.05967965356
 20
152.4979296351182
 10
1501.433895607982
 20
152.0053718831439
 10
1501.808111562404
 20
151.5128141311695
 10
1502.033600663145
 20
150.9370972782126
 10
1502.110362910207
 20
150.2782213242733
 10
1502.110362910207
 20
150.2782213242733
 10
1499.625185161609
 20
150.2782213242733
 10
1499.625185161609
 20
150.2782213242733
 10
1499.567613476313
 20
150.5276986272213
 10
1499.462065386605
 20
150.7403940201191
 10
1499.308540892483
 20
150.9163075029669
 10
1499.155016398361
 20
151.0922209858149
 10
1498.955114713306
 20
151.2265549181716
 10
1498.708835837319
 20
151.319309300037
 10
1498.462556961332
 20
151.4120636819023
 10
1498.173099321373
 20
151.4584408728349
 10
1497.840462917442
 20
151.4584408728349
 10
1497.469445389982
 20
151.4584408728349
 10
1497.151201907375
 20
151.392873120137
 10
1496.885732469622
 20
151.2617376147412
 10
1496.62026303187
 20
151.1306021093455
 10
1496.417162919854
 20
150.9402957051736
 10
1496.276432133576
 20
150.6908184022257
 10
1496.135701347298
 20
150.4413410992777
 10
1496.065335954159
 20
150.1438873919167
 10
1496.065335954159
 20
149.7984572801424
 10
1496.065335954159
 20
149.4530271683682
 10
1496.135701347298
 20
149.1571726744876
 10
1496.276432133576
 20
148.9108937985006
 10
1496.417162919854
 20
148.6646149225135
 10
1496.62026303187
 20
148.4743085183416
 10
1496.885732469622
 20
148.3399745859849
 10
1497.151201907375
 20
148.2056406536283
 10
1497.469445389982
 20
148.13847368745
 10
1497.840462917442
 20
148.13847368745
 10
1498.173099321373
 20
148.13847368745
 10
1498.462556961332
 20
148.1816524514218
 10
1498.708835837319
 20
148.2680099793654
 10
1498.955114713306
 20
148.3543675073088
 10
1499.155016398361
 20
148.4855030127046
 10
1499.308540892483
 20
148.6614164955527
 10
1499.462065386605
 20
148.8373299784005
 10
1499.567613476313
 20
149.0564222252203
 10
1499.625185161609
 20
149.3186932360115
 10
1499.625185161609
 20
149.3186932360115
 10
1502.110362910207
 20
149.3186932360115
 10
1502.110362910207
 20
149.3186932360115
 97
        0
 97
        0
 75
     0
 76
     1
 98
        0
  0
HATCH
  5
74
330
1F
100
AcDbEntity
  8
0
 62
    18
420
        0
440
 33554687
100
AcDbHatch
 10
0.0
 20
0.0
 30
0.0
210
0.0
220
0.0
230
1.0
  2
SOLID
 70
     1
 71
     1
 91
        2
 92
        0
 93
        1
 72
     4
 94
        3
 73
     0
 74
     1
 95
       47
 96
       43
 40
0.0
 40
0.0
 40
0.0
 40
0.0
 40
1.0
 40
1.0
 40
1.0
 40
2.0
 40
2.0
 40
2.0
 40
3.0
 40
3.0
 40
3.0
 40
4.0
 40
4.0
 40
4.0
 40
5.0
 40
5.0
 40
5.0
 40
6.0
 40
6.0
 40
6.0
 40
7.0
 40
7.0
 40
7.0
 40
8.0
 40
8.0
 40
8.0
 40
9.0
 40
9.0
 40
9.0
 40
10.0
 40
10.0
 40
10.0
 40
11.0
 40
11.0
 40
11.0
 40
12.0
 40
12.0
 40
12.0
 40
13.0
 40
13.0
 40
13.0
 40
14.0
 40
14.0
 40
14.0
 40
14.0
 10
1505.323253568103
 20
148.5990471698155
 10
1505.323253568103
 20
148.5990471698155
 10
1505.323253568103
 20
146.2002269491618
 10
1505.323253568103
 20
146.2002269491618
 10
1505.323253568103
 20
146.2002269491618
 10
1502.847671100389
 20
146.2002269491618
 10
1502.847671100389
 20
146.2002269491618
 10
1502.847671100389
 20
146.2002269491618
 10
1502.847671100389
 20
153.3966876111231
 10
1502.847671100389
 20
153.3966876111231
 10
1502.847671100389
 20
153.3966876111231
 10
1507.357453115217
 20
153.3966876111231
 10
1507.357453115217
 20
153.3966876111231
 10
1507.933169968174
 20
153.3966876111231
 10
1508.436922214512
 20
153.2959371618556
 10
1508.86870985423
 20
153.0944362633206
 10
1509.300497493947
 20
152.8929353647859
 10
1509.636332324839
 20
152.6130730057096
 10
1509.876214346904
 20
152.2548491860919
 10
1510.116096368969
 20
151.8966253664744
 10
1510.236037380002
 20
151.4744330076394
 10
1510.236037380002
 20
150.9882721095867
 10
1510.236037380002
 20
150.5149049193776
 10
1510.116096368969
 20
150.0975102009841
 10
1509.876214346904
 20
149.7360879544053
 10
1509.636332324839
 20
149.3746657078268
 10
1509.300497493947
 20
149.0948033487507
 10
1508.86870985423
 20
148.8965008771768
 10
1508.803982679885
 20
148.8667743230335
 10
1508.737638349825
 20
148.8392758500993
 10
1508.669676864048
 20
148.8140054583741
 10
1508.669676864048
 20
148.8140054583741
 10
1510.523895806481
 20
146.2002269491618
 10
1510.523895806481
 20
146.2002269491618
 10
1510.523895806481
 20
146.2002269491618
 10
1507.693287946109
 20
146.2002269491618
 10
1507.693287946109
 20
146.2002269491618
 10
1507.693287946109
 20
146.2002269491618
 10
1506.059903237459
 20
148.5990471698155
 10
1506.059903237459
 20
148.5990471698155
 10
1506.059903237459
 20
148.5990471698155
 10
1505.323253568103
 20
148.5990471698155
 10
1505.323253568103
 20
148.5990471698155
 97
        0
 97
        0
 92
        0
 93
        1
 72
     4
 94
        3
 73
     0
 74
     1
 95
       26
 96
       22
 40
0.0
 40
0.0
 40
0.0
 40
0.0
 40
1.0
 40
1.0
 40
1.0
 40
2.0
 40
2.0
 40
2.0
 40
3.0
 40
3.0
 40
3.0
 40
4.0
 40
4.0
 40
4.0
 40
5.0
 40
5.0
 40
5.0
 40
6.0
 40
6.0
 40
6.0
 40
7.0
 40
7.0
 40
7.0
 40
7.0
 10
1505.323253568103
 20
150.3166024478037
 10
1505.323253568103
 20
150.3166024478037
 10
1506.973641879913
 20
150.3166024478037
 10
1506.973641879913
 20
150.3166024478037
 10
1507.216722328939
 20
150.3166024478037
 10
1507.405429519631
 20
150.3741741330994
 10
1507.539763451987
 20
150.4893175036907
 10
1507.674097384344
 20
150.604460874282
 10
1507.741264350522
 20
150.7707790762474
 10
1507.741264350522
 20
150.9882721095867
 10
1507.741264350522
 20
151.2057651429261
 10
1507.674097384344
 20
151.3720833448913
 10
1507.539763451987
 20
151.4872267154826
 10
1507.405429519631
 20
151.602370086074
 10
1507.216722328939
 20
151.6599417713699
 10
1506.973641879913
 20
151.6599417713699
 10
1506.973641879913
 20
151.6599417713699
 10
1505.323253568103
 20
151.6599417713699
 10
1505.323253568103
 20
151.6599417713699
 10
1505.323253568103
 20
151.6599417713699
 10
1505.323253568103
 20
150.3166024478037
 10
1505.323253568103
 20
150.3166024478037
 97
        0
 97
        0
 75
     0
 76
     1
 98
        0
  0
HATCH
  5
75
330
1F
100
AcDbEntity
  8
0
 62
    18
420
        0
440
 33554687
100
AcDbHatch
 10
0.0
 20
0.0
 30
0.0
210
0.0
220
0.0
230
1.0
  2
SOLID
 70
     1
 71
     1
 91
        2
 92
        0
 93
        8
 72
     1
 10
1513.664539865182
 20
147.4092323403713
 11
1513.172193330082
 21
146.2002269491618
 72
     1
 10
1513.172193330082
 20
146.2002269491618
 11
1510.533491087363
 21
146.2002269491618
 72
     1
 10
1510.533491087363
 20
146.2002269491618
 11
1513.690338497744
 21
153.3966876111231
 72
     1
 10
1513.690338497744
 20
153.3966876111231
 11
1516.991115121363
 21
153.3966876111231
 72
     1
 10
1516.991115121363
 20
153.3966876111231
 11
1520.147962531744
 21
146.2002269491618
 72
     1
 10
1520.147962531744
 20
146.2002269491618
 11
1517.509260289024
 21
146.2002269491618
 72
     1
 10
1517.509260289024
 20
146.2002269491618
 11
1517.016913753925
 21
147.4092323403713
 72
     1
 10
1517.016913753925
 20
147.4092323403713
 11
1513.664539865182
 21
147.4092323403713
 97
        0
 92
        0
 93
        3
 72
     1
 10
1516.215873756343
 20
149.3762649213074
 11
1515.340726809554
 21
151.5252744122645
 72
     1
 10
1515.340726809554
 20
151.5252744122645
 11
1514.465579862764
 21
149.3762649213074
 72
     1
 10
1514.465579862764
 20
149.3762649213074
 11
1516.215873756343
 21
149.3762649213074
 97
        0
 75
     0
 76
     1
 98
        0
  0
HATCH
  5
76
330
1F
100
AcDbEntity
  8
0
 62
    18
420
        0
440
 33554687
100
AcDbHatch
 10
0.0
 20
0.0
 30
0.0
210
0.0
220
0.0
230
1.0
  2
SOLID
 70
     1
 71
     1
 91
        1
 92
        0
 93
       10
 72
     1
 10
1523.170476009768
 20
148.5222849227546
 11
1523.170476009768
 21
146.2002269491618
 72
     1
 10
1523.170476009768
 20
146.2002269491618
 11
1520.694893542053
 21
146.2002269491618
 72
     1
 10
1520.694893542053
 20
146.2002269491618
 11
1520.694893542053
 21
153.3966876111231
 72
     1
 10
1520.694893542053
 20
153.3966876111231
 11
1527.354018474588
 21
153.3966876111231
 72
     1
 10
1527.354018474588
 20
153.3966876111231
 11
1527.354018474588
 21
151.3337022213609
 72
     1
 10
1527.354018474588
 20
151.3337022213609
 11
1523.170476009768
 21
151.3337022213609
 72
     1
 10
1523.170476009768
 20
151.3337022213609
 11
1523.170476009768
 21
150.5852703125167
 72
     1
 10
1523.170476009768
 20
150.5852703125167
 11
1527.162112856935
 21
150.5852703125167
 72
     1
 10
1527.162112856935
 20
150.5852703125167
 11
1527.162112856935
 21
148.5222849227546
 72
     1
 10
1527.162112856935
 20
148.5222849227546
 11
1523.170476009768
 21
148.5222849227546
 97
        0
 75
     0
 76
     1
 98
        0
  0
HATCH
  5
77
330
1F
100
AcDbEntity
  8
0
 62
    18
420
        0
440
 33554687
100
AcDbHatch
 10
0.0
 20
0.0
 30
0.0
210
0.0
220
0.0
230
1.0
  2
SOLID
 70
     1
 71
     1
 91
        1
 92
        0
 93
        8
 72
     1
 10
1530.501270604085
 20
151.1897730081216
 11
1527.910544765779
 21
151.1897730081216
 72
     1
 10
1527.910544765779
 20
151.1897730081216
 11
1527.910544765779
 21
153.3966876111231
 72
     1
 10
1527.910544765779
 20
153.3966876111231
 11
1535.567578910106
 21
153.3966876111231
 72
     1
 10
1535.567578910106
 20
153.3966876111231
 11
1535.567578910106
 21
151.1897730081216
 72
     1
 10
1535.567578910106
 20
151.1897730081216
 11
1532.9768530718
 21
151.1897730081216
 72
     1
 10
1532.9768530718
 20
151.1897730081216
 11
1532.9768530718
 21
146.2002269491618
 72
     1
 10
1532.9768530718
 20
146.2002269491618
 11
1530.501270604085
 21
146.2002269491618
 72
     1
 10
1530.501270604085
 20
146.2002269491618
 11
1530.501270604085
 21
151.1897730081216
 97
        0
 75
     0
 76
     1
 98
        0
  0
VIEWPORT
  5
7C
330
78
100
AcDbEntity
 67
     1
  8
0
100
AcDbViewport
 10
128.5
 20
97.5
 30
0.0
 40
314.226
 41
222.18
 68
     1
 69
     1
 12
84.709
 22
127.0
 13
0.0
 23
0.0
 14
10.0
 24
10.0
 15
10.0
 25
10.0
 16
0.0
 26
0.0
 36
1.0
 17
0.0
 27
0.0
 37
0.0
 42
50.0
 43
0.0
 44
0.0
 45
222.18
 50
0.0
 51
0.0
 72
   100
 90
   557152
  1

281
     0
 71
     1
 74
     0
110
0.0
120
0.0
130
0.0
111
1.0
121
0.0
131
0.0
112
0.0
122
1.0
132
0.0
 79
     0
146
0.0
170
     0
 61
     5
348
2F
292
     1
282
     1
141
0.0
142
0.0
 63
   256
361
7D
  0
VIEWPORT
  5
7E
330
78
100
AcDbEntity
 67
     1
  8
0
100
AcDbViewport
 10
127.0
 20
84.709
 30
0.0
 40
254.0
 41
169.418
 68
     2
 69
     2
 12
1418.166666666667
 22
84.6646266900093
 13
0.0
 23
0.0
 14
10.0
 24
10.0
 15
10.0
 25
10.0
 16
0.0
 26
0.0
 36
1.0
 17
0.0
 27
0.0
 37
0.0
 42
50.0
 43
0.0
 44
0.0
 45
169.418
 50
0.0
 51
0.0
 72
   100
 90
   557152
  1

281
     0
 71
     1
 74
     0
110
0.0
120
0.0
130
0.0
111
1.0
121
0.0
131
0.0
112
0.0
122
1.0
132
0.0
 79
     0
146
0.0
170
     0
 61
     5
348
2F
292
     1
282
     1
141
0.0
142
0.0
 63
   256
361
7F
  0
ENDSEC
  0
SECTION
  2
OBJECTS
  0
DICTIONARY
  5
C
330
0
100
AcDbDictionary
281
     1
  3
ACAD_DETAILVIEWSTYLE
350
87
  3
ACAD_GROUP
350
D
  3
ACAD_LAYOUT
350
1A
  3
ACAD_MATERIAL
350
43
  3
ACAD_MLEADERSTYLE
350
5B
  3
ACAD_MLINESTYLE
350
17
  3
ACAD_PLOTSETTINGS
350
19
  3
ACAD_PLOTSTYLENAME
350
E
  3
ACAD_SCALELIST
350
47
  3
ACAD_SECTIONVIEWSTYLE
350
88
  3
ACAD_TABLESTYLE
350
59
  3
ACAD_VISUALSTYLE
350
2A
  3
ACDB_RECOMPOSE_DATA
350
84
  3
AcDbVariableDictionary
350
80
  0
SUN
  5
5D
330
29
100
AcDbSun
 90
        1
290
     0
 63
     7
421
 16777215
 40
1.0
291
     1
 91
  2455826
 92
 54000000
292
     0
 70
     2
 71
   256
280
     1
  0
SUN
  5
7D
330
7C
100
AcDbSun
 90
        1
290
     0
 63
     7
421
 16777215
 40
1.0
291
     1
 91
  2455826
 92
 54000000
292
     0
 70
     2
 71
   256
280
     1
  0
SUN
  5
7F
330
7E
100
AcDbSun
 90
        1
290
     0
 63
     7
421
 16777215
 40
1.0
291
     1
 91
  2455826
 92
 54000000
292
     0
 70
     2
 71
   256
280
     1
  0
DICTIONARY
  5
87
102
{ACAD_REACTORS
330
C
102
}
330
C
100
AcDbDictionary
281
     1
  0
DICTIONARY
  5
D
102
{ACAD_REACTORS
330
C
102
}
330
C
100
AcDbDictionary
281
     1
  0
DICTIONARY
  5
1A
102
{ACAD_REACTORS
330
C
102
}
330
C
100
AcDbDictionary
281
     1
  3
Layout1
350
79
  3
Model
350
22
  0
DICTIONARY
  5
43
102
{ACAD_REACTORS
330
C
102
}
330
C
100
AcDbDictionary
281
     1
  3
ByBlock
350
45
  3
ByLayer
350
44
  3
Global
350
46
  0
DICTIONARY
  5
5B
102
{ACAD_REACTORS
330
C
102
}
330
C
100
AcDbDictionary
281
     1
  3
Standard
350
5C
  0
DICTIONARY
  5
17
102
{ACAD_REACTORS
330
C
102
}
330
C
100
AcDbDictionary
281
     1
  3
Standard
350
18
  0
DICTIONARY
  5
19
102
{ACAD_REACTORS
330
C
102
}
330
C
100
AcDbDictionary
281
     1
  0
ACDBDICTIONARYWDFLT
  5
E
102
{ACAD_REACTORS
330
C
102
}
330
C
100
AcDbDictionary
281
     1
  3
Normal
350
F
100
AcDbDictionaryWithDefault
340
F
  0
DICTIONARY
  5
47
102
{ACAD_REACTORS
330
C
102
}
330
C
100
AcDbDictionary
281
     1
  3
A0
350
48
  3
A1
350
49
  3
A2
350
4A
  3
A3
350
4B
  3
A4
350
4C
  3
A5
350
4D
  3
A6
350
4E
  3
A7
350
4F
  3
A8
350
50
  3
A9
350
51
  3
B0
350
52
  3
B1
350
53
  3
B2
350
54
  3
B3
350
55
  3
B4
350
56
  3
B5
350
57
  3
B6
350
58
  0
DICTIONARY
  5
88
102
{ACAD_REACTORS
330
C
102
}
330
C
100
AcDbDictionary
281
     1
  0
DICTIONARY
  5
59
102
{ACAD_REACTORS
330
C
102
}
330
C
100
AcDbDictionary
281
     1
  3
Standard
350
5A
  0
DICTIONARY
  5
2A
102
{ACAD_REACTORS
330
C
102
}
330
C
100
AcDbDictionary
281
     1
  3
2dWireframe
350
2F
  3
Basic
350
32
  3
Brighten
350
36
  3
ColorChange
350
3A
  3
Conceptual
350
34
  3
Dim
350
35
  3
EdgeColorOff
350
3D
  3
Facepattern
350
39
  3
Flat
350
2B
  3
FlatWithEdges
350
2C
  3
Gouraud
350
2D
  3
GouraudWithEdges
350
2E
  3
Hidden
350
31
  3
JitterOff
350
3B
  3
Linepattern
350
38
  3
OverhangOff
350
3C
  3
Realistic
350
33
  3
Shaded
350
42
  3
Shaded with edges
350
41
  3
Shades of Gray
350
3E
  3
Sketchy
350
3F
  3
Thicken
350
37
  3
Wireframe
350
30
  3
X-Ray
350
40
  0
XRECORD
  5
84
102
{ACAD_REACTORS
330
C
102
}
330
C
100
AcDbXrecord
280
     1
 90
        1
330
5A
  0
DICTIONARY
  5
80
102
{ACAD_REACTORS
330
C
102
}
330
C
100
AcDbDictionary
281
     1
  3
CANNOSCALE
350
81
  3
CENTEREXE
350
89
  3
CENTERLTYPEFILE
350
8A
  3
CMLEADERSTYLE
350
86
  3
CTABLESTYLE
350
85
  0
LAYOUT
  5
79
102
{ACAD_REACTORS
330
1A
102
}
330
1A
100
AcDbPlotSettings
  1

  2
none_device
  4
ISO_A4_(210.00_x_297.00_MM)
  6

 40
0.0
 41
0.0
 42
0.0
 43
0.0
 44
169.418
 45
254.0
 46
0.0
 47
0.0
 48
0.0
 49
0.0
140
0.0
141
0.0
142
1.0
143
1.0
 70
   688
 72
     1
 73
     3
 74
     5
  7

 75
    16
 76
     0
 77
     2
 78
   300
147
1.0
148
0.0
149
0.0
100
AcDbLayout
  1
Layout1
 70
     1
 71
     1
 10
-20.0
 20
-7.5
 11
277.0
 21
202.5
 12
0.0
 22
0.0
 32
0.0
 14
169.418
 24
254.0
 34
0.0
 15
0.0
 25
0.0
 35
0.0
146
0.0
 13
0.0
 23
0.0
 33
0.0
 16
1.0
 26
0.0
 36
0.0
 17
0.0
 27
1.0
 37
0.0
 76
     0
330
78
331
7C
  0
LAYOUT
  5
22
102
{ACAD_REACTORS
330
1A
102
}
330
1A
100
AcDbPlotSettings
  1

  2
none_device
  4
Letter_(8.50_x_11.00_Inches)
  6

 40
6.35
 41
6.35
 42
6.35000508
 43
6.35000508
 44
215.9
 45
279.4
 46
0.0
 47
0.0
 48
0.0
 49
0.0
140
0.0
141
0.0
142
1.0
143
1.0
 70
  1712
 72
     1
 73
     0
 74
     0
  7

 75
     0
 76
     0
 77
     2
 78
   300
147
1.0
148
0.0
149
0.0
100
AcDbLayout
  1
Model
 70
     1
 71
     0
 10
0.0
 20
0.0
 11
420.0
 21
297.0
 12
0.0
 22
0.0
 32
0.0
 14
1.000000000000000E+20
 24
1.000000000000000E+20
 34
1.000000000000000E+20
 15
-1.000000000000000E+20
 25
-1.000000000000000E+20
 35
-1.000000000000000E+20
146
0.0
 13
0.0
 23
0.0
 33
0.0
 16
1.0
 26
0.0
 36
0.0
 17
0.0
 27
1.0
 37
0.0
 76
     0
330
1F
331
29
  0
MATERIAL
  5
45
102
{ACAD_REACTORS
330
43
102
}
330
43
100
AcDbMaterial
  1
ByBlock
 72
     1
 94
      127
  0
MATERIAL
  5
44
102
{ACAD_REACTORS
330
43
102
}
330
43
100
AcDbMaterial
  1
ByLayer
 72
     1
 94
      127
  0
MATERIAL
  5
46
102
{ACAD_REACTORS
330
43
102
}
330
43
100
AcDbMaterial
  1
Global
 72
     1
 94
      127
  0
MLEADERSTYLE
  5
5C
102
{ACAD_REACTORS
330
5B
102
}
330
5B
100
AcDbMLeaderStyle
179
     2
170
     2
171
     1
172
     0
 90
        2
 40
0.0
 41
0.0
173
     1
 91
-1056964608
340
14
 92
       -2
290
     1
 42
2.0
291
     1
 43
8.0
  3
Standard
341
0
 44
4.0
300

342
11
174
     1
178
     6
175
     1
176
     0
 93
-1056964608
 45
4.0
292
     0
297
     0
 46
4.0
343
0
 94
-1056964608
 47
1.0
 49
1.0
140
1.0
293
     1
141
0.0
294
     1
177
     0
142
1.0
295
     0
296
     0
143
3.75
271
     0
272
     9
273
     9
298
     0
  0
MLINESTYLE
  5
18
102
{ACAD_REACTORS
330
17
102
}
330
17
100
AcDbMlineStyle
  2
Standard
 70
     0
  3

 62
   256
 51
90.0
 52
90.0
 71
     2
 49
0.5
 62
   256
  6
BYLAYER
 49
-0.5
 62
   256
  6
BYLAYER
  0
ACDBPLACEHOLDER
  5
F
102
{ACAD_REACTORS
330
E
102
}
330
E
  0
SCALE
  5
48
102
{ACAD_REACTORS
330
47
102
}
330
47
100
AcDbScale
 70
     0
300
1:1
140
1.0
141
1.0
290
     1
  0
SCALE
  5
49
102
{ACAD_REACTORS
330
47
102
}
330
47
100
AcDbScale
 70
     0
300
1:2
140
1.0
141
2.0
290
     0
  0
SCALE
  5
4A
102
{ACAD_REACTORS
330
47
102
}
330
47
100
AcDbScale
 70
     0
300
1:4
140
1.0
141
4.0
290
     0
  0
SCALE
  5
4B
102
{ACAD_REACTORS
330
47
102
}
330
47
100
AcDbScale
 70
     0
300
1:5
140
1.0
141
5.0
290
     0
  0
SCALE
  5
4C
102
{ACAD_REACTORS
330
47
102
}
330
47
100
AcDbScale
 70
     0
300
1:8
140
1.0
141
8.0
290
     0
  0
SCALE
  5
4D
102
{ACAD_REACTORS
330
47
102
}
330
47
100
AcDbScale
 70
     0
300
1:10
140
1.0
141
10.0
290
     0
  0
SCALE
  5
4E
102
{ACAD_REACTORS
330
47
102
}
330
47
100
AcDbScale
 70
     0
300
1:16
140
1.0
141
16.0
290
     0
  0
SCALE
  5
4F
102
{ACAD_REACTORS
330
47
102
}
330
47
100
AcDbScale
 70
     0
300
1:20
140
1.0
141
20.0
290
     0
  0
SCALE
  5
50
102
{ACAD_REACTORS
330
47
102
}
330
47
100
AcDbScale
 70
     0
300
1:30
140
1.0
141
30.0
290
     0
  0
SCALE
  5
51
102
{ACAD_REACTORS
330
47
102
}
330
47
100
AcDbScale
 70
     0
300
1:40
140
1.0
141
40.0
290
     0
  0
SCALE
  5
52
102
{ACAD_REACTORS
330
47
102
}
330
47
100
AcDbScale
 70
     0
300
1:50
140
1.0
141
50.0
290
     0
  0
SCALE
  5
53
102
{ACAD_REACTORS
330
47
102
}
330
47
100
AcDbScale
 70
     0
300
1:100
140
1.0
141
100.0
290
     0
  0
SCALE
  5
54
102
{ACAD_REACTORS
330
47
102
}
330
47
100
AcDbScale
 70
     0
300
2:1
140
2.0
141
1.0
290
     0
  0
SCALE
  5
55
102
{ACAD_REACTORS
330
47
102
}
330
47
100
AcDbScale
 70
     0
300
4:1
140
4.0
141
1.0
290
     0
  0
SCALE
  5
56
102
{ACAD_REACTORS
330
47
102
}
330
47
100
AcDbScale
 70
     0
300
8:1
140
8.0
141
1.0
290
     0
  0
SCALE
  5
57
102
{ACAD_REACTORS
330
47
102
}
330
47
100
AcDbScale
 70
     0
300
10:1
140
10.0
141
1.0
290
     0
  0
SCALE
  5
58
102
{ACAD_REACTORS
330
47
102
}
330
47
100
AcDbScale
 70
     0
300
100:1
140
100.0
141
1.0
290
     0
  0
TABLESTYLE
  5
5A
102
{ACAD_REACTORS
330
59
102
}
102
{ACAD_XDICTIONARY
360
82
102
}
330
59
100
AcDbTableStyle
  3
Standard
 70
     0
 71
     0
 40
0.06
 41
0.06
280
     0
281
     0
  7
Standard
140
4.5
170
     2
 62
     0
 63
   257
283
     0
 90
        4
 91
        0
  1

274
    -2
284
     1
 64
     0
275
    -2
285
     1
 65
     0
276
    -2
286
     1
 66
     0
277
    -2
287
     1
 67
     0
278
    -2
288
     1
 68
     0
279
    -2
289
     1
 69
     0
  7
Standard
140
6.0
170
     5
 62
     0
 63
   257
283
     0
 90
        4
 91
        0
  1

274
    -2
284
     1
 64
     0
275
    -2
285
     1
 65
     0
276
    -2
286
     1
 66
     0
277
    -2
287
     1
 67
     0
278
    -2
288
     1
 68
     0
279
    -2
289
     1
 69
     0
  7
Standard
140
4.5
170
     5
 62
     0
 63
   257
283
     0
 90
        4
 91
        0
  1

274
    -2
284
     1
 64
     0
275
    -2
285
     1
 65
     0
276
    -2
286
     1
 66
     0
277
    -2
287
     1
 67
     0
278
    -2
288
     1
 68
     0
279
    -2
289
     1
 69
     0
  0
VISUALSTYLE
  5
2F
102
{ACAD_REACTORS
330
2A
102
}
330
2A
100
AcDbVisualStyle
  2
2dWireframe
 70
     4
177
     3
291
     0
 70
    58
 90
        0
176
     1
 90
        2
176
     1
 90
        0
176
     1
 90
        0
176
     1
 40
0.6
176
     1
 40
30.0
176
     1
 62
     7
420
 16777215
176
     1
 90
        1
176
     1
 90
        4
176
     1
 62
     7
176
     1
 62
   257
176
     1
 90
        1
176
     1
 90
        1
176
     1
 40
1.0
176
     1
 90
        0
176
     1
 62
   257
176
     1
 40
1.0
176
     1
 90
        1
176
     1
 90
        6
176
     1
 90
        2
176
     1
 62
     7
176
     1
 90
        5
176
     1
 90
        0
176
     1
 90
        0
176
     1
290
     0
176
     1
 90
        1
176
     1
 40
0.0
176
     1
 90
        0
176
     1
290
     1
176
     1
290
     1
176
     1
290
     0
176
     1
290
     0
176
     1
290
     0
176
     1
290
     0
176
     1
290
     0
176
     1
290
     0
176
     1
290
     0
176
     1
 90
       50
176
     1
 40
0.0
176
     1
 40
1.0
176
     1
 90
        0
176
     1
 62
    18
420
        0
176
     1
 90
       50
176
     1
 90
        3
176
     1
 62
     5
420
      255
176
     1
290
     0
176
     1
 90
       50
176
     1
 90
       50
176
     1
 90
       50
176
     1
290
     0
176
     1
 90
       50
176
     1
 62
   256
176
     0
 40
1.0
176
     0
 90
        2
176
     1
  1
strokes_ogs.tif
176
     1
290
     0
176
     1
 40
1.0
176
     1
 40
1.0
176
     1
  0
VISUALSTYLE
  5
32
102
{ACAD_REACTORS
330
2A
102
}
330
2A
100
AcDbVisualStyle
  2
Basic
 70
     7
177
     3
291
     1
 70
    58
 90
        1
176
     1
 90
        0
176
     1
 90
        1
176
     1
 90
        0
176
     1
 40
0.6
176
     1
 40
30.0
176
     1
 62
     7
420
 16777215
176
     1
 90
        0
176
     1
 90
        4
176
     1
 62
     7
176
     1
 62
   257
176
     1
 90
        1
176
     1
 90
        1
176
     1
 40
1.0
176
     1
 90
        8
176
     1
 62
     7
176
     1
 40
1.0
176
     1
 90
        1
176
     1
 90
        6
176
     1
 90
        2
176
     1
 62
     7
176
     1
 90
        5
176
     1
 90
        0
176
     1
 90
        0
176
     1
290
     0
176
     1
 90
        1
176
     1
 40
0.0
176
     1
 90
        0
176
     1
290
     0
176
     1
290
     1
176
     1
290
     1
176
     1
290
     0
176
     1
290
     0
176
     1
290
     0
176
     1
290
     0
176
     1
290
     0
176
     1
290
     0
176
     1
 90
       50
176
     1
 40
0.0
176
     1
 40
1.0
176
     1
 90
        0
176
     1
 62
    18
420
        0
176
     1
 90
       50
176
     1
 90
        3
176
     1
 62
     5
420
      255
176
     1
290
     0
176
     1
 90
       50
176
     1
 90
       50
176
     1
 90
       50
176
     1
290
     0
176
     1
 90
       50
176
     1
 62
   256
176
     0
 40
1.0
176
     0
 90
        2
176
     1
  1
strokes_ogs.tif
176
     1
290
     0
176
     1
 40
1.0
176
     1
 40
1.0
176
     1
  0
VISUALSTYLE
  5
36
102
{ACAD_REACTORS
330
2A
102
}
330
2A
100
AcDbVisualStyle
  2
Brighten
 70
    12
177
     3
291
     1
 70
    58
 90
        2
176
     1
 90
        2
176
     1
 90
        0
176
     1
 90
        0
176
     1
 40
0.6
176
     1
 40
30.0
176
     1
 62
     7
420
 16777215
176
     1
 90
        1
176
     1
 90
        4
176
     1
 62
     7
176
     1
 62
   257
176
     1
 90
        1
176
     1
 90
        1
176
     1
 40
1.0
176
     1
 90
        8
176
     1
 62
     7
176
     1
 40
1.0
176
     1
 90
        1
176
     1
 90
        6
176
     1
 90
        2
176
     1
 62
     7
176
     1
 90
        5
176
     1
 90
        0
176
     1
 90
        0
176
     1
290
     0
176
     1
 90
        1
176
     1
 40
50.0
176
     1
 90
        0
176
     1
290
     0
176
     1
290
     1
176
     1
290
     1
176
     1
290
     0
176
     1
290
     0
176
     1
290
     0
176
     1
290
     0
176
     1
290
     0
176
     1
290
     0
176
     1
 90
       50
176
     1
 40
0.0
176
     1
 40
1.0
176
     1
 90
        0
176
     1
 62
    18
420
        0
176
     1
 90
       50
176
     1
 90
        3
176
     1
 62
     5
420
      255
176
     1
290
     0
176
     1
 90
       50
176
     1
 90
       50
176
     1
 90
       50
176
     1
290
     0
176
     1
 90
       50
176
     1
 62
   256
176
     0
 40
1.0
176
     0
 90
        2
176
     1
  1
strokes_ogs.tif
176
     1
290
     0
176
     1
 40
1.0
176
     1
 40
1.0
176
     1
  0
VISUALSTYLE
  5
3A
102
{ACAD_REACTORS
330
2A
102
}
330
2A
100
AcDbVisualStyle
  2
ColorChange
 70
    16
177
     3
291
     1
 70
    58
 90
        2
176
     1
 90
        2
176
     1
 90
        3
176
     1
 90
        0
176
     1
 40
0.6
176
     1
 40
30.0
176
     1
 62
     8
420
  8421504
176
     1
 90
        1
176
     1
 90
        4
176
     1
 62
     7
176
     1
 62
   257
176
     1
 90
        1
176
     1
 90
        1
176
     1
 40
1.0
176
     1
 90
        8
176
     1
 62
     8
420
  8421504
176
     1
 40
1.0
176
     1
 90
        1
176
     1
 90
        6
176
     1
 90
        2
176
     1
 62
     7
176
     1
 90
        5
176
     1
 90
        0
176
     1
 90
        0
176
     1
290
     0
176
     1
 90
        1
176
     1
 40
0.0
176
     1
 90
        0
176
     1
290
     0
176
     1
290
     1
176
     1
290
     1
176
     1
290
     0
176
     1
290
     0
176
     1
290
     0
176
     1
290
     0
176
     1
290
     0
176
     1
290
     0
176
     1
 90
       50
176
     1
 40
0.0
176
     1
 40
1.0
176
     1
 90
        0
176
     1
 62
    18
420
        0
176
     1
 90
       50
176
     1
 90
        3
176
     1
 62
     5
420
      255
176
     1
290
     0
176
     1
 90
       50
176
     1
 90
       50
176
     1
 90
       50
176
     1
290
     0
176
     1
 90
       50
176
     1
 62
   256
176
     0
 40
1.0
176
     0
 90
        2
176
     1
  1
strokes_ogs.tif
176
     1
290
     0
176
     1
 40
1.0
176
     1
 40
1.0
176
     1
  0
VISUALSTYLE
  5
34
102
{ACAD_REACTORS
330
2A
102
}
330
2A
100
AcDbVisualStyle
  2
Conceptual
 70
     9
177
     3
291
     0
 70
    58
 90
        3
176
     1
 90
        2
176
     1
 90
        0
176
     1
 90
        0
176
     1
 40
0.6
176
     1
 40
30.0
176
     1
 62
     7
420
 16777215
176
     1
 90
        2
176
     1
 90
        2
176
     1
 62
     7
176
     1
 62
   257
176
     1
 90
        1
176
     1
 90
        1
176
     1
 40
179.0
176
     1
 90
        8
176
     1
 62
     7
176
     1
 40
1.0
176
     1
 90
        1
176
     1
 90
        6
176
     1
 90
        2
176
     1
 62
     7
176
     1
 90
        3
176
     1
 90
        0
176
     1
 90
        0
176
     1
290
     0
176
     1
 90
        1
176
     1
 40
0.0
176
     1
 90
        0
176
     1
290
     0
176
     1
290
     1
176
     1
290
     1
176
     1
290
     0
176
     1
290
     0
176
     1
290
     0
176
     1
290
     0
176
     1
290
     0
176
     1
290
     0
176
     1
 90
       50
176
     1
 40
0.0
176
     1
 40
1.0
176
     1
 90
        0
176
     1
 62
    18
420
        0
176
     1
 90
       50
176
     1
 90
        3
176
     1
 62
     5
420
      255
176
     1
290
     0
176
     1
 90
       50
176
     1
 90
       50
176
     1
 90
       50
176
     1
290
     0
176
     1
 90
       50
176
     1
 62
   256
176
     0
 40
1.0
176
     0
 90
        2
176
     1
  1
strokes_ogs.tif
176
     1
290
     0
176
     1
 40
1.0
176
     1
 40
1.0
176
     1
  0
VISUALSTYLE
  5
35
102
{ACAD_REACTORS
330
2A
102
}
330
2A
100
AcDbVisualStyle
  2
Dim
 70
    11
177
     3
291
     1
 70
    58
 90
        2
176
     1
 90
        2
176
     1
 90
        0
176
     1
 90
        0
176
     1
 40
0.6
176
     1
 40
30.0
176
     1
 62
     7
420
 16777215
176
     1
 90
        1
176
     1
 90
        4
176
     1
 62
     7
176
     1
 62
   257
176
     1
 90
        1
176
     1
 90
        1
176
     1
 40
1.0
176
     1
 90
        8
176
     1
 62
     7
176
     1
 40
1.0
176
     1
 90
        1
176
     1
 90
        6
176
     1
 90
        2
176
     1
 62
     7
176
     1
 90
        5
176
     1
 90
        0
176
     1
 90
        0
176
     1
290
     0
176
     1
 90
        1
176
     1
 40
-50.0
176
     1
 90
        0
176
     1
290
     0
176
     1
290
     1
176
     1
290
     1
176
     1
290
     0
176
     1
290
     0
176
     1
290
     0
176
     1
290
     0
176
     1
290
     0
176
     1
290
     0
176
     1
 90
       50
176
     1
 40
0.0
176
     1
 40
1.0
176
     1
 90
        0
176
     1
 62
    18
420
        0
176
     1
 90
       50
176
     1
 90
        3
176
     1
 62
     5
420
      255
176
     1
290
     0
176
     1
 90
       50
176
     1
 90
       50
176
     1
 90
       50
176
     1
290
     0
176
     1
 90
       50
176
     1
 62
   256
176
     0
 40
1.0
176
     0
 90
        2
176
     1
  1
strokes_ogs.tif
176
     1
290
     0
176
     1
 40
1.0
176
     1
 40
1.0
176
     1
  0
VISUALSTYLE
  5
3D
102
{ACAD_REACTORS
330
2A
102
}
330
2A
100
AcDbVisualStyle
  2
EdgeColorOff
 70
    22
177
     3
291
     1
 70
    58
 90
        2
176
     0
 90
        2
176
     0
 90
        0
176
     0
 90
        0
176
     0
 40
0.6
176
     0
 40
30.0
176
     0
 62
     7
420
 16777215
176
     0
 90
        1
176
     0
 90
        4
176
     0
 62
     7
176
     0
 62
   257
176
     0
 90
        1
176
     0
 90
        1
176
     0
 40
1.0
176
     0
 90
        8
176
     2
 62
     7
176
     0
 40
1.0
176
     0
 90
        1
176
     0
 90
        6
176
     0
 90
        2
176
     0
 62
     7
176
     0
 90
        5
176
     0
 90
        0
176
     0
 90
        0
176
     0
290
     0
176
     0
 90
        1
176
     0
 40
0.0
176
     0
 90
        0
176
     0
290
     0
176
     0
290
     1
176
     0
290
     1
176
     0
290
     0
176
     0
290
     0
176
     0
290
     0
176
     0
290
     0
176
     0
290
     0
176
     0
290
     0
176
     0
 90
       50
176
     0
 40
0.0
176
     0
 40
1.0
176
     0
 90
        0
176
     0
 62
    18
420
        0
176
     0
 90
       50
176
     0
 90
        3
176
     0
 62
     5
420
      255
176
     0
290
     0
176
     0
 90
       50
176
     0
 90
       50
176
     0
 90
       50
176
     0
290
     0
176
     0
 90
       50
176
     0
 62
   256
176
     0
 40
1.0
176
     0
 90
        2
176
     0
  1
strokes_ogs.tif
176
     0
290
     0
176
     0
 40
1.0
176
     0
 40
1.0
176
     0
  0
VISUALSTYLE
  5
39
102
{ACAD_REACTORS
330
2A
102
}
330
2A
100
AcDbVisualStyle
  2
Facepattern
 70
    15
177
     3
291
     1
 70
    58
 90
        2
176
     1
 90
        2
176
     1
 90
        0
176
     1
 90
        0
176
     1
 40
0.6
176
     1
 40
30.0
176
     1
 62
     7
420
 16777215
176
     1
 90
        1
176
     1
 90
        4
176
     1
 62
     7
176
     1
 62
   257
176
     1
 90
        1
176
     1
 90
        1
176
     1
 40
1.0
176
     1
 90
        8
176
     1
 62
     7
176
     1
 40
1.0
176
     1
 90
        1
176
     1
 90
        6
176
     1
 90
        2
176
     1
 62
     7
176
     1
 90
        5
176
     1
 90
        0
176
     1
 90
        0
176
     1
290
     0
176
     1
 90
        1
176
     1
 40
0.0
176
     1
 90
        0
176
     1
290
     0
176
     1
290
     1
176
     1
290
     1
176
     1
290
     0
176
     1
290
     0
176
     1
290
     0
176
     1
290
     0
176
     1
290
     0
176
     1
290
     0
176
     1
 90
       50
176
     1
 40
0.0
176
     1
 40
1.0
176
     1
 90
        0
176
     1
 62
    18
420
        0
176
     1
 90
       50
176
     1
 90
        3
176
     1
 62
     5
420
      255
176
     1
290
     0
176
     1
 90
       50
176
     1
 90
       50
176
     1
 90
       50
176
     1
290
     0
176
     1
 90
       50
176
     1
 62
   256
176
     0
 40
1.0
176
     0
 90
        2
176
     1
  1
strokes_ogs.tif
176
     1
290
     0
176
     1
 40
1.0
176
     1
 40
1.0
176
     1
  0
VISUALSTYLE
  5
2B
102
{ACAD_REACTORS
330
2A
102
}
330
2A
100
AcDbVisualStyle
  2
Flat
 70
     0
177
     3
291
     1
 70
    58
 90
        2
176
     1
 90
        1
176
     1
 90
        1
176
     1
 90
        2
176
     1
 40
0.6
176
     1
 40
30.0
176
     1
 62
     7
420
 16777215
176
     1
 90
        0
176
     1
 90
        0
176
     1
 62
     7
176
     1
 62
   257
176
     1
 90
        1
176
     1
 90
        1
176
     1
 40
1.0
176
     1
 90
        8
176
     1
 62
     7
176
     1
 40
1.0
176
     1
 90
        1
176
     1
 90
        6
176
     1
 90
        2
176
     1
 62
     7
176
     1
 90
        5
176
     1
 90
        0
176
     1
 90
        0
176
     1
290
     0
176
     1
 90
       13
176
     1
 40
0.0
176
     1
 90
        0
176
     1
290
     0
176
     1
290
     1
176
     1
290
     1
176
     1
290
     0
176
     1
290
     0
176
     1
290
     0
176
     1
290
     0
176
     1
290
     0
176
     1
290
     0
176
     1
 90
       50
176
     1
 40
0.0
176
     1
 40
1.0
176
     1
 90
        0
176
     1
 62
    18
420
        0
176
     1
 90
       50
176
     1
 90
        3
176
     1
 62
     5
420
      255
176
     1
290
     0
176
     1
 90
       50
176
     1
 90
       50
176
     1
 90
       50
176
     1
290
     0
176
     1
 90
       50
176
     1
 62
   256
176
     0
 40
1.0
176
     0
 90
        2
176
     1
  1
strokes_ogs.tif
176
     1
290
     0
176
     1
 40
1.0
176
     1
 40
1.0
176
     1
  0
VISUALSTYLE
  5
2C
102
{ACAD_REACTORS
330
2A
102
}
330
2A
100
AcDbVisualStyle
  2
FlatWithEdges
 70
     1
177
     3
291
     1
 70
    58
 90
        2
176
     1
 90
        1
176
     1
 90
        1
176
     1
 90
        2
176
     1
 40
0.6
176
     1
 40
30.0
176
     1
 62
     7
420
 16777215
176
     1
 90
        1
176
     1
 90
        0
176
     1
 62
     7
176
     1
 62
   257
176
     1
 90
        1
176
     1
 90
        1
176
     1
 40
1.0
176
     1
 90
        0
176
     1
 62
   257
176
     1
 40
1.0
176
     1
 90
        1
176
     1
 90
        6
176
     1
 90
        2
176
     1
 62
     7
176
     1
 90
        5
176
     1
 90
        0
176
     1
 90
        0
176
     1
290
     0
176
     1
 90
       13
176
     1
 40
0.0
176
     1
 90
        0
176
     1
290
     0
176
     1
290
     1
176
     1
290
     1
176
     1
290
     0
176
     1
290
     0
176
     1
290
     0
176
     1
290
     0
176
     1
290
     0
176
     1
290
     0
176
     1
 90
       50
176
     1
 40
0.0
176
     1
 40
1.0
176
     1
 90
        0
176
     1
 62
    18
420
        0
176
     1
 90
       50
176
     1
 90
        3
176
     1
 62
     5
420
      255
176
     1
290
     0
176
     1
 90
       50
176
     1
 90
       50
176
     1
 90
       50
176
     1
290
     0
176
     1
 90
       50
176
     1
 62
   256
176
     0
 40
1.0
176
     0
 90
        2
176
     1
  1
strokes_ogs.tif
176
     1
290
     0
176
     1
 40
1.0
176
     1
 40
1.0
176
     1
  0
VISUALSTYLE
  5
2D
102
{ACAD_REACTORS
330
2A
102
}
330
2A
100
AcDbVisualStyle
  2
Gouraud
 70
     2
177
     3
291
     1
 70
    58
 90
        2
176
     1
 90
        2
176
     1
 90
        1
176
     1
 90
        2
176
     1
 40
0.6
176
     1
 40
30.0
176
     1
 62
     7
420
 16777215
176
     1
 90
        0
176
     1
 90
        0
176
     1
 62
     7
176
     1
 62
   257
176
     1
 90
        1
176
     1
 90
        1
176
     1
 40
1.0
176
     1
 90
        0
176
     1
 62
     7
176
     1
 40
1.0
176
     1
 90
        1
176
     1
 90
        6
176
     1
 90
        2
176
     1
 62
     7
176
     1
 90
        5
176
     1
 90
        0
176
     1
 90
        0
176
     1
290
     0
176
     1
 90
       13
176
     1
 40
0.0
176
     1
 90
        0
176
     1
290
     0
176
     1
290
     1
176
     1
290
     1
176
     1
290
     0
176
     1
290
     0
176
     1
290
     0
176
     1
290
     0
176
     1
290
     0
176
     1
290
     0
176
     1
 90
       50
176
     1
 40
0.0
176
     1
 40
1.0
176
     1
 90
        0
176
     1
 62
    18
420
        0
176
     1
 90
       50
176
     1
 90
        3
176
     1
 62
     5
420
      255
176
     1
290
     0
176
     1
 90
       50
176
     1
 90
       50
176
     1
 90
       50
176
     1
290
     0
176
     1
 90
       50
176
     1
 62
   256
176
     0
 40
1.0
176
     0
 90
        2
176
     1
  1
strokes_ogs.tif
176
     1
290
     0
176
     1
 40
1.0
176
     1
 40
1.0
176
     1
  0
VISUALSTYLE
  5
2E
102
{ACAD_REACTORS
330
2A
102
}
330
2A
100
AcDbVisualStyle
  2
GouraudWithEdges
 70
     3
177
     3
291
     1
 70
    58
 90
        2
176
     1
 90
        2
176
     1
 90
        1
176
     1
 90
        2
176
     1
 40
0.6
176
     1
 40
30.0
176
     1
 62
     7
420
 16777215
176
     1
 90
        1
176
     1
 90
        0
176
     1
 62
     7
176
     1
 62
   257
176
     1
 90
        1
176
     1
 90
        1
176
     1
 40
1.0
176
     1
 90
        0
176
     1
 62
   257
176
     1
 40
1.0
176
     1
 90
        1
176
     1
 90
        6
176
     1
 90
        2
176
     1
 62
     7
176
     1
 90
        5
176
     1
 90
        0
176
     1
 90
        0
176
     1
290
     0
176
     1
 90
       13
176
     1
 40
0.0
176
     1
 90
        0
176
     1
290
     0
176
     1
290
     1
176
     1
290
     1
176
     1
290
     0
176
     1
290
     0
176
     1
290
     0
176
     1
290
     0
176
     1
290
     0
176
     1
290
     0
176
     1
 90
       50
176
     1
 40
0.0
176
     1
 40
1.0
176
     1
 90
        0
176
     1
 62
    18
420
        0
176
     1
 90
       50
176
     1
 90
        3
176
     1
 62
     5
420
      255
176
     1
290
     0
176
     1
 90
       50
176
     1
 90
       50
176
     1
 90
       50
176
     1
290
     0
176
     1
 90
       50
176
     1
 62
   256
176
     0
 40
1.0
176
     0
 90
        2
176
     1
  1
strokes_ogs.tif
176
     1
290
     0
176
     1
 40
1.0
176
     1
 40
1.0
176
     1
  0
VISUALSTYLE
  5
31
102
{ACAD_REACTORS
330
2A
102
}
330
2A
100
AcDbVisualStyle
  2
Hidden
 70
     6
177
     3
291
     0
 70
    58
 90
        1
176
     1
 90
        2
176
     1
 90
        2
176
     1
 90
        0
176
     1
 40
0.6
176
     1
 40
30.0
176
     1
 62
     7
420
 16777215
176
     1
 90
        2
176
     1
 90
        2
176
     1
 62
     7
176
     1
 62
   257
176
     1
 90
        2
176
     1
 90
        1
176
     1
 40
40.0
176
     1
 90
        0
176
     1
 62
   257
176
     1
 40
1.0
176
     1
 90
        1
176
     1
 90
        6
176
     1
 90
        2
176
     1
 62
     7
176
     1
 90
        3
176
     1
 90
        0
176
     1
 90
        0
176
     1
290
     0
176
     1
 90
        1
176
     1
 40
0.0
176
     1
 90
        0
176
     1
290
     0
176
     1
290
     1
176
     1
290
     1
176
     1
290
     0
176
     1
290
     0
176
     1
290
     0
176
     1
290
     0
176
     1
290
     0
176
     1
290
     0
176
     1
 90
       50
176
     1
 40
0.0
176
     1
 40
1.0
176
     1
 90
        0
176
     1
 62
    18
420
        0
176
     1
 90
       50
176
     1
 90
        3
176
     1
 62
     5
420
      255
176
     1
290
     0
176
     1
 90
       50
176
     1
 90
       50
176
     1
 90
       50
176
     1
290
     0
176
     1
 90
       50
176
     1
 62
   256
176
     0
 40
1.0
176
     0
 90
        2
176
     1
  1
strokes_ogs.tif
176
     1
290
     0
176
     1
 40
1.0
176
     1
 40
1.0
176
     1
  0
VISUALSTYLE
  5
3B
102
{ACAD_REACTORS
330
2A
102
}
330
2A
100
AcDbVisualStyle
  2
JitterOff
 70
    20
177
     3
291
     1
 70
    58
 90
        2
176
     0
 90
        2
176
     0
 90
        0
176
     0
 90
        0
176
     0
 40
0.6
176
     0
 40
30.0
176
     0
 62
     7
420
 16777215
176
     0
 90
        1
176
     0
 90
        4
176
     0
 62
     7
176
     0
 62
   257
176
     0
 90
        1
176
     0
 90
        1
176
     0
 40
1.0
176
     0
 90
       10
176
     2
 62
     7
176
     0
 40
1.0
176
     0
 90
        1
176
     0
 90
        6
176
     0
 90
        2
176
     0
 62
     7
176
     0
 90
        5
176
     0
 90
        0
176
     0
 90
        0
176
     0
290
     0
176
     0
 90
        1
176
     0
 40
0.0
176
     0
 90
        0
176
     0
290
     0
176
     0
290
     1
176
     0
290
     1
176
     0
290
     0
176
     0
290
     0
176
     0
290
     0
176
     0
290
     0
176
     0
290
     0
176
     0
290
     0
176
     0
 90
       50
176
     0
 40
0.0
176
     0
 40
1.0
176
     0
 90
        0
176
     0
 62
    18
420
        0
176
     0
 90
       50
176
     0
 90
        3
176
     0
 62
     5
420
      255
176
     0
290
     0
176
     0
 90
       50
176
     0
 90
       50
176
     0
 90
       50
176
     0
290
     0
176
     0
 90
       50
176
     0
 62
   256
176
     0
 40
1.0
176
     0
 90
        2
176
     0
  1
strokes_ogs.tif
176
     0
290
     0
176
     0
 40
1.0
176
     0
 40
1.0
176
     0
  0
VISUALSTYLE
  5
38
102
{ACAD_REACTORS
330
2A
102
}
330
2A
100
AcDbVisualStyle
  2
Linepattern
 70
    14
177
     3
291
     1
 70
    58
 90
        2
176
     1
 90
        2
176
     1
 90
        0
176
     1
 90
        0
176
     1
 40
0.6
176
     1
 40
30.0
176
     1
 62
     7
420
 16777215
176
     1
 90
        1
176
     1
 90
        4
176
     1
 62
     7
176
     1
 62
   257
176
     1
 90
        7
176
     1
 90
        7
176
     1
 40
1.0
176
     1
 90
        8
176
     1
 62
     7
176
     1
 40
1.0
176
     1
 90
        1
176
     1
 90
        6
176
     1
 90
        2
176
     1
 62
     7
176
     1
 90
        5
176
     1
 90
        0
176
     1
 90
        0
176
     1
290
     0
176
     1
 90
        1
176
     1
 40
0.0
176
     1
 90
        0
176
     1
290
     0
176
     1
290
     1
176
     1
290
     1
176
     1
290
     0
176
     1
290
     0
176
     1
290
     0
176
     1
290
     0
176
     1
290
     0
176
     1
290
     0
176
     1
 90
       50
176
     1
 40
0.0
176
     1
 40
1.0
176
     1
 90
        0
176
     1
 62
    18
420
        0
176
     1
 90
       50
176
     1
 90
        3
176
     1
 62
     5
420
      255
176
     1
290
     0
176
     1
 90
       50
176
     1
 90
       50
176
     1
 90
       50
176
     1
290
     0
176
     1
 90
       50
176
     1
 62
   256
176
     0
 40
1.0
176
     0
 90
        2
176
     1
  1
strokes_ogs.tif
176
     1
290
     0
176
     1
 40
1.0
176
     1
 40
1.0
176
     1
  0
VISUALSTYLE
  5
3C
102
{ACAD_REACTORS
330
2A
102
}
330
2A
100
AcDbVisualStyle
  2
OverhangOff
 70
    21
177
     3
291
     1
 70
    58
 90
        2
176
     0
 90
        2
176
     0
 90
        0
176
     0
 90
        0
176
     0
 40
0.6
176
     0
 40
30.0
176
     0
 62
     7
420
 16777215
176
     0
 90
        1
176
     0
 90
        4
176
     0
 62
     7
176
     0
 62
   257
176
     0
 90
        1
176
     0
 90
        1
176
     0
 40
1.0
176
     0
 90
        9
176
     2
 62
     7
176
     0
 40
1.0
176
     0
 90
        1
176
     0
 90
        6
176
     0
 90
        2
176
     0
 62
     7
176
     0
 90
        5
176
     0
 90
        0
176
     0
 90
        0
176
     0
290
     0
176
     0
 90
        1
176
     0
 40
0.0
176
     0
 90
        0
176
     0
290
     0
176
     0
290
     1
176
     0
290
     1
176
     0
290
     0
176
     0
290
     0
176
     0
290
     0
176
     0
290
     0
176
     0
290
     0
176
     0
290
     0
176
     0
 90
       50
176
     0
 40
0.0
176
     0
 40
1.0
176
     0
 90
        0
176
     0
 62
    18
420
        0
176
     0
 90
       50
176
     0
 90
        3
176
     0
 62
     5
420
      255
176
     0
290
     0
176
     0
 90
       50
176
     0
 90
       50
176
     0
 90
       50
176
     0
290
     0
176
     0
 90
       50
176
     0
 62
   256
176
     0
 40
1.0
176
     0
 90
        2
176
     0
  1
strokes_ogs.tif
176
     0
290
     0
176
     0
 40
1.0
176
     0
 40
1.0
176
     0
  0
VISUALSTYLE
  5
33
102
{ACAD_REACTORS
330
2A
102
}
330
2A
100
AcDbVisualStyle
  2
Realistic
 70
     8
177
     3
291
     0
 70
    58
 90
        2
176
     1
 90
        3
176
     1
 90
        0
176
     1
 90
        2
176
     1
 40
0.6
176
     1
 40
30.0
176
     1
 62
     7
420
 16777215
176
     1
 90
        0
176
     1
 90
        0
176
     1
 62
     7
176
     1
 62
   257
176
     1
 90
        1
176
     1
 90
        1
176
     1
 40
1.0
176
     1
 90
        8
176
     1
 62
   257
176
     1
 40
1.0
176
     1
 90
        1
176
     1
 90
        6
176
     1
 90
        2
176
     1
 62
     7
176
     1
 90
        3
176
     1
 90
        0
176
     1
 90
        0
176
     1
290
     0
176
     1
 90
       13
176
     1
 40
0.0
176
     1
 90
        0
176
     1
290
     0
176
     1
290
     1
176
     1
290
     1
176
     1
290
     0
176
     1
290
     0
176
     1
290
     0
176
     1
290
     0
176
     1
290
     0
176
     1
290
     0
176
     1
 90
       50
176
     1
 40
0.0
176
     1
 40
1.0
176
     1
 90
        0
176
     1
 62
    18
420
        0
176
     1
 90
       50
176
     1
 90
        3
176
     1
 62
     5
420
      255
176
     1
290
     0
176
     1
 90
       50
176
     1
 90
       50
176
     1
 90
       50
176
     1
290
     0
176
     1
 90
       50
176
     1
 62
   256
176
     0
 40
1.0
176
     0
 90
        2
176
     1
  1
strokes_ogs.tif
176
     1
290
     0
176
     1
 40
1.0
176
     1
 40
1.0
176
     1
  0
VISUALSTYLE
  5
42
102
{ACAD_REACTORS
330
2A
102
}
330
2A
100
AcDbVisualStyle
  2
Shaded
 70
    27
177
     3
291
     0
 70
    58
 90
        2
176
     1
 90
        2
176
     1
 90
        1
176
     1
 90
        2
176
     1
 40
0.6
176
     1
 40
30.0
176
     1
 62
     7
420
 16777215
176
     1
 90
        0
176
     1
 90
        4
176
     1
 62
     7
176
     1
 62
   257
176
     1
 90
        1
176
     1
 90
        1
176
     1
 40
1.0
176
     1
 90
        8
176
     1
 62
   257
176
     1
 40
1.0
176
     1
 90
        1
176
     1
 90
        6
176
     1
 90
        2
176
     1
 62
     8
420
  7895160
176
     1
 90
        3
176
     1
 90
        0
176
     1
 90
        0
176
     1
290
     0
176
     1
 90
        5
176
     1
 40
0.0
176
     1
 90
        0
176
     1
290
     0
176
     1
290
     1
176
     1
290
     1
176
     1
290
     0
176
     1
290
     0
176
     1
290
     0
176
     1
290
     0
176
     1
290
     0
176
     1
290
     0
176
     1
 90
       50
176
     1
 40
0.0
176
     1
 40
1.0
176
     1
 90
        0
176
     1
 62
    18
420
        0
176
     1
 90
       50
176
     1
 90
        3
176
     1
 62
     5
420
      255
176
     1
290
     0
176
     1
 90
       50
176
     1
 90
       50
176
     1
 90
       50
176
     1
290
     0
176
     1
 90
       50
176
     1
 62
   256
176
     0
 40
1.0
176
     0
 90
        2
176
     1
  1
strokes_ogs.tif
176
     1
290
     0
176
     1
 40
1.0
176
     1
 40
1.0
176
     1
  0
VISUALSTYLE
  5
41
102
{ACAD_REACTORS
330
2A
102
}
330
2A
100
AcDbVisualStyle
  2
Shaded with edges
 70
    26
177
     3
291
     0
 70
    58
 90
        2
176
     1
 90
        2
176
     1
 90
        1
176
     1
 90
        2
176
     1
 40
0.6
176
     1
 40
30.0
176
     1
 62
     7
420
 16777215
176
     1
 90
        1
176
     1
 90
       10
176
     1
 62
     7
176
     1
 62
   257
176
     1
 90
        2
176
     1
 90
        1
176
     1
 40
1.0
176
     1
 90
        8
176
     1
 62
   257
176
     1
 40
1.0
176
     1
 90
        1
176
     1
 90
        6
176
     1
 90
        2
176
     1
 62
     7
176
     1
 90
        3
176
     1
 90
        0
176
     1
 90
        0
176
     1
290
     0
176
     1
 90
        5
176
     1
 40
0.0
176
     1
 90
        0
176
     1
290
     0
176
     1
290
     1
176
     1
290
     1
176
     1
290
     0
176
     1
290
     0
176
     1
290
     0
176
     1
290
     0
176
     1
290
     0
176
     1
290
     0
176
     1
 90
       50
176
     1
 40
0.0
176
     1
 40
1.0
176
     1
 90
        0
176
     1
 62
    18
420
        0
176
     1
 90
       50
176
     1
 90
        3
176
     1
 62
     5
420
      255
176
     1
290
     0
176
     1
 90
       50
176
     1
 90
       50
176
     1
 90
       50
176
     1
290
     0
176
     1
 90
       50
176
     1
 62
   256
176
     0
 40
1.0
176
     0
 90
        2
176
     1
  1
strokes_ogs.tif
176
     1
290
     0
176
     1
 40
1.0
176
     1
 40
1.0
176
     1
  0
VISUALSTYLE
  5
3E
102
{ACAD_REACTORS
330
2A
102
}
330
2A
100
AcDbVisualStyle
  2
Shades of Gray
 70
    23
177
     3
291
     0
 70
    58
 90
        2
176
     1
 90
        2
176
     1
 90
        3
176
     1
 90
        0
176
     1
 40
0.6
176
     1
 40
30.0
176
     1
 62
     7
420
 16777215
176
     1
 90
        2
176
     1
 90
        2
176
     1
 62
     7
176
     1
 62
     7
176
     1
 90
        1
176
     1
 90
        1
176
     1
 40
40.0
176
     1
 90
        8
176
     1
 62
     7
176
     1
 40
1.0
176
     1
 90
        1
176
     1
 90
        6
176
     1
 90
        2
176
     1
 62
     7
176
     1
 90
        3
176
     1
 90
        0
176
     1
 90
        0
176
     1
290
     0
176
     1
 90
        1
176
     1
 40
0.0
176
     1
 90
        0
176
     1
290
     0
176
     1
290
     1
176
     1
290
     1
176
     1
290
     0
176
     1
290
     0
176
     1
290
     0
176
     1
290
     0
176
     1
290
     0
176
     1
290
     0
176
     1
 90
       50
176
     1
 40
0.0
176
     1
 40
1.0
176
     1
 90
        0
176
     1
 62
    18
420
        0
176
     1
 90
       50
176
     1
 90
        3
176
     1
 62
     5
420
      255
176
     1
290
     0
176
     1
 90
       50
176
     1
 90
       50
176
     1
 90
       50
176
     1
290
     0
176
     1
 90
       50
176
     1
 62
   256
176
     0
 40
1.0
176
     0
 90
        2
176
     1
  1
strokes_ogs.tif
176
     1
290
     0
176
     1
 40
1.0
176
     1
 40
1.0
176
     1
  0
VISUALSTYLE
  5
3F
102
{ACAD_REACTORS
330
2A
102
}
330
2A
100
AcDbVisualStyle
  2
Sketchy
 70
    24
177
     3
291
     0
 70
    58
 90
        1
176
     1
 90
        2
176
     1
 90
        2
176
     1
 90
        0
176
     1
 40
0.6
176
     1
 40
30.0
176
     1
 62
     7
420
 16777215
176
     1
 90
        2
176
     1
 90
        2
176
     1
 62
     7
176
     1
 62
     7
176
     1
 90
        1
176
     1
 90
        1
176
     1
 40
40.0
176
     1
 90
       11
176
     1
 62
     7
176
     1
 40
1.0
176
     1
 90
        1
176
     1
 90
        6
176
     1
 90
        2
176
     1
 62
     7
176
     1
 90
        6
176
     1
 90
        0
176
     1
 90
        0
176
     1
290
     0
176
     1
 90
        1
176
     1
 40
0.0
176
     1
 90
        0
176
     1
290
     0
176
     1
290
     1
176
     1
290
     1
176
     1
290
     0
176
     1
290
     0
176
     1
290
     0
176
     1
290
     0
176
     1
290
     0
176
     1
290
     0
176
     1
 90
       50
176
     1
 40
0.0
176
     1
 40
1.0
176
     1
 90
        0
176
     1
 62
    18
420
        0
176
     1
 90
       50
176
     1
 90
        3
176
     1
 62
     5
420
      255
176
     1
290
     0
176
     1
 90
       50
176
     1
 90
       50
176
     1
 90
       50
176
     1
290
     0
176
     1
 90
       50
176
     1
 62
   256
176
     0
 40
1.0
176
     0
 90
        2
176
     1
  1
strokes_ogs.tif
176
     1
290
     0
176
     1
 40
1.0
176
     1
 40
1.0
176
     1
  0
VISUALSTYLE
  5
37
102
{ACAD_REACTORS
330
2A
102
}
330
2A
100
AcDbVisualStyle
  2
Thicken
 70
    13
177
     3
291
     1
 70
    58
 90
        2
176
     1
 90
        2
176
     1
 90
        0
176
     1
 90
        0
176
     1
 40
0.6
176
     1
 40
30.0
176
     1
 62
     7
420
 16777215
176
     1
 90
        1
176
     1
 90
        4
176
     1
 62
     7
176
     1
 62
   257
176
     1
 90
        1
176
     1
 90
        1
176
     1
 40
1.0
176
     1
 90
       12
176
     1
 62
     7
176
     1
 40
1.0
176
     1
 90
        1
176
     1
 90
        6
176
     1
 90
        2
176
     1
 62
     7
176
     1
 90
        5
176
     1
 90
        0
176
     1
 90
        0
176
     1
290
     0
176
     1
 90
        1
176
     1
 40
0.0
176
     1
 90
        0
176
     1
290
     0
176
     1
290
     1
176
     1
290
     1
176
     1
290
     0
176
     1
290
     0
176
     1
290
     0
176
     1
290
     0
176
     1
290
     0
176
     1
290
     0
176
     1
 90
       50
176
     1
 40
0.0
176
     1
 40
1.0
176
     1
 90
        0
176
     1
 62
    18
420
        0
176
     1
 90
       50
176
     1
 90
        3
176
     1
 62
     5
420
      255
176
     1
290
     0
176
     1
 90
       50
176
     1
 90
       50
176
     1
 90
       50
176
     1
290
     0
176
     1
 90
       50
176
     1
 62
   256
176
     0
 40
1.0
176
     0
 90
        2
176
     1
  1
strokes_ogs.tif
176
     1
290
     0
176
     1
 40
1.0
176
     1
 40
1.0
176
     1
  0
VISUALSTYLE
  5
30
102
{ACAD_REACTORS
330
2A
102
}
330
2A
100
AcDbVisualStyle
  2
Wireframe
 70
     5
177
     3
291
     0
 70
    58
 90
        0
176
     1
 90
        2
176
     1
 90
        0
176
     1
 90
        0
176
     1
 40
0.6
176
     1
 40
30.0
176
     1
 62
     7
420
 16777215
176
     1
 90
        1
176
     1
 90
        4
176
     1
 62
     7
176
     1
 62
   257
176
     1
 90
        1
176
     1
 90
        1
176
     1
 40
1.0
176
     1
 90
        0
176
     1
 62
   257
176
     1
 40
1.0
176
     1
 90
        1
176
     1
 90
        6
176
     1
 90
        2
176
     1
 62
     7
176
     1
 90
        3
176
     1
 90
        0
176
     1
 90
        0
176
     1
290
     0
176
     1
 90
        1
176
     1
 40
0.0
176
     1
 90
        0
176
     1
290
     0
176
     1
290
     1
176
     1
290
     1
176
     1
290
     0
176
     1
290
     0
176
     1
290
     0
176
     1
290
     0
176
     1
290
     0
176
     1
290
     0
176
     1
 90
       50
176
     1
 40
0.0
176
     1
 40
1.0
176
     1
 90
        0
176
     1
 62
    18
420
        0
176
     1
 90
       50
176
     1
 90
        3
176
     1
 62
     5
420
      255
176
     1
290
     0
176
     1
 90
       50
176
     1
 90
       50
176
     1
 90
       50
176
     1
290
     0
176
     1
 90
       50
176
     1
 62
   256
176
     0
 40
1.0
176
     0
 90
        2
176
     1
  1
strokes_ogs.tif
176
     1
290
     0
176
     1
 40
1.0
176
     1
 40
1.0
176
     1
  0
VISUALSTYLE
  5
40
102
{ACAD_REACTORS
330
2A
102
}
330
2A
100
AcDbVisualStyle
  2
X-Ray
 70
    25
177
     3
291
     0
 70
    58
 90
        2
176
     1
 90
        2
176
     1
 90
        1
176
     1
 90
        1
176
     1
 40
0.5
176
     1
 40
30.0
176
     1
 62
     7
420
 16777215
176
     1
 90
        1
176
     1
 90
        0
176
     1
 62
     7
176
     1
 62
   257
176
     1
 90
        1
176
     1
 90
        1
176
     1
 40
1.0
176
     1
 90
        8
176
     1
 62
     7
176
     1
 40
1.0
176
     1
 90
        1
176
     1
 90
        6
176
     1
 90
        2
176
     1
 62
     7
176
     1
 90
        3
176
     1
 90
        0
176
     1
 90
        0
176
     1
290
     0
176
     1
 90
       13
176
     1
 40
0.0
176
     1
 90
        0
176
     1
290
     0
176
     1
290
     1
176
     1
290
     1
176
     1
290
     0
176
     1
290
     0
176
     1
290
     0
176
     1
290
     0
176
     1
290
     0
176
     1
290
     0
176
     1
 90
       50
176
     1
 40
0.0
176
     1
 40
1.0
176
     1
 90
        0
176
     1
 62
    18
420
        0
176
     1
 90
       50
176
     1
 90
        3
176
     1
 62
     5
420
      255
176
     1
290
     0
176
     1
 90
       50
176
     1
 90
       50
176
     1
 90
       50
176
     1
290
     0
176
     1
 90
       50
176
     1
 62
   256
176
     0
 40
1.0
176
     0
 90
        2
176
     1
  1
strokes_ogs.tif
176
     1
290
     0
176
     1
 40
1.0
176
     1
 40
1.0
176
     1
  0
DICTIONARYVAR
  5
81
102
{ACAD_REACTORS
330
80
102
}
330
80
100
DictionaryVariables
280
     0
  1
1:1
  0
DICTIONARYVAR
  5
89
102
{ACAD_REACTORS
330
80
102
}
330
80
100
DictionaryVariables
280
     0
  1
3.500000
  0
DICTIONARYVAR
  5
8A
102
{ACAD_REACTORS
330
80
102
}
330
80
100
DictionaryVariables
280
     0
  1
acadiso.lin
  0
DICTIONARYVAR
  5
86
102
{ACAD_REACTORS
330
80
102
}
330
80
100
DictionaryVariables
280
     0
  1
Standard
  0
DICTIONARYVAR
  5
85
102
{ACAD_REACTORS
330
80
102
}
330
80
100
DictionaryVariables
280
     0
  1
Standard
  0
DICTIONARY
  5
82
330
5A
100
AcDbDictionary
280
     1
281
     1
  3
ACAD_ROUNDTRIP_2008_TABLESTYLE_CELLSTYLEMAP
360
83
  0
CELLSTYLEMAP
  5
83
102
{ACAD_REACTORS
330
82
102
}
330
82
100
AcDbCellStyleMap
 90
        3
300
CELLSTYLE
  1
TABLEFORMAT_BEGIN
 90
        5
170
     1
 91
        0
 92
    32768
 62
   257
 93
        1
300
CONTENTFORMAT
  1
CONTENTFORMAT_BEGIN
 90
        0
 91
        0
 92
        4
 93
        0
300

 40
0.0
140
1.0
 94
        5
 62
     0
340
11
144
6.0
309
CONTENTFORMAT_END
171
     1
301
MARGIN
  1
CELLMARGIN_BEGIN
 40
1.5
 40
1.5
 40
1.5
 40
1.5
 40
1.5
 40
1.5
309
CELLMARGIN_END
 94
        6
 95
        1
302
GRIDFORMAT
  1
GRIDFORMAT_BEGIN
 90
        0
 91
        1
 62
     0
 92
       -2
340
14
 93
        0
 40
0.045
309
GRIDFORMAT_END
 95
        2
302
GRIDFORMAT
  1
GRIDFORMAT_BEGIN
 90
        0
 91
        1
 62
     0
 92
       -2
340
14
 93
        0
 40
0.045
309
GRIDFORMAT_END
 95
        4
302
GRIDFORMAT
  1
GRIDFORMAT_BEGIN
 90
        0
 91
        1
 62
     0
 92
       -2
340
14
 93
        0
 40
0.045
309
GRIDFORMAT_END
 95
        8
302
GRIDFORMAT
  1
GRIDFORMAT_BEGIN
 90
        0
 91
        1
 62
     0
 92
       -2
340
14
 93
        0
 40
0.045
309
GRIDFORMAT_END
 95
       16
302
GRIDFORMAT
  1
GRIDFORMAT_BEGIN
 90
        0
 91
        1
 62
     0
 92
       -2
340
14
 93
        0
 40
0.045
309
GRIDFORMAT_END
 95
       32
302
GRIDFORMAT
  1
GRIDFORMAT_BEGIN
 90
        0
 91
        1
 62
     0
 92
       -2
340
14
 93
        0
 40
0.045
309
GRIDFORMAT_END
309
TABLEFORMAT_END
  1
CELLSTYLE_BEGIN
 90
        1
 91
        1
300
_TITLE
309
CELLSTYLE_END
300
CELLSTYLE
  1
TABLEFORMAT_BEGIN
 90
        5
170
     1
 91
        0
 92
        0
 62
   257
 93
        1
300
CONTENTFORMAT
  1
CONTENTFORMAT_BEGIN
 90
        0
 91
        0
 92
        4
 93
        0
300

 40
0.0
140
1.0
 94
        5
 62
     0
340
11
144
4.5
309
CONTENTFORMAT_END
171
     1
301
MARGIN
  1
CELLMARGIN_BEGIN
 40
1.5
 40
1.5
 40
1.5
 40
1.5
 40
1.5
 40
1.5
309
CELLMARGIN_END
 94
        6
 95
        1
302
GRIDFORMAT
  1
GRIDFORMAT_BEGIN
 90
        0
 91
        1
 62
     0
 92
       -2
340
14
 93
        0
 40
0.045
309
GRIDFORMAT_END
 95
        2
302
GRIDFORMAT
  1
GRIDFORMAT_BEGIN
 90
        0
 91
        1
 62
     0
 92
       -2
340
14
 93
        0
 40
0.045
309
GRIDFORMAT_END
 95
        4
302
GRIDFORMAT
  1
GRIDFORMAT_BEGIN
 90
        0
 91
        1
 62
     0
 92
       -2
340
14
 93
        0
 40
0.045
309
GRIDFORMAT_END
 95
        8
302
GRIDFORMAT
  1
GRIDFORMAT_BEGIN
 90
        0
 91
        1
 62
     0
 92
       -2
340
14
 93
        0
 40
0.045
309
GRIDFORMAT_END
 95
       16
302
GRIDFORMAT
  1
GRIDFORMAT_BEGIN
 90
        0
 91
        1
 62
     0
 92
       -2
340
14
 93
        0
 40
0.045
309
GRIDFORMAT_END
 95
       32
302
GRIDFORMAT
  1
GRIDFORMAT_BEGIN
 90
        0
 91
        1
 62
     0
 92
       -2
340
14
 93
        0
 40
0.045
309
GRIDFORMAT_END
309
TABLEFORMAT_END
  1
CELLSTYLE_BEGIN
 90
        2
 91
        1
300
_HEADER
309
CELLSTYLE_END
300
CELLSTYLE
  1
TABLEFORMAT_BEGIN
 90
        5
170
     1
 91
        0
 92
        0
 62
   257
 93
        1
300
CONTENTFORMAT
  1
CONTENTFORMAT_BEGIN
 90
        0
 91
        0
 92
        4
 93
        0
300

 40
0.0
140
1.0
 94
        2
 62
     0
340
11
144
4.5
309
CONTENTFORMAT_END
171
     1
301
MARGIN
  1
CELLMARGIN_BEGIN
 40
1.5
 40
1.5
 40
1.5
 40
1.5
 40
1.5
 40
1.5
309
CELLMARGIN_END
 94
        6
 95
        1
302
GRIDFORMAT
  1
GRIDFORMAT_BEGIN
 90
        0
 91
        1
 62
     0
 92
       -2
340
14
 93
        0
 40
0.045
309
GRIDFORMAT_END
 95
        2
302
GRIDFORMAT
  1
GRIDFORMAT_BEGIN
 90
        0
 91
        1
 62
     0
 92
       -2
340
14
 93
        0
 40
0.045
309
GRIDFORMAT_END
 95
        4
302
GRIDFORMAT
  1
GRIDFORMAT_BEGIN
 90
        0
 91
        1
 62
     0
 92
       -2
340
14
 93
        0
 40
0.045
309
GRIDFORMAT_END
 95
        8
302
GRIDFORMAT
  1
GRIDFORMAT_BEGIN
 90
        0
 91
        1
 62
     0
 92
       -2
340
14
 93
        0
 40
0.045
309
GRIDFORMAT_END
 95
       16
302
GRIDFORMAT
  1
GRIDFORMAT_BEGIN
 90
        0
 91
        1
 62
     0
 92
       -2
340
14
 93
        0
 40
0.045
309
GRIDFORMAT_END
 95
       32
302
GRIDFORMAT
  1
GRIDFORMAT_BEGIN
 90
        0
 91
        1
 62
     0
 92
       -2
340
14
 93
        0
 40
0.045
309
GRIDFORMAT_END
309
TABLEFORMAT_END
  1
CELLSTYLE_BEGIN
 90
        3
 91
        2
300
_DATA
309
CELLSTYLE_END
  0
ENDSEC
  0
EOF
